%TF.GenerationSoftware,KiCad,Pcbnew,4.0.7*%
%TF.CreationDate,2018-01-16T14:15:25+08:00*%
%TF.ProjectId,STM32F401CCT6,53544D333246343031434354362E6B69,rev?*%
%TF.FileFunction,Paste,Top*%
%FSLAX46Y46*%
G04 Gerber Fmt 4.6, Leading zero omitted, Abs format (unit mm)*
G04 Created by KiCad (PCBNEW 4.0.7) date 01/16/18 14:15:25*
%MOMM*%
%LPD*%
G01*
G04 APERTURE LIST*
%ADD10C,0.100000*%
%ADD11R,1.900000X1.300000*%
%ADD12R,1.700000X1.000000*%
%ADD13R,1.200000X1.200000*%
%ADD14R,1.900000X1.500000*%
%ADD15R,1.350000X0.400000*%
G04 APERTURE END LIST*
D10*
D11*
X36822000Y-9292000D03*
X36822000Y-14792000D03*
X40022000Y-14792000D03*
X40022000Y-9292000D03*
D10*
G36*
X27348435Y-11608715D02*
X28585871Y-12846151D01*
X28373739Y-13058283D01*
X27136303Y-11820847D01*
X27348435Y-11608715D01*
X27348435Y-11608715D01*
G37*
G36*
X26994882Y-11962268D02*
X28232318Y-13199704D01*
X28020186Y-13411836D01*
X26782750Y-12174400D01*
X26994882Y-11962268D01*
X26994882Y-11962268D01*
G37*
G36*
X26641328Y-12315822D02*
X27878764Y-13553258D01*
X27666632Y-13765390D01*
X26429196Y-12527954D01*
X26641328Y-12315822D01*
X26641328Y-12315822D01*
G37*
G36*
X26287775Y-12669375D02*
X27525211Y-13906811D01*
X27313079Y-14118943D01*
X26075643Y-12881507D01*
X26287775Y-12669375D01*
X26287775Y-12669375D01*
G37*
G36*
X25934222Y-13022928D02*
X27171658Y-14260364D01*
X26959526Y-14472496D01*
X25722090Y-13235060D01*
X25934222Y-13022928D01*
X25934222Y-13022928D01*
G37*
G36*
X26605972Y-14826050D02*
X25368536Y-13588614D01*
X25580668Y-13376482D01*
X26818104Y-14613918D01*
X26605972Y-14826050D01*
X26605972Y-14826050D01*
G37*
G36*
X25227115Y-13730035D02*
X26464551Y-14967471D01*
X26252419Y-15179603D01*
X25014983Y-13942167D01*
X25227115Y-13730035D01*
X25227115Y-13730035D01*
G37*
G36*
X24873561Y-14083589D02*
X26110997Y-15321025D01*
X25898865Y-15533157D01*
X24661429Y-14295721D01*
X24873561Y-14083589D01*
X24873561Y-14083589D01*
G37*
G36*
X24520008Y-14437142D02*
X25757444Y-15674578D01*
X25545312Y-15886710D01*
X24307876Y-14649274D01*
X24520008Y-14437142D01*
X24520008Y-14437142D01*
G37*
G36*
X24166455Y-14790695D02*
X25403891Y-16028131D01*
X25191759Y-16240263D01*
X23954323Y-15002827D01*
X24166455Y-14790695D01*
X24166455Y-14790695D01*
G37*
G36*
X23812901Y-15144249D02*
X25050337Y-16381685D01*
X24838205Y-16593817D01*
X23600769Y-15356381D01*
X23812901Y-15144249D01*
X23812901Y-15144249D01*
G37*
G36*
X23459348Y-15497802D02*
X24696784Y-16735238D01*
X24484652Y-16947370D01*
X23247216Y-15709934D01*
X23459348Y-15497802D01*
X23459348Y-15497802D01*
G37*
G36*
X25014983Y-8992419D02*
X26252419Y-7754983D01*
X26464551Y-7967115D01*
X25227115Y-9204551D01*
X25014983Y-8992419D01*
X25014983Y-8992419D01*
G37*
G36*
X25368536Y-9345972D02*
X26605972Y-8108536D01*
X26818104Y-8320668D01*
X25580668Y-9558104D01*
X25368536Y-9345972D01*
X25368536Y-9345972D01*
G37*
G36*
X25722090Y-9699526D02*
X26959526Y-8462090D01*
X27171658Y-8674222D01*
X25934222Y-9911658D01*
X25722090Y-9699526D01*
X25722090Y-9699526D01*
G37*
G36*
X26075643Y-10053079D02*
X27313079Y-8815643D01*
X27525211Y-9027775D01*
X26287775Y-10265211D01*
X26075643Y-10053079D01*
X26075643Y-10053079D01*
G37*
G36*
X26429196Y-10406632D02*
X27666632Y-9169196D01*
X27878764Y-9381328D01*
X26641328Y-10618764D01*
X26429196Y-10406632D01*
X26429196Y-10406632D01*
G37*
G36*
X26782750Y-10760186D02*
X28020186Y-9522750D01*
X28232318Y-9734882D01*
X26994882Y-10972318D01*
X26782750Y-10760186D01*
X26782750Y-10760186D01*
G37*
G36*
X24661429Y-8638865D02*
X25898865Y-7401429D01*
X26110997Y-7613561D01*
X24873561Y-8850997D01*
X24661429Y-8638865D01*
X24661429Y-8638865D01*
G37*
G36*
X27136303Y-11113739D02*
X28373739Y-9876303D01*
X28585871Y-10088435D01*
X27348435Y-11325871D01*
X27136303Y-11113739D01*
X27136303Y-11113739D01*
G37*
G36*
X24307876Y-8285312D02*
X25545312Y-7047876D01*
X25757444Y-7260008D01*
X24520008Y-8497444D01*
X24307876Y-8285312D01*
X24307876Y-8285312D01*
G37*
G36*
X23954323Y-7931759D02*
X25191759Y-6694323D01*
X25403891Y-6906455D01*
X24166455Y-8143891D01*
X23954323Y-7931759D01*
X23954323Y-7931759D01*
G37*
G36*
X23600769Y-7578205D02*
X24838205Y-6340769D01*
X25050337Y-6552901D01*
X23812901Y-7790337D01*
X23600769Y-7578205D01*
X23600769Y-7578205D01*
G37*
G36*
X23247216Y-7224652D02*
X24484652Y-5987216D01*
X24696784Y-6199348D01*
X23459348Y-7436784D01*
X23247216Y-7224652D01*
X23247216Y-7224652D01*
G37*
G36*
X19605616Y-8108536D02*
X20843052Y-9345972D01*
X20630920Y-9558104D01*
X19393484Y-8320668D01*
X19605616Y-8108536D01*
X19605616Y-8108536D01*
G37*
G36*
X19959169Y-7754983D02*
X21196605Y-8992419D01*
X20984473Y-9204551D01*
X19747037Y-7967115D01*
X19959169Y-7754983D01*
X19959169Y-7754983D01*
G37*
G36*
X20312723Y-7401429D02*
X21550159Y-8638865D01*
X21338027Y-8850997D01*
X20100591Y-7613561D01*
X20312723Y-7401429D01*
X20312723Y-7401429D01*
G37*
G36*
X20666276Y-7047876D02*
X21903712Y-8285312D01*
X21691580Y-8497444D01*
X20454144Y-7260008D01*
X20666276Y-7047876D01*
X20666276Y-7047876D01*
G37*
G36*
X21019829Y-6694323D02*
X22257265Y-7931759D01*
X22045133Y-8143891D01*
X20807697Y-6906455D01*
X21019829Y-6694323D01*
X21019829Y-6694323D01*
G37*
G36*
X21373383Y-6340769D02*
X22610819Y-7578205D01*
X22398687Y-7790337D01*
X21161251Y-6552901D01*
X21373383Y-6340769D01*
X21373383Y-6340769D01*
G37*
G36*
X21726936Y-5987216D02*
X22964372Y-7224652D01*
X22752240Y-7436784D01*
X21514804Y-6199348D01*
X21726936Y-5987216D01*
X21726936Y-5987216D01*
G37*
G36*
X19252062Y-8462090D02*
X20489498Y-9699526D01*
X20277366Y-9911658D01*
X19039930Y-8674222D01*
X19252062Y-8462090D01*
X19252062Y-8462090D01*
G37*
G36*
X18898509Y-8815643D02*
X20135945Y-10053079D01*
X19923813Y-10265211D01*
X18686377Y-9027775D01*
X18898509Y-8815643D01*
X18898509Y-8815643D01*
G37*
G36*
X18544956Y-9169196D02*
X19782392Y-10406632D01*
X19570260Y-10618764D01*
X18332824Y-9381328D01*
X18544956Y-9169196D01*
X18544956Y-9169196D01*
G37*
G36*
X18191402Y-9522750D02*
X19428838Y-10760186D01*
X19216706Y-10972318D01*
X17979270Y-9734882D01*
X18191402Y-9522750D01*
X18191402Y-9522750D01*
G37*
G36*
X17837849Y-9876303D02*
X19075285Y-11113739D01*
X18863153Y-11325871D01*
X17625717Y-10088435D01*
X17837849Y-9876303D01*
X17837849Y-9876303D01*
G37*
G36*
X19747037Y-14967471D02*
X20984473Y-13730035D01*
X21196605Y-13942167D01*
X19959169Y-15179603D01*
X19747037Y-14967471D01*
X19747037Y-14967471D01*
G37*
G36*
X19393484Y-14613918D02*
X20630920Y-13376482D01*
X20843052Y-13588614D01*
X19605616Y-14826050D01*
X19393484Y-14613918D01*
X19393484Y-14613918D01*
G37*
G36*
X20100591Y-15321025D02*
X21338027Y-14083589D01*
X21550159Y-14295721D01*
X20312723Y-15533157D01*
X20100591Y-15321025D01*
X20100591Y-15321025D01*
G37*
G36*
X20454144Y-15674578D02*
X21691580Y-14437142D01*
X21903712Y-14649274D01*
X20666276Y-15886710D01*
X20454144Y-15674578D01*
X20454144Y-15674578D01*
G37*
G36*
X20807697Y-16028131D02*
X22045133Y-14790695D01*
X22257265Y-15002827D01*
X21019829Y-16240263D01*
X20807697Y-16028131D01*
X20807697Y-16028131D01*
G37*
G36*
X21161251Y-16381685D02*
X22398687Y-15144249D01*
X22610819Y-15356381D01*
X21373383Y-16593817D01*
X21161251Y-16381685D01*
X21161251Y-16381685D01*
G37*
G36*
X21514804Y-16735238D02*
X22752240Y-15497802D01*
X22964372Y-15709934D01*
X21726936Y-16947370D01*
X21514804Y-16735238D01*
X21514804Y-16735238D01*
G37*
G36*
X19039930Y-14260364D02*
X20277366Y-13022928D01*
X20489498Y-13235060D01*
X19252062Y-14472496D01*
X19039930Y-14260364D01*
X19039930Y-14260364D01*
G37*
G36*
X18686377Y-13906811D02*
X19923813Y-12669375D01*
X20135945Y-12881507D01*
X18898509Y-14118943D01*
X18686377Y-13906811D01*
X18686377Y-13906811D01*
G37*
G36*
X18332824Y-13553258D02*
X19570260Y-12315822D01*
X19782392Y-12527954D01*
X18544956Y-13765390D01*
X18332824Y-13553258D01*
X18332824Y-13553258D01*
G37*
G36*
X17979270Y-13199704D02*
X19216706Y-11962268D01*
X19428838Y-12174400D01*
X18191402Y-13411836D01*
X17979270Y-13199704D01*
X17979270Y-13199704D01*
G37*
G36*
X17625717Y-12846151D02*
X18863153Y-11608715D01*
X19075285Y-11820847D01*
X17837849Y-13058283D01*
X17625717Y-12846151D01*
X17625717Y-12846151D01*
G37*
D12*
X8462000Y-6282000D03*
X14762000Y-6282000D03*
X8462000Y-10082000D03*
X14762000Y-10082000D03*
D13*
X43332000Y-7632000D03*
X43332000Y-9832000D03*
X43332000Y-13062000D03*
X43332000Y-15262000D03*
D14*
X1950000Y-12300000D03*
D15*
X4650000Y-10650000D03*
X4650000Y-10000000D03*
X4650000Y-12600000D03*
X4650000Y-11950000D03*
X4650000Y-11300000D03*
D14*
X1950000Y-10300000D03*
M02*
