%TF.GenerationSoftware,KiCad,Pcbnew,4.0.7*%
%TF.CreationDate,2018-01-16T14:15:25+08:00*%
%TF.ProjectId,STM32F401CCT6,53544D333246343031434354362E6B69,rev?*%
%TF.FileFunction,Copper,L2,Bot,Signal*%
%FSLAX46Y46*%
G04 Gerber Fmt 4.6, Leading zero omitted, Abs format (unit mm)*
G04 Created by KiCad (PCBNEW 4.0.7) date 01/16/18 14:15:25*
%MOMM*%
%LPD*%
G01*
G04 APERTURE LIST*
%ADD10C,0.100000*%
%ADD11C,0.250000*%
%ADD12C,1.500000*%
%ADD13R,1.700000X1.700000*%
%ADD14O,1.700000X1.700000*%
%ADD15R,0.500000X0.900000*%
%ADD16R,0.800000X0.750000*%
%ADD17R,0.750000X0.800000*%
%ADD18R,0.900000X0.500000*%
%ADD19R,1.060000X0.650000*%
%ADD20C,1.450000*%
%ADD21O,1.900000X1.200000*%
%ADD22C,0.453000*%
%ADD23C,0.400000*%
%ADD24C,0.500000*%
%ADD25C,0.300000*%
%ADD26C,0.254000*%
G04 APERTURE END LIST*
D10*
D11*
X44574381Y-6288191D02*
X45574381Y-6621524D01*
X44574381Y-6954858D01*
X45479143Y-7288191D02*
X45526762Y-7335810D01*
X45574381Y-7288191D01*
X45526762Y-7240572D01*
X45479143Y-7288191D01*
X45574381Y-7288191D01*
X44574381Y-7954857D02*
X44574381Y-8050096D01*
X44622000Y-8145334D01*
X44669619Y-8192953D01*
X44764857Y-8240572D01*
X44955333Y-8288191D01*
X45193429Y-8288191D01*
X45383905Y-8240572D01*
X45479143Y-8192953D01*
X45526762Y-8145334D01*
X45574381Y-8050096D01*
X45574381Y-7954857D01*
X45526762Y-7859619D01*
X45479143Y-7812000D01*
X45383905Y-7764381D01*
X45193429Y-7716762D01*
X44955333Y-7716762D01*
X44764857Y-7764381D01*
X44669619Y-7812000D01*
X44622000Y-7859619D01*
X44574381Y-7954857D01*
X45574381Y-9240572D02*
X45574381Y-8669143D01*
X45574381Y-8954857D02*
X44574381Y-8954857D01*
X44717238Y-8859619D01*
X44812476Y-8764381D01*
X44860095Y-8669143D01*
D12*
X32222000Y-14222000D03*
X32222000Y-9342000D03*
D13*
X47772000Y-6482000D03*
D14*
X47772000Y-9022000D03*
X47772000Y-11562000D03*
X47772000Y-14102000D03*
X47772000Y-16642000D03*
D15*
X2250000Y-16550000D03*
X3750000Y-16550000D03*
D16*
X31402000Y-12262000D03*
X32902000Y-12262000D03*
D17*
X34542000Y-13792000D03*
X34542000Y-15292000D03*
X45102000Y-15342000D03*
X45102000Y-13842000D03*
D16*
X6482000Y-6472000D03*
X4982000Y-6472000D03*
X15962000Y-6532000D03*
X17462000Y-6532000D03*
D18*
X16912000Y-13752000D03*
X16912000Y-15252000D03*
D17*
X18592000Y-15242000D03*
X18592000Y-13742000D03*
X20232000Y-13752000D03*
X20232000Y-15252000D03*
D19*
X22002000Y-15382000D03*
X22002000Y-14432000D03*
X22002000Y-13482000D03*
X24202000Y-13482000D03*
X24202000Y-15382000D03*
D17*
X26282000Y-13722000D03*
X26282000Y-15222000D03*
X28022000Y-13732000D03*
X28022000Y-15232000D03*
D18*
X30012000Y-13752000D03*
X30012000Y-15252000D03*
X40192000Y-13812000D03*
X40192000Y-15312000D03*
D17*
X43452000Y-15322000D03*
X43452000Y-13822000D03*
D18*
X41240000Y-8700000D03*
X41240000Y-10200000D03*
D17*
X37502000Y-10072000D03*
X37502000Y-8572000D03*
X35602000Y-8552000D03*
X35602000Y-10052000D03*
X33872000Y-8552000D03*
X33872000Y-10052000D03*
D18*
X30082000Y-10092000D03*
X30082000Y-8592000D03*
D17*
X27772000Y-10052000D03*
X27772000Y-8552000D03*
X20592000Y-10042000D03*
X20592000Y-8542000D03*
X25892000Y-10042000D03*
X25892000Y-8542000D03*
X22322000Y-10062000D03*
X22322000Y-8562000D03*
X24202000Y-10032000D03*
X24202000Y-8532000D03*
D18*
X18772000Y-8522000D03*
X18772000Y-10022000D03*
D15*
X13120000Y-6510000D03*
X11620000Y-6510000D03*
D19*
X13882000Y-8462000D03*
X13882000Y-9412000D03*
X13882000Y-10362000D03*
X11682000Y-10362000D03*
X11682000Y-8462000D03*
X11682000Y-9412000D03*
D15*
X9452000Y-10152000D03*
X7952000Y-10152000D03*
X9452000Y-8242000D03*
X7952000Y-8242000D03*
D18*
X2162000Y-10692000D03*
X2162000Y-12192000D03*
D13*
X50152000Y-19182000D03*
D14*
X47612000Y-19182000D03*
X45072000Y-19182000D03*
X42532000Y-19182000D03*
X39992000Y-19182000D03*
X37452000Y-19182000D03*
X34912000Y-19182000D03*
X32372000Y-19182000D03*
X29832000Y-19182000D03*
X27292000Y-19182000D03*
X24752000Y-19182000D03*
X22212000Y-19182000D03*
X19672000Y-19182000D03*
X17132000Y-19182000D03*
X14592000Y-19182000D03*
X12052000Y-19182000D03*
X9512000Y-19182000D03*
X6972000Y-19182000D03*
X4432000Y-19182000D03*
X1892000Y-19182000D03*
D13*
X50152000Y-3682000D03*
D14*
X47612000Y-3682000D03*
X45072000Y-3682000D03*
X42532000Y-3682000D03*
X39992000Y-3682000D03*
X37452000Y-3682000D03*
X34912000Y-3682000D03*
X32372000Y-3682000D03*
X29832000Y-3682000D03*
X27292000Y-3682000D03*
X24752000Y-3682000D03*
X22212000Y-3682000D03*
X19672000Y-3682000D03*
X17132000Y-3682000D03*
X14592000Y-3682000D03*
X12052000Y-3682000D03*
X9512000Y-3682000D03*
X6972000Y-3682000D03*
X4432000Y-3682000D03*
X1892000Y-3682000D03*
D13*
X14110000Y-13080000D03*
D14*
X14110000Y-15620000D03*
X11570000Y-13080000D03*
X11570000Y-15620000D03*
X9030000Y-13080000D03*
X9030000Y-15620000D03*
D17*
X39362000Y-10072000D03*
X39362000Y-8572000D03*
D20*
X4650000Y-8800000D03*
X4650000Y-13800000D03*
D21*
X1950000Y-7800000D03*
X1950000Y-14800000D03*
D22*
X22590000Y-20480000D03*
X4978642Y-16975358D03*
X6570000Y-15250000D03*
X6340000Y-10420000D03*
X11492000Y-7402000D03*
X33870000Y-12560000D03*
X20838457Y-16989442D03*
X26588588Y-6909077D03*
X6670448Y-12212992D03*
X9360000Y-7270000D03*
X29030000Y-12270000D03*
X15027782Y-9037708D03*
X17452000Y-9202000D03*
X29015525Y-13418475D03*
X32242000Y-8122000D03*
X6502000Y-5382000D03*
X21462000Y-9712000D03*
X23082000Y-11297010D03*
X23572000Y-10972000D03*
X22632000Y-11032000D03*
X30302000Y-11072000D03*
X49870000Y-7710000D03*
X27800000Y-6908502D03*
X16953502Y-11052880D03*
X49860000Y-5090000D03*
X38412000Y-8562000D03*
X40283765Y-5933765D03*
X38440000Y-9260000D03*
X39415637Y-5942266D03*
X28687278Y-7758528D03*
X28671321Y-7095929D03*
X41470000Y-9480000D03*
X41270499Y-13199915D03*
X10302000Y-10820499D03*
X17510000Y-11810000D03*
X17682000Y-16150500D03*
X16242233Y-17582233D03*
X42062000Y-5672000D03*
X23320000Y-5870009D03*
X22270000Y-5780000D03*
X20572000Y-6132000D03*
X24876565Y-17206504D03*
X25252000Y-17832000D03*
X19701956Y-17305509D03*
X18976246Y-16716246D03*
X29932000Y-16132000D03*
X17502000Y-7442000D03*
X7001522Y-10963120D03*
X3400000Y-12250000D03*
X7079495Y-11673617D03*
X15360000Y-5230000D03*
X1372000Y-16812000D03*
X20871991Y-19857000D03*
X10772000Y-21212000D03*
X10792000Y-19789009D03*
X10812000Y-17472000D03*
X26043686Y-6549227D03*
X49203895Y-7744652D03*
X29202000Y-6642000D03*
X17403613Y-10579794D03*
X24039145Y-17268683D03*
X29922000Y-14492000D03*
X44272000Y-11932000D03*
D23*
X22266181Y-20483500D02*
X22269681Y-20480000D01*
X18812000Y-20483500D02*
X22266181Y-20483500D01*
X22269681Y-20480000D02*
X22590000Y-20480000D01*
X6570000Y-15250000D02*
X8242000Y-16922000D01*
X10330492Y-20483508D02*
X10332000Y-20482000D01*
X10333508Y-20483508D02*
X18080492Y-20483508D01*
X8242000Y-16922000D02*
X8242000Y-19761988D01*
X10332000Y-20482000D02*
X10333508Y-20483508D01*
X8242000Y-19761988D02*
X8963520Y-20483508D01*
X8963520Y-20483508D02*
X10330492Y-20483508D01*
X22002000Y-15382000D02*
X22002000Y-16889209D01*
X22002000Y-16889209D02*
X20959200Y-17932009D01*
X18402000Y-18602012D02*
X18402000Y-20162000D01*
X20959200Y-17932009D02*
X19072003Y-17932009D01*
X19072003Y-17932009D02*
X18402000Y-18602012D01*
X18402000Y-20162000D02*
X18382000Y-20182000D01*
D11*
X3742000Y-16362000D02*
X4365284Y-16362000D01*
X4365284Y-16362000D02*
X4978642Y-16975358D01*
D23*
X18503516Y-20483500D02*
X18812000Y-20483500D01*
X18812000Y-20483500D02*
X18683500Y-20483500D01*
X18683500Y-20483500D02*
X18382000Y-20182000D01*
X18080492Y-20483508D02*
X18503508Y-20483508D01*
X18503508Y-20483508D02*
X18503516Y-20483500D01*
X18080492Y-20483508D02*
X18382000Y-20182000D01*
X6570000Y-15250000D02*
X6000000Y-14680000D01*
X18382000Y-20182000D02*
X18382000Y-20205508D01*
X18382000Y-20182000D02*
X18382000Y-20191508D01*
X18382000Y-20182000D02*
X18382000Y-20322000D01*
X20072000Y-15252000D02*
X21872000Y-15252000D01*
X21872000Y-15252000D02*
X22002000Y-15382000D01*
D11*
X22002000Y-15957000D02*
X22002000Y-15382000D01*
D23*
X6113501Y-10646499D02*
X6340000Y-10420000D01*
X6000000Y-14680000D02*
X6000000Y-10760000D01*
X6000000Y-10760000D02*
X6113501Y-10646499D01*
D24*
X6482000Y-6472000D02*
X6482000Y-6778000D01*
X6482000Y-6778000D02*
X4650000Y-8610000D01*
D11*
X6482000Y-6472000D02*
X6422000Y-6472000D01*
X4660000Y-8234000D02*
X4660000Y-8610000D01*
X4660000Y-8610000D02*
X4650000Y-8610000D01*
D24*
X47612000Y-19182000D02*
X45102000Y-16672000D01*
X45102000Y-16672000D02*
X45102000Y-15342000D01*
X43452000Y-15322000D02*
X45082000Y-15322000D01*
X45082000Y-15322000D02*
X45102000Y-15342000D01*
D11*
X9360000Y-7270000D02*
X9472000Y-7382000D01*
X11502000Y-7402000D02*
X11492000Y-7402000D01*
X9472000Y-7382000D02*
X11482000Y-7382000D01*
X11482000Y-7382000D02*
X11502000Y-7402000D01*
D23*
X34096499Y-12786499D02*
X33870000Y-12560000D01*
X34532000Y-13222000D02*
X34096499Y-12786499D01*
X34532000Y-13732000D02*
X34532000Y-13222000D01*
X20314458Y-16989442D02*
X20518138Y-16989442D01*
X18577016Y-15252000D02*
X20314458Y-16989442D01*
X20518138Y-16989442D02*
X20838457Y-16989442D01*
X33872000Y-8552000D02*
X33872000Y-8532000D01*
X33872000Y-8532000D02*
X33462000Y-8122000D01*
X32562319Y-8122000D02*
X32242000Y-8122000D01*
X33462000Y-8122000D02*
X32562319Y-8122000D01*
X26812000Y-10042000D02*
X26812000Y-7142000D01*
X26812000Y-7142000D02*
X26588588Y-6918588D01*
X26588588Y-6918588D02*
X26588588Y-6909077D01*
X27640657Y-5857008D02*
X26815087Y-6682578D01*
X33621991Y-3082003D02*
X33621991Y-4568009D01*
X32811988Y-2272000D02*
X33621991Y-3082003D01*
X26815087Y-6682578D02*
X26588588Y-6909077D01*
X33621991Y-4568009D02*
X32332992Y-5857008D01*
X32332992Y-5857008D02*
X27640657Y-5857008D01*
X18742000Y-2272000D02*
X32811988Y-2272000D01*
D24*
X6896947Y-12439491D02*
X6670448Y-12212992D01*
X9030000Y-13080000D02*
X7537456Y-13080000D01*
X7537456Y-13080000D02*
X6896947Y-12439491D01*
X29038000Y-12262000D02*
X29030000Y-12270000D01*
X31402000Y-12262000D02*
X29038000Y-12262000D01*
X41242000Y-8602000D02*
X41242000Y-8628000D01*
X41242000Y-8628000D02*
X39798000Y-10072000D01*
X39798000Y-10072000D02*
X39362000Y-10072000D01*
D23*
X18382000Y-2272000D02*
X18032000Y-2272000D01*
X18032000Y-2272000D02*
X5842000Y-2272000D01*
X18382000Y-2632000D02*
X18382000Y-2622000D01*
X18382000Y-2622000D02*
X18032000Y-2272000D01*
X18382000Y-2632000D02*
X18382000Y-2272000D01*
X18382000Y-5562000D02*
X18382000Y-2632000D01*
X18382000Y-2272000D02*
X18742000Y-2272000D01*
X18382000Y-2632000D02*
X18742000Y-2272000D01*
D11*
X13882000Y-9412000D02*
X14653490Y-9412000D01*
X14653490Y-9412000D02*
X15027782Y-9037708D01*
X20592000Y-10042000D02*
X19967000Y-10042000D01*
X19967000Y-10042000D02*
X19127000Y-9202000D01*
X19127000Y-9202000D02*
X17772319Y-9202000D01*
X17772319Y-9202000D02*
X17452000Y-9202000D01*
X17462000Y-6532000D02*
X17487000Y-6532000D01*
D23*
X17462000Y-6532000D02*
X17462000Y-6482000D01*
X17462000Y-6482000D02*
X18382000Y-5562000D01*
D11*
X17702000Y-6772000D02*
X17462000Y-6532000D01*
D24*
X37502000Y-10072000D02*
X39362000Y-10072000D01*
X35602000Y-8552000D02*
X35852000Y-8552000D01*
X37372000Y-10072000D02*
X37502000Y-10072000D01*
X35852000Y-8552000D02*
X37372000Y-10072000D01*
D11*
X43572000Y-15332000D02*
X43572000Y-15357000D01*
D23*
X25892000Y-10042000D02*
X26812000Y-10042000D01*
X26812000Y-10042000D02*
X27762000Y-10042000D01*
X27762000Y-10042000D02*
X27772000Y-10052000D01*
D11*
X13882000Y-9412000D02*
X13488396Y-9412000D01*
D24*
X25892000Y-10042000D02*
X25976984Y-10042000D01*
D23*
X47772000Y-6482000D02*
X47772000Y-6204791D01*
X47772000Y-6204791D02*
X46321991Y-4754782D01*
X46321991Y-4754782D02*
X46321991Y-3082003D01*
X46321991Y-3082003D02*
X45671997Y-2432009D01*
X41932003Y-2432009D02*
X41241991Y-3122021D01*
X45671997Y-2432009D02*
X41932003Y-2432009D01*
X41241991Y-3122021D02*
X41241991Y-8591991D01*
X41241991Y-8591991D02*
X41262000Y-8612000D01*
D11*
X43592000Y-15312000D02*
X43572000Y-15332000D01*
D23*
X20072000Y-13752000D02*
X20112000Y-13792000D01*
X20112000Y-13792000D02*
X20752000Y-13792000D01*
X20752000Y-13792000D02*
X21392000Y-14432000D01*
X21392000Y-14432000D02*
X22002000Y-14432000D01*
X18572000Y-15252000D02*
X20072000Y-13752000D01*
X5842000Y-2272000D02*
X5281999Y-2832001D01*
X5281999Y-2832001D02*
X4432000Y-3682000D01*
X29015525Y-13513475D02*
X29015525Y-13418475D01*
X28022000Y-13732000D02*
X28797000Y-13732000D01*
X28797000Y-13732000D02*
X29015525Y-13513475D01*
D25*
X25892000Y-10042000D02*
X25892000Y-9946984D01*
D24*
X21482000Y-10052000D02*
X20602000Y-10052000D01*
X6482000Y-6472000D02*
X6482000Y-5402000D01*
X6482000Y-5402000D02*
X6502000Y-5382000D01*
X24687000Y-11272000D02*
X23107000Y-11272000D01*
X25882000Y-10077000D02*
X24687000Y-11272000D01*
X23107000Y-11272000D02*
X23082000Y-11247000D01*
X31402000Y-12262000D02*
X31402000Y-12172000D01*
X31402000Y-12172000D02*
X30302000Y-11072000D01*
X25882000Y-10052000D02*
X25882000Y-10077000D01*
X22632000Y-11032000D02*
X22632000Y-10372000D01*
X22632000Y-10372000D02*
X22322000Y-10062000D01*
X23572000Y-10972000D02*
X23572000Y-10612000D01*
X23572000Y-10612000D02*
X24122000Y-10062000D01*
X21482000Y-10052000D02*
X22312000Y-10052000D01*
X21462000Y-9712000D02*
X21462000Y-10032000D01*
X21462000Y-10032000D02*
X21482000Y-10052000D01*
X22312000Y-10052000D02*
X22322000Y-10062000D01*
X24122000Y-10062000D02*
X22322000Y-10062000D01*
X25882000Y-10052000D02*
X24132000Y-10052000D01*
X24132000Y-10052000D02*
X24122000Y-10062000D01*
X26282000Y-13722000D02*
X28012000Y-13722000D01*
X28012000Y-13722000D02*
X28022000Y-13732000D01*
X9030000Y-13080000D02*
X9030000Y-15620000D01*
X33872000Y-8552000D02*
X35602000Y-8552000D01*
D11*
X24661990Y-11297010D02*
X25882000Y-10077000D01*
X22605332Y-10345332D02*
X22322000Y-10062000D01*
X25882000Y-10052000D02*
X25882000Y-9922000D01*
X41232000Y-3213012D02*
X42063010Y-2382002D01*
X33872000Y-8552000D02*
X35582000Y-8552000D01*
X35582000Y-8552000D02*
X35592000Y-8562000D01*
X24202000Y-13482000D02*
X23422000Y-13482000D01*
X23422000Y-13482000D02*
X22762002Y-12822002D01*
X22762002Y-12822002D02*
X19411998Y-12822002D01*
X19411998Y-12822002D02*
X18512000Y-13722000D01*
X18512000Y-13722000D02*
X18512000Y-13742000D01*
X49860000Y-5090000D02*
X49860000Y-7700000D01*
X49860000Y-7700000D02*
X49870000Y-7710000D01*
X27772000Y-6936502D02*
X27800000Y-6908502D01*
X27772000Y-8552000D02*
X27772000Y-6936502D01*
X18772000Y-10022000D02*
X18772000Y-10238000D01*
X17044113Y-11143491D02*
X16953502Y-11052880D01*
X18772000Y-10238000D02*
X17866509Y-11143491D01*
X17866509Y-11143491D02*
X17044113Y-11143491D01*
X27772000Y-8552000D02*
X27772000Y-8692016D01*
X27772000Y-8692016D02*
X28822000Y-9742016D01*
X28822000Y-9742016D02*
X28822000Y-11106910D01*
X28822000Y-11106910D02*
X28056910Y-11872000D01*
X28056910Y-11872000D02*
X20822000Y-11872000D01*
X20822000Y-11872000D02*
X18972000Y-10022000D01*
X18972000Y-10022000D02*
X18772000Y-10022000D01*
X27772000Y-8738736D02*
X27772000Y-8672000D01*
X40283765Y-5933765D02*
X40283765Y-6512000D01*
X40283765Y-6512000D02*
X40283765Y-6690235D01*
X40283765Y-7000235D02*
X40283765Y-6512000D01*
X39362000Y-8572000D02*
X39362000Y-7922000D01*
X39362000Y-7922000D02*
X40283765Y-7000235D01*
X38412000Y-8562000D02*
X39352000Y-8562000D01*
X39352000Y-8562000D02*
X39362000Y-8572000D01*
X38165000Y-9260000D02*
X38440000Y-9260000D01*
X37502000Y-8597000D02*
X38165000Y-9260000D01*
X37502000Y-8572000D02*
X37502000Y-8597000D01*
X37502000Y-8572000D02*
X37502000Y-7855903D01*
X37502000Y-7855903D02*
X39415637Y-5942266D01*
X31132000Y-10092000D02*
X29872000Y-10092000D01*
X32172000Y-11132000D02*
X31132000Y-10092000D01*
X29872000Y-10092000D02*
X28687278Y-8907278D01*
X28687278Y-8907278D02*
X28687278Y-8076726D01*
X28687278Y-8076726D02*
X28687278Y-7758528D01*
X32362000Y-11132000D02*
X34547000Y-11132000D01*
X32172000Y-11132000D02*
X32362000Y-11132000D01*
X32142000Y-11132000D02*
X32142000Y-11272000D01*
X32142000Y-11272000D02*
X32142000Y-14222000D01*
X32362000Y-11132000D02*
X32282000Y-11132000D01*
X32282000Y-11132000D02*
X32142000Y-11272000D01*
X32172000Y-11132000D02*
X32172000Y-11122000D01*
X32172000Y-11122000D02*
X32162000Y-11112000D01*
X32162000Y-11112000D02*
X32142000Y-11132000D01*
X34547000Y-11132000D02*
X35602000Y-10077000D01*
X35602000Y-10077000D02*
X35602000Y-10052000D01*
X35592000Y-10062000D02*
X35592000Y-10087000D01*
X35592000Y-10087000D02*
X34547000Y-11132000D01*
X29382000Y-7615988D02*
X28861941Y-7095929D01*
X28861941Y-7095929D02*
X28671321Y-7095929D01*
X29882000Y-8592000D02*
X29382000Y-8092000D01*
X30082000Y-8592000D02*
X29882000Y-8592000D01*
X29382000Y-8092000D02*
X29382000Y-7615988D01*
X30082000Y-8592000D02*
X31392000Y-8592000D01*
X31392000Y-8592000D02*
X32142000Y-9342000D01*
X32812000Y-10062000D02*
X32812000Y-10012000D01*
X32812000Y-10012000D02*
X32142000Y-9342000D01*
X33832000Y-10062000D02*
X32812000Y-10062000D01*
X32812000Y-10062000D02*
X32072000Y-9322000D01*
X41243501Y-9706499D02*
X41470000Y-9480000D01*
X41162000Y-9788000D02*
X41243501Y-9706499D01*
X41162000Y-10092000D02*
X41162000Y-9788000D01*
X41270499Y-13520234D02*
X41270499Y-13199915D01*
X41270499Y-14433501D02*
X41270499Y-13520234D01*
X40192000Y-15312000D02*
X40392000Y-15312000D01*
X40392000Y-15312000D02*
X41270499Y-14433501D01*
X10302000Y-11812000D02*
X10302000Y-11140818D01*
X10302000Y-11140818D02*
X10302000Y-10820499D01*
X11570000Y-13080000D02*
X10302000Y-11812000D01*
X17736499Y-12036499D02*
X17510000Y-11810000D01*
X28750808Y-12866984D02*
X28255827Y-12372003D01*
X30012000Y-13252000D02*
X29626984Y-12866984D01*
X30012000Y-13752000D02*
X30012000Y-13252000D01*
X28255827Y-12372003D02*
X18072003Y-12372003D01*
X29626984Y-12866984D02*
X28750808Y-12866984D01*
X18072003Y-12372003D02*
X17736499Y-12036499D01*
X30022000Y-13692000D02*
X30022000Y-13645011D01*
X17682000Y-15822000D02*
X17682000Y-15830181D01*
X17112000Y-15252000D02*
X17682000Y-15822000D01*
X17682000Y-15830181D02*
X17682000Y-16150500D01*
X16912000Y-15252000D02*
X17112000Y-15252000D01*
X16242233Y-17582233D02*
X13532233Y-17582233D01*
X13532233Y-17582233D02*
X11570000Y-15620000D01*
X40192000Y-13312000D02*
X42288499Y-11215501D01*
X42288499Y-5898499D02*
X42062000Y-5672000D01*
X40192000Y-13812000D02*
X40192000Y-13312000D01*
X42288499Y-11215501D02*
X42288499Y-5898499D01*
X23640319Y-5870009D02*
X23320000Y-5870009D01*
X26703705Y-5870009D02*
X23640319Y-5870009D01*
X27241706Y-5332008D02*
X26703705Y-5870009D01*
X30691992Y-5332008D02*
X27241706Y-5332008D01*
X32372000Y-3652000D02*
X30691992Y-5332008D01*
X29832000Y-3652000D02*
X28601993Y-4882007D01*
X28601993Y-4882007D02*
X27049031Y-4882007D01*
X26612529Y-5318509D02*
X22725491Y-5318509D01*
X27049031Y-4882007D02*
X26612529Y-5318509D01*
X22725491Y-5318509D02*
X22270000Y-5774000D01*
X22270000Y-5774000D02*
X22270000Y-5780000D01*
X20798499Y-5905501D02*
X20572000Y-6132000D01*
X21845492Y-4858508D02*
X20798499Y-5905501D01*
X23791113Y-4858508D02*
X23771113Y-4838508D01*
X26085492Y-4858508D02*
X23791113Y-4858508D01*
X27292000Y-3652000D02*
X26085492Y-4858508D01*
X22868887Y-4838508D02*
X22848887Y-4858508D01*
X22848887Y-4858508D02*
X21845492Y-4858508D01*
X23771113Y-4838508D02*
X22868887Y-4838508D01*
X47772000Y-9022000D02*
X46892000Y-9902000D01*
X46892000Y-9902000D02*
X44819395Y-9902000D01*
X44819395Y-9902000D02*
X41821999Y-12899396D01*
X41821999Y-12899396D02*
X41821999Y-15182711D01*
X41821999Y-15182711D02*
X39798206Y-17206504D01*
X39798206Y-17206504D02*
X25196884Y-17206504D01*
X25196884Y-17206504D02*
X24876565Y-17206504D01*
X42272000Y-13085792D02*
X42272000Y-15382000D01*
X39822000Y-17832000D02*
X25572319Y-17832000D01*
X25572319Y-17832000D02*
X25252000Y-17832000D01*
X42272000Y-15382000D02*
X39822000Y-17832000D01*
X46922001Y-10712001D02*
X44645791Y-10712001D01*
X47772000Y-11562000D02*
X46922001Y-10712001D01*
X44645791Y-10712001D02*
X42272000Y-13085792D01*
X13882000Y-10362000D02*
X14087000Y-10362000D01*
X14087000Y-10362000D02*
X15502000Y-11777000D01*
X15502000Y-11777000D02*
X15502000Y-15962000D01*
X15502000Y-15962000D02*
X16845509Y-17305509D01*
X16845509Y-17305509D02*
X19381637Y-17305509D01*
X19381637Y-17305509D02*
X19701956Y-17305509D01*
X13882000Y-8462000D02*
X15232000Y-8462000D01*
X15232000Y-8462000D02*
X15952001Y-9182001D01*
X17016246Y-16716246D02*
X18655927Y-16716246D01*
X15952001Y-9182001D02*
X15952001Y-15652001D01*
X15952001Y-15652001D02*
X17016246Y-16716246D01*
X18655927Y-16716246D02*
X18976246Y-16716246D01*
X11682000Y-8462000D02*
X11462000Y-8242000D01*
X11462000Y-8242000D02*
X9452000Y-8242000D01*
X11682000Y-10362000D02*
X12362000Y-10362000D01*
X9452000Y-10152000D02*
X9562000Y-10262000D01*
X9562000Y-10262000D02*
X11582000Y-10262000D01*
X11582000Y-10262000D02*
X11682000Y-10362000D01*
X12362000Y-10362000D02*
X13002000Y-9722000D01*
X13002000Y-9722000D02*
X13002000Y-6932000D01*
X29932000Y-15282000D02*
X29932000Y-16132000D01*
X30022000Y-15192000D02*
X29932000Y-15282000D01*
X17275501Y-7668499D02*
X17502000Y-7442000D01*
X16402002Y-8541998D02*
X17275501Y-7668499D01*
X16402002Y-12742002D02*
X16402002Y-8541998D01*
X16912000Y-13752000D02*
X16912000Y-13252000D01*
X16912000Y-13252000D02*
X16402002Y-12742002D01*
X7952000Y-8242000D02*
X7952000Y-8542000D01*
X7952000Y-8542000D02*
X7001522Y-9492478D01*
X7001522Y-9492478D02*
X7001522Y-10963120D01*
X3342000Y-12192000D02*
X3400000Y-12250000D01*
X2162000Y-12192000D02*
X3342000Y-12192000D01*
X7130383Y-11673617D02*
X7079495Y-11673617D01*
X7952000Y-10852000D02*
X7130383Y-11673617D01*
X7952000Y-10152000D02*
X7952000Y-10852000D01*
X15586499Y-5456499D02*
X15360000Y-5230000D01*
X15962000Y-5832000D02*
X15586499Y-5456499D01*
X15962000Y-6532000D02*
X15962000Y-5832000D01*
X1372000Y-16812000D02*
X1792000Y-16812000D01*
X1792000Y-16812000D02*
X2242000Y-16362000D01*
D25*
X20871991Y-19536681D02*
X20871991Y-19857000D01*
X22952009Y-13972009D02*
X22952009Y-16717017D01*
X22462000Y-13482000D02*
X22952009Y-13972009D01*
X20871991Y-18797035D02*
X20871991Y-19536681D01*
X22952009Y-16717017D02*
X20871991Y-18797035D01*
X22002000Y-13482000D02*
X22462000Y-13482000D01*
D11*
X23461991Y-20682000D02*
X23461991Y-20750000D01*
X23461991Y-20750000D02*
X23052000Y-21159991D01*
D24*
X5722000Y-18662000D02*
X5722000Y-16622000D01*
X5722000Y-16622000D02*
X2550000Y-13450000D01*
X1080000Y-12900000D02*
X1080000Y-9970000D01*
X1900000Y-9150000D02*
X2970000Y-9150000D01*
X2550000Y-13450000D02*
X1630000Y-13450000D01*
X1630000Y-13450000D02*
X1080000Y-12900000D01*
X1080000Y-9970000D02*
X1900000Y-9150000D01*
X2970000Y-9150000D02*
X3390000Y-8730000D01*
X3390000Y-8730000D02*
X3390000Y-5970000D01*
X4298000Y-5062000D02*
X4662000Y-5062000D01*
X3390000Y-5970000D02*
X4298000Y-5062000D01*
X4662000Y-5062000D02*
X4992000Y-5062000D01*
X4982000Y-5382000D02*
X4662000Y-5062000D01*
X4982000Y-5072000D02*
X4982000Y-5432000D01*
X4992000Y-5062000D02*
X4982000Y-5072000D01*
X4992000Y-5062000D02*
X5562000Y-5062000D01*
X5562000Y-5062000D02*
X5682000Y-4942000D01*
X4982000Y-5432000D02*
X4982000Y-5382000D01*
X4982000Y-5432000D02*
X4982000Y-5402000D01*
X4982000Y-5402000D02*
X5292000Y-5092000D01*
X10772000Y-21212000D02*
X6982000Y-21212000D01*
X6982000Y-21212000D02*
X5722000Y-19952000D01*
X5722000Y-19952000D02*
X5702000Y-19932000D01*
D23*
X5722000Y-18662000D02*
X5702000Y-18682000D01*
X5702000Y-18682000D02*
X5702000Y-19932000D01*
D24*
X10772000Y-21212000D02*
X18694254Y-21212000D01*
D23*
X10812000Y-17792319D02*
X10792000Y-17812319D01*
D11*
X10792000Y-19817008D02*
X10792000Y-19789009D01*
D23*
X10812000Y-17472000D02*
X10812000Y-17792319D01*
X10792000Y-17812319D02*
X10792000Y-19789009D01*
D11*
X10812000Y-19837008D02*
X10792000Y-19817008D01*
X33772000Y-15412000D02*
X33772000Y-15352000D01*
X33772000Y-15352000D02*
X33492000Y-15072000D01*
D23*
X33492000Y-13627000D02*
X33492000Y-15072000D01*
X33492000Y-15072000D02*
X33492000Y-15292000D01*
D11*
X33032000Y-15412000D02*
X33152000Y-15412000D01*
X33152000Y-15412000D02*
X33492000Y-15072000D01*
D23*
X34352000Y-15412000D02*
X33772000Y-15412000D01*
X33492000Y-15292000D02*
X33372000Y-15412000D01*
X32902000Y-12262000D02*
X32902000Y-13037000D01*
X32902000Y-13037000D02*
X33492000Y-13627000D01*
X23461991Y-20682000D02*
X23461991Y-20839982D01*
X23461991Y-20839982D02*
X23782000Y-21159991D01*
D24*
X23052000Y-21159991D02*
X23452000Y-21159991D01*
X18746263Y-21159991D02*
X23052000Y-21159991D01*
D23*
X23461991Y-20682000D02*
X23461991Y-21150000D01*
X23461991Y-18582003D02*
X23461991Y-20682000D01*
D24*
X23452000Y-21159991D02*
X23782000Y-21159991D01*
X23782000Y-21159991D02*
X48174009Y-21159991D01*
D23*
X23456491Y-17851337D02*
X23456491Y-18576503D01*
X23456491Y-18576503D02*
X23461991Y-18582003D01*
X23461991Y-21150000D02*
X23452000Y-21159991D01*
D24*
X18694254Y-21212000D02*
X18746263Y-21159991D01*
X48174009Y-21159991D02*
X50152000Y-19182000D01*
D11*
X43452000Y-13822000D02*
X43452000Y-12752000D01*
X44045501Y-12158499D02*
X44272000Y-11932000D01*
X43452000Y-12752000D02*
X44045501Y-12158499D01*
D24*
X47512000Y-13842000D02*
X47772000Y-14102000D01*
X43452000Y-13822000D02*
X45082000Y-13822000D01*
X47772000Y-14102000D02*
X47532000Y-13862000D01*
X5532000Y-5092000D02*
X6942000Y-3682000D01*
X6942000Y-3682000D02*
X6972000Y-3682000D01*
X47772000Y-14102000D02*
X50152000Y-16482000D01*
X50152000Y-16482000D02*
X50152000Y-19182000D01*
D23*
X49203895Y-7744652D02*
X49203895Y-12670105D01*
X49203895Y-12670105D02*
X48621999Y-13252001D01*
X48621999Y-13252001D02*
X47772000Y-14102000D01*
X48861991Y-5021991D02*
X49203895Y-5363895D01*
X49203895Y-7424333D02*
X49203895Y-7744652D01*
X49203895Y-5363895D02*
X49203895Y-7424333D01*
D24*
X6972000Y-3682000D02*
X9800000Y-6510000D01*
D23*
X48861991Y-5021991D02*
X48861991Y-3082003D01*
X48861991Y-3082003D02*
X47611997Y-1832009D01*
X37052000Y-6642000D02*
X29520198Y-6642000D01*
X47611997Y-1832009D02*
X39992003Y-1832009D01*
X39992003Y-1832009D02*
X38701991Y-3122021D01*
X38701991Y-3122021D02*
X38701991Y-4992009D01*
X38701991Y-4992009D02*
X37052000Y-6642000D01*
X29520198Y-6642000D02*
X29202000Y-6642000D01*
X48962000Y-5122000D02*
X48861991Y-5021991D01*
D11*
X50132000Y-19222000D02*
X50152000Y-19222000D01*
X50142000Y-19222000D02*
X50152000Y-19222000D01*
D23*
X25892000Y-6700913D02*
X26043686Y-6549227D01*
D11*
X17177114Y-10353295D02*
X17403613Y-10579794D01*
D23*
X24039145Y-17268683D02*
X23456491Y-17851337D01*
D24*
X5292000Y-5092000D02*
X5532000Y-5092000D01*
D23*
X24202000Y-17147404D02*
X24080721Y-17268683D01*
X24080721Y-17268683D02*
X24039145Y-17268683D01*
D11*
X16900508Y-8937283D02*
X16900508Y-10076689D01*
X17315791Y-8522000D02*
X16900508Y-8937283D01*
X16900508Y-10076689D02*
X17177114Y-10353295D01*
D24*
X45102000Y-13842000D02*
X47512000Y-13842000D01*
X45082000Y-13822000D02*
X45102000Y-13842000D01*
X4982000Y-5432000D02*
X4982000Y-6472000D01*
D23*
X33772000Y-15412000D02*
X33372000Y-15412000D01*
X33032000Y-15412000D02*
X31630012Y-15412000D01*
X33372000Y-15412000D02*
X33032000Y-15412000D01*
D11*
X33032000Y-15412000D02*
X33032000Y-15342000D01*
D24*
X14110000Y-13080000D02*
X14110000Y-15620000D01*
D23*
X25892000Y-8542000D02*
X25892000Y-6700913D01*
D11*
X18772000Y-8522000D02*
X17315791Y-8522000D01*
D24*
X24202000Y-15382000D02*
X24202000Y-17147404D01*
D23*
X34532000Y-15232000D02*
X34352000Y-15412000D01*
X31630012Y-15412000D02*
X30710012Y-14492000D01*
X30710012Y-14492000D02*
X29922000Y-14492000D01*
D24*
X24222000Y-8532000D02*
X25882000Y-8532000D01*
X25882000Y-8532000D02*
X25892000Y-8542000D01*
X28022000Y-15232000D02*
X28762000Y-14492000D01*
X28762000Y-14492000D02*
X29922000Y-14492000D01*
X26282000Y-15222000D02*
X28012000Y-15222000D01*
X28012000Y-15222000D02*
X28022000Y-15232000D01*
X24202000Y-15382000D02*
X26122000Y-15382000D01*
X26122000Y-15382000D02*
X26282000Y-15222000D01*
X18772000Y-8522000D02*
X20572000Y-8522000D01*
X20572000Y-8522000D02*
X20602000Y-8552000D01*
X22322000Y-8562000D02*
X20612000Y-8562000D01*
X20612000Y-8562000D02*
X20602000Y-8552000D01*
X24122000Y-8562000D02*
X22322000Y-8562000D01*
D11*
X26392000Y-15222000D02*
X28012000Y-15222000D01*
X25872000Y-8562000D02*
X25882000Y-8552000D01*
D24*
X9800000Y-6510000D02*
X11620000Y-6510000D01*
D11*
X12550000Y-7450000D02*
X11620000Y-6520000D01*
X11620000Y-6520000D02*
X11620000Y-6510000D01*
X12550000Y-8964000D02*
X12550000Y-7450000D01*
D25*
X32902000Y-12262000D02*
X32942000Y-12262000D01*
D11*
X11682000Y-9412000D02*
X12102000Y-9412000D01*
X12102000Y-9412000D02*
X12550000Y-8964000D01*
D26*
G36*
X51498000Y-22498000D02*
X502000Y-22498000D01*
X502000Y-15328424D01*
X636920Y-15583474D01*
X1010053Y-15892390D01*
X1473000Y-16035000D01*
X1577798Y-16035000D01*
X1564635Y-16100000D01*
X1564635Y-16184390D01*
X1502560Y-16158614D01*
X1242581Y-16158387D01*
X1002305Y-16257666D01*
X818313Y-16441339D01*
X718614Y-16681440D01*
X718387Y-16941419D01*
X817666Y-17181695D01*
X1001339Y-17365687D01*
X1241440Y-17465386D01*
X1501419Y-17465613D01*
X1741695Y-17366334D01*
X1744033Y-17364000D01*
X1776374Y-17364000D01*
X1830619Y-17401064D01*
X2000000Y-17435365D01*
X2500000Y-17435365D01*
X2658237Y-17405591D01*
X2803567Y-17312073D01*
X2901064Y-17169381D01*
X2935365Y-17000000D01*
X2935365Y-16100000D01*
X2905591Y-15941763D01*
X2876488Y-15896536D01*
X2889947Y-15892390D01*
X3263080Y-15583474D01*
X3423257Y-15280679D01*
X3807212Y-15664635D01*
X3500000Y-15664635D01*
X3341763Y-15694409D01*
X3196433Y-15787927D01*
X3098936Y-15930619D01*
X3064635Y-16100000D01*
X3064635Y-17000000D01*
X3094409Y-17158237D01*
X3187927Y-17303567D01*
X3330619Y-17401064D01*
X3500000Y-17435365D01*
X4000000Y-17435365D01*
X4158237Y-17405591D01*
X4303567Y-17312073D01*
X4370316Y-17214382D01*
X4424308Y-17345053D01*
X4607981Y-17529045D01*
X4848082Y-17628744D01*
X5045000Y-17628916D01*
X5045000Y-18060251D01*
X4920687Y-17977188D01*
X4432000Y-17879982D01*
X3943313Y-17977188D01*
X3529025Y-18254007D01*
X3252206Y-18668295D01*
X3162000Y-19121791D01*
X3071794Y-18668295D01*
X2794975Y-18254007D01*
X2380687Y-17977188D01*
X1892000Y-17879982D01*
X1403313Y-17977188D01*
X989025Y-18254007D01*
X712206Y-18668295D01*
X615000Y-19156982D01*
X615000Y-19207018D01*
X712206Y-19695705D01*
X989025Y-20109993D01*
X1403313Y-20386812D01*
X1892000Y-20484018D01*
X2380687Y-20386812D01*
X2794975Y-20109993D01*
X3071794Y-19695705D01*
X3162000Y-19242209D01*
X3252206Y-19695705D01*
X3529025Y-20109993D01*
X3943313Y-20386812D01*
X4432000Y-20484018D01*
X4920687Y-20386812D01*
X5118849Y-20254404D01*
X5223289Y-20410711D01*
X6503289Y-21690711D01*
X6722923Y-21837466D01*
X6982000Y-21889000D01*
X18694254Y-21889000D01*
X18953331Y-21837466D01*
X18954042Y-21836991D01*
X48174009Y-21836991D01*
X48433086Y-21785457D01*
X48652720Y-21638702D01*
X49824058Y-20467365D01*
X51002000Y-20467365D01*
X51160237Y-20437591D01*
X51305567Y-20344073D01*
X51403064Y-20201381D01*
X51437365Y-20032000D01*
X51437365Y-18332000D01*
X51407591Y-18173763D01*
X51314073Y-18028433D01*
X51171381Y-17930936D01*
X51002000Y-17896635D01*
X50829000Y-17896635D01*
X50829000Y-16482000D01*
X50777466Y-16222923D01*
X50630711Y-16003289D01*
X49016846Y-14389424D01*
X49074018Y-14102000D01*
X49005114Y-13755598D01*
X49647251Y-13113461D01*
X49670795Y-13078225D01*
X49783167Y-12910048D01*
X49830895Y-12670105D01*
X49830895Y-8363466D01*
X49999419Y-8363613D01*
X50239695Y-8264334D01*
X50423687Y-8080661D01*
X50523386Y-7840560D01*
X50523613Y-7580581D01*
X50424334Y-7340305D01*
X50412000Y-7327950D01*
X50412000Y-5462345D01*
X50413687Y-5460661D01*
X50513386Y-5220560D01*
X50513607Y-4967365D01*
X51002000Y-4967365D01*
X51160237Y-4937591D01*
X51305567Y-4844073D01*
X51403064Y-4701381D01*
X51437365Y-4532000D01*
X51437365Y-2832000D01*
X51407591Y-2673763D01*
X51314073Y-2528433D01*
X51171381Y-2430936D01*
X51002000Y-2396635D01*
X49302000Y-2396635D01*
X49143763Y-2426409D01*
X49112942Y-2446242D01*
X48055353Y-1388653D01*
X47851940Y-1252737D01*
X47611997Y-1205009D01*
X39992003Y-1205009D01*
X39752060Y-1252737D01*
X39548647Y-1388653D01*
X38258635Y-2678665D01*
X38253568Y-2686249D01*
X37940687Y-2477188D01*
X37452000Y-2379982D01*
X36963313Y-2477188D01*
X36549025Y-2754007D01*
X36272206Y-3168295D01*
X36182000Y-3621791D01*
X36091794Y-3168295D01*
X35814975Y-2754007D01*
X35400687Y-2477188D01*
X34912000Y-2379982D01*
X34423313Y-2477188D01*
X34009025Y-2754007D01*
X33732206Y-3168295D01*
X33642000Y-3621791D01*
X33551794Y-3168295D01*
X33274975Y-2754007D01*
X32860687Y-2477188D01*
X32372000Y-2379982D01*
X31883313Y-2477188D01*
X31469025Y-2754007D01*
X31192206Y-3168295D01*
X31102000Y-3621791D01*
X31011794Y-3168295D01*
X30734975Y-2754007D01*
X30320687Y-2477188D01*
X29832000Y-2379982D01*
X29343313Y-2477188D01*
X28929025Y-2754007D01*
X28652206Y-3168295D01*
X28562000Y-3621791D01*
X28471794Y-3168295D01*
X28194975Y-2754007D01*
X27780687Y-2477188D01*
X27292000Y-2379982D01*
X26803313Y-2477188D01*
X26389025Y-2754007D01*
X26112206Y-3168295D01*
X26022000Y-3621791D01*
X25931794Y-3168295D01*
X25654975Y-2754007D01*
X25240687Y-2477188D01*
X24752000Y-2379982D01*
X24263313Y-2477188D01*
X23849025Y-2754007D01*
X23572206Y-3168295D01*
X23482000Y-3621791D01*
X23391794Y-3168295D01*
X23114975Y-2754007D01*
X22700687Y-2477188D01*
X22212000Y-2379982D01*
X21723313Y-2477188D01*
X21309025Y-2754007D01*
X21032206Y-3168295D01*
X20942000Y-3621791D01*
X20851794Y-3168295D01*
X20574975Y-2754007D01*
X20160687Y-2477188D01*
X19672000Y-2379982D01*
X19183313Y-2477188D01*
X18769025Y-2754007D01*
X18492206Y-3168295D01*
X18402000Y-3621791D01*
X18311794Y-3168295D01*
X18034975Y-2754007D01*
X17620687Y-2477188D01*
X17132000Y-2379982D01*
X16643313Y-2477188D01*
X16229025Y-2754007D01*
X15952206Y-3168295D01*
X15862000Y-3621791D01*
X15771794Y-3168295D01*
X15494975Y-2754007D01*
X15080687Y-2477188D01*
X14592000Y-2379982D01*
X14103313Y-2477188D01*
X13689025Y-2754007D01*
X13412206Y-3168295D01*
X13322000Y-3621791D01*
X13231794Y-3168295D01*
X12954975Y-2754007D01*
X12540687Y-2477188D01*
X12052000Y-2379982D01*
X11563313Y-2477188D01*
X11149025Y-2754007D01*
X10872206Y-3168295D01*
X10782000Y-3621791D01*
X10691794Y-3168295D01*
X10414975Y-2754007D01*
X10000687Y-2477188D01*
X9512000Y-2379982D01*
X9023313Y-2477188D01*
X8609025Y-2754007D01*
X8332206Y-3168295D01*
X8242000Y-3621791D01*
X8151794Y-3168295D01*
X7874975Y-2754007D01*
X7460687Y-2477188D01*
X6972000Y-2379982D01*
X6483313Y-2477188D01*
X6069025Y-2754007D01*
X5796691Y-3161583D01*
X5627183Y-2800642D01*
X5198924Y-2410355D01*
X4788890Y-2240524D01*
X4559000Y-2361845D01*
X4559000Y-3555000D01*
X4579000Y-3555000D01*
X4579000Y-3809000D01*
X4559000Y-3809000D01*
X4559000Y-3829000D01*
X4305000Y-3829000D01*
X4305000Y-3809000D01*
X4285000Y-3809000D01*
X4285000Y-3555000D01*
X4305000Y-3555000D01*
X4305000Y-2361845D01*
X4075110Y-2240524D01*
X3665076Y-2410355D01*
X3236817Y-2800642D01*
X3067309Y-3161583D01*
X2794975Y-2754007D01*
X2380687Y-2477188D01*
X1892000Y-2379982D01*
X1403313Y-2477188D01*
X989025Y-2754007D01*
X712206Y-3168295D01*
X615000Y-3656982D01*
X615000Y-3707018D01*
X712206Y-4195705D01*
X989025Y-4609993D01*
X1403313Y-4886812D01*
X1892000Y-4984018D01*
X2380687Y-4886812D01*
X2794975Y-4609993D01*
X3067309Y-4202417D01*
X3236817Y-4563358D01*
X3551991Y-4850587D01*
X2911289Y-5491289D01*
X2764534Y-5710923D01*
X2713000Y-5970000D01*
X2713000Y-6653102D01*
X2427000Y-6565000D01*
X2077000Y-6565000D01*
X2077000Y-7673000D01*
X2097000Y-7673000D01*
X2097000Y-7927000D01*
X2077000Y-7927000D01*
X2077000Y-7947000D01*
X1823000Y-7947000D01*
X1823000Y-7927000D01*
X1803000Y-7927000D01*
X1803000Y-7673000D01*
X1823000Y-7673000D01*
X1823000Y-6565000D01*
X1473000Y-6565000D01*
X1010053Y-6707610D01*
X636920Y-7016526D01*
X502000Y-7271576D01*
X502000Y-502000D01*
X51498000Y-502000D01*
X51498000Y-22498000D01*
X51498000Y-22498000D01*
G37*
X51498000Y-22498000D02*
X502000Y-22498000D01*
X502000Y-15328424D01*
X636920Y-15583474D01*
X1010053Y-15892390D01*
X1473000Y-16035000D01*
X1577798Y-16035000D01*
X1564635Y-16100000D01*
X1564635Y-16184390D01*
X1502560Y-16158614D01*
X1242581Y-16158387D01*
X1002305Y-16257666D01*
X818313Y-16441339D01*
X718614Y-16681440D01*
X718387Y-16941419D01*
X817666Y-17181695D01*
X1001339Y-17365687D01*
X1241440Y-17465386D01*
X1501419Y-17465613D01*
X1741695Y-17366334D01*
X1744033Y-17364000D01*
X1776374Y-17364000D01*
X1830619Y-17401064D01*
X2000000Y-17435365D01*
X2500000Y-17435365D01*
X2658237Y-17405591D01*
X2803567Y-17312073D01*
X2901064Y-17169381D01*
X2935365Y-17000000D01*
X2935365Y-16100000D01*
X2905591Y-15941763D01*
X2876488Y-15896536D01*
X2889947Y-15892390D01*
X3263080Y-15583474D01*
X3423257Y-15280679D01*
X3807212Y-15664635D01*
X3500000Y-15664635D01*
X3341763Y-15694409D01*
X3196433Y-15787927D01*
X3098936Y-15930619D01*
X3064635Y-16100000D01*
X3064635Y-17000000D01*
X3094409Y-17158237D01*
X3187927Y-17303567D01*
X3330619Y-17401064D01*
X3500000Y-17435365D01*
X4000000Y-17435365D01*
X4158237Y-17405591D01*
X4303567Y-17312073D01*
X4370316Y-17214382D01*
X4424308Y-17345053D01*
X4607981Y-17529045D01*
X4848082Y-17628744D01*
X5045000Y-17628916D01*
X5045000Y-18060251D01*
X4920687Y-17977188D01*
X4432000Y-17879982D01*
X3943313Y-17977188D01*
X3529025Y-18254007D01*
X3252206Y-18668295D01*
X3162000Y-19121791D01*
X3071794Y-18668295D01*
X2794975Y-18254007D01*
X2380687Y-17977188D01*
X1892000Y-17879982D01*
X1403313Y-17977188D01*
X989025Y-18254007D01*
X712206Y-18668295D01*
X615000Y-19156982D01*
X615000Y-19207018D01*
X712206Y-19695705D01*
X989025Y-20109993D01*
X1403313Y-20386812D01*
X1892000Y-20484018D01*
X2380687Y-20386812D01*
X2794975Y-20109993D01*
X3071794Y-19695705D01*
X3162000Y-19242209D01*
X3252206Y-19695705D01*
X3529025Y-20109993D01*
X3943313Y-20386812D01*
X4432000Y-20484018D01*
X4920687Y-20386812D01*
X5118849Y-20254404D01*
X5223289Y-20410711D01*
X6503289Y-21690711D01*
X6722923Y-21837466D01*
X6982000Y-21889000D01*
X18694254Y-21889000D01*
X18953331Y-21837466D01*
X18954042Y-21836991D01*
X48174009Y-21836991D01*
X48433086Y-21785457D01*
X48652720Y-21638702D01*
X49824058Y-20467365D01*
X51002000Y-20467365D01*
X51160237Y-20437591D01*
X51305567Y-20344073D01*
X51403064Y-20201381D01*
X51437365Y-20032000D01*
X51437365Y-18332000D01*
X51407591Y-18173763D01*
X51314073Y-18028433D01*
X51171381Y-17930936D01*
X51002000Y-17896635D01*
X50829000Y-17896635D01*
X50829000Y-16482000D01*
X50777466Y-16222923D01*
X50630711Y-16003289D01*
X49016846Y-14389424D01*
X49074018Y-14102000D01*
X49005114Y-13755598D01*
X49647251Y-13113461D01*
X49670795Y-13078225D01*
X49783167Y-12910048D01*
X49830895Y-12670105D01*
X49830895Y-8363466D01*
X49999419Y-8363613D01*
X50239695Y-8264334D01*
X50423687Y-8080661D01*
X50523386Y-7840560D01*
X50523613Y-7580581D01*
X50424334Y-7340305D01*
X50412000Y-7327950D01*
X50412000Y-5462345D01*
X50413687Y-5460661D01*
X50513386Y-5220560D01*
X50513607Y-4967365D01*
X51002000Y-4967365D01*
X51160237Y-4937591D01*
X51305567Y-4844073D01*
X51403064Y-4701381D01*
X51437365Y-4532000D01*
X51437365Y-2832000D01*
X51407591Y-2673763D01*
X51314073Y-2528433D01*
X51171381Y-2430936D01*
X51002000Y-2396635D01*
X49302000Y-2396635D01*
X49143763Y-2426409D01*
X49112942Y-2446242D01*
X48055353Y-1388653D01*
X47851940Y-1252737D01*
X47611997Y-1205009D01*
X39992003Y-1205009D01*
X39752060Y-1252737D01*
X39548647Y-1388653D01*
X38258635Y-2678665D01*
X38253568Y-2686249D01*
X37940687Y-2477188D01*
X37452000Y-2379982D01*
X36963313Y-2477188D01*
X36549025Y-2754007D01*
X36272206Y-3168295D01*
X36182000Y-3621791D01*
X36091794Y-3168295D01*
X35814975Y-2754007D01*
X35400687Y-2477188D01*
X34912000Y-2379982D01*
X34423313Y-2477188D01*
X34009025Y-2754007D01*
X33732206Y-3168295D01*
X33642000Y-3621791D01*
X33551794Y-3168295D01*
X33274975Y-2754007D01*
X32860687Y-2477188D01*
X32372000Y-2379982D01*
X31883313Y-2477188D01*
X31469025Y-2754007D01*
X31192206Y-3168295D01*
X31102000Y-3621791D01*
X31011794Y-3168295D01*
X30734975Y-2754007D01*
X30320687Y-2477188D01*
X29832000Y-2379982D01*
X29343313Y-2477188D01*
X28929025Y-2754007D01*
X28652206Y-3168295D01*
X28562000Y-3621791D01*
X28471794Y-3168295D01*
X28194975Y-2754007D01*
X27780687Y-2477188D01*
X27292000Y-2379982D01*
X26803313Y-2477188D01*
X26389025Y-2754007D01*
X26112206Y-3168295D01*
X26022000Y-3621791D01*
X25931794Y-3168295D01*
X25654975Y-2754007D01*
X25240687Y-2477188D01*
X24752000Y-2379982D01*
X24263313Y-2477188D01*
X23849025Y-2754007D01*
X23572206Y-3168295D01*
X23482000Y-3621791D01*
X23391794Y-3168295D01*
X23114975Y-2754007D01*
X22700687Y-2477188D01*
X22212000Y-2379982D01*
X21723313Y-2477188D01*
X21309025Y-2754007D01*
X21032206Y-3168295D01*
X20942000Y-3621791D01*
X20851794Y-3168295D01*
X20574975Y-2754007D01*
X20160687Y-2477188D01*
X19672000Y-2379982D01*
X19183313Y-2477188D01*
X18769025Y-2754007D01*
X18492206Y-3168295D01*
X18402000Y-3621791D01*
X18311794Y-3168295D01*
X18034975Y-2754007D01*
X17620687Y-2477188D01*
X17132000Y-2379982D01*
X16643313Y-2477188D01*
X16229025Y-2754007D01*
X15952206Y-3168295D01*
X15862000Y-3621791D01*
X15771794Y-3168295D01*
X15494975Y-2754007D01*
X15080687Y-2477188D01*
X14592000Y-2379982D01*
X14103313Y-2477188D01*
X13689025Y-2754007D01*
X13412206Y-3168295D01*
X13322000Y-3621791D01*
X13231794Y-3168295D01*
X12954975Y-2754007D01*
X12540687Y-2477188D01*
X12052000Y-2379982D01*
X11563313Y-2477188D01*
X11149025Y-2754007D01*
X10872206Y-3168295D01*
X10782000Y-3621791D01*
X10691794Y-3168295D01*
X10414975Y-2754007D01*
X10000687Y-2477188D01*
X9512000Y-2379982D01*
X9023313Y-2477188D01*
X8609025Y-2754007D01*
X8332206Y-3168295D01*
X8242000Y-3621791D01*
X8151794Y-3168295D01*
X7874975Y-2754007D01*
X7460687Y-2477188D01*
X6972000Y-2379982D01*
X6483313Y-2477188D01*
X6069025Y-2754007D01*
X5796691Y-3161583D01*
X5627183Y-2800642D01*
X5198924Y-2410355D01*
X4788890Y-2240524D01*
X4559000Y-2361845D01*
X4559000Y-3555000D01*
X4579000Y-3555000D01*
X4579000Y-3809000D01*
X4559000Y-3809000D01*
X4559000Y-3829000D01*
X4305000Y-3829000D01*
X4305000Y-3809000D01*
X4285000Y-3809000D01*
X4285000Y-3555000D01*
X4305000Y-3555000D01*
X4305000Y-2361845D01*
X4075110Y-2240524D01*
X3665076Y-2410355D01*
X3236817Y-2800642D01*
X3067309Y-3161583D01*
X2794975Y-2754007D01*
X2380687Y-2477188D01*
X1892000Y-2379982D01*
X1403313Y-2477188D01*
X989025Y-2754007D01*
X712206Y-3168295D01*
X615000Y-3656982D01*
X615000Y-3707018D01*
X712206Y-4195705D01*
X989025Y-4609993D01*
X1403313Y-4886812D01*
X1892000Y-4984018D01*
X2380687Y-4886812D01*
X2794975Y-4609993D01*
X3067309Y-4202417D01*
X3236817Y-4563358D01*
X3551991Y-4850587D01*
X2911289Y-5491289D01*
X2764534Y-5710923D01*
X2713000Y-5970000D01*
X2713000Y-6653102D01*
X2427000Y-6565000D01*
X2077000Y-6565000D01*
X2077000Y-7673000D01*
X2097000Y-7673000D01*
X2097000Y-7927000D01*
X2077000Y-7927000D01*
X2077000Y-7947000D01*
X1823000Y-7947000D01*
X1823000Y-7927000D01*
X1803000Y-7927000D01*
X1803000Y-7673000D01*
X1823000Y-7673000D01*
X1823000Y-6565000D01*
X1473000Y-6565000D01*
X1010053Y-6707610D01*
X636920Y-7016526D01*
X502000Y-7271576D01*
X502000Y-502000D01*
X51498000Y-502000D01*
X51498000Y-22498000D01*
G36*
X47739000Y-19055000D02*
X47759000Y-19055000D01*
X47759000Y-19309000D01*
X47739000Y-19309000D01*
X47739000Y-19329000D01*
X47485000Y-19329000D01*
X47485000Y-19309000D01*
X47465000Y-19309000D01*
X47465000Y-19055000D01*
X47485000Y-19055000D01*
X47485000Y-19035000D01*
X47739000Y-19035000D01*
X47739000Y-19055000D01*
X47739000Y-19055000D01*
G37*
X47739000Y-19055000D02*
X47759000Y-19055000D01*
X47759000Y-19309000D01*
X47739000Y-19309000D01*
X47739000Y-19329000D01*
X47485000Y-19329000D01*
X47485000Y-19309000D01*
X47465000Y-19309000D01*
X47465000Y-19055000D01*
X47485000Y-19055000D01*
X47485000Y-19035000D01*
X47739000Y-19035000D01*
X47739000Y-19055000D01*
G36*
X46567188Y-14590687D02*
X46844007Y-15004975D01*
X47258295Y-15281794D01*
X47711791Y-15372000D01*
X47258295Y-15462206D01*
X46844007Y-15739025D01*
X46567188Y-16153313D01*
X46469982Y-16642000D01*
X46567188Y-17130687D01*
X46844007Y-17544975D01*
X47181991Y-17770809D01*
X46845076Y-17910355D01*
X46416817Y-18300642D01*
X46247309Y-18661583D01*
X45974975Y-18254007D01*
X45560687Y-17977188D01*
X45072000Y-17879982D01*
X44583313Y-17977188D01*
X44169025Y-18254007D01*
X43892206Y-18668295D01*
X43802000Y-19121791D01*
X43711794Y-18668295D01*
X43434975Y-18254007D01*
X43020687Y-17977188D01*
X42532000Y-17879982D01*
X42043313Y-17977188D01*
X41629025Y-18254007D01*
X41352206Y-18668295D01*
X41262000Y-19121791D01*
X41171794Y-18668295D01*
X40894975Y-18254007D01*
X40480687Y-17977188D01*
X40461312Y-17973334D01*
X42484275Y-15950371D01*
X42538673Y-16081698D01*
X42717301Y-16260327D01*
X42950690Y-16357000D01*
X43166250Y-16357000D01*
X43325000Y-16198250D01*
X43325000Y-15449000D01*
X43579000Y-15449000D01*
X43579000Y-16198250D01*
X43737750Y-16357000D01*
X43953310Y-16357000D01*
X44186699Y-16260327D01*
X44267000Y-16180025D01*
X44367301Y-16280327D01*
X44600690Y-16377000D01*
X44816250Y-16377000D01*
X44975000Y-16218250D01*
X44975000Y-15469000D01*
X45229000Y-15469000D01*
X45229000Y-16218250D01*
X45387750Y-16377000D01*
X45603310Y-16377000D01*
X45836699Y-16280327D01*
X46015327Y-16101698D01*
X46112000Y-15868309D01*
X46112000Y-15627750D01*
X45953250Y-15469000D01*
X45229000Y-15469000D01*
X44975000Y-15469000D01*
X44323250Y-15469000D01*
X44303250Y-15449000D01*
X43579000Y-15449000D01*
X43325000Y-15449000D01*
X43305000Y-15449000D01*
X43305000Y-15195000D01*
X43325000Y-15195000D01*
X43325000Y-15175000D01*
X43579000Y-15175000D01*
X43579000Y-15195000D01*
X44230750Y-15195000D01*
X44250750Y-15215000D01*
X44975000Y-15215000D01*
X44975000Y-15195000D01*
X45229000Y-15195000D01*
X45229000Y-15215000D01*
X45953250Y-15215000D01*
X46112000Y-15056250D01*
X46112000Y-14815691D01*
X46015327Y-14582302D01*
X45952025Y-14519000D01*
X46552929Y-14519000D01*
X46567188Y-14590687D01*
X46567188Y-14590687D01*
G37*
X46567188Y-14590687D02*
X46844007Y-15004975D01*
X47258295Y-15281794D01*
X47711791Y-15372000D01*
X47258295Y-15462206D01*
X46844007Y-15739025D01*
X46567188Y-16153313D01*
X46469982Y-16642000D01*
X46567188Y-17130687D01*
X46844007Y-17544975D01*
X47181991Y-17770809D01*
X46845076Y-17910355D01*
X46416817Y-18300642D01*
X46247309Y-18661583D01*
X45974975Y-18254007D01*
X45560687Y-17977188D01*
X45072000Y-17879982D01*
X44583313Y-17977188D01*
X44169025Y-18254007D01*
X43892206Y-18668295D01*
X43802000Y-19121791D01*
X43711794Y-18668295D01*
X43434975Y-18254007D01*
X43020687Y-17977188D01*
X42532000Y-17879982D01*
X42043313Y-17977188D01*
X41629025Y-18254007D01*
X41352206Y-18668295D01*
X41262000Y-19121791D01*
X41171794Y-18668295D01*
X40894975Y-18254007D01*
X40480687Y-17977188D01*
X40461312Y-17973334D01*
X42484275Y-15950371D01*
X42538673Y-16081698D01*
X42717301Y-16260327D01*
X42950690Y-16357000D01*
X43166250Y-16357000D01*
X43325000Y-16198250D01*
X43325000Y-15449000D01*
X43579000Y-15449000D01*
X43579000Y-16198250D01*
X43737750Y-16357000D01*
X43953310Y-16357000D01*
X44186699Y-16260327D01*
X44267000Y-16180025D01*
X44367301Y-16280327D01*
X44600690Y-16377000D01*
X44816250Y-16377000D01*
X44975000Y-16218250D01*
X44975000Y-15469000D01*
X45229000Y-15469000D01*
X45229000Y-16218250D01*
X45387750Y-16377000D01*
X45603310Y-16377000D01*
X45836699Y-16280327D01*
X46015327Y-16101698D01*
X46112000Y-15868309D01*
X46112000Y-15627750D01*
X45953250Y-15469000D01*
X45229000Y-15469000D01*
X44975000Y-15469000D01*
X44323250Y-15469000D01*
X44303250Y-15449000D01*
X43579000Y-15449000D01*
X43325000Y-15449000D01*
X43305000Y-15449000D01*
X43305000Y-15195000D01*
X43325000Y-15195000D01*
X43325000Y-15175000D01*
X43579000Y-15175000D01*
X43579000Y-15195000D01*
X44230750Y-15195000D01*
X44250750Y-15215000D01*
X44975000Y-15215000D01*
X44975000Y-15195000D01*
X45229000Y-15195000D01*
X45229000Y-15215000D01*
X45953250Y-15215000D01*
X46112000Y-15056250D01*
X46112000Y-14815691D01*
X46015327Y-14582302D01*
X45952025Y-14519000D01*
X46552929Y-14519000D01*
X46567188Y-14590687D01*
G36*
X6972000Y-4984018D02*
X7259424Y-4926846D01*
X9321289Y-6988711D01*
X9540923Y-7135466D01*
X9800000Y-7187000D01*
X11008657Y-7187000D01*
X11057927Y-7263567D01*
X11200619Y-7361064D01*
X11370000Y-7395365D01*
X11714719Y-7395365D01*
X11998000Y-7678646D01*
X11998000Y-7701635D01*
X11520494Y-7701635D01*
X11462000Y-7690000D01*
X10118173Y-7690000D01*
X10107591Y-7633763D01*
X10014073Y-7488433D01*
X9871381Y-7390936D01*
X9702000Y-7356635D01*
X9202000Y-7356635D01*
X9043763Y-7386409D01*
X8898433Y-7479927D01*
X8800936Y-7622619D01*
X8766635Y-7792000D01*
X8766635Y-8692000D01*
X8796409Y-8850237D01*
X8889927Y-8995567D01*
X9032619Y-9093064D01*
X9202000Y-9127365D01*
X9702000Y-9127365D01*
X9860237Y-9097591D01*
X10005567Y-9004073D01*
X10103064Y-8861381D01*
X10116709Y-8794000D01*
X10717952Y-8794000D01*
X10745896Y-8942509D01*
X10716635Y-9087000D01*
X10716635Y-9710000D01*
X10137365Y-9710000D01*
X10137365Y-9702000D01*
X10107591Y-9543763D01*
X10014073Y-9398433D01*
X9871381Y-9300936D01*
X9702000Y-9266635D01*
X9202000Y-9266635D01*
X9043763Y-9296409D01*
X8898433Y-9389927D01*
X8800936Y-9532619D01*
X8766635Y-9702000D01*
X8766635Y-10602000D01*
X8796409Y-10760237D01*
X8889927Y-10905567D01*
X9032619Y-11003064D01*
X9202000Y-11037365D01*
X9684519Y-11037365D01*
X9747666Y-11190194D01*
X9750000Y-11192532D01*
X9750000Y-11788920D01*
X9386890Y-11638524D01*
X9157000Y-11759845D01*
X9157000Y-12953000D01*
X9177000Y-12953000D01*
X9177000Y-13207000D01*
X9157000Y-13207000D01*
X9157000Y-15493000D01*
X9177000Y-15493000D01*
X9177000Y-15747000D01*
X9157000Y-15747000D01*
X9157000Y-16940155D01*
X9386890Y-17061476D01*
X9796924Y-16891645D01*
X10225183Y-16501358D01*
X10394691Y-16140417D01*
X10667025Y-16547993D01*
X11081313Y-16824812D01*
X11570000Y-16922018D01*
X12004871Y-16835517D01*
X13141910Y-17972556D01*
X13320992Y-18092215D01*
X13532233Y-18134233D01*
X13868279Y-18134233D01*
X13689025Y-18254007D01*
X13412206Y-18668295D01*
X13322000Y-19121791D01*
X13231794Y-18668295D01*
X12954975Y-18254007D01*
X12540687Y-17977188D01*
X12052000Y-17879982D01*
X11563313Y-17977188D01*
X11419000Y-18073615D01*
X11419000Y-17892865D01*
X11439000Y-17792319D01*
X11439000Y-17666104D01*
X11465386Y-17602560D01*
X11465613Y-17342581D01*
X11366334Y-17102305D01*
X11182661Y-16918313D01*
X10942560Y-16818614D01*
X10682581Y-16818387D01*
X10442305Y-16917666D01*
X10258313Y-17101339D01*
X10158614Y-17341440D01*
X10158387Y-17601419D01*
X10185000Y-17665828D01*
X10185000Y-17711773D01*
X10165000Y-17812319D01*
X10165000Y-18086979D01*
X10000687Y-17977188D01*
X9512000Y-17879982D01*
X9023313Y-17977188D01*
X8869000Y-18080297D01*
X8869000Y-16958098D01*
X8903000Y-16940155D01*
X8903000Y-15747000D01*
X8883000Y-15747000D01*
X8883000Y-15493000D01*
X8903000Y-15493000D01*
X8903000Y-13207000D01*
X7709181Y-13207000D01*
X7588514Y-13436892D01*
X7834817Y-13961358D01*
X8261271Y-14350000D01*
X7834817Y-14738642D01*
X7588514Y-15263108D01*
X7709180Y-15492998D01*
X7699710Y-15492998D01*
X7150610Y-14943898D01*
X7124334Y-14880305D01*
X6940661Y-14696313D01*
X6876300Y-14669588D01*
X6627000Y-14420288D01*
X6627000Y-12723108D01*
X7588514Y-12723108D01*
X7709181Y-12953000D01*
X8903000Y-12953000D01*
X8903000Y-11759845D01*
X8673110Y-11638524D01*
X8263076Y-11808355D01*
X7834817Y-12198642D01*
X7588514Y-12723108D01*
X6627000Y-12723108D01*
X6627000Y-12145328D01*
X6708834Y-12227304D01*
X6948935Y-12327003D01*
X7208914Y-12327230D01*
X7449190Y-12227951D01*
X7633182Y-12044278D01*
X7699089Y-11885557D01*
X8342323Y-11242323D01*
X8461982Y-11063242D01*
X8489611Y-10924341D01*
X8505567Y-10914073D01*
X8603064Y-10771381D01*
X8637365Y-10602000D01*
X8637365Y-9702000D01*
X8607591Y-9543763D01*
X8514073Y-9398433D01*
X8371381Y-9300936D01*
X8202000Y-9266635D01*
X8008011Y-9266635D01*
X8147281Y-9127365D01*
X8202000Y-9127365D01*
X8360237Y-9097591D01*
X8505567Y-9004073D01*
X8603064Y-8861381D01*
X8637365Y-8692000D01*
X8637365Y-7792000D01*
X8607591Y-7633763D01*
X8514073Y-7488433D01*
X8371381Y-7390936D01*
X8202000Y-7356635D01*
X7702000Y-7356635D01*
X7543763Y-7386409D01*
X7398433Y-7479927D01*
X7300936Y-7622619D01*
X7266635Y-7792000D01*
X7266635Y-8446719D01*
X6611199Y-9102155D01*
X6491540Y-9281236D01*
X6466111Y-9409077D01*
X6449522Y-9492478D01*
X6449522Y-9766596D01*
X6210581Y-9766387D01*
X5970305Y-9865666D01*
X5786313Y-10049339D01*
X5759588Y-10113700D01*
X5556644Y-10316644D01*
X5420728Y-10520057D01*
X5373000Y-10760000D01*
X5373000Y-12660100D01*
X5358878Y-12608247D01*
X4848854Y-12427688D01*
X4308556Y-12456051D01*
X3962523Y-12599383D01*
X4053386Y-12380560D01*
X4053613Y-12120581D01*
X3954334Y-11880305D01*
X3770661Y-11696313D01*
X3530560Y-11596614D01*
X3270581Y-11596387D01*
X3165028Y-11640000D01*
X2925081Y-11640000D01*
X2924073Y-11638433D01*
X2797986Y-11552281D01*
X2971699Y-11480327D01*
X3150327Y-11301698D01*
X3247000Y-11068309D01*
X3247000Y-10975750D01*
X3088250Y-10817000D01*
X2289000Y-10817000D01*
X2289000Y-10839000D01*
X2035000Y-10839000D01*
X2035000Y-10817000D01*
X2015000Y-10817000D01*
X2015000Y-10567000D01*
X2035000Y-10567000D01*
X2035000Y-10545000D01*
X2289000Y-10545000D01*
X2289000Y-10567000D01*
X3088250Y-10567000D01*
X3247000Y-10408250D01*
X3247000Y-10315691D01*
X3150327Y-10082302D01*
X2971699Y-9903673D01*
X2786594Y-9827000D01*
X2970000Y-9827000D01*
X3229077Y-9775466D01*
X3262104Y-9753398D01*
X3876207Y-9753398D01*
X3941122Y-9991753D01*
X4451146Y-10172312D01*
X4991444Y-10143949D01*
X5358878Y-9991753D01*
X5423793Y-9753398D01*
X4650000Y-8979605D01*
X3876207Y-9753398D01*
X3262104Y-9753398D01*
X3448711Y-9628711D01*
X3544935Y-9532487D01*
X3696602Y-9573793D01*
X4470395Y-8800000D01*
X4829605Y-8800000D01*
X5603398Y-9573793D01*
X5841753Y-9508878D01*
X6022312Y-8998854D01*
X5993949Y-8458556D01*
X5841753Y-8091122D01*
X5603398Y-8026207D01*
X4829605Y-8800000D01*
X4470395Y-8800000D01*
X4456253Y-8785858D01*
X4635858Y-8606253D01*
X4650000Y-8620395D01*
X5423793Y-7846602D01*
X5358878Y-7608247D01*
X4848854Y-7427688D01*
X4308556Y-7456051D01*
X4067000Y-7556107D01*
X4067000Y-6250422D01*
X4146635Y-6170787D01*
X4146635Y-6847000D01*
X4176409Y-7005237D01*
X4269927Y-7150567D01*
X4412619Y-7248064D01*
X4582000Y-7282365D01*
X5382000Y-7282365D01*
X5540237Y-7252591D01*
X5570251Y-7233277D01*
X5722302Y-7385327D01*
X5955691Y-7482000D01*
X6196250Y-7482000D01*
X6355000Y-7323250D01*
X6355000Y-6599000D01*
X6609000Y-6599000D01*
X6609000Y-7323250D01*
X6767750Y-7482000D01*
X7008309Y-7482000D01*
X7241698Y-7385327D01*
X7420327Y-7206699D01*
X7517000Y-6973310D01*
X7517000Y-6757750D01*
X7358250Y-6599000D01*
X6609000Y-6599000D01*
X6355000Y-6599000D01*
X6335000Y-6599000D01*
X6335000Y-6345000D01*
X6355000Y-6345000D01*
X6355000Y-5620750D01*
X6609000Y-5620750D01*
X6609000Y-6345000D01*
X7358250Y-6345000D01*
X7517000Y-6186250D01*
X7517000Y-5970690D01*
X7420327Y-5737301D01*
X7241698Y-5558673D01*
X7008309Y-5462000D01*
X6767750Y-5462000D01*
X6609000Y-5620750D01*
X6355000Y-5620750D01*
X6196250Y-5462000D01*
X6119423Y-5462000D01*
X6160712Y-5420711D01*
X6160714Y-5420708D01*
X6659554Y-4921868D01*
X6972000Y-4984018D01*
X6972000Y-4984018D01*
G37*
X6972000Y-4984018D02*
X7259424Y-4926846D01*
X9321289Y-6988711D01*
X9540923Y-7135466D01*
X9800000Y-7187000D01*
X11008657Y-7187000D01*
X11057927Y-7263567D01*
X11200619Y-7361064D01*
X11370000Y-7395365D01*
X11714719Y-7395365D01*
X11998000Y-7678646D01*
X11998000Y-7701635D01*
X11520494Y-7701635D01*
X11462000Y-7690000D01*
X10118173Y-7690000D01*
X10107591Y-7633763D01*
X10014073Y-7488433D01*
X9871381Y-7390936D01*
X9702000Y-7356635D01*
X9202000Y-7356635D01*
X9043763Y-7386409D01*
X8898433Y-7479927D01*
X8800936Y-7622619D01*
X8766635Y-7792000D01*
X8766635Y-8692000D01*
X8796409Y-8850237D01*
X8889927Y-8995567D01*
X9032619Y-9093064D01*
X9202000Y-9127365D01*
X9702000Y-9127365D01*
X9860237Y-9097591D01*
X10005567Y-9004073D01*
X10103064Y-8861381D01*
X10116709Y-8794000D01*
X10717952Y-8794000D01*
X10745896Y-8942509D01*
X10716635Y-9087000D01*
X10716635Y-9710000D01*
X10137365Y-9710000D01*
X10137365Y-9702000D01*
X10107591Y-9543763D01*
X10014073Y-9398433D01*
X9871381Y-9300936D01*
X9702000Y-9266635D01*
X9202000Y-9266635D01*
X9043763Y-9296409D01*
X8898433Y-9389927D01*
X8800936Y-9532619D01*
X8766635Y-9702000D01*
X8766635Y-10602000D01*
X8796409Y-10760237D01*
X8889927Y-10905567D01*
X9032619Y-11003064D01*
X9202000Y-11037365D01*
X9684519Y-11037365D01*
X9747666Y-11190194D01*
X9750000Y-11192532D01*
X9750000Y-11788920D01*
X9386890Y-11638524D01*
X9157000Y-11759845D01*
X9157000Y-12953000D01*
X9177000Y-12953000D01*
X9177000Y-13207000D01*
X9157000Y-13207000D01*
X9157000Y-15493000D01*
X9177000Y-15493000D01*
X9177000Y-15747000D01*
X9157000Y-15747000D01*
X9157000Y-16940155D01*
X9386890Y-17061476D01*
X9796924Y-16891645D01*
X10225183Y-16501358D01*
X10394691Y-16140417D01*
X10667025Y-16547993D01*
X11081313Y-16824812D01*
X11570000Y-16922018D01*
X12004871Y-16835517D01*
X13141910Y-17972556D01*
X13320992Y-18092215D01*
X13532233Y-18134233D01*
X13868279Y-18134233D01*
X13689025Y-18254007D01*
X13412206Y-18668295D01*
X13322000Y-19121791D01*
X13231794Y-18668295D01*
X12954975Y-18254007D01*
X12540687Y-17977188D01*
X12052000Y-17879982D01*
X11563313Y-17977188D01*
X11419000Y-18073615D01*
X11419000Y-17892865D01*
X11439000Y-17792319D01*
X11439000Y-17666104D01*
X11465386Y-17602560D01*
X11465613Y-17342581D01*
X11366334Y-17102305D01*
X11182661Y-16918313D01*
X10942560Y-16818614D01*
X10682581Y-16818387D01*
X10442305Y-16917666D01*
X10258313Y-17101339D01*
X10158614Y-17341440D01*
X10158387Y-17601419D01*
X10185000Y-17665828D01*
X10185000Y-17711773D01*
X10165000Y-17812319D01*
X10165000Y-18086979D01*
X10000687Y-17977188D01*
X9512000Y-17879982D01*
X9023313Y-17977188D01*
X8869000Y-18080297D01*
X8869000Y-16958098D01*
X8903000Y-16940155D01*
X8903000Y-15747000D01*
X8883000Y-15747000D01*
X8883000Y-15493000D01*
X8903000Y-15493000D01*
X8903000Y-13207000D01*
X7709181Y-13207000D01*
X7588514Y-13436892D01*
X7834817Y-13961358D01*
X8261271Y-14350000D01*
X7834817Y-14738642D01*
X7588514Y-15263108D01*
X7709180Y-15492998D01*
X7699710Y-15492998D01*
X7150610Y-14943898D01*
X7124334Y-14880305D01*
X6940661Y-14696313D01*
X6876300Y-14669588D01*
X6627000Y-14420288D01*
X6627000Y-12723108D01*
X7588514Y-12723108D01*
X7709181Y-12953000D01*
X8903000Y-12953000D01*
X8903000Y-11759845D01*
X8673110Y-11638524D01*
X8263076Y-11808355D01*
X7834817Y-12198642D01*
X7588514Y-12723108D01*
X6627000Y-12723108D01*
X6627000Y-12145328D01*
X6708834Y-12227304D01*
X6948935Y-12327003D01*
X7208914Y-12327230D01*
X7449190Y-12227951D01*
X7633182Y-12044278D01*
X7699089Y-11885557D01*
X8342323Y-11242323D01*
X8461982Y-11063242D01*
X8489611Y-10924341D01*
X8505567Y-10914073D01*
X8603064Y-10771381D01*
X8637365Y-10602000D01*
X8637365Y-9702000D01*
X8607591Y-9543763D01*
X8514073Y-9398433D01*
X8371381Y-9300936D01*
X8202000Y-9266635D01*
X8008011Y-9266635D01*
X8147281Y-9127365D01*
X8202000Y-9127365D01*
X8360237Y-9097591D01*
X8505567Y-9004073D01*
X8603064Y-8861381D01*
X8637365Y-8692000D01*
X8637365Y-7792000D01*
X8607591Y-7633763D01*
X8514073Y-7488433D01*
X8371381Y-7390936D01*
X8202000Y-7356635D01*
X7702000Y-7356635D01*
X7543763Y-7386409D01*
X7398433Y-7479927D01*
X7300936Y-7622619D01*
X7266635Y-7792000D01*
X7266635Y-8446719D01*
X6611199Y-9102155D01*
X6491540Y-9281236D01*
X6466111Y-9409077D01*
X6449522Y-9492478D01*
X6449522Y-9766596D01*
X6210581Y-9766387D01*
X5970305Y-9865666D01*
X5786313Y-10049339D01*
X5759588Y-10113700D01*
X5556644Y-10316644D01*
X5420728Y-10520057D01*
X5373000Y-10760000D01*
X5373000Y-12660100D01*
X5358878Y-12608247D01*
X4848854Y-12427688D01*
X4308556Y-12456051D01*
X3962523Y-12599383D01*
X4053386Y-12380560D01*
X4053613Y-12120581D01*
X3954334Y-11880305D01*
X3770661Y-11696313D01*
X3530560Y-11596614D01*
X3270581Y-11596387D01*
X3165028Y-11640000D01*
X2925081Y-11640000D01*
X2924073Y-11638433D01*
X2797986Y-11552281D01*
X2971699Y-11480327D01*
X3150327Y-11301698D01*
X3247000Y-11068309D01*
X3247000Y-10975750D01*
X3088250Y-10817000D01*
X2289000Y-10817000D01*
X2289000Y-10839000D01*
X2035000Y-10839000D01*
X2035000Y-10817000D01*
X2015000Y-10817000D01*
X2015000Y-10567000D01*
X2035000Y-10567000D01*
X2035000Y-10545000D01*
X2289000Y-10545000D01*
X2289000Y-10567000D01*
X3088250Y-10567000D01*
X3247000Y-10408250D01*
X3247000Y-10315691D01*
X3150327Y-10082302D01*
X2971699Y-9903673D01*
X2786594Y-9827000D01*
X2970000Y-9827000D01*
X3229077Y-9775466D01*
X3262104Y-9753398D01*
X3876207Y-9753398D01*
X3941122Y-9991753D01*
X4451146Y-10172312D01*
X4991444Y-10143949D01*
X5358878Y-9991753D01*
X5423793Y-9753398D01*
X4650000Y-8979605D01*
X3876207Y-9753398D01*
X3262104Y-9753398D01*
X3448711Y-9628711D01*
X3544935Y-9532487D01*
X3696602Y-9573793D01*
X4470395Y-8800000D01*
X4829605Y-8800000D01*
X5603398Y-9573793D01*
X5841753Y-9508878D01*
X6022312Y-8998854D01*
X5993949Y-8458556D01*
X5841753Y-8091122D01*
X5603398Y-8026207D01*
X4829605Y-8800000D01*
X4470395Y-8800000D01*
X4456253Y-8785858D01*
X4635858Y-8606253D01*
X4650000Y-8620395D01*
X5423793Y-7846602D01*
X5358878Y-7608247D01*
X4848854Y-7427688D01*
X4308556Y-7456051D01*
X4067000Y-7556107D01*
X4067000Y-6250422D01*
X4146635Y-6170787D01*
X4146635Y-6847000D01*
X4176409Y-7005237D01*
X4269927Y-7150567D01*
X4412619Y-7248064D01*
X4582000Y-7282365D01*
X5382000Y-7282365D01*
X5540237Y-7252591D01*
X5570251Y-7233277D01*
X5722302Y-7385327D01*
X5955691Y-7482000D01*
X6196250Y-7482000D01*
X6355000Y-7323250D01*
X6355000Y-6599000D01*
X6609000Y-6599000D01*
X6609000Y-7323250D01*
X6767750Y-7482000D01*
X7008309Y-7482000D01*
X7241698Y-7385327D01*
X7420327Y-7206699D01*
X7517000Y-6973310D01*
X7517000Y-6757750D01*
X7358250Y-6599000D01*
X6609000Y-6599000D01*
X6355000Y-6599000D01*
X6335000Y-6599000D01*
X6335000Y-6345000D01*
X6355000Y-6345000D01*
X6355000Y-5620750D01*
X6609000Y-5620750D01*
X6609000Y-6345000D01*
X7358250Y-6345000D01*
X7517000Y-6186250D01*
X7517000Y-5970690D01*
X7420327Y-5737301D01*
X7241698Y-5558673D01*
X7008309Y-5462000D01*
X6767750Y-5462000D01*
X6609000Y-5620750D01*
X6355000Y-5620750D01*
X6196250Y-5462000D01*
X6119423Y-5462000D01*
X6160712Y-5420711D01*
X6160714Y-5420708D01*
X6659554Y-4921868D01*
X6972000Y-4984018D01*
G36*
X21159927Y-16010567D02*
X21302619Y-16108064D01*
X21375000Y-16122722D01*
X21375000Y-16629497D01*
X20699488Y-17305009D01*
X20355456Y-17305009D01*
X20355569Y-17176090D01*
X20256290Y-16935814D01*
X20072617Y-16751822D01*
X19832516Y-16652123D01*
X19629802Y-16651946D01*
X19629859Y-16586827D01*
X19530580Y-16346551D01*
X19346907Y-16162559D01*
X19345183Y-16161843D01*
X19505327Y-16001698D01*
X19532460Y-15936193D01*
X19544927Y-15955567D01*
X19687619Y-16053064D01*
X19857000Y-16087365D01*
X20607000Y-16087365D01*
X20765237Y-16057591D01*
X20910567Y-15964073D01*
X20968695Y-15879000D01*
X21075265Y-15879000D01*
X21159927Y-16010567D01*
X21159927Y-16010567D01*
G37*
X21159927Y-16010567D02*
X21302619Y-16108064D01*
X21375000Y-16122722D01*
X21375000Y-16629497D01*
X20699488Y-17305009D01*
X20355456Y-17305009D01*
X20355569Y-17176090D01*
X20256290Y-16935814D01*
X20072617Y-16751822D01*
X19832516Y-16652123D01*
X19629802Y-16651946D01*
X19629859Y-16586827D01*
X19530580Y-16346551D01*
X19346907Y-16162559D01*
X19345183Y-16161843D01*
X19505327Y-16001698D01*
X19532460Y-15936193D01*
X19544927Y-15955567D01*
X19687619Y-16053064D01*
X19857000Y-16087365D01*
X20607000Y-16087365D01*
X20765237Y-16057591D01*
X20910567Y-15964073D01*
X20968695Y-15879000D01*
X21075265Y-15879000D01*
X21159927Y-16010567D01*
G36*
X37111677Y-7465580D02*
X36992018Y-7644661D01*
X36967660Y-7767119D01*
X36823433Y-7859927D01*
X36725936Y-8002619D01*
X36691635Y-8172000D01*
X36691635Y-8972000D01*
X36721409Y-9130237D01*
X36740723Y-9160251D01*
X36588673Y-9312302D01*
X36492000Y-9545691D01*
X36492000Y-9786250D01*
X36650750Y-9945000D01*
X37375000Y-9945000D01*
X37375000Y-9925000D01*
X37629000Y-9925000D01*
X37629000Y-9945000D01*
X38353250Y-9945000D01*
X38384798Y-9913452D01*
X38479284Y-9913534D01*
X38510750Y-9945000D01*
X39235000Y-9945000D01*
X39235000Y-9925000D01*
X39489000Y-9925000D01*
X39489000Y-9945000D01*
X39509000Y-9945000D01*
X39509000Y-10199000D01*
X39489000Y-10199000D01*
X39489000Y-10948250D01*
X39647750Y-11107000D01*
X39863310Y-11107000D01*
X40096699Y-11010327D01*
X40275327Y-10831698D01*
X40372000Y-10598309D01*
X40372000Y-10542288D01*
X40384409Y-10608237D01*
X40477927Y-10753567D01*
X40620619Y-10851064D01*
X40790000Y-10885365D01*
X41690000Y-10885365D01*
X41736499Y-10876616D01*
X41736499Y-10986855D01*
X39801677Y-12921677D01*
X39682018Y-13100758D01*
X39674338Y-13139366D01*
X39583763Y-13156409D01*
X39438433Y-13249927D01*
X39340936Y-13392619D01*
X39306635Y-13562000D01*
X39306635Y-14062000D01*
X39336409Y-14220237D01*
X39429927Y-14365567D01*
X39572619Y-14463064D01*
X39742000Y-14497365D01*
X40425989Y-14497365D01*
X40296719Y-14626635D01*
X39742000Y-14626635D01*
X39583763Y-14656409D01*
X39438433Y-14749927D01*
X39340936Y-14892619D01*
X39306635Y-15062000D01*
X39306635Y-15562000D01*
X39336409Y-15720237D01*
X39429927Y-15865567D01*
X39572619Y-15963064D01*
X39742000Y-15997365D01*
X40226699Y-15997365D01*
X39569560Y-16654504D01*
X30333580Y-16654504D01*
X30485687Y-16502661D01*
X30585386Y-16262560D01*
X30585613Y-16002581D01*
X30551693Y-15920488D01*
X30620237Y-15907591D01*
X30765567Y-15814073D01*
X30863064Y-15671381D01*
X30886576Y-15555276D01*
X31186656Y-15855356D01*
X31390069Y-15991272D01*
X31630012Y-16039000D01*
X33918493Y-16039000D01*
X33997619Y-16093064D01*
X34167000Y-16127365D01*
X34917000Y-16127365D01*
X35075237Y-16097591D01*
X35220567Y-16004073D01*
X35318064Y-15861381D01*
X35352365Y-15692000D01*
X35352365Y-14892000D01*
X35322591Y-14733763D01*
X35303277Y-14703749D01*
X35455327Y-14551698D01*
X35552000Y-14318309D01*
X35552000Y-14077750D01*
X35393250Y-13919000D01*
X34669000Y-13919000D01*
X34669000Y-13939000D01*
X34415000Y-13939000D01*
X34415000Y-13919000D01*
X34395000Y-13919000D01*
X34395000Y-13665000D01*
X34415000Y-13665000D01*
X34415000Y-12915750D01*
X34669000Y-12915750D01*
X34669000Y-13665000D01*
X35393250Y-13665000D01*
X35552000Y-13506250D01*
X35552000Y-13265691D01*
X35455327Y-13032302D01*
X35276699Y-12853673D01*
X35043310Y-12757000D01*
X34827750Y-12757000D01*
X34669000Y-12915750D01*
X34415000Y-12915750D01*
X34256250Y-12757000D01*
X34040690Y-12757000D01*
X33807301Y-12853673D01*
X33706343Y-12954631D01*
X33644218Y-12892506D01*
X33703064Y-12806381D01*
X33737365Y-12637000D01*
X33737365Y-11887000D01*
X33707591Y-11728763D01*
X33678787Y-11684000D01*
X34547000Y-11684000D01*
X34758242Y-11641982D01*
X34937323Y-11522323D01*
X35572281Y-10887365D01*
X35977000Y-10887365D01*
X36135237Y-10857591D01*
X36280567Y-10764073D01*
X36378064Y-10621381D01*
X36412365Y-10452000D01*
X36412365Y-10357750D01*
X36492000Y-10357750D01*
X36492000Y-10598309D01*
X36588673Y-10831698D01*
X36767301Y-11010327D01*
X37000690Y-11107000D01*
X37216250Y-11107000D01*
X37375000Y-10948250D01*
X37375000Y-10199000D01*
X37629000Y-10199000D01*
X37629000Y-10948250D01*
X37787750Y-11107000D01*
X38003310Y-11107000D01*
X38236699Y-11010327D01*
X38415327Y-10831698D01*
X38432000Y-10791446D01*
X38448673Y-10831698D01*
X38627301Y-11010327D01*
X38860690Y-11107000D01*
X39076250Y-11107000D01*
X39235000Y-10948250D01*
X39235000Y-10199000D01*
X38510750Y-10199000D01*
X38432000Y-10277750D01*
X38353250Y-10199000D01*
X37629000Y-10199000D01*
X37375000Y-10199000D01*
X36650750Y-10199000D01*
X36492000Y-10357750D01*
X36412365Y-10357750D01*
X36412365Y-9652000D01*
X36382591Y-9493763D01*
X36363277Y-9463749D01*
X36515327Y-9311698D01*
X36612000Y-9078309D01*
X36612000Y-8837750D01*
X36453250Y-8679000D01*
X35729000Y-8679000D01*
X35729000Y-8699000D01*
X35475000Y-8699000D01*
X35475000Y-8679000D01*
X34750750Y-8679000D01*
X34737000Y-8692750D01*
X34723250Y-8679000D01*
X33999000Y-8679000D01*
X33999000Y-8699000D01*
X33745000Y-8699000D01*
X33745000Y-8679000D01*
X33725000Y-8679000D01*
X33725000Y-8425000D01*
X33745000Y-8425000D01*
X33745000Y-7675750D01*
X33999000Y-7675750D01*
X33999000Y-8425000D01*
X34723250Y-8425000D01*
X34737000Y-8411250D01*
X34750750Y-8425000D01*
X35475000Y-8425000D01*
X35475000Y-7675750D01*
X35729000Y-7675750D01*
X35729000Y-8425000D01*
X36453250Y-8425000D01*
X36612000Y-8266250D01*
X36612000Y-8025691D01*
X36515327Y-7792302D01*
X36336699Y-7613673D01*
X36103310Y-7517000D01*
X35887750Y-7517000D01*
X35729000Y-7675750D01*
X35475000Y-7675750D01*
X35316250Y-7517000D01*
X35100690Y-7517000D01*
X34867301Y-7613673D01*
X34737000Y-7743975D01*
X34606699Y-7613673D01*
X34373310Y-7517000D01*
X34157750Y-7517000D01*
X33999000Y-7675750D01*
X33745000Y-7675750D01*
X33586250Y-7517000D01*
X33370690Y-7517000D01*
X33137301Y-7613673D01*
X32958673Y-7792302D01*
X32862000Y-8025691D01*
X32862000Y-8266250D01*
X33020748Y-8424998D01*
X32969676Y-8424998D01*
X32889588Y-8344770D01*
X32457147Y-8165205D01*
X31988907Y-8164796D01*
X31816627Y-8235981D01*
X31782323Y-8201677D01*
X31603242Y-8082018D01*
X31392000Y-8040000D01*
X30845081Y-8040000D01*
X30844073Y-8038433D01*
X30701381Y-7940936D01*
X30532000Y-7906635D01*
X29977281Y-7906635D01*
X29934000Y-7863354D01*
X29934000Y-7615988D01*
X29891982Y-7404747D01*
X29801279Y-7269000D01*
X37052000Y-7269000D01*
X37291943Y-7221272D01*
X37484944Y-7092313D01*
X37111677Y-7465580D01*
X37111677Y-7465580D01*
G37*
X37111677Y-7465580D02*
X36992018Y-7644661D01*
X36967660Y-7767119D01*
X36823433Y-7859927D01*
X36725936Y-8002619D01*
X36691635Y-8172000D01*
X36691635Y-8972000D01*
X36721409Y-9130237D01*
X36740723Y-9160251D01*
X36588673Y-9312302D01*
X36492000Y-9545691D01*
X36492000Y-9786250D01*
X36650750Y-9945000D01*
X37375000Y-9945000D01*
X37375000Y-9925000D01*
X37629000Y-9925000D01*
X37629000Y-9945000D01*
X38353250Y-9945000D01*
X38384798Y-9913452D01*
X38479284Y-9913534D01*
X38510750Y-9945000D01*
X39235000Y-9945000D01*
X39235000Y-9925000D01*
X39489000Y-9925000D01*
X39489000Y-9945000D01*
X39509000Y-9945000D01*
X39509000Y-10199000D01*
X39489000Y-10199000D01*
X39489000Y-10948250D01*
X39647750Y-11107000D01*
X39863310Y-11107000D01*
X40096699Y-11010327D01*
X40275327Y-10831698D01*
X40372000Y-10598309D01*
X40372000Y-10542288D01*
X40384409Y-10608237D01*
X40477927Y-10753567D01*
X40620619Y-10851064D01*
X40790000Y-10885365D01*
X41690000Y-10885365D01*
X41736499Y-10876616D01*
X41736499Y-10986855D01*
X39801677Y-12921677D01*
X39682018Y-13100758D01*
X39674338Y-13139366D01*
X39583763Y-13156409D01*
X39438433Y-13249927D01*
X39340936Y-13392619D01*
X39306635Y-13562000D01*
X39306635Y-14062000D01*
X39336409Y-14220237D01*
X39429927Y-14365567D01*
X39572619Y-14463064D01*
X39742000Y-14497365D01*
X40425989Y-14497365D01*
X40296719Y-14626635D01*
X39742000Y-14626635D01*
X39583763Y-14656409D01*
X39438433Y-14749927D01*
X39340936Y-14892619D01*
X39306635Y-15062000D01*
X39306635Y-15562000D01*
X39336409Y-15720237D01*
X39429927Y-15865567D01*
X39572619Y-15963064D01*
X39742000Y-15997365D01*
X40226699Y-15997365D01*
X39569560Y-16654504D01*
X30333580Y-16654504D01*
X30485687Y-16502661D01*
X30585386Y-16262560D01*
X30585613Y-16002581D01*
X30551693Y-15920488D01*
X30620237Y-15907591D01*
X30765567Y-15814073D01*
X30863064Y-15671381D01*
X30886576Y-15555276D01*
X31186656Y-15855356D01*
X31390069Y-15991272D01*
X31630012Y-16039000D01*
X33918493Y-16039000D01*
X33997619Y-16093064D01*
X34167000Y-16127365D01*
X34917000Y-16127365D01*
X35075237Y-16097591D01*
X35220567Y-16004073D01*
X35318064Y-15861381D01*
X35352365Y-15692000D01*
X35352365Y-14892000D01*
X35322591Y-14733763D01*
X35303277Y-14703749D01*
X35455327Y-14551698D01*
X35552000Y-14318309D01*
X35552000Y-14077750D01*
X35393250Y-13919000D01*
X34669000Y-13919000D01*
X34669000Y-13939000D01*
X34415000Y-13939000D01*
X34415000Y-13919000D01*
X34395000Y-13919000D01*
X34395000Y-13665000D01*
X34415000Y-13665000D01*
X34415000Y-12915750D01*
X34669000Y-12915750D01*
X34669000Y-13665000D01*
X35393250Y-13665000D01*
X35552000Y-13506250D01*
X35552000Y-13265691D01*
X35455327Y-13032302D01*
X35276699Y-12853673D01*
X35043310Y-12757000D01*
X34827750Y-12757000D01*
X34669000Y-12915750D01*
X34415000Y-12915750D01*
X34256250Y-12757000D01*
X34040690Y-12757000D01*
X33807301Y-12853673D01*
X33706343Y-12954631D01*
X33644218Y-12892506D01*
X33703064Y-12806381D01*
X33737365Y-12637000D01*
X33737365Y-11887000D01*
X33707591Y-11728763D01*
X33678787Y-11684000D01*
X34547000Y-11684000D01*
X34758242Y-11641982D01*
X34937323Y-11522323D01*
X35572281Y-10887365D01*
X35977000Y-10887365D01*
X36135237Y-10857591D01*
X36280567Y-10764073D01*
X36378064Y-10621381D01*
X36412365Y-10452000D01*
X36412365Y-10357750D01*
X36492000Y-10357750D01*
X36492000Y-10598309D01*
X36588673Y-10831698D01*
X36767301Y-11010327D01*
X37000690Y-11107000D01*
X37216250Y-11107000D01*
X37375000Y-10948250D01*
X37375000Y-10199000D01*
X37629000Y-10199000D01*
X37629000Y-10948250D01*
X37787750Y-11107000D01*
X38003310Y-11107000D01*
X38236699Y-11010327D01*
X38415327Y-10831698D01*
X38432000Y-10791446D01*
X38448673Y-10831698D01*
X38627301Y-11010327D01*
X38860690Y-11107000D01*
X39076250Y-11107000D01*
X39235000Y-10948250D01*
X39235000Y-10199000D01*
X38510750Y-10199000D01*
X38432000Y-10277750D01*
X38353250Y-10199000D01*
X37629000Y-10199000D01*
X37375000Y-10199000D01*
X36650750Y-10199000D01*
X36492000Y-10357750D01*
X36412365Y-10357750D01*
X36412365Y-9652000D01*
X36382591Y-9493763D01*
X36363277Y-9463749D01*
X36515327Y-9311698D01*
X36612000Y-9078309D01*
X36612000Y-8837750D01*
X36453250Y-8679000D01*
X35729000Y-8679000D01*
X35729000Y-8699000D01*
X35475000Y-8699000D01*
X35475000Y-8679000D01*
X34750750Y-8679000D01*
X34737000Y-8692750D01*
X34723250Y-8679000D01*
X33999000Y-8679000D01*
X33999000Y-8699000D01*
X33745000Y-8699000D01*
X33745000Y-8679000D01*
X33725000Y-8679000D01*
X33725000Y-8425000D01*
X33745000Y-8425000D01*
X33745000Y-7675750D01*
X33999000Y-7675750D01*
X33999000Y-8425000D01*
X34723250Y-8425000D01*
X34737000Y-8411250D01*
X34750750Y-8425000D01*
X35475000Y-8425000D01*
X35475000Y-7675750D01*
X35729000Y-7675750D01*
X35729000Y-8425000D01*
X36453250Y-8425000D01*
X36612000Y-8266250D01*
X36612000Y-8025691D01*
X36515327Y-7792302D01*
X36336699Y-7613673D01*
X36103310Y-7517000D01*
X35887750Y-7517000D01*
X35729000Y-7675750D01*
X35475000Y-7675750D01*
X35316250Y-7517000D01*
X35100690Y-7517000D01*
X34867301Y-7613673D01*
X34737000Y-7743975D01*
X34606699Y-7613673D01*
X34373310Y-7517000D01*
X34157750Y-7517000D01*
X33999000Y-7675750D01*
X33745000Y-7675750D01*
X33586250Y-7517000D01*
X33370690Y-7517000D01*
X33137301Y-7613673D01*
X32958673Y-7792302D01*
X32862000Y-8025691D01*
X32862000Y-8266250D01*
X33020748Y-8424998D01*
X32969676Y-8424998D01*
X32889588Y-8344770D01*
X32457147Y-8165205D01*
X31988907Y-8164796D01*
X31816627Y-8235981D01*
X31782323Y-8201677D01*
X31603242Y-8082018D01*
X31392000Y-8040000D01*
X30845081Y-8040000D01*
X30844073Y-8038433D01*
X30701381Y-7940936D01*
X30532000Y-7906635D01*
X29977281Y-7906635D01*
X29934000Y-7863354D01*
X29934000Y-7615988D01*
X29891982Y-7404747D01*
X29801279Y-7269000D01*
X37052000Y-7269000D01*
X37291943Y-7221272D01*
X37484944Y-7092313D01*
X37111677Y-7465580D01*
G36*
X18719000Y-15115000D02*
X18739000Y-15115000D01*
X18739000Y-15369000D01*
X18719000Y-15369000D01*
X18719000Y-15389000D01*
X18465000Y-15389000D01*
X18465000Y-15369000D01*
X18445000Y-15369000D01*
X18445000Y-15115000D01*
X18465000Y-15115000D01*
X18465000Y-15095000D01*
X18719000Y-15095000D01*
X18719000Y-15115000D01*
X18719000Y-15115000D01*
G37*
X18719000Y-15115000D02*
X18739000Y-15115000D01*
X18739000Y-15369000D01*
X18719000Y-15369000D01*
X18719000Y-15389000D01*
X18465000Y-15389000D01*
X18465000Y-15369000D01*
X18445000Y-15369000D01*
X18445000Y-15115000D01*
X18465000Y-15115000D01*
X18465000Y-15095000D01*
X18719000Y-15095000D01*
X18719000Y-15115000D01*
G36*
X2077000Y-14673000D02*
X2097000Y-14673000D01*
X2097000Y-14927000D01*
X2077000Y-14927000D01*
X2077000Y-14947000D01*
X1823000Y-14947000D01*
X1823000Y-14927000D01*
X1803000Y-14927000D01*
X1803000Y-14673000D01*
X1823000Y-14673000D01*
X1823000Y-14653000D01*
X2077000Y-14653000D01*
X2077000Y-14673000D01*
X2077000Y-14673000D01*
G37*
X2077000Y-14673000D02*
X2097000Y-14673000D01*
X2097000Y-14927000D01*
X2077000Y-14927000D01*
X2077000Y-14947000D01*
X1823000Y-14947000D01*
X1823000Y-14927000D01*
X1803000Y-14927000D01*
X1803000Y-14673000D01*
X1823000Y-14673000D01*
X1823000Y-14653000D01*
X2077000Y-14653000D01*
X2077000Y-14673000D01*
G36*
X25368673Y-12962302D02*
X25272000Y-13195691D01*
X25272000Y-13436250D01*
X25430750Y-13595000D01*
X26155000Y-13595000D01*
X26155000Y-13575000D01*
X26409000Y-13575000D01*
X26409000Y-13595000D01*
X27133250Y-13595000D01*
X27147000Y-13581250D01*
X27170750Y-13605000D01*
X27895000Y-13605000D01*
X27895000Y-13585000D01*
X28149000Y-13585000D01*
X28149000Y-13605000D01*
X28873250Y-13605000D01*
X29032000Y-13446250D01*
X29032000Y-13418984D01*
X29143446Y-13418984D01*
X29126635Y-13502000D01*
X29126635Y-13815000D01*
X28762000Y-13815000D01*
X28540799Y-13859000D01*
X28149000Y-13859000D01*
X28149000Y-13879000D01*
X27895000Y-13879000D01*
X27895000Y-13859000D01*
X27170750Y-13859000D01*
X27157000Y-13872750D01*
X27133250Y-13849000D01*
X26409000Y-13849000D01*
X26409000Y-13869000D01*
X26155000Y-13869000D01*
X26155000Y-13849000D01*
X25430750Y-13849000D01*
X25272000Y-14007750D01*
X25272000Y-14248309D01*
X25368673Y-14481698D01*
X25519598Y-14632624D01*
X25505936Y-14652619D01*
X25495328Y-14705000D01*
X24973189Y-14705000D01*
X24901381Y-14655936D01*
X24732000Y-14621635D01*
X23672000Y-14621635D01*
X23529009Y-14648540D01*
X23529009Y-14213408D01*
X23672000Y-14242365D01*
X24732000Y-14242365D01*
X24890237Y-14212591D01*
X25035567Y-14119073D01*
X25133064Y-13976381D01*
X25167365Y-13807000D01*
X25167365Y-13157000D01*
X25137591Y-12998763D01*
X25089484Y-12924003D01*
X25406972Y-12924003D01*
X25368673Y-12962302D01*
X25368673Y-12962302D01*
G37*
X25368673Y-12962302D02*
X25272000Y-13195691D01*
X25272000Y-13436250D01*
X25430750Y-13595000D01*
X26155000Y-13595000D01*
X26155000Y-13575000D01*
X26409000Y-13575000D01*
X26409000Y-13595000D01*
X27133250Y-13595000D01*
X27147000Y-13581250D01*
X27170750Y-13605000D01*
X27895000Y-13605000D01*
X27895000Y-13585000D01*
X28149000Y-13585000D01*
X28149000Y-13605000D01*
X28873250Y-13605000D01*
X29032000Y-13446250D01*
X29032000Y-13418984D01*
X29143446Y-13418984D01*
X29126635Y-13502000D01*
X29126635Y-13815000D01*
X28762000Y-13815000D01*
X28540799Y-13859000D01*
X28149000Y-13859000D01*
X28149000Y-13879000D01*
X27895000Y-13879000D01*
X27895000Y-13859000D01*
X27170750Y-13859000D01*
X27157000Y-13872750D01*
X27133250Y-13849000D01*
X26409000Y-13849000D01*
X26409000Y-13869000D01*
X26155000Y-13869000D01*
X26155000Y-13849000D01*
X25430750Y-13849000D01*
X25272000Y-14007750D01*
X25272000Y-14248309D01*
X25368673Y-14481698D01*
X25519598Y-14632624D01*
X25505936Y-14652619D01*
X25495328Y-14705000D01*
X24973189Y-14705000D01*
X24901381Y-14655936D01*
X24732000Y-14621635D01*
X23672000Y-14621635D01*
X23529009Y-14648540D01*
X23529009Y-14213408D01*
X23672000Y-14242365D01*
X24732000Y-14242365D01*
X24890237Y-14212591D01*
X25035567Y-14119073D01*
X25133064Y-13976381D01*
X25167365Y-13807000D01*
X25167365Y-13157000D01*
X25137591Y-12998763D01*
X25089484Y-12924003D01*
X25406972Y-12924003D01*
X25368673Y-12962302D01*
G36*
X22129000Y-14305000D02*
X22149000Y-14305000D01*
X22149000Y-14559000D01*
X22129000Y-14559000D01*
X22129000Y-14579000D01*
X21875000Y-14579000D01*
X21875000Y-14559000D01*
X21855000Y-14559000D01*
X21855000Y-14305000D01*
X21875000Y-14305000D01*
X21875000Y-14285000D01*
X22129000Y-14285000D01*
X22129000Y-14305000D01*
X22129000Y-14305000D01*
G37*
X22129000Y-14305000D02*
X22149000Y-14305000D01*
X22149000Y-14559000D01*
X22129000Y-14559000D01*
X22129000Y-14579000D01*
X21875000Y-14579000D01*
X21875000Y-14559000D01*
X21855000Y-14559000D01*
X21855000Y-14305000D01*
X21875000Y-14305000D01*
X21875000Y-14285000D01*
X22129000Y-14285000D01*
X22129000Y-14305000D01*
G36*
X4843748Y-13785858D02*
X4829605Y-13800000D01*
X4843748Y-13814143D01*
X4664143Y-13993748D01*
X4650000Y-13979605D01*
X4635858Y-13993748D01*
X4456253Y-13814143D01*
X4470395Y-13800000D01*
X4456253Y-13785858D01*
X4635858Y-13606253D01*
X4650000Y-13620395D01*
X4664143Y-13606253D01*
X4843748Y-13785858D01*
X4843748Y-13785858D01*
G37*
X4843748Y-13785858D02*
X4829605Y-13800000D01*
X4843748Y-13814143D01*
X4664143Y-13993748D01*
X4650000Y-13979605D01*
X4635858Y-13993748D01*
X4456253Y-13814143D01*
X4470395Y-13800000D01*
X4456253Y-13785858D01*
X4635858Y-13606253D01*
X4650000Y-13620395D01*
X4664143Y-13606253D01*
X4843748Y-13785858D01*
G36*
X31590000Y-11330646D02*
X31590000Y-11349750D01*
X31529000Y-11410750D01*
X31529000Y-12135000D01*
X31549000Y-12135000D01*
X31549000Y-12389000D01*
X31529000Y-12389000D01*
X31529000Y-13113250D01*
X31590000Y-13174250D01*
X31590000Y-13209621D01*
X31556154Y-13223606D01*
X31224770Y-13554412D01*
X31048612Y-13978648D01*
X30949955Y-13912728D01*
X30897365Y-13902267D01*
X30897365Y-13502000D01*
X30867591Y-13343763D01*
X30801687Y-13241347D01*
X30875691Y-13272000D01*
X31116250Y-13272000D01*
X31275000Y-13113250D01*
X31275000Y-12389000D01*
X30525750Y-12389000D01*
X30367000Y-12547750D01*
X30367000Y-12763310D01*
X30416588Y-12883026D01*
X30402323Y-12861677D01*
X30017307Y-12476661D01*
X29838226Y-12357002D01*
X29626984Y-12314984D01*
X28979454Y-12314984D01*
X28687013Y-12022543D01*
X28948866Y-11760690D01*
X30367000Y-11760690D01*
X30367000Y-11976250D01*
X30525750Y-12135000D01*
X31275000Y-12135000D01*
X31275000Y-11410750D01*
X31116250Y-11252000D01*
X30875691Y-11252000D01*
X30642302Y-11348673D01*
X30463673Y-11527301D01*
X30367000Y-11760690D01*
X28948866Y-11760690D01*
X29212323Y-11497233D01*
X29331982Y-11318152D01*
X29374000Y-11106910D01*
X29374000Y-10682513D01*
X29462619Y-10743064D01*
X29632000Y-10777365D01*
X30532000Y-10777365D01*
X30690237Y-10747591D01*
X30835567Y-10654073D01*
X30842450Y-10644000D01*
X30903354Y-10644000D01*
X31590000Y-11330646D01*
X31590000Y-11330646D01*
G37*
X31590000Y-11330646D02*
X31590000Y-11349750D01*
X31529000Y-11410750D01*
X31529000Y-12135000D01*
X31549000Y-12135000D01*
X31549000Y-12389000D01*
X31529000Y-12389000D01*
X31529000Y-13113250D01*
X31590000Y-13174250D01*
X31590000Y-13209621D01*
X31556154Y-13223606D01*
X31224770Y-13554412D01*
X31048612Y-13978648D01*
X30949955Y-13912728D01*
X30897365Y-13902267D01*
X30897365Y-13502000D01*
X30867591Y-13343763D01*
X30801687Y-13241347D01*
X30875691Y-13272000D01*
X31116250Y-13272000D01*
X31275000Y-13113250D01*
X31275000Y-12389000D01*
X30525750Y-12389000D01*
X30367000Y-12547750D01*
X30367000Y-12763310D01*
X30416588Y-12883026D01*
X30402323Y-12861677D01*
X30017307Y-12476661D01*
X29838226Y-12357002D01*
X29626984Y-12314984D01*
X28979454Y-12314984D01*
X28687013Y-12022543D01*
X28948866Y-11760690D01*
X30367000Y-11760690D01*
X30367000Y-11976250D01*
X30525750Y-12135000D01*
X31275000Y-12135000D01*
X31275000Y-11410750D01*
X31116250Y-11252000D01*
X30875691Y-11252000D01*
X30642302Y-11348673D01*
X30463673Y-11527301D01*
X30367000Y-11760690D01*
X28948866Y-11760690D01*
X29212323Y-11497233D01*
X29331982Y-11318152D01*
X29374000Y-11106910D01*
X29374000Y-10682513D01*
X29462619Y-10743064D01*
X29632000Y-10777365D01*
X30532000Y-10777365D01*
X30690237Y-10747591D01*
X30835567Y-10654073D01*
X30842450Y-10644000D01*
X30903354Y-10644000D01*
X31590000Y-11330646D01*
G36*
X20359000Y-13625000D02*
X20379000Y-13625000D01*
X20379000Y-13879000D01*
X20359000Y-13879000D01*
X20359000Y-13899000D01*
X20105000Y-13899000D01*
X20105000Y-13879000D01*
X20085000Y-13879000D01*
X20085000Y-13625000D01*
X20105000Y-13625000D01*
X20105000Y-13605000D01*
X20359000Y-13605000D01*
X20359000Y-13625000D01*
X20359000Y-13625000D01*
G37*
X20359000Y-13625000D02*
X20379000Y-13625000D01*
X20379000Y-13879000D01*
X20359000Y-13879000D01*
X20359000Y-13899000D01*
X20105000Y-13899000D01*
X20105000Y-13879000D01*
X20085000Y-13879000D01*
X20085000Y-13625000D01*
X20105000Y-13625000D01*
X20105000Y-13605000D01*
X20359000Y-13605000D01*
X20359000Y-13625000D01*
G36*
X26920750Y-9925000D02*
X27645000Y-9925000D01*
X27645000Y-9905000D01*
X27899000Y-9905000D01*
X27899000Y-9925000D01*
X27919000Y-9925000D01*
X27919000Y-10179000D01*
X27899000Y-10179000D01*
X27899000Y-10928250D01*
X28057750Y-11087000D01*
X28061264Y-11087000D01*
X27828264Y-11320000D01*
X21050646Y-11320000D01*
X20719002Y-10988356D01*
X20719002Y-10918252D01*
X20877750Y-11077000D01*
X21093310Y-11077000D01*
X21326699Y-10980327D01*
X21447000Y-10860025D01*
X21587301Y-11000327D01*
X21820690Y-11097000D01*
X22036250Y-11097000D01*
X22195000Y-10938250D01*
X22195000Y-10189000D01*
X22449000Y-10189000D01*
X22449000Y-10938250D01*
X22607750Y-11097000D01*
X22823310Y-11097000D01*
X23056699Y-11000327D01*
X23235327Y-10821698D01*
X23268213Y-10742304D01*
X23288673Y-10791698D01*
X23467301Y-10970327D01*
X23700690Y-11067000D01*
X23916250Y-11067000D01*
X24075000Y-10908250D01*
X24075000Y-10159000D01*
X24329000Y-10159000D01*
X24329000Y-10908250D01*
X24487750Y-11067000D01*
X24703310Y-11067000D01*
X24936699Y-10970327D01*
X25042000Y-10865025D01*
X25157301Y-10980327D01*
X25390690Y-11077000D01*
X25606250Y-11077000D01*
X25765000Y-10918250D01*
X25765000Y-10169000D01*
X26019000Y-10169000D01*
X26019000Y-10918250D01*
X26177750Y-11077000D01*
X26393310Y-11077000D01*
X26626699Y-10980327D01*
X26805327Y-10801698D01*
X26829929Y-10742304D01*
X26858673Y-10811698D01*
X27037301Y-10990327D01*
X27270690Y-11087000D01*
X27486250Y-11087000D01*
X27645000Y-10928250D01*
X27645000Y-10179000D01*
X26920750Y-10179000D01*
X26837000Y-10262750D01*
X26743250Y-10169000D01*
X26019000Y-10169000D01*
X25765000Y-10169000D01*
X25063250Y-10169000D01*
X25053250Y-10159000D01*
X24329000Y-10159000D01*
X24075000Y-10159000D01*
X23350750Y-10159000D01*
X23247000Y-10262750D01*
X23173250Y-10189000D01*
X22449000Y-10189000D01*
X22195000Y-10189000D01*
X21470750Y-10189000D01*
X21467000Y-10192750D01*
X21443250Y-10169000D01*
X20719000Y-10169000D01*
X20719000Y-10189000D01*
X20465000Y-10189000D01*
X20465000Y-10169000D01*
X20445000Y-10169000D01*
X20445000Y-9915000D01*
X20465000Y-9915000D01*
X20465000Y-9895000D01*
X20719000Y-9895000D01*
X20719000Y-9915000D01*
X21443250Y-9915000D01*
X21447000Y-9911250D01*
X21470750Y-9935000D01*
X22195000Y-9935000D01*
X22195000Y-9915000D01*
X22449000Y-9915000D01*
X22449000Y-9935000D01*
X23173250Y-9935000D01*
X23277000Y-9831250D01*
X23350750Y-9905000D01*
X24075000Y-9905000D01*
X24075000Y-9885000D01*
X24329000Y-9885000D01*
X24329000Y-9905000D01*
X25030750Y-9905000D01*
X25040750Y-9915000D01*
X25765000Y-9915000D01*
X25765000Y-9895000D01*
X26019000Y-9895000D01*
X26019000Y-9915000D01*
X26743250Y-9915000D01*
X26827000Y-9831250D01*
X26920750Y-9925000D01*
X26920750Y-9925000D01*
G37*
X26920750Y-9925000D02*
X27645000Y-9925000D01*
X27645000Y-9905000D01*
X27899000Y-9905000D01*
X27899000Y-9925000D01*
X27919000Y-9925000D01*
X27919000Y-10179000D01*
X27899000Y-10179000D01*
X27899000Y-10928250D01*
X28057750Y-11087000D01*
X28061264Y-11087000D01*
X27828264Y-11320000D01*
X21050646Y-11320000D01*
X20719002Y-10988356D01*
X20719002Y-10918252D01*
X20877750Y-11077000D01*
X21093310Y-11077000D01*
X21326699Y-10980327D01*
X21447000Y-10860025D01*
X21587301Y-11000327D01*
X21820690Y-11097000D01*
X22036250Y-11097000D01*
X22195000Y-10938250D01*
X22195000Y-10189000D01*
X22449000Y-10189000D01*
X22449000Y-10938250D01*
X22607750Y-11097000D01*
X22823310Y-11097000D01*
X23056699Y-11000327D01*
X23235327Y-10821698D01*
X23268213Y-10742304D01*
X23288673Y-10791698D01*
X23467301Y-10970327D01*
X23700690Y-11067000D01*
X23916250Y-11067000D01*
X24075000Y-10908250D01*
X24075000Y-10159000D01*
X24329000Y-10159000D01*
X24329000Y-10908250D01*
X24487750Y-11067000D01*
X24703310Y-11067000D01*
X24936699Y-10970327D01*
X25042000Y-10865025D01*
X25157301Y-10980327D01*
X25390690Y-11077000D01*
X25606250Y-11077000D01*
X25765000Y-10918250D01*
X25765000Y-10169000D01*
X26019000Y-10169000D01*
X26019000Y-10918250D01*
X26177750Y-11077000D01*
X26393310Y-11077000D01*
X26626699Y-10980327D01*
X26805327Y-10801698D01*
X26829929Y-10742304D01*
X26858673Y-10811698D01*
X27037301Y-10990327D01*
X27270690Y-11087000D01*
X27486250Y-11087000D01*
X27645000Y-10928250D01*
X27645000Y-10179000D01*
X26920750Y-10179000D01*
X26837000Y-10262750D01*
X26743250Y-10169000D01*
X26019000Y-10169000D01*
X25765000Y-10169000D01*
X25063250Y-10169000D01*
X25053250Y-10159000D01*
X24329000Y-10159000D01*
X24075000Y-10159000D01*
X23350750Y-10159000D01*
X23247000Y-10262750D01*
X23173250Y-10189000D01*
X22449000Y-10189000D01*
X22195000Y-10189000D01*
X21470750Y-10189000D01*
X21467000Y-10192750D01*
X21443250Y-10169000D01*
X20719000Y-10169000D01*
X20719000Y-10189000D01*
X20465000Y-10189000D01*
X20465000Y-10169000D01*
X20445000Y-10169000D01*
X20445000Y-9915000D01*
X20465000Y-9915000D01*
X20465000Y-9895000D01*
X20719000Y-9895000D01*
X20719000Y-9915000D01*
X21443250Y-9915000D01*
X21447000Y-9911250D01*
X21470750Y-9935000D01*
X22195000Y-9935000D01*
X22195000Y-9915000D01*
X22449000Y-9915000D01*
X22449000Y-9935000D01*
X23173250Y-9935000D01*
X23277000Y-9831250D01*
X23350750Y-9905000D01*
X24075000Y-9905000D01*
X24075000Y-9885000D01*
X24329000Y-9885000D01*
X24329000Y-9905000D01*
X25030750Y-9905000D01*
X25040750Y-9915000D01*
X25765000Y-9915000D01*
X25765000Y-9895000D01*
X26019000Y-9895000D01*
X26019000Y-9915000D01*
X26743250Y-9915000D01*
X26827000Y-9831250D01*
X26920750Y-9925000D01*
G36*
X46432206Y-4195705D02*
X46709025Y-4609993D01*
X47123313Y-4886812D01*
X47612000Y-4984018D01*
X48100687Y-4886812D01*
X48234991Y-4797073D01*
X48234991Y-4997000D01*
X48057750Y-4997000D01*
X47899000Y-5155750D01*
X47899000Y-6355000D01*
X47919000Y-6355000D01*
X47919000Y-6609000D01*
X47899000Y-6609000D01*
X47899000Y-6629000D01*
X47645000Y-6629000D01*
X47645000Y-6609000D01*
X47625000Y-6609000D01*
X47625000Y-6355000D01*
X47645000Y-6355000D01*
X47645000Y-5155750D01*
X47486250Y-4997000D01*
X46795691Y-4997000D01*
X46562302Y-5093673D01*
X46383673Y-5272301D01*
X46287000Y-5505690D01*
X46287000Y-5765952D01*
X43870000Y-5765952D01*
X43870000Y-9858047D01*
X44082702Y-9858047D01*
X42840499Y-11100250D01*
X42840499Y-5898499D01*
X42817908Y-5784927D01*
X42798481Y-5687257D01*
X42715595Y-5563210D01*
X42715613Y-5542581D01*
X42616334Y-5302305D01*
X42432661Y-5118313D01*
X42192560Y-5018614D01*
X41932581Y-5018387D01*
X41692305Y-5117666D01*
X41508313Y-5301339D01*
X41408614Y-5541440D01*
X41408387Y-5801419D01*
X41507666Y-6041695D01*
X41691339Y-6225687D01*
X41736499Y-6244439D01*
X41736499Y-7815000D01*
X41525750Y-7815000D01*
X41367000Y-7973750D01*
X41367000Y-8575000D01*
X41387000Y-8575000D01*
X41387000Y-8825000D01*
X41367000Y-8825000D01*
X41367000Y-8826410D01*
X41340581Y-8826387D01*
X41290693Y-8847000D01*
X41113000Y-8847000D01*
X41113000Y-8825000D01*
X41093000Y-8825000D01*
X41093000Y-8575000D01*
X41113000Y-8575000D01*
X41113000Y-7973750D01*
X40954250Y-7815000D01*
X40663690Y-7815000D01*
X40430301Y-7911673D01*
X40251673Y-8090302D01*
X40172365Y-8281768D01*
X40172365Y-8172000D01*
X40142591Y-8013763D01*
X40106684Y-7957962D01*
X40674088Y-7390558D01*
X40793747Y-7211476D01*
X40835765Y-7000235D01*
X40835765Y-6306110D01*
X40837452Y-6304426D01*
X40937151Y-6064325D01*
X40937378Y-5804346D01*
X40838099Y-5564070D01*
X40654426Y-5380078D01*
X40414325Y-5280379D01*
X40154346Y-5280152D01*
X39914070Y-5379431D01*
X39845499Y-5447883D01*
X39786298Y-5388579D01*
X39546197Y-5288880D01*
X39286218Y-5288653D01*
X39227038Y-5313105D01*
X39281264Y-5231951D01*
X39328991Y-4992009D01*
X39328991Y-4770334D01*
X39503313Y-4886812D01*
X39992000Y-4984018D01*
X40480687Y-4886812D01*
X40894975Y-4609993D01*
X41171794Y-4195705D01*
X41262000Y-3742209D01*
X41352206Y-4195705D01*
X41629025Y-4609993D01*
X42043313Y-4886812D01*
X42532000Y-4984018D01*
X43020687Y-4886812D01*
X43434975Y-4609993D01*
X43711794Y-4195705D01*
X43802000Y-3742209D01*
X43892206Y-4195705D01*
X44169025Y-4609993D01*
X44583313Y-4886812D01*
X45072000Y-4984018D01*
X45560687Y-4886812D01*
X45974975Y-4609993D01*
X46251794Y-4195705D01*
X46342000Y-3742209D01*
X46432206Y-4195705D01*
X46432206Y-4195705D01*
G37*
X46432206Y-4195705D02*
X46709025Y-4609993D01*
X47123313Y-4886812D01*
X47612000Y-4984018D01*
X48100687Y-4886812D01*
X48234991Y-4797073D01*
X48234991Y-4997000D01*
X48057750Y-4997000D01*
X47899000Y-5155750D01*
X47899000Y-6355000D01*
X47919000Y-6355000D01*
X47919000Y-6609000D01*
X47899000Y-6609000D01*
X47899000Y-6629000D01*
X47645000Y-6629000D01*
X47645000Y-6609000D01*
X47625000Y-6609000D01*
X47625000Y-6355000D01*
X47645000Y-6355000D01*
X47645000Y-5155750D01*
X47486250Y-4997000D01*
X46795691Y-4997000D01*
X46562302Y-5093673D01*
X46383673Y-5272301D01*
X46287000Y-5505690D01*
X46287000Y-5765952D01*
X43870000Y-5765952D01*
X43870000Y-9858047D01*
X44082702Y-9858047D01*
X42840499Y-11100250D01*
X42840499Y-5898499D01*
X42817908Y-5784927D01*
X42798481Y-5687257D01*
X42715595Y-5563210D01*
X42715613Y-5542581D01*
X42616334Y-5302305D01*
X42432661Y-5118313D01*
X42192560Y-5018614D01*
X41932581Y-5018387D01*
X41692305Y-5117666D01*
X41508313Y-5301339D01*
X41408614Y-5541440D01*
X41408387Y-5801419D01*
X41507666Y-6041695D01*
X41691339Y-6225687D01*
X41736499Y-6244439D01*
X41736499Y-7815000D01*
X41525750Y-7815000D01*
X41367000Y-7973750D01*
X41367000Y-8575000D01*
X41387000Y-8575000D01*
X41387000Y-8825000D01*
X41367000Y-8825000D01*
X41367000Y-8826410D01*
X41340581Y-8826387D01*
X41290693Y-8847000D01*
X41113000Y-8847000D01*
X41113000Y-8825000D01*
X41093000Y-8825000D01*
X41093000Y-8575000D01*
X41113000Y-8575000D01*
X41113000Y-7973750D01*
X40954250Y-7815000D01*
X40663690Y-7815000D01*
X40430301Y-7911673D01*
X40251673Y-8090302D01*
X40172365Y-8281768D01*
X40172365Y-8172000D01*
X40142591Y-8013763D01*
X40106684Y-7957962D01*
X40674088Y-7390558D01*
X40793747Y-7211476D01*
X40835765Y-7000235D01*
X40835765Y-6306110D01*
X40837452Y-6304426D01*
X40937151Y-6064325D01*
X40937378Y-5804346D01*
X40838099Y-5564070D01*
X40654426Y-5380078D01*
X40414325Y-5280379D01*
X40154346Y-5280152D01*
X39914070Y-5379431D01*
X39845499Y-5447883D01*
X39786298Y-5388579D01*
X39546197Y-5288880D01*
X39286218Y-5288653D01*
X39227038Y-5313105D01*
X39281264Y-5231951D01*
X39328991Y-4992009D01*
X39328991Y-4770334D01*
X39503313Y-4886812D01*
X39992000Y-4984018D01*
X40480687Y-4886812D01*
X40894975Y-4609993D01*
X41171794Y-4195705D01*
X41262000Y-3742209D01*
X41352206Y-4195705D01*
X41629025Y-4609993D01*
X42043313Y-4886812D01*
X42532000Y-4984018D01*
X43020687Y-4886812D01*
X43434975Y-4609993D01*
X43711794Y-4195705D01*
X43802000Y-3742209D01*
X43892206Y-4195705D01*
X44169025Y-4609993D01*
X44583313Y-4886812D01*
X45072000Y-4984018D01*
X45560687Y-4886812D01*
X45974975Y-4609993D01*
X46251794Y-4195705D01*
X46342000Y-3742209D01*
X46432206Y-4195705D01*
G36*
X15400001Y-9410647D02*
X15400001Y-10894355D01*
X14847365Y-10341719D01*
X14847365Y-10199660D01*
X14950327Y-10096699D01*
X15047000Y-9863310D01*
X15047000Y-9697750D01*
X14888250Y-9539000D01*
X14009000Y-9539000D01*
X14009000Y-9559000D01*
X13755000Y-9559000D01*
X13755000Y-9539000D01*
X13735000Y-9539000D01*
X13735000Y-9285000D01*
X13755000Y-9285000D01*
X13755000Y-9265000D01*
X14009000Y-9265000D01*
X14009000Y-9285000D01*
X14888250Y-9285000D01*
X15047000Y-9126250D01*
X15047000Y-9057646D01*
X15400001Y-9410647D01*
X15400001Y-9410647D01*
G37*
X15400001Y-9410647D02*
X15400001Y-10894355D01*
X14847365Y-10341719D01*
X14847365Y-10199660D01*
X14950327Y-10096699D01*
X15047000Y-9863310D01*
X15047000Y-9697750D01*
X14888250Y-9539000D01*
X14009000Y-9539000D01*
X14009000Y-9559000D01*
X13755000Y-9559000D01*
X13755000Y-9539000D01*
X13735000Y-9539000D01*
X13735000Y-9285000D01*
X13755000Y-9285000D01*
X13755000Y-9265000D01*
X14009000Y-9265000D01*
X14009000Y-9285000D01*
X14888250Y-9285000D01*
X15047000Y-9126250D01*
X15047000Y-9057646D01*
X15400001Y-9410647D01*
G36*
X18009927Y-9075567D02*
X18152619Y-9173064D01*
X18322000Y-9207365D01*
X19222000Y-9207365D01*
X19266457Y-9199000D01*
X19761975Y-9199000D01*
X19678673Y-9282302D01*
X19582000Y-9515691D01*
X19582000Y-9542913D01*
X19534073Y-9468433D01*
X19391381Y-9370936D01*
X19222000Y-9336635D01*
X18322000Y-9336635D01*
X18163763Y-9366409D01*
X18018433Y-9459927D01*
X17920936Y-9602619D01*
X17886635Y-9772000D01*
X17886635Y-10138663D01*
X17774274Y-10026107D01*
X17534173Y-9926408D01*
X17530870Y-9926405D01*
X17452508Y-9848043D01*
X17452508Y-9165929D01*
X17544437Y-9074000D01*
X18008919Y-9074000D01*
X18009927Y-9075567D01*
X18009927Y-9075567D01*
G37*
X18009927Y-9075567D02*
X18152619Y-9173064D01*
X18322000Y-9207365D01*
X19222000Y-9207365D01*
X19266457Y-9199000D01*
X19761975Y-9199000D01*
X19678673Y-9282302D01*
X19582000Y-9515691D01*
X19582000Y-9542913D01*
X19534073Y-9468433D01*
X19391381Y-9370936D01*
X19222000Y-9336635D01*
X18322000Y-9336635D01*
X18163763Y-9366409D01*
X18018433Y-9459927D01*
X17920936Y-9602619D01*
X17886635Y-9772000D01*
X17886635Y-10138663D01*
X17774274Y-10026107D01*
X17534173Y-9926408D01*
X17530870Y-9926405D01*
X17452508Y-9848043D01*
X17452508Y-9165929D01*
X17544437Y-9074000D01*
X18008919Y-9074000D01*
X18009927Y-9075567D01*
G36*
X36272206Y-4195705D02*
X36549025Y-4609993D01*
X36963313Y-4886812D01*
X37452000Y-4984018D01*
X37915458Y-4891830D01*
X36792288Y-6015000D01*
X29396104Y-6015000D01*
X29332560Y-5988614D01*
X29072581Y-5988387D01*
X28832305Y-6087666D01*
X28648313Y-6271339D01*
X28577304Y-6442347D01*
X28541902Y-6442316D01*
X28340913Y-6525362D01*
X28170661Y-6354815D01*
X27930560Y-6255116D01*
X27670581Y-6254889D01*
X27430305Y-6354168D01*
X27246313Y-6537841D01*
X27146614Y-6777942D01*
X27146387Y-7037921D01*
X27220000Y-7216080D01*
X27220000Y-7758483D01*
X27093433Y-7839927D01*
X26995936Y-7982619D01*
X26961635Y-8152000D01*
X26961635Y-8952000D01*
X26991409Y-9110237D01*
X27010723Y-9140251D01*
X26858673Y-9292302D01*
X26834071Y-9351696D01*
X26805327Y-9282302D01*
X26654402Y-9131376D01*
X26668064Y-9111381D01*
X26702365Y-8942000D01*
X26702365Y-8142000D01*
X26672591Y-7983763D01*
X26579073Y-7838433D01*
X26519000Y-7797387D01*
X26519000Y-6998125D01*
X26597373Y-6919888D01*
X26697072Y-6679787D01*
X26697297Y-6422009D01*
X26703705Y-6422009D01*
X26914947Y-6379991D01*
X27094028Y-6260332D01*
X27470352Y-5884008D01*
X30691992Y-5884008D01*
X30903234Y-5841990D01*
X31082315Y-5722331D01*
X31912107Y-4892539D01*
X32372000Y-4984018D01*
X32860687Y-4886812D01*
X33274975Y-4609993D01*
X33551794Y-4195705D01*
X33642000Y-3742209D01*
X33732206Y-4195705D01*
X34009025Y-4609993D01*
X34423313Y-4886812D01*
X34912000Y-4984018D01*
X35400687Y-4886812D01*
X35814975Y-4609993D01*
X36091794Y-4195705D01*
X36182000Y-3742209D01*
X36272206Y-4195705D01*
X36272206Y-4195705D01*
G37*
X36272206Y-4195705D02*
X36549025Y-4609993D01*
X36963313Y-4886812D01*
X37452000Y-4984018D01*
X37915458Y-4891830D01*
X36792288Y-6015000D01*
X29396104Y-6015000D01*
X29332560Y-5988614D01*
X29072581Y-5988387D01*
X28832305Y-6087666D01*
X28648313Y-6271339D01*
X28577304Y-6442347D01*
X28541902Y-6442316D01*
X28340913Y-6525362D01*
X28170661Y-6354815D01*
X27930560Y-6255116D01*
X27670581Y-6254889D01*
X27430305Y-6354168D01*
X27246313Y-6537841D01*
X27146614Y-6777942D01*
X27146387Y-7037921D01*
X27220000Y-7216080D01*
X27220000Y-7758483D01*
X27093433Y-7839927D01*
X26995936Y-7982619D01*
X26961635Y-8152000D01*
X26961635Y-8952000D01*
X26991409Y-9110237D01*
X27010723Y-9140251D01*
X26858673Y-9292302D01*
X26834071Y-9351696D01*
X26805327Y-9282302D01*
X26654402Y-9131376D01*
X26668064Y-9111381D01*
X26702365Y-8942000D01*
X26702365Y-8142000D01*
X26672591Y-7983763D01*
X26579073Y-7838433D01*
X26519000Y-7797387D01*
X26519000Y-6998125D01*
X26597373Y-6919888D01*
X26697072Y-6679787D01*
X26697297Y-6422009D01*
X26703705Y-6422009D01*
X26914947Y-6379991D01*
X27094028Y-6260332D01*
X27470352Y-5884008D01*
X30691992Y-5884008D01*
X30903234Y-5841990D01*
X31082315Y-5722331D01*
X31912107Y-4892539D01*
X32372000Y-4984018D01*
X32860687Y-4886812D01*
X33274975Y-4609993D01*
X33551794Y-4195705D01*
X33642000Y-3742209D01*
X33732206Y-4195705D01*
X34009025Y-4609993D01*
X34423313Y-4886812D01*
X34912000Y-4984018D01*
X35400687Y-4886812D01*
X35814975Y-4609993D01*
X36091794Y-4195705D01*
X36182000Y-3742209D01*
X36272206Y-4195705D01*
G36*
X21032206Y-4195705D02*
X21309025Y-4609993D01*
X21311624Y-4611730D01*
X20444965Y-5478389D01*
X20442581Y-5478387D01*
X20202305Y-5577666D01*
X20018313Y-5761339D01*
X19918614Y-6001440D01*
X19918387Y-6261419D01*
X20017666Y-6501695D01*
X20201339Y-6685687D01*
X20441440Y-6785386D01*
X20701419Y-6785613D01*
X20941695Y-6686334D01*
X21125687Y-6502661D01*
X21225386Y-6262560D01*
X21225389Y-6259257D01*
X21616423Y-5868223D01*
X21616387Y-5909419D01*
X21715666Y-6149695D01*
X21899339Y-6333687D01*
X22139440Y-6433386D01*
X22399419Y-6433613D01*
X22639695Y-6334334D01*
X22756562Y-6217670D01*
X22765666Y-6239704D01*
X22949339Y-6423696D01*
X23189440Y-6523395D01*
X23449419Y-6523622D01*
X23689695Y-6424343D01*
X23692033Y-6422009D01*
X25338761Y-6422009D01*
X25312728Y-6460970D01*
X25265000Y-6700913D01*
X25265000Y-7796744D01*
X25213433Y-7829927D01*
X25196301Y-7855000D01*
X24906169Y-7855000D01*
X24889073Y-7828433D01*
X24746381Y-7730936D01*
X24577000Y-7696635D01*
X23827000Y-7696635D01*
X23668763Y-7726409D01*
X23523433Y-7819927D01*
X23478971Y-7885000D01*
X23026169Y-7885000D01*
X23009073Y-7858433D01*
X22866381Y-7760936D01*
X22697000Y-7726635D01*
X21947000Y-7726635D01*
X21788763Y-7756409D01*
X21643433Y-7849927D01*
X21619469Y-7885000D01*
X21309038Y-7885000D01*
X21279073Y-7838433D01*
X21136381Y-7740936D01*
X20967000Y-7706635D01*
X20217000Y-7706635D01*
X20058763Y-7736409D01*
X19913433Y-7829927D01*
X19903134Y-7845000D01*
X19263307Y-7845000D01*
X19222000Y-7836635D01*
X18322000Y-7836635D01*
X18163763Y-7866409D01*
X18018433Y-7959927D01*
X18011550Y-7970000D01*
X17898075Y-7970000D01*
X18055687Y-7812661D01*
X18155386Y-7572560D01*
X18155473Y-7472758D01*
X18221698Y-7445327D01*
X18400327Y-7266699D01*
X18497000Y-7033310D01*
X18497000Y-6817750D01*
X18338250Y-6659000D01*
X17589000Y-6659000D01*
X17589000Y-6679000D01*
X17335000Y-6679000D01*
X17335000Y-6659000D01*
X17315000Y-6659000D01*
X17315000Y-6405000D01*
X17335000Y-6405000D01*
X17335000Y-5680750D01*
X17589000Y-5680750D01*
X17589000Y-6405000D01*
X18338250Y-6405000D01*
X18497000Y-6246250D01*
X18497000Y-6030690D01*
X18400327Y-5797301D01*
X18221698Y-5618673D01*
X17988309Y-5522000D01*
X17747750Y-5522000D01*
X17589000Y-5680750D01*
X17335000Y-5680750D01*
X17176250Y-5522000D01*
X16935691Y-5522000D01*
X16702302Y-5618673D01*
X16551376Y-5769598D01*
X16531381Y-5755936D01*
X16497506Y-5749076D01*
X16471982Y-5620758D01*
X16352323Y-5441677D01*
X16013611Y-5102965D01*
X16013613Y-5100581D01*
X15914334Y-4860305D01*
X15730661Y-4676313D01*
X15511475Y-4585299D01*
X15771794Y-4195705D01*
X15862000Y-3742209D01*
X15952206Y-4195705D01*
X16229025Y-4609993D01*
X16643313Y-4886812D01*
X17132000Y-4984018D01*
X17620687Y-4886812D01*
X18034975Y-4609993D01*
X18311794Y-4195705D01*
X18402000Y-3742209D01*
X18492206Y-4195705D01*
X18769025Y-4609993D01*
X19183313Y-4886812D01*
X19672000Y-4984018D01*
X20160687Y-4886812D01*
X20574975Y-4609993D01*
X20851794Y-4195705D01*
X20942000Y-3742209D01*
X21032206Y-4195705D01*
X21032206Y-4195705D01*
G37*
X21032206Y-4195705D02*
X21309025Y-4609993D01*
X21311624Y-4611730D01*
X20444965Y-5478389D01*
X20442581Y-5478387D01*
X20202305Y-5577666D01*
X20018313Y-5761339D01*
X19918614Y-6001440D01*
X19918387Y-6261419D01*
X20017666Y-6501695D01*
X20201339Y-6685687D01*
X20441440Y-6785386D01*
X20701419Y-6785613D01*
X20941695Y-6686334D01*
X21125687Y-6502661D01*
X21225386Y-6262560D01*
X21225389Y-6259257D01*
X21616423Y-5868223D01*
X21616387Y-5909419D01*
X21715666Y-6149695D01*
X21899339Y-6333687D01*
X22139440Y-6433386D01*
X22399419Y-6433613D01*
X22639695Y-6334334D01*
X22756562Y-6217670D01*
X22765666Y-6239704D01*
X22949339Y-6423696D01*
X23189440Y-6523395D01*
X23449419Y-6523622D01*
X23689695Y-6424343D01*
X23692033Y-6422009D01*
X25338761Y-6422009D01*
X25312728Y-6460970D01*
X25265000Y-6700913D01*
X25265000Y-7796744D01*
X25213433Y-7829927D01*
X25196301Y-7855000D01*
X24906169Y-7855000D01*
X24889073Y-7828433D01*
X24746381Y-7730936D01*
X24577000Y-7696635D01*
X23827000Y-7696635D01*
X23668763Y-7726409D01*
X23523433Y-7819927D01*
X23478971Y-7885000D01*
X23026169Y-7885000D01*
X23009073Y-7858433D01*
X22866381Y-7760936D01*
X22697000Y-7726635D01*
X21947000Y-7726635D01*
X21788763Y-7756409D01*
X21643433Y-7849927D01*
X21619469Y-7885000D01*
X21309038Y-7885000D01*
X21279073Y-7838433D01*
X21136381Y-7740936D01*
X20967000Y-7706635D01*
X20217000Y-7706635D01*
X20058763Y-7736409D01*
X19913433Y-7829927D01*
X19903134Y-7845000D01*
X19263307Y-7845000D01*
X19222000Y-7836635D01*
X18322000Y-7836635D01*
X18163763Y-7866409D01*
X18018433Y-7959927D01*
X18011550Y-7970000D01*
X17898075Y-7970000D01*
X18055687Y-7812661D01*
X18155386Y-7572560D01*
X18155473Y-7472758D01*
X18221698Y-7445327D01*
X18400327Y-7266699D01*
X18497000Y-7033310D01*
X18497000Y-6817750D01*
X18338250Y-6659000D01*
X17589000Y-6659000D01*
X17589000Y-6679000D01*
X17335000Y-6679000D01*
X17335000Y-6659000D01*
X17315000Y-6659000D01*
X17315000Y-6405000D01*
X17335000Y-6405000D01*
X17335000Y-5680750D01*
X17589000Y-5680750D01*
X17589000Y-6405000D01*
X18338250Y-6405000D01*
X18497000Y-6246250D01*
X18497000Y-6030690D01*
X18400327Y-5797301D01*
X18221698Y-5618673D01*
X17988309Y-5522000D01*
X17747750Y-5522000D01*
X17589000Y-5680750D01*
X17335000Y-5680750D01*
X17176250Y-5522000D01*
X16935691Y-5522000D01*
X16702302Y-5618673D01*
X16551376Y-5769598D01*
X16531381Y-5755936D01*
X16497506Y-5749076D01*
X16471982Y-5620758D01*
X16352323Y-5441677D01*
X16013611Y-5102965D01*
X16013613Y-5100581D01*
X15914334Y-4860305D01*
X15730661Y-4676313D01*
X15511475Y-4585299D01*
X15771794Y-4195705D01*
X15862000Y-3742209D01*
X15952206Y-4195705D01*
X16229025Y-4609993D01*
X16643313Y-4886812D01*
X17132000Y-4984018D01*
X17620687Y-4886812D01*
X18034975Y-4609993D01*
X18311794Y-4195705D01*
X18402000Y-3742209D01*
X18492206Y-4195705D01*
X18769025Y-4609993D01*
X19183313Y-4886812D01*
X19672000Y-4984018D01*
X20160687Y-4886812D01*
X20574975Y-4609993D01*
X20851794Y-4195705D01*
X20942000Y-3742209D01*
X21032206Y-4195705D01*
G36*
X42043313Y-2477188D02*
X41629025Y-2754007D01*
X41352206Y-3168295D01*
X41262000Y-3621791D01*
X41171794Y-3168295D01*
X40894975Y-2754007D01*
X40480687Y-2477188D01*
X40389295Y-2459009D01*
X42134705Y-2459009D01*
X42043313Y-2477188D01*
X42043313Y-2477188D01*
G37*
X42043313Y-2477188D02*
X41629025Y-2754007D01*
X41352206Y-3168295D01*
X41262000Y-3621791D01*
X41171794Y-3168295D01*
X40894975Y-2754007D01*
X40480687Y-2477188D01*
X40389295Y-2459009D01*
X42134705Y-2459009D01*
X42043313Y-2477188D01*
G36*
X47123313Y-2477188D02*
X46709025Y-2754007D01*
X46432206Y-3168295D01*
X46342000Y-3621791D01*
X46251794Y-3168295D01*
X45974975Y-2754007D01*
X45560687Y-2477188D01*
X45469295Y-2459009D01*
X47214705Y-2459009D01*
X47123313Y-2477188D01*
X47123313Y-2477188D01*
G37*
X47123313Y-2477188D02*
X46709025Y-2754007D01*
X46432206Y-3168295D01*
X46342000Y-3621791D01*
X46251794Y-3168295D01*
X45974975Y-2754007D01*
X45560687Y-2477188D01*
X45469295Y-2459009D01*
X47214705Y-2459009D01*
X47123313Y-2477188D01*
M02*
