%TF.GenerationSoftware,KiCad,Pcbnew,4.0.7*%
%TF.CreationDate,2018-01-16T14:15:25+08:00*%
%TF.ProjectId,STM32F401CCT6,53544D333246343031434354362E6B69,rev?*%
%TF.FileFunction,Copper,L1,Top,Signal*%
%FSLAX46Y46*%
G04 Gerber Fmt 4.6, Leading zero omitted, Abs format (unit mm)*
G04 Created by KiCad (PCBNEW 4.0.7) date 01/16/18 14:15:25*
%MOMM*%
%LPD*%
G01*
G04 APERTURE LIST*
%ADD10C,0.100000*%
%ADD11R,1.900000X1.300000*%
%ADD12C,1.500000*%
%ADD13R,1.700000X1.700000*%
%ADD14O,1.700000X1.700000*%
%ADD15R,1.700000X1.000000*%
%ADD16R,1.200000X1.200000*%
%ADD17R,1.900000X1.500000*%
%ADD18C,1.450000*%
%ADD19R,1.350000X0.400000*%
%ADD20O,1.900000X1.200000*%
%ADD21R,1.900000X1.200000*%
%ADD22C,0.453000*%
%ADD23C,0.400000*%
%ADD24C,0.250000*%
%ADD25C,0.500000*%
%ADD26C,0.254000*%
G04 APERTURE END LIST*
D10*
D11*
X36822000Y-9292000D03*
X36822000Y-14792000D03*
X40022000Y-14792000D03*
X40022000Y-9292000D03*
D12*
X32222000Y-14222000D03*
X32222000Y-9342000D03*
D10*
G36*
X27348435Y-11608715D02*
X28585871Y-12846151D01*
X28373739Y-13058283D01*
X27136303Y-11820847D01*
X27348435Y-11608715D01*
X27348435Y-11608715D01*
G37*
G36*
X26994882Y-11962268D02*
X28232318Y-13199704D01*
X28020186Y-13411836D01*
X26782750Y-12174400D01*
X26994882Y-11962268D01*
X26994882Y-11962268D01*
G37*
G36*
X26641328Y-12315822D02*
X27878764Y-13553258D01*
X27666632Y-13765390D01*
X26429196Y-12527954D01*
X26641328Y-12315822D01*
X26641328Y-12315822D01*
G37*
G36*
X26287775Y-12669375D02*
X27525211Y-13906811D01*
X27313079Y-14118943D01*
X26075643Y-12881507D01*
X26287775Y-12669375D01*
X26287775Y-12669375D01*
G37*
G36*
X25934222Y-13022928D02*
X27171658Y-14260364D01*
X26959526Y-14472496D01*
X25722090Y-13235060D01*
X25934222Y-13022928D01*
X25934222Y-13022928D01*
G37*
G36*
X26605972Y-14826050D02*
X25368536Y-13588614D01*
X25580668Y-13376482D01*
X26818104Y-14613918D01*
X26605972Y-14826050D01*
X26605972Y-14826050D01*
G37*
G36*
X25227115Y-13730035D02*
X26464551Y-14967471D01*
X26252419Y-15179603D01*
X25014983Y-13942167D01*
X25227115Y-13730035D01*
X25227115Y-13730035D01*
G37*
G36*
X24873561Y-14083589D02*
X26110997Y-15321025D01*
X25898865Y-15533157D01*
X24661429Y-14295721D01*
X24873561Y-14083589D01*
X24873561Y-14083589D01*
G37*
G36*
X24520008Y-14437142D02*
X25757444Y-15674578D01*
X25545312Y-15886710D01*
X24307876Y-14649274D01*
X24520008Y-14437142D01*
X24520008Y-14437142D01*
G37*
G36*
X24166455Y-14790695D02*
X25403891Y-16028131D01*
X25191759Y-16240263D01*
X23954323Y-15002827D01*
X24166455Y-14790695D01*
X24166455Y-14790695D01*
G37*
G36*
X23812901Y-15144249D02*
X25050337Y-16381685D01*
X24838205Y-16593817D01*
X23600769Y-15356381D01*
X23812901Y-15144249D01*
X23812901Y-15144249D01*
G37*
G36*
X23459348Y-15497802D02*
X24696784Y-16735238D01*
X24484652Y-16947370D01*
X23247216Y-15709934D01*
X23459348Y-15497802D01*
X23459348Y-15497802D01*
G37*
G36*
X25014983Y-8992419D02*
X26252419Y-7754983D01*
X26464551Y-7967115D01*
X25227115Y-9204551D01*
X25014983Y-8992419D01*
X25014983Y-8992419D01*
G37*
G36*
X25368536Y-9345972D02*
X26605972Y-8108536D01*
X26818104Y-8320668D01*
X25580668Y-9558104D01*
X25368536Y-9345972D01*
X25368536Y-9345972D01*
G37*
G36*
X25722090Y-9699526D02*
X26959526Y-8462090D01*
X27171658Y-8674222D01*
X25934222Y-9911658D01*
X25722090Y-9699526D01*
X25722090Y-9699526D01*
G37*
G36*
X26075643Y-10053079D02*
X27313079Y-8815643D01*
X27525211Y-9027775D01*
X26287775Y-10265211D01*
X26075643Y-10053079D01*
X26075643Y-10053079D01*
G37*
G36*
X26429196Y-10406632D02*
X27666632Y-9169196D01*
X27878764Y-9381328D01*
X26641328Y-10618764D01*
X26429196Y-10406632D01*
X26429196Y-10406632D01*
G37*
G36*
X26782750Y-10760186D02*
X28020186Y-9522750D01*
X28232318Y-9734882D01*
X26994882Y-10972318D01*
X26782750Y-10760186D01*
X26782750Y-10760186D01*
G37*
G36*
X24661429Y-8638865D02*
X25898865Y-7401429D01*
X26110997Y-7613561D01*
X24873561Y-8850997D01*
X24661429Y-8638865D01*
X24661429Y-8638865D01*
G37*
G36*
X27136303Y-11113739D02*
X28373739Y-9876303D01*
X28585871Y-10088435D01*
X27348435Y-11325871D01*
X27136303Y-11113739D01*
X27136303Y-11113739D01*
G37*
G36*
X24307876Y-8285312D02*
X25545312Y-7047876D01*
X25757444Y-7260008D01*
X24520008Y-8497444D01*
X24307876Y-8285312D01*
X24307876Y-8285312D01*
G37*
G36*
X23954323Y-7931759D02*
X25191759Y-6694323D01*
X25403891Y-6906455D01*
X24166455Y-8143891D01*
X23954323Y-7931759D01*
X23954323Y-7931759D01*
G37*
G36*
X23600769Y-7578205D02*
X24838205Y-6340769D01*
X25050337Y-6552901D01*
X23812901Y-7790337D01*
X23600769Y-7578205D01*
X23600769Y-7578205D01*
G37*
G36*
X23247216Y-7224652D02*
X24484652Y-5987216D01*
X24696784Y-6199348D01*
X23459348Y-7436784D01*
X23247216Y-7224652D01*
X23247216Y-7224652D01*
G37*
G36*
X19605616Y-8108536D02*
X20843052Y-9345972D01*
X20630920Y-9558104D01*
X19393484Y-8320668D01*
X19605616Y-8108536D01*
X19605616Y-8108536D01*
G37*
G36*
X19959169Y-7754983D02*
X21196605Y-8992419D01*
X20984473Y-9204551D01*
X19747037Y-7967115D01*
X19959169Y-7754983D01*
X19959169Y-7754983D01*
G37*
G36*
X20312723Y-7401429D02*
X21550159Y-8638865D01*
X21338027Y-8850997D01*
X20100591Y-7613561D01*
X20312723Y-7401429D01*
X20312723Y-7401429D01*
G37*
G36*
X20666276Y-7047876D02*
X21903712Y-8285312D01*
X21691580Y-8497444D01*
X20454144Y-7260008D01*
X20666276Y-7047876D01*
X20666276Y-7047876D01*
G37*
G36*
X21019829Y-6694323D02*
X22257265Y-7931759D01*
X22045133Y-8143891D01*
X20807697Y-6906455D01*
X21019829Y-6694323D01*
X21019829Y-6694323D01*
G37*
G36*
X21373383Y-6340769D02*
X22610819Y-7578205D01*
X22398687Y-7790337D01*
X21161251Y-6552901D01*
X21373383Y-6340769D01*
X21373383Y-6340769D01*
G37*
G36*
X21726936Y-5987216D02*
X22964372Y-7224652D01*
X22752240Y-7436784D01*
X21514804Y-6199348D01*
X21726936Y-5987216D01*
X21726936Y-5987216D01*
G37*
G36*
X19252062Y-8462090D02*
X20489498Y-9699526D01*
X20277366Y-9911658D01*
X19039930Y-8674222D01*
X19252062Y-8462090D01*
X19252062Y-8462090D01*
G37*
G36*
X18898509Y-8815643D02*
X20135945Y-10053079D01*
X19923813Y-10265211D01*
X18686377Y-9027775D01*
X18898509Y-8815643D01*
X18898509Y-8815643D01*
G37*
G36*
X18544956Y-9169196D02*
X19782392Y-10406632D01*
X19570260Y-10618764D01*
X18332824Y-9381328D01*
X18544956Y-9169196D01*
X18544956Y-9169196D01*
G37*
G36*
X18191402Y-9522750D02*
X19428838Y-10760186D01*
X19216706Y-10972318D01*
X17979270Y-9734882D01*
X18191402Y-9522750D01*
X18191402Y-9522750D01*
G37*
G36*
X17837849Y-9876303D02*
X19075285Y-11113739D01*
X18863153Y-11325871D01*
X17625717Y-10088435D01*
X17837849Y-9876303D01*
X17837849Y-9876303D01*
G37*
G36*
X19747037Y-14967471D02*
X20984473Y-13730035D01*
X21196605Y-13942167D01*
X19959169Y-15179603D01*
X19747037Y-14967471D01*
X19747037Y-14967471D01*
G37*
G36*
X19393484Y-14613918D02*
X20630920Y-13376482D01*
X20843052Y-13588614D01*
X19605616Y-14826050D01*
X19393484Y-14613918D01*
X19393484Y-14613918D01*
G37*
G36*
X20100591Y-15321025D02*
X21338027Y-14083589D01*
X21550159Y-14295721D01*
X20312723Y-15533157D01*
X20100591Y-15321025D01*
X20100591Y-15321025D01*
G37*
G36*
X20454144Y-15674578D02*
X21691580Y-14437142D01*
X21903712Y-14649274D01*
X20666276Y-15886710D01*
X20454144Y-15674578D01*
X20454144Y-15674578D01*
G37*
G36*
X20807697Y-16028131D02*
X22045133Y-14790695D01*
X22257265Y-15002827D01*
X21019829Y-16240263D01*
X20807697Y-16028131D01*
X20807697Y-16028131D01*
G37*
G36*
X21161251Y-16381685D02*
X22398687Y-15144249D01*
X22610819Y-15356381D01*
X21373383Y-16593817D01*
X21161251Y-16381685D01*
X21161251Y-16381685D01*
G37*
G36*
X21514804Y-16735238D02*
X22752240Y-15497802D01*
X22964372Y-15709934D01*
X21726936Y-16947370D01*
X21514804Y-16735238D01*
X21514804Y-16735238D01*
G37*
G36*
X19039930Y-14260364D02*
X20277366Y-13022928D01*
X20489498Y-13235060D01*
X19252062Y-14472496D01*
X19039930Y-14260364D01*
X19039930Y-14260364D01*
G37*
G36*
X18686377Y-13906811D02*
X19923813Y-12669375D01*
X20135945Y-12881507D01*
X18898509Y-14118943D01*
X18686377Y-13906811D01*
X18686377Y-13906811D01*
G37*
G36*
X18332824Y-13553258D02*
X19570260Y-12315822D01*
X19782392Y-12527954D01*
X18544956Y-13765390D01*
X18332824Y-13553258D01*
X18332824Y-13553258D01*
G37*
G36*
X17979270Y-13199704D02*
X19216706Y-11962268D01*
X19428838Y-12174400D01*
X18191402Y-13411836D01*
X17979270Y-13199704D01*
X17979270Y-13199704D01*
G37*
G36*
X17625717Y-12846151D02*
X18863153Y-11608715D01*
X19075285Y-11820847D01*
X17837849Y-13058283D01*
X17625717Y-12846151D01*
X17625717Y-12846151D01*
G37*
G36*
X25297825Y-9699526D02*
X27065592Y-11467293D01*
X25297825Y-13235060D01*
X23530058Y-11467293D01*
X25297825Y-9699526D01*
X25297825Y-9699526D01*
G37*
G36*
X20913763Y-9699526D02*
X22681530Y-11467293D01*
X20913763Y-13235060D01*
X19145996Y-11467293D01*
X20913763Y-9699526D01*
X20913763Y-9699526D01*
G37*
G36*
X23105794Y-11891557D02*
X24873561Y-13659324D01*
X23105794Y-15427091D01*
X21338027Y-13659324D01*
X23105794Y-11891557D01*
X23105794Y-11891557D01*
G37*
G36*
X23105794Y-7507495D02*
X24873561Y-9275262D01*
X23105794Y-11043029D01*
X21338027Y-9275262D01*
X23105794Y-7507495D01*
X23105794Y-7507495D01*
G37*
D13*
X47772000Y-6482000D03*
D14*
X47772000Y-9022000D03*
X47772000Y-11562000D03*
X47772000Y-14102000D03*
X47772000Y-16642000D03*
D15*
X8462000Y-6282000D03*
X14762000Y-6282000D03*
X8462000Y-10082000D03*
X14762000Y-10082000D03*
D13*
X50152000Y-19182000D03*
D14*
X47612000Y-19182000D03*
X45072000Y-19182000D03*
X42532000Y-19182000D03*
X39992000Y-19182000D03*
X37452000Y-19182000D03*
X34912000Y-19182000D03*
X32372000Y-19182000D03*
X29832000Y-19182000D03*
X27292000Y-19182000D03*
X24752000Y-19182000D03*
X22212000Y-19182000D03*
X19672000Y-19182000D03*
X17132000Y-19182000D03*
X14592000Y-19182000D03*
X12052000Y-19182000D03*
X9512000Y-19182000D03*
X6972000Y-19182000D03*
X4432000Y-19182000D03*
X1892000Y-19182000D03*
D13*
X50152000Y-3682000D03*
D14*
X47612000Y-3682000D03*
X45072000Y-3682000D03*
X42532000Y-3682000D03*
X39992000Y-3682000D03*
X37452000Y-3682000D03*
X34912000Y-3682000D03*
X32372000Y-3682000D03*
X29832000Y-3682000D03*
X27292000Y-3682000D03*
X24752000Y-3682000D03*
X22212000Y-3682000D03*
X19672000Y-3682000D03*
X17132000Y-3682000D03*
X14592000Y-3682000D03*
X12052000Y-3682000D03*
X9512000Y-3682000D03*
X6972000Y-3682000D03*
X4432000Y-3682000D03*
X1892000Y-3682000D03*
D13*
X14110000Y-13080000D03*
D14*
X14110000Y-15620000D03*
X11570000Y-13080000D03*
X11570000Y-15620000D03*
X9030000Y-13080000D03*
X9030000Y-15620000D03*
D16*
X43332000Y-7632000D03*
X43332000Y-9832000D03*
X43332000Y-13062000D03*
X43332000Y-15262000D03*
D17*
X1950000Y-12300000D03*
D18*
X4650000Y-8800000D03*
D19*
X4650000Y-10650000D03*
X4650000Y-10000000D03*
X4650000Y-12600000D03*
X4650000Y-11950000D03*
X4650000Y-11300000D03*
D18*
X4650000Y-13800000D03*
D17*
X1950000Y-10300000D03*
D20*
X1950000Y-7800000D03*
X1950000Y-14800000D03*
D21*
X1950000Y-14200000D03*
X1950000Y-8400000D03*
D22*
X22590000Y-20480000D03*
X4978642Y-16975358D03*
X6570000Y-15250000D03*
X6340000Y-10420000D03*
X11492000Y-7402000D03*
X33870000Y-12560000D03*
X20838457Y-16989442D03*
X26588588Y-6909077D03*
X6670448Y-12212992D03*
X9360000Y-7270000D03*
X29030000Y-12270000D03*
X15027782Y-9037708D03*
X17452000Y-9202000D03*
X29015525Y-13418475D03*
X32242000Y-8122000D03*
X6502000Y-5382000D03*
X21462000Y-9712000D03*
X23082000Y-11297010D03*
X23572000Y-10972000D03*
X22632000Y-11032000D03*
X30302000Y-11072000D03*
X49870000Y-7710000D03*
X27800000Y-6908502D03*
X16953502Y-11052880D03*
X49860000Y-5090000D03*
X38412000Y-8562000D03*
X40283765Y-5933765D03*
X38440000Y-9260000D03*
X39415637Y-5942266D03*
X28687278Y-7758528D03*
X28671321Y-7095929D03*
X41470000Y-9480000D03*
X41270499Y-13199915D03*
X10302000Y-10820499D03*
X17510000Y-11810000D03*
X17682000Y-16150500D03*
X16242233Y-17582233D03*
X42062000Y-5672000D03*
X23320000Y-5870009D03*
X22270000Y-5780000D03*
X20572000Y-6132000D03*
X24876565Y-17206504D03*
X25252000Y-17832000D03*
X19701956Y-17305509D03*
X18976246Y-16716246D03*
X29932000Y-16132000D03*
X17502000Y-7442000D03*
X7001522Y-10963120D03*
X3400000Y-12250000D03*
X7079495Y-11673617D03*
X15360000Y-5230000D03*
X1372000Y-16812000D03*
X20871991Y-19857000D03*
X10772000Y-21212000D03*
X10792000Y-19789009D03*
X10812000Y-17472000D03*
X26043686Y-6549227D03*
X49203895Y-7744652D03*
X29202000Y-6642000D03*
X17403613Y-10579794D03*
X24039145Y-17268683D03*
X29922000Y-14492000D03*
X44272000Y-11932000D03*
D23*
X22910319Y-20480000D02*
X22590000Y-20480000D01*
X45072000Y-19182000D02*
X43774000Y-20480000D01*
X43774000Y-20480000D02*
X22910319Y-20480000D01*
X4650000Y-10000000D02*
X5920000Y-10000000D01*
X5920000Y-10000000D02*
X6340000Y-10420000D01*
D24*
X4978642Y-16841358D02*
X4978642Y-16975358D01*
X6570000Y-15250000D02*
X4978642Y-16841358D01*
X45072000Y-19222000D02*
X43762000Y-20532000D01*
D23*
X4650000Y-12600000D02*
X4650000Y-13800000D01*
X4650000Y-12600000D02*
X6283440Y-12600000D01*
X6283440Y-12600000D02*
X6670448Y-12212992D01*
D25*
X1950000Y-14610000D02*
X3650000Y-14610000D01*
X3650000Y-14610000D02*
X4650000Y-13610000D01*
X1950000Y-14010000D02*
X1950000Y-14610000D01*
X1950000Y-12110000D02*
X1950000Y-14010000D01*
X1950000Y-10110000D02*
X1950000Y-12110000D01*
X1950000Y-8210000D02*
X1950000Y-10110000D01*
X1950000Y-7610000D02*
X1950000Y-8210000D01*
X2102000Y-6012000D02*
X1950000Y-6164000D01*
X1950000Y-6164000D02*
X1950000Y-7610000D01*
X2102000Y-6012000D02*
X2126592Y-6036592D01*
D24*
X15991681Y-8062000D02*
X16201681Y-8272000D01*
X16201681Y-8272000D02*
X17131681Y-9202000D01*
X15802000Y-8251681D02*
X16181362Y-8251681D01*
X16181362Y-8251681D02*
X16201681Y-8272000D01*
X15802000Y-8251681D02*
X15991681Y-8062000D01*
X15430000Y-8623681D02*
X15802000Y-8251681D01*
X15432000Y-7502319D02*
X15802000Y-7872319D01*
X15802000Y-7872319D02*
X15991681Y-8062000D01*
X15802000Y-8251681D02*
X15802000Y-7872319D01*
X15430000Y-8635490D02*
X15430000Y-8623681D01*
D25*
X8452000Y-6462000D02*
X7612000Y-6462000D01*
X7612000Y-6462000D02*
X4832000Y-3682000D01*
X4832000Y-3682000D02*
X4432000Y-3682000D01*
D24*
X11812319Y-7402000D02*
X11492000Y-7402000D01*
X15331681Y-7402000D02*
X11812319Y-7402000D01*
X15432000Y-7502319D02*
X15331681Y-7402000D01*
D23*
X33643501Y-12333501D02*
X33870000Y-12560000D01*
X32382000Y-11072000D02*
X33643501Y-12333501D01*
X30302000Y-11072000D02*
X32382000Y-11072000D01*
D24*
X15027782Y-9037708D02*
X15430000Y-8635490D01*
X15430000Y-7504319D02*
X15432000Y-7502319D01*
X21877241Y-15863740D02*
X20830000Y-16910981D01*
X20830000Y-16980985D02*
X20838457Y-16989442D01*
X20830000Y-16910981D02*
X20830000Y-16980985D01*
X47612000Y-19222000D02*
X50622000Y-16212000D01*
X25422227Y-8075438D02*
X26362089Y-7135576D01*
X25422227Y-8125553D02*
X25422227Y-8075438D01*
X26362089Y-7135576D02*
X26588588Y-6909077D01*
X8552000Y-6462000D02*
X9133501Y-7043501D01*
X8452000Y-6462000D02*
X8552000Y-6462000D01*
X9133501Y-7043501D02*
X9360000Y-7270000D01*
D23*
X29015525Y-12284475D02*
X29030000Y-12270000D01*
X29015525Y-13418475D02*
X29015525Y-12284475D01*
D24*
X18695260Y-10242241D02*
X17645019Y-9192000D01*
X17645019Y-9192000D02*
X17462000Y-9192000D01*
X17462000Y-9192000D02*
X17452000Y-9202000D01*
X17131681Y-9202000D02*
X17452000Y-9202000D01*
D23*
X47612000Y-19182000D02*
X45172000Y-16742000D01*
D25*
X4432000Y-3682000D02*
X2102000Y-6012000D01*
D24*
X27507534Y-12687052D02*
X26287775Y-11467293D01*
X26287775Y-11467293D02*
X25297825Y-11467293D01*
X29015525Y-13418475D02*
X28238425Y-13418475D01*
X28238425Y-13418475D02*
X28238425Y-13417943D01*
X28238425Y-13417943D02*
X27507534Y-12687052D01*
X29015525Y-13416355D02*
X29015525Y-13418475D01*
X29011170Y-13412000D02*
X29015525Y-13416355D01*
X25292000Y-11462000D02*
X26281950Y-11462000D01*
X31921681Y-8122000D02*
X32242000Y-8122000D01*
X30302000Y-11072000D02*
X30302000Y-9483381D01*
X31663381Y-8122000D02*
X31921681Y-8122000D01*
X30302000Y-9483381D02*
X31663381Y-8122000D01*
X25380388Y-8120920D02*
X24231339Y-9269969D01*
X24231339Y-9269969D02*
X23099969Y-9269969D01*
D25*
X23099969Y-13654031D02*
X20907938Y-11462000D01*
X25292000Y-11462000D02*
X23099969Y-13654031D01*
X25292000Y-11462000D02*
X23099969Y-9269969D01*
X22632000Y-11032000D02*
X21337938Y-11032000D01*
X21337938Y-11032000D02*
X20907938Y-11462000D01*
X23082000Y-11297010D02*
X23082000Y-13636062D01*
X25292000Y-11462000D02*
X24062000Y-11462000D01*
X24062000Y-11462000D02*
X23572000Y-10972000D01*
X23099969Y-9269969D02*
X20907938Y-11462000D01*
X21462000Y-9712000D02*
X22657938Y-9712000D01*
X22657938Y-9712000D02*
X23099969Y-9269969D01*
D24*
X23099969Y-13654031D02*
X23099969Y-14643981D01*
X23099969Y-14643981D02*
X21880210Y-15863740D01*
X20907938Y-11462000D02*
X22252104Y-11462000D01*
X18698229Y-10242241D02*
X19917988Y-11462000D01*
X19917988Y-11462000D02*
X20907938Y-11462000D01*
X27521776Y-12681776D02*
X27498740Y-12681776D01*
X27498740Y-12681776D02*
X27498732Y-12681768D01*
X7682000Y-6462000D02*
X8452000Y-6462000D01*
X9822000Y-10082000D02*
X10582000Y-10082000D01*
X10582000Y-10082000D02*
X14762000Y-10082000D01*
X10268508Y-9762000D02*
X10268508Y-9768508D01*
X10268508Y-9768508D02*
X10582000Y-10082000D01*
X8462000Y-10082000D02*
X9822000Y-10082000D01*
X9948508Y-10082000D02*
X10268508Y-9762000D01*
X10268508Y-5640589D02*
X10268508Y-9762000D01*
X9822000Y-10082000D02*
X9948508Y-10082000D01*
X10268508Y-9762000D02*
X10268508Y-10000000D01*
X16953502Y-11052880D02*
X15982622Y-10082000D01*
X15982622Y-10082000D02*
X14762000Y-10082000D01*
X49870000Y-11752000D02*
X49870000Y-8030319D01*
X49910000Y-11792000D02*
X49870000Y-11752000D01*
X49870000Y-8030319D02*
X49870000Y-7710000D01*
X49910000Y-11964000D02*
X49910000Y-11792000D01*
X49910000Y-11792000D02*
X49910000Y-14504000D01*
X49910000Y-14504000D02*
X47772000Y-16642000D01*
X25841768Y-8402000D02*
X25843768Y-8400000D01*
X25843768Y-8400000D02*
X25854886Y-8400000D01*
X25854886Y-8400000D02*
X26471350Y-7783536D01*
X26952009Y-7325595D02*
X27369102Y-6908502D01*
X26471350Y-7783536D02*
X26495388Y-7783536D01*
X26495388Y-7783536D02*
X26952009Y-7326915D01*
X26952009Y-7326915D02*
X26952009Y-7325595D01*
X27369102Y-6908502D02*
X27800000Y-6908502D01*
X9512000Y-3682000D02*
X9512000Y-4884081D01*
X9512000Y-4884081D02*
X10268508Y-5640589D01*
X48110988Y-2442000D02*
X48882000Y-3213012D01*
X10752000Y-2442000D02*
X48110988Y-2442000D01*
X9512000Y-3682000D02*
X10752000Y-2442000D01*
X14752000Y-10262000D02*
X14428634Y-9938634D01*
X14752000Y-10262000D02*
X14752000Y-10094081D01*
X9950000Y-3650000D02*
X9940000Y-3650000D01*
X47772000Y-16492000D02*
X47772000Y-16642000D01*
X49539681Y-5090000D02*
X49860000Y-5090000D01*
X49289999Y-5090000D02*
X49539681Y-5090000D01*
X48882000Y-4682001D02*
X49289999Y-5090000D01*
X48882000Y-3213012D02*
X48882000Y-4682001D01*
X39547024Y-6670506D02*
X40057266Y-6160264D01*
X40057266Y-6160264D02*
X40283765Y-5933765D01*
X31205685Y-6670506D02*
X39547024Y-6670506D01*
X28894199Y-8981992D02*
X31205685Y-6670506D01*
X27145186Y-9888687D02*
X28051881Y-8981992D01*
X28051881Y-8981992D02*
X28894199Y-8981992D01*
X41177021Y-5040509D02*
X43683491Y-5040509D01*
X43683491Y-5040509D02*
X45072000Y-3652000D01*
X40283765Y-5933765D02*
X41177021Y-5040509D01*
X38412000Y-8562000D02*
X37552000Y-8562000D01*
X37552000Y-8562000D02*
X36822000Y-9292000D01*
X38472000Y-9292000D02*
X38440000Y-9260000D01*
X40022000Y-9292000D02*
X38472000Y-9292000D01*
X39189138Y-6168765D02*
X39415637Y-5942266D01*
X31019289Y-6220505D02*
X39137398Y-6220505D01*
X26800427Y-9540427D02*
X27808863Y-8531991D01*
X28707803Y-8531991D02*
X31019289Y-6220505D01*
X39137398Y-6220505D02*
X39189138Y-6168765D01*
X27808863Y-8531991D02*
X28707803Y-8531991D01*
X39415637Y-5942266D02*
X41685903Y-3672000D01*
X41685903Y-3672000D02*
X42542000Y-3672000D01*
X42542000Y-3672000D02*
X42532000Y-3682000D01*
X40022000Y-9292000D02*
X39722000Y-9292000D01*
X42972000Y-3652000D02*
X42970000Y-3650000D01*
X28687278Y-7758528D02*
X28462279Y-7983527D01*
X28462279Y-7983527D02*
X27639103Y-7983527D01*
X27639103Y-7983527D02*
X27130477Y-8492153D01*
X27130477Y-8492153D02*
X26441049Y-9181581D01*
X26441049Y-9181581D02*
X26472419Y-9181581D01*
X27402009Y-7511991D02*
X27402009Y-7513311D01*
X27402009Y-7513311D02*
X26082660Y-8832660D01*
X27402009Y-7511991D02*
X27402009Y-7513513D01*
X27402009Y-7511991D02*
X28125997Y-7511991D01*
X28125997Y-7511991D02*
X28542059Y-7095929D01*
X28542059Y-7095929D02*
X28671321Y-7095929D01*
X41512000Y-9522000D02*
X41470000Y-9480000D01*
X43592000Y-9522000D02*
X41512000Y-9522000D01*
X41270499Y-13890499D02*
X41270499Y-13520234D01*
X43592000Y-15362000D02*
X42742000Y-15362000D01*
X42742000Y-15362000D02*
X41270499Y-13890499D01*
X41270499Y-13520234D02*
X41270499Y-13199915D01*
X43592000Y-15149538D02*
X43592000Y-15362000D01*
X17510000Y-11810000D02*
X16422794Y-11810000D01*
X16422794Y-11810000D02*
X15534792Y-10921998D01*
X15534792Y-10921998D02*
X10411998Y-10921998D01*
X10411998Y-10921998D02*
X10310499Y-10820499D01*
X10310499Y-10820499D02*
X10302000Y-10820499D01*
X17673966Y-16150500D02*
X17682000Y-16150500D01*
X16242233Y-17582233D02*
X17673966Y-16150500D01*
X49315595Y-5751992D02*
X50175997Y-5751992D01*
X50652000Y-4152000D02*
X50152000Y-3652000D01*
X48735603Y-5172000D02*
X49315595Y-5751992D01*
X46618989Y-5172000D02*
X48735603Y-5172000D01*
X42806991Y-6017009D02*
X45773980Y-6017009D01*
X41253492Y-7570508D02*
X42806991Y-6017009D01*
X31578477Y-7570508D02*
X41253492Y-7570508D01*
X45773980Y-6017009D02*
X46618989Y-5172000D01*
X29166985Y-9982000D02*
X31578477Y-7570508D01*
X50652000Y-5275989D02*
X50652000Y-4152000D01*
X28448000Y-9982000D02*
X29166985Y-9982000D01*
X27861087Y-10568913D02*
X28448000Y-9982000D01*
X27861087Y-10601087D02*
X27861087Y-10568913D01*
X50175997Y-5751992D02*
X50652000Y-5275989D01*
X41835501Y-5898499D02*
X42062000Y-5672000D01*
X40613493Y-7120507D02*
X41835501Y-5898499D01*
X28980588Y-9532000D02*
X31392081Y-7120507D01*
X28208981Y-9532000D02*
X28980588Y-9532000D01*
X27498740Y-10242241D02*
X28208981Y-9532000D01*
X31392081Y-7120507D02*
X40613493Y-7120507D01*
X47612000Y-3682000D02*
X47112000Y-3682000D01*
X47112000Y-3682000D02*
X45261990Y-5532010D01*
X45261990Y-5532010D02*
X42191990Y-5532010D01*
X42191990Y-5532010D02*
X42062000Y-5662000D01*
X42062000Y-5662000D02*
X42062000Y-5672000D01*
X24679107Y-7419107D02*
X25471785Y-6626429D01*
X25471785Y-6626429D02*
X25471785Y-6072215D01*
X25471785Y-6072215D02*
X25787007Y-5756993D01*
X25787007Y-5756993D02*
X38323007Y-5756993D01*
X38323007Y-5756993D02*
X40430000Y-3650000D01*
X25021784Y-6369322D02*
X25014981Y-6376125D01*
X35827008Y-5306992D02*
X25447008Y-5306992D01*
X25021784Y-5732216D02*
X25021784Y-6369322D01*
X25447008Y-5306992D02*
X25021784Y-5732216D01*
X37452000Y-3682000D02*
X35827008Y-5306992D01*
X25014981Y-6376125D02*
X24325553Y-7065553D01*
X33707009Y-4856991D02*
X34912000Y-3652000D01*
X24717009Y-4856991D02*
X33707009Y-4856991D01*
X23963206Y-5610794D02*
X24717009Y-4856991D01*
X23963206Y-6706707D02*
X23963206Y-5610794D01*
X23093501Y-6096508D02*
X23320000Y-5870009D01*
X22478669Y-6711340D02*
X23093501Y-6096508D01*
X22228928Y-6711340D02*
X22478669Y-6711340D01*
X21877241Y-7060260D02*
X21877241Y-7021407D01*
X21590000Y-5560000D02*
X22070000Y-5560000D01*
X21877241Y-7021407D02*
X21189804Y-6333970D01*
X21189804Y-6333970D02*
X21189804Y-5960196D01*
X22070000Y-5560000D02*
X22300000Y-5790000D01*
X21189804Y-5960196D02*
X21590000Y-5560000D01*
X20572000Y-6452319D02*
X20572000Y-6132000D01*
X20572000Y-6462127D02*
X20572000Y-6452319D01*
X21523687Y-7413814D02*
X20572000Y-6462127D01*
X24752000Y-3652000D02*
X23492000Y-4912000D01*
X23492000Y-4912000D02*
X20995792Y-4912000D01*
X20995792Y-4912000D02*
X20012009Y-5895783D01*
X20012009Y-5895783D02*
X20012009Y-6609242D01*
X20012009Y-6609242D02*
X21170134Y-7767367D01*
X19562008Y-5709387D02*
X21619395Y-3652000D01*
X19562008Y-6866347D02*
X19562008Y-5709387D01*
X20816581Y-8120920D02*
X19562008Y-6866347D01*
X21619395Y-3652000D02*
X22212000Y-3652000D01*
X22254000Y-3650000D02*
X22650000Y-3650000D01*
X20110000Y-3650000D02*
X19780285Y-3650000D01*
X19780285Y-3650000D02*
X19002000Y-4428285D01*
X19002000Y-4428285D02*
X19002000Y-7013447D01*
X19002000Y-7013447D02*
X20463027Y-8474474D01*
X18091991Y-4641991D02*
X18091991Y-6810544D01*
X17132000Y-3682000D02*
X18091991Y-4641991D01*
X18091991Y-6810544D02*
X20109474Y-8828027D01*
X18012726Y-8141992D02*
X17370993Y-8141992D01*
X16882008Y-5870627D02*
X14663381Y-3652000D01*
X19411161Y-9540427D02*
X18012726Y-8141992D01*
X17370993Y-8141992D02*
X16882008Y-7653007D01*
X16882008Y-7653007D02*
X16882008Y-5870627D01*
X14663381Y-3652000D02*
X14592000Y-3652000D01*
X23972000Y-16222586D02*
X24876565Y-17127151D01*
X24876565Y-17127151D02*
X24876565Y-17206504D01*
X20865792Y-17832000D02*
X24931681Y-17832000D01*
X21532481Y-15515479D02*
X20280415Y-16767545D01*
X20280415Y-16767545D02*
X20280415Y-17246623D01*
X20280415Y-17246623D02*
X20865792Y-17832000D01*
X24931681Y-17832000D02*
X25252000Y-17832000D01*
X27145186Y-13035313D02*
X29191873Y-15082000D01*
X29191873Y-15082000D02*
X30642000Y-15082000D01*
X30642000Y-15082000D02*
X31442000Y-15882000D01*
X31442000Y-15882000D02*
X39232000Y-15882000D01*
X39232000Y-15882000D02*
X42532000Y-19182000D01*
X26791633Y-13388866D02*
X28949775Y-15547008D01*
X28949775Y-15547008D02*
X30470611Y-15547008D01*
X30470611Y-15547008D02*
X31255604Y-16332001D01*
X31255604Y-16332001D02*
X37142001Y-16332001D01*
X37142001Y-16332001D02*
X39992000Y-19182000D01*
X26084526Y-14095973D02*
X28770555Y-16782002D01*
X28770555Y-16782002D02*
X35052002Y-16782002D01*
X35052002Y-16782002D02*
X37452000Y-19182000D01*
X25730973Y-14449526D02*
X28513450Y-17232003D01*
X28513450Y-17232003D02*
X32962003Y-17232003D01*
X32962003Y-17232003D02*
X34912000Y-19182000D01*
X25377419Y-14803080D02*
X28256343Y-17682004D01*
X28256343Y-17682004D02*
X30872004Y-17682004D01*
X30872004Y-17682004D02*
X32372000Y-19182000D01*
X29832000Y-19182000D02*
X29062000Y-19182000D01*
X29062000Y-19182000D02*
X25032000Y-15152000D01*
X24670313Y-15510186D02*
X24709166Y-15510186D01*
X24709166Y-15510186D02*
X27292000Y-18093020D01*
X27292000Y-18093020D02*
X27292000Y-19402000D01*
X24752000Y-19402000D02*
X25983491Y-18170509D01*
X25983491Y-18170509D02*
X25983491Y-17533491D01*
X25224294Y-16764294D02*
X25202000Y-16742000D01*
X25983491Y-17533491D02*
X25224294Y-16774294D01*
X25224294Y-16774294D02*
X25224294Y-16764294D01*
X25202000Y-16742000D02*
X25185590Y-16742000D01*
X25185590Y-16742000D02*
X24316759Y-15873169D01*
X19701956Y-16985190D02*
X19701956Y-17305509D01*
X21170134Y-15156633D02*
X19701956Y-16624811D01*
X19701956Y-16624811D02*
X19701956Y-16985190D01*
X21618447Y-19222000D02*
X19928455Y-17532008D01*
X22212000Y-19222000D02*
X21618447Y-19222000D01*
X19928455Y-17532008D02*
X19701956Y-17305509D01*
X22212000Y-19402000D02*
X21922000Y-19402000D01*
X19672000Y-19182000D02*
X18992000Y-18502000D01*
X18992000Y-18502000D02*
X18992000Y-16732000D01*
X18992000Y-16732000D02*
X18976246Y-16716246D01*
X20816581Y-14803080D02*
X18962000Y-16657661D01*
X18962000Y-16657661D02*
X18962000Y-16712000D01*
X18962000Y-16712000D02*
X18972000Y-16712000D01*
X18972000Y-16712000D02*
X18976246Y-16716246D01*
X20463027Y-14449526D02*
X17132000Y-17780553D01*
X17132000Y-17780553D02*
X17132000Y-19402000D01*
X17776904Y-15267636D02*
X18941312Y-15267636D01*
X14592000Y-18452540D02*
X17776904Y-15267636D01*
X18941312Y-15267636D02*
X20117608Y-14091340D01*
X14592000Y-19182000D02*
X14592000Y-18452540D01*
X14592000Y-19402000D02*
X14806948Y-19402000D01*
X15030000Y-19398000D02*
X15032000Y-19396000D01*
X15032000Y-19396000D02*
X15032000Y-19173447D01*
X17590507Y-14817636D02*
X14556142Y-17852001D01*
X13421999Y-17852001D02*
X12052000Y-19222000D01*
X18680703Y-14817636D02*
X17590507Y-14817636D01*
X19755920Y-13742419D02*
X18680703Y-14817636D01*
X14556142Y-17852001D02*
X13421999Y-17852001D01*
X12490000Y-19398000D02*
X12502000Y-19386000D01*
X9512000Y-19182000D02*
X10032000Y-19182000D01*
X10032000Y-19182000D02*
X11812000Y-17402000D01*
X11812000Y-17402000D02*
X14369746Y-17402000D01*
X18437685Y-14367635D02*
X19411161Y-13394159D01*
X14369746Y-17402000D02*
X17404111Y-14367635D01*
X17404111Y-14367635D02*
X18437685Y-14367635D01*
X19048814Y-13035313D02*
X18166492Y-13917635D01*
X18166492Y-13917635D02*
X17162365Y-13917635D01*
X17162365Y-13917635D02*
X16760000Y-14320000D01*
X16760000Y-14320000D02*
X11024000Y-14320000D01*
X11024000Y-14320000D02*
X10282000Y-15062000D01*
X10282000Y-15062000D02*
X10282000Y-16076615D01*
X10282000Y-16076615D02*
X10277385Y-16076615D01*
X10277385Y-16076615D02*
X7172000Y-19182000D01*
X7172000Y-19182000D02*
X7112000Y-19182000D01*
X7112000Y-19182000D02*
X6972000Y-19182000D01*
X6972000Y-19386615D02*
X6972000Y-19402000D01*
X15162000Y-11822000D02*
X16807634Y-13467634D01*
X16807634Y-13467634D02*
X17923472Y-13467634D01*
X7712000Y-12522000D02*
X8412000Y-11822000D01*
X4432000Y-19182000D02*
X7712000Y-15902000D01*
X7712000Y-15902000D02*
X7712000Y-12522000D01*
X8412000Y-11822000D02*
X15162000Y-11822000D01*
X17923472Y-13467634D02*
X18014626Y-13376480D01*
X18014626Y-13376480D02*
X18704054Y-12687052D01*
X18010377Y-12361491D02*
X18038369Y-12333499D01*
X16337887Y-12361491D02*
X18010377Y-12361491D01*
X1892000Y-19182000D02*
X2741999Y-18332001D01*
X15348396Y-11371999D02*
X16337887Y-12361491D01*
X8225604Y-11371999D02*
X15348396Y-11371999D01*
X7261999Y-12335604D02*
X8225604Y-11371999D01*
X18038369Y-12333499D02*
X18350501Y-12333499D01*
X2741999Y-18291792D02*
X7261999Y-13771792D01*
X2741999Y-18332001D02*
X2741999Y-18291792D01*
X7261999Y-13771792D02*
X7261999Y-12335604D01*
X28827661Y-16132000D02*
X29932000Y-16132000D01*
X26438080Y-13742419D02*
X28827661Y-16132000D01*
X17822319Y-7442000D02*
X17502000Y-7442000D01*
X18019840Y-7442000D02*
X17822319Y-7442000D01*
X19764714Y-9186874D02*
X18019840Y-7442000D01*
X5900792Y-10797000D02*
X5753792Y-10650000D01*
X5753792Y-10650000D02*
X4650000Y-10650000D01*
X5900792Y-10797000D02*
X5900792Y-10785792D01*
X5900792Y-10797000D02*
X6075283Y-10971491D01*
X6075283Y-10971491D02*
X6672832Y-10971491D01*
X6672832Y-10971491D02*
X6681203Y-10963120D01*
X6681203Y-10963120D02*
X7001522Y-10963120D01*
X6958000Y-11002000D02*
X7000000Y-10960000D01*
X7000000Y-10960000D02*
X7000000Y-10961598D01*
X7000000Y-10961598D02*
X7001522Y-10963120D01*
X4650000Y-11950000D02*
X3700000Y-11950000D01*
X3700000Y-11950000D02*
X3400000Y-12250000D01*
X3447500Y-12250000D02*
X3400000Y-12250000D01*
X3484000Y-12250000D02*
X3400000Y-12250000D01*
X5914396Y-11447000D02*
X5767396Y-11300000D01*
X5767396Y-11300000D02*
X4650000Y-11300000D01*
X5914396Y-11447000D02*
X6720664Y-11447000D01*
X6720664Y-11447000D02*
X6947281Y-11673617D01*
X6947281Y-11673617D02*
X7079495Y-11673617D01*
X7102000Y-11652000D02*
X7122000Y-11672000D01*
X7122000Y-11672000D02*
X7081112Y-11672000D01*
X7081112Y-11672000D02*
X7079495Y-11673617D01*
X19057608Y-9893980D02*
X17764137Y-8600509D01*
X17764137Y-8600509D02*
X17193114Y-8600509D01*
X17193114Y-8600509D02*
X16210000Y-7617395D01*
X16210000Y-7617395D02*
X16210000Y-5850000D01*
X16210000Y-5850000D02*
X15600000Y-5240000D01*
X15600000Y-5240000D02*
X15370000Y-5240000D01*
X15370000Y-5240000D02*
X15360000Y-5230000D01*
X12052000Y-3682000D02*
X13600000Y-5230000D01*
X13600000Y-5230000D02*
X15039681Y-5230000D01*
X15039681Y-5230000D02*
X15360000Y-5230000D01*
X20871991Y-19857000D02*
X18926991Y-21802000D01*
X18926991Y-21802000D02*
X2773012Y-21802000D01*
X2773012Y-21802000D02*
X632000Y-19660988D01*
X632000Y-19660988D02*
X632000Y-16992000D01*
X632000Y-16992000D02*
X632000Y-16802000D01*
X832000Y-16812000D02*
X812000Y-16812000D01*
X812000Y-16812000D02*
X632000Y-16992000D01*
X832000Y-16812000D02*
X642000Y-16812000D01*
X1372000Y-16812000D02*
X832000Y-16812000D01*
X632000Y-16802000D02*
X632000Y-16632000D01*
X632000Y-16632000D02*
X632000Y-4942000D01*
X812000Y-16812000D02*
X632000Y-16632000D01*
X642000Y-16812000D02*
X632000Y-16802000D01*
X632000Y-4942000D02*
X1892000Y-3682000D01*
D25*
X2052000Y-3842000D02*
X1892000Y-3682000D01*
D23*
X10792000Y-21192000D02*
X10772000Y-21212000D01*
X10792000Y-19789009D02*
X10792000Y-21192000D01*
X10812000Y-17472000D02*
X11407000Y-16877000D01*
D24*
X43592000Y-7322000D02*
X43592000Y-7552000D01*
X43592000Y-7552000D02*
X43582000Y-7562000D01*
X43582000Y-7562000D02*
X43764652Y-7744652D01*
X48883576Y-7744652D02*
X49203895Y-7744652D01*
X43764652Y-7744652D02*
X48883576Y-7744652D01*
D23*
X29202000Y-6642000D02*
X28841994Y-6281994D01*
D24*
X26043686Y-6761634D02*
X26043686Y-6549227D01*
X25032660Y-7772660D02*
X26043686Y-6761634D01*
D23*
X26310919Y-6281994D02*
X26270185Y-6322728D01*
X26270185Y-6322728D02*
X26043686Y-6549227D01*
X28841994Y-6281994D02*
X26310919Y-6281994D01*
D24*
X17424906Y-10601087D02*
X17403613Y-10579794D01*
X18350501Y-10601087D02*
X17424906Y-10601087D01*
D25*
X30148499Y-11990362D02*
X29740137Y-11582000D01*
X29740137Y-11582000D02*
X28612586Y-11582000D01*
X28612586Y-11582000D02*
X27931799Y-12262787D01*
D24*
X22983122Y-16212660D02*
X23814146Y-17043684D01*
X22238928Y-16212660D02*
X22983122Y-16212660D01*
X23814146Y-17043684D02*
X24039145Y-17268683D01*
D25*
X29922000Y-14492000D02*
X30148499Y-14265501D01*
X30148499Y-14265501D02*
X30148499Y-11990362D01*
D23*
X11407000Y-16877000D02*
X12853000Y-16877000D01*
X12853000Y-16877000D02*
X13260001Y-16469999D01*
X13260001Y-16469999D02*
X14110000Y-15620000D01*
D24*
X43442000Y-13012000D02*
X43442000Y-12762000D01*
X44045501Y-12158499D02*
X44272000Y-11932000D01*
X43442000Y-12762000D02*
X44045501Y-12158499D01*
X43592000Y-7322000D02*
X43592000Y-7468208D01*
D23*
X43592000Y-7602016D02*
X43592000Y-7322000D01*
D26*
G36*
X51498000Y-22498000D02*
X502000Y-22498000D01*
X502000Y-20311634D01*
X2382689Y-22192323D01*
X2561770Y-22311982D01*
X2773012Y-22354000D01*
X18926991Y-22354000D01*
X19138233Y-22311982D01*
X19317314Y-22192323D01*
X20999026Y-20510611D01*
X21001410Y-20510613D01*
X21241686Y-20411334D01*
X21425678Y-20227661D01*
X21438590Y-20196566D01*
X21723313Y-20386812D01*
X22176506Y-20476958D01*
X22176387Y-20612919D01*
X22275666Y-20853195D01*
X22459339Y-21037187D01*
X22699440Y-21136886D01*
X22959419Y-21137113D01*
X23023828Y-21110500D01*
X43770500Y-21110500D01*
X44010443Y-21062772D01*
X44213856Y-20926856D01*
X44725598Y-20415114D01*
X45072000Y-20484018D01*
X45560687Y-20386812D01*
X45974975Y-20109993D01*
X46247309Y-19702417D01*
X46416817Y-20063358D01*
X46845076Y-20453645D01*
X47255110Y-20623476D01*
X47485000Y-20502155D01*
X47485000Y-19309000D01*
X47465000Y-19309000D01*
X47465000Y-19055000D01*
X47485000Y-19055000D01*
X47485000Y-19035000D01*
X47739000Y-19035000D01*
X47739000Y-19055000D01*
X47759000Y-19055000D01*
X47759000Y-19309000D01*
X47739000Y-19309000D01*
X47739000Y-20502155D01*
X47968890Y-20623476D01*
X48378924Y-20453645D01*
X48807183Y-20063358D01*
X48866635Y-19936764D01*
X48866635Y-20032000D01*
X48896409Y-20190237D01*
X48989927Y-20335567D01*
X49132619Y-20433064D01*
X49302000Y-20467365D01*
X51002000Y-20467365D01*
X51160237Y-20437591D01*
X51305567Y-20344073D01*
X51403064Y-20201381D01*
X51437365Y-20032000D01*
X51437365Y-18332000D01*
X51407591Y-18173763D01*
X51314073Y-18028433D01*
X51171381Y-17930936D01*
X51002000Y-17896635D01*
X49302000Y-17896635D01*
X49143763Y-17926409D01*
X48998433Y-18019927D01*
X48900936Y-18162619D01*
X48866635Y-18332000D01*
X48866635Y-18427236D01*
X48807183Y-18300642D01*
X48378924Y-17910355D01*
X48204232Y-17838000D01*
X48285705Y-17821794D01*
X48699993Y-17544975D01*
X48976812Y-17130687D01*
X49074018Y-16642000D01*
X48987517Y-16207129D01*
X50300323Y-14894323D01*
X50419982Y-14715242D01*
X50462000Y-14504000D01*
X50462000Y-11792000D01*
X50422000Y-11590904D01*
X50422000Y-8082345D01*
X50423687Y-8080661D01*
X50523386Y-7840560D01*
X50523613Y-7580581D01*
X50424334Y-7340305D01*
X50240661Y-7156313D01*
X50000560Y-7056614D01*
X49740581Y-7056387D01*
X49500305Y-7155666D01*
X49497145Y-7158821D01*
X49334455Y-7091266D01*
X49257000Y-7091198D01*
X49257000Y-6767750D01*
X49098250Y-6609000D01*
X47899000Y-6609000D01*
X47899000Y-6629000D01*
X47645000Y-6629000D01*
X47645000Y-6609000D01*
X46445750Y-6609000D01*
X46287000Y-6767750D01*
X46287000Y-7192652D01*
X44367365Y-7192652D01*
X44367365Y-7032000D01*
X44337591Y-6873763D01*
X44244073Y-6728433D01*
X44101381Y-6630936D01*
X43932000Y-6596635D01*
X43008011Y-6596635D01*
X43035637Y-6569009D01*
X45773980Y-6569009D01*
X45985222Y-6526991D01*
X46164303Y-6407332D01*
X46331193Y-6240443D01*
X46445750Y-6355000D01*
X47645000Y-6355000D01*
X47645000Y-6335000D01*
X47899000Y-6335000D01*
X47899000Y-6355000D01*
X49098250Y-6355000D01*
X49176855Y-6276395D01*
X49315595Y-6303992D01*
X50175997Y-6303992D01*
X50387239Y-6261974D01*
X50566320Y-6142315D01*
X51042323Y-5666312D01*
X51161982Y-5487231D01*
X51204000Y-5275989D01*
X51204000Y-4909430D01*
X51305567Y-4844073D01*
X51403064Y-4701381D01*
X51437365Y-4532000D01*
X51437365Y-2832000D01*
X51407591Y-2673763D01*
X51314073Y-2528433D01*
X51171381Y-2430936D01*
X51002000Y-2396635D01*
X49302000Y-2396635D01*
X49143763Y-2426409D01*
X48998433Y-2519927D01*
X48986713Y-2537079D01*
X48501311Y-2051677D01*
X48322230Y-1932018D01*
X48110988Y-1890000D01*
X10752000Y-1890000D01*
X10540758Y-1932018D01*
X10361677Y-2051677D01*
X9946871Y-2466483D01*
X9512000Y-2379982D01*
X9023313Y-2477188D01*
X8609025Y-2754007D01*
X8332206Y-3168295D01*
X8242000Y-3621791D01*
X8151794Y-3168295D01*
X7874975Y-2754007D01*
X7460687Y-2477188D01*
X6972000Y-2379982D01*
X6483313Y-2477188D01*
X6069025Y-2754007D01*
X5796691Y-3161583D01*
X5627183Y-2800642D01*
X5198924Y-2410355D01*
X4788890Y-2240524D01*
X4559000Y-2361845D01*
X4559000Y-3555000D01*
X4579000Y-3555000D01*
X4579000Y-3809000D01*
X4559000Y-3809000D01*
X4559000Y-5002155D01*
X4788890Y-5123476D01*
X5198924Y-4953645D01*
X5627183Y-4563358D01*
X5796691Y-4202417D01*
X6069025Y-4609993D01*
X6483313Y-4886812D01*
X6972000Y-4984018D01*
X7460687Y-4886812D01*
X7874975Y-4609993D01*
X8151794Y-4195705D01*
X8242000Y-3742209D01*
X8332206Y-4195705D01*
X8609025Y-4609993D01*
X8960000Y-4844508D01*
X8960000Y-4884081D01*
X9002018Y-5095323D01*
X9036548Y-5147000D01*
X8747750Y-5147000D01*
X8589000Y-5305750D01*
X8589000Y-6155000D01*
X8609000Y-6155000D01*
X8609000Y-6409000D01*
X8589000Y-6409000D01*
X8589000Y-7258250D01*
X8747750Y-7417000D01*
X9438309Y-7417000D01*
X9671698Y-7320327D01*
X9716508Y-7275517D01*
X9716508Y-9422080D01*
X9624073Y-9278433D01*
X9481381Y-9180936D01*
X9312000Y-9146635D01*
X7612000Y-9146635D01*
X7453763Y-9176409D01*
X7308433Y-9269927D01*
X7210936Y-9412619D01*
X7176635Y-9582000D01*
X7176635Y-10328234D01*
X7132082Y-10309734D01*
X6993596Y-10309613D01*
X6993613Y-10290581D01*
X6894334Y-10050305D01*
X6710661Y-9866313D01*
X6646300Y-9839588D01*
X6363356Y-9556644D01*
X6341561Y-9542081D01*
X6159943Y-9420728D01*
X5920000Y-9373000D01*
X5889857Y-9373000D01*
X6022312Y-8998854D01*
X5993949Y-8458556D01*
X5841753Y-8091122D01*
X5603398Y-8026207D01*
X4829605Y-8800000D01*
X4843748Y-8814143D01*
X4664143Y-8993748D01*
X4650000Y-8979605D01*
X4635858Y-8993748D01*
X4456253Y-8814143D01*
X4470395Y-8800000D01*
X3696602Y-8026207D01*
X3535000Y-8070219D01*
X3535000Y-7846602D01*
X3876207Y-7846602D01*
X4650000Y-8620395D01*
X5423793Y-7846602D01*
X5358878Y-7608247D01*
X4848854Y-7427688D01*
X4308556Y-7456051D01*
X3941122Y-7608247D01*
X3876207Y-7846602D01*
X3535000Y-7846602D01*
X3535000Y-7673691D01*
X3470375Y-7517672D01*
X3493462Y-7482391D01*
X3489592Y-7444719D01*
X3263080Y-7016526D01*
X2889947Y-6707610D01*
X2435928Y-6567750D01*
X6977000Y-6567750D01*
X6977000Y-6908310D01*
X7073673Y-7141699D01*
X7252302Y-7320327D01*
X7485691Y-7417000D01*
X8176250Y-7417000D01*
X8335000Y-7258250D01*
X8335000Y-6409000D01*
X7135750Y-6409000D01*
X6977000Y-6567750D01*
X2435928Y-6567750D01*
X2427000Y-6565000D01*
X2077000Y-6565000D01*
X2077000Y-10173000D01*
X3376250Y-10173000D01*
X3535000Y-10014250D01*
X3535000Y-9529781D01*
X3625917Y-9554542D01*
X3573936Y-9630619D01*
X3539635Y-9800000D01*
X3539635Y-10200000D01*
X3564019Y-10329591D01*
X3539635Y-10450000D01*
X3539635Y-10850000D01*
X3564019Y-10979591D01*
X3539635Y-11100000D01*
X3539635Y-11429898D01*
X3535000Y-11430820D01*
X3535000Y-11423691D01*
X3483765Y-11300000D01*
X3535000Y-11176309D01*
X3535000Y-10585750D01*
X3376250Y-10427000D01*
X2077000Y-10427000D01*
X2077000Y-12173000D01*
X2097000Y-12173000D01*
X2097000Y-12427000D01*
X2077000Y-12427000D01*
X2077000Y-16035000D01*
X2427000Y-16035000D01*
X2889947Y-15892390D01*
X3263080Y-15583474D01*
X3489592Y-15155281D01*
X3493462Y-15117609D01*
X3470375Y-15082328D01*
X3535000Y-14926309D01*
X3535000Y-14529781D01*
X3696602Y-14573793D01*
X4470395Y-13800000D01*
X4456253Y-13785858D01*
X4635858Y-13606253D01*
X4650000Y-13620395D01*
X4664143Y-13606253D01*
X4843748Y-13785858D01*
X4829605Y-13800000D01*
X4843748Y-13814143D01*
X4664143Y-13993748D01*
X4650000Y-13979605D01*
X3876207Y-14753398D01*
X3941122Y-14991753D01*
X4451146Y-15172312D01*
X4991444Y-15143949D01*
X5192459Y-15060686D01*
X2351676Y-17901469D01*
X2310421Y-17963211D01*
X1892000Y-17879982D01*
X1403313Y-17977188D01*
X1184000Y-18123729D01*
X1184000Y-17441535D01*
X1241440Y-17465386D01*
X1501419Y-17465613D01*
X1741695Y-17366334D01*
X1925687Y-17182661D01*
X2025386Y-16942560D01*
X2025613Y-16682581D01*
X1926334Y-16442305D01*
X1742661Y-16258313D01*
X1502560Y-16158614D01*
X1242581Y-16158387D01*
X1184000Y-16182592D01*
X1184000Y-15945974D01*
X1473000Y-16035000D01*
X1823000Y-16035000D01*
X1823000Y-12427000D01*
X1803000Y-12427000D01*
X1803000Y-12173000D01*
X1823000Y-12173000D01*
X1823000Y-10427000D01*
X1803000Y-10427000D01*
X1803000Y-10173000D01*
X1823000Y-10173000D01*
X1823000Y-6565000D01*
X1473000Y-6565000D01*
X1184000Y-6654026D01*
X1184000Y-5655690D01*
X6977000Y-5655690D01*
X6977000Y-5996250D01*
X7135750Y-6155000D01*
X8335000Y-6155000D01*
X8335000Y-5305750D01*
X8176250Y-5147000D01*
X7485691Y-5147000D01*
X7252302Y-5243673D01*
X7073673Y-5422301D01*
X6977000Y-5655690D01*
X1184000Y-5655690D01*
X1184000Y-5170646D01*
X1457129Y-4897517D01*
X1892000Y-4984018D01*
X2380687Y-4886812D01*
X2794975Y-4609993D01*
X3067309Y-4202417D01*
X3236817Y-4563358D01*
X3665076Y-4953645D01*
X4075110Y-5123476D01*
X4305000Y-5002155D01*
X4305000Y-3809000D01*
X4285000Y-3809000D01*
X4285000Y-3555000D01*
X4305000Y-3555000D01*
X4305000Y-2361845D01*
X4075110Y-2240524D01*
X3665076Y-2410355D01*
X3236817Y-2800642D01*
X3067309Y-3161583D01*
X2794975Y-2754007D01*
X2380687Y-2477188D01*
X1892000Y-2379982D01*
X1403313Y-2477188D01*
X989025Y-2754007D01*
X712206Y-3168295D01*
X615000Y-3656982D01*
X615000Y-3707018D01*
X693200Y-4100154D01*
X502000Y-4291354D01*
X502000Y-502000D01*
X51498000Y-502000D01*
X51498000Y-22498000D01*
X51498000Y-22498000D01*
G37*
X51498000Y-22498000D02*
X502000Y-22498000D01*
X502000Y-20311634D01*
X2382689Y-22192323D01*
X2561770Y-22311982D01*
X2773012Y-22354000D01*
X18926991Y-22354000D01*
X19138233Y-22311982D01*
X19317314Y-22192323D01*
X20999026Y-20510611D01*
X21001410Y-20510613D01*
X21241686Y-20411334D01*
X21425678Y-20227661D01*
X21438590Y-20196566D01*
X21723313Y-20386812D01*
X22176506Y-20476958D01*
X22176387Y-20612919D01*
X22275666Y-20853195D01*
X22459339Y-21037187D01*
X22699440Y-21136886D01*
X22959419Y-21137113D01*
X23023828Y-21110500D01*
X43770500Y-21110500D01*
X44010443Y-21062772D01*
X44213856Y-20926856D01*
X44725598Y-20415114D01*
X45072000Y-20484018D01*
X45560687Y-20386812D01*
X45974975Y-20109993D01*
X46247309Y-19702417D01*
X46416817Y-20063358D01*
X46845076Y-20453645D01*
X47255110Y-20623476D01*
X47485000Y-20502155D01*
X47485000Y-19309000D01*
X47465000Y-19309000D01*
X47465000Y-19055000D01*
X47485000Y-19055000D01*
X47485000Y-19035000D01*
X47739000Y-19035000D01*
X47739000Y-19055000D01*
X47759000Y-19055000D01*
X47759000Y-19309000D01*
X47739000Y-19309000D01*
X47739000Y-20502155D01*
X47968890Y-20623476D01*
X48378924Y-20453645D01*
X48807183Y-20063358D01*
X48866635Y-19936764D01*
X48866635Y-20032000D01*
X48896409Y-20190237D01*
X48989927Y-20335567D01*
X49132619Y-20433064D01*
X49302000Y-20467365D01*
X51002000Y-20467365D01*
X51160237Y-20437591D01*
X51305567Y-20344073D01*
X51403064Y-20201381D01*
X51437365Y-20032000D01*
X51437365Y-18332000D01*
X51407591Y-18173763D01*
X51314073Y-18028433D01*
X51171381Y-17930936D01*
X51002000Y-17896635D01*
X49302000Y-17896635D01*
X49143763Y-17926409D01*
X48998433Y-18019927D01*
X48900936Y-18162619D01*
X48866635Y-18332000D01*
X48866635Y-18427236D01*
X48807183Y-18300642D01*
X48378924Y-17910355D01*
X48204232Y-17838000D01*
X48285705Y-17821794D01*
X48699993Y-17544975D01*
X48976812Y-17130687D01*
X49074018Y-16642000D01*
X48987517Y-16207129D01*
X50300323Y-14894323D01*
X50419982Y-14715242D01*
X50462000Y-14504000D01*
X50462000Y-11792000D01*
X50422000Y-11590904D01*
X50422000Y-8082345D01*
X50423687Y-8080661D01*
X50523386Y-7840560D01*
X50523613Y-7580581D01*
X50424334Y-7340305D01*
X50240661Y-7156313D01*
X50000560Y-7056614D01*
X49740581Y-7056387D01*
X49500305Y-7155666D01*
X49497145Y-7158821D01*
X49334455Y-7091266D01*
X49257000Y-7091198D01*
X49257000Y-6767750D01*
X49098250Y-6609000D01*
X47899000Y-6609000D01*
X47899000Y-6629000D01*
X47645000Y-6629000D01*
X47645000Y-6609000D01*
X46445750Y-6609000D01*
X46287000Y-6767750D01*
X46287000Y-7192652D01*
X44367365Y-7192652D01*
X44367365Y-7032000D01*
X44337591Y-6873763D01*
X44244073Y-6728433D01*
X44101381Y-6630936D01*
X43932000Y-6596635D01*
X43008011Y-6596635D01*
X43035637Y-6569009D01*
X45773980Y-6569009D01*
X45985222Y-6526991D01*
X46164303Y-6407332D01*
X46331193Y-6240443D01*
X46445750Y-6355000D01*
X47645000Y-6355000D01*
X47645000Y-6335000D01*
X47899000Y-6335000D01*
X47899000Y-6355000D01*
X49098250Y-6355000D01*
X49176855Y-6276395D01*
X49315595Y-6303992D01*
X50175997Y-6303992D01*
X50387239Y-6261974D01*
X50566320Y-6142315D01*
X51042323Y-5666312D01*
X51161982Y-5487231D01*
X51204000Y-5275989D01*
X51204000Y-4909430D01*
X51305567Y-4844073D01*
X51403064Y-4701381D01*
X51437365Y-4532000D01*
X51437365Y-2832000D01*
X51407591Y-2673763D01*
X51314073Y-2528433D01*
X51171381Y-2430936D01*
X51002000Y-2396635D01*
X49302000Y-2396635D01*
X49143763Y-2426409D01*
X48998433Y-2519927D01*
X48986713Y-2537079D01*
X48501311Y-2051677D01*
X48322230Y-1932018D01*
X48110988Y-1890000D01*
X10752000Y-1890000D01*
X10540758Y-1932018D01*
X10361677Y-2051677D01*
X9946871Y-2466483D01*
X9512000Y-2379982D01*
X9023313Y-2477188D01*
X8609025Y-2754007D01*
X8332206Y-3168295D01*
X8242000Y-3621791D01*
X8151794Y-3168295D01*
X7874975Y-2754007D01*
X7460687Y-2477188D01*
X6972000Y-2379982D01*
X6483313Y-2477188D01*
X6069025Y-2754007D01*
X5796691Y-3161583D01*
X5627183Y-2800642D01*
X5198924Y-2410355D01*
X4788890Y-2240524D01*
X4559000Y-2361845D01*
X4559000Y-3555000D01*
X4579000Y-3555000D01*
X4579000Y-3809000D01*
X4559000Y-3809000D01*
X4559000Y-5002155D01*
X4788890Y-5123476D01*
X5198924Y-4953645D01*
X5627183Y-4563358D01*
X5796691Y-4202417D01*
X6069025Y-4609993D01*
X6483313Y-4886812D01*
X6972000Y-4984018D01*
X7460687Y-4886812D01*
X7874975Y-4609993D01*
X8151794Y-4195705D01*
X8242000Y-3742209D01*
X8332206Y-4195705D01*
X8609025Y-4609993D01*
X8960000Y-4844508D01*
X8960000Y-4884081D01*
X9002018Y-5095323D01*
X9036548Y-5147000D01*
X8747750Y-5147000D01*
X8589000Y-5305750D01*
X8589000Y-6155000D01*
X8609000Y-6155000D01*
X8609000Y-6409000D01*
X8589000Y-6409000D01*
X8589000Y-7258250D01*
X8747750Y-7417000D01*
X9438309Y-7417000D01*
X9671698Y-7320327D01*
X9716508Y-7275517D01*
X9716508Y-9422080D01*
X9624073Y-9278433D01*
X9481381Y-9180936D01*
X9312000Y-9146635D01*
X7612000Y-9146635D01*
X7453763Y-9176409D01*
X7308433Y-9269927D01*
X7210936Y-9412619D01*
X7176635Y-9582000D01*
X7176635Y-10328234D01*
X7132082Y-10309734D01*
X6993596Y-10309613D01*
X6993613Y-10290581D01*
X6894334Y-10050305D01*
X6710661Y-9866313D01*
X6646300Y-9839588D01*
X6363356Y-9556644D01*
X6341561Y-9542081D01*
X6159943Y-9420728D01*
X5920000Y-9373000D01*
X5889857Y-9373000D01*
X6022312Y-8998854D01*
X5993949Y-8458556D01*
X5841753Y-8091122D01*
X5603398Y-8026207D01*
X4829605Y-8800000D01*
X4843748Y-8814143D01*
X4664143Y-8993748D01*
X4650000Y-8979605D01*
X4635858Y-8993748D01*
X4456253Y-8814143D01*
X4470395Y-8800000D01*
X3696602Y-8026207D01*
X3535000Y-8070219D01*
X3535000Y-7846602D01*
X3876207Y-7846602D01*
X4650000Y-8620395D01*
X5423793Y-7846602D01*
X5358878Y-7608247D01*
X4848854Y-7427688D01*
X4308556Y-7456051D01*
X3941122Y-7608247D01*
X3876207Y-7846602D01*
X3535000Y-7846602D01*
X3535000Y-7673691D01*
X3470375Y-7517672D01*
X3493462Y-7482391D01*
X3489592Y-7444719D01*
X3263080Y-7016526D01*
X2889947Y-6707610D01*
X2435928Y-6567750D01*
X6977000Y-6567750D01*
X6977000Y-6908310D01*
X7073673Y-7141699D01*
X7252302Y-7320327D01*
X7485691Y-7417000D01*
X8176250Y-7417000D01*
X8335000Y-7258250D01*
X8335000Y-6409000D01*
X7135750Y-6409000D01*
X6977000Y-6567750D01*
X2435928Y-6567750D01*
X2427000Y-6565000D01*
X2077000Y-6565000D01*
X2077000Y-10173000D01*
X3376250Y-10173000D01*
X3535000Y-10014250D01*
X3535000Y-9529781D01*
X3625917Y-9554542D01*
X3573936Y-9630619D01*
X3539635Y-9800000D01*
X3539635Y-10200000D01*
X3564019Y-10329591D01*
X3539635Y-10450000D01*
X3539635Y-10850000D01*
X3564019Y-10979591D01*
X3539635Y-11100000D01*
X3539635Y-11429898D01*
X3535000Y-11430820D01*
X3535000Y-11423691D01*
X3483765Y-11300000D01*
X3535000Y-11176309D01*
X3535000Y-10585750D01*
X3376250Y-10427000D01*
X2077000Y-10427000D01*
X2077000Y-12173000D01*
X2097000Y-12173000D01*
X2097000Y-12427000D01*
X2077000Y-12427000D01*
X2077000Y-16035000D01*
X2427000Y-16035000D01*
X2889947Y-15892390D01*
X3263080Y-15583474D01*
X3489592Y-15155281D01*
X3493462Y-15117609D01*
X3470375Y-15082328D01*
X3535000Y-14926309D01*
X3535000Y-14529781D01*
X3696602Y-14573793D01*
X4470395Y-13800000D01*
X4456253Y-13785858D01*
X4635858Y-13606253D01*
X4650000Y-13620395D01*
X4664143Y-13606253D01*
X4843748Y-13785858D01*
X4829605Y-13800000D01*
X4843748Y-13814143D01*
X4664143Y-13993748D01*
X4650000Y-13979605D01*
X3876207Y-14753398D01*
X3941122Y-14991753D01*
X4451146Y-15172312D01*
X4991444Y-15143949D01*
X5192459Y-15060686D01*
X2351676Y-17901469D01*
X2310421Y-17963211D01*
X1892000Y-17879982D01*
X1403313Y-17977188D01*
X1184000Y-18123729D01*
X1184000Y-17441535D01*
X1241440Y-17465386D01*
X1501419Y-17465613D01*
X1741695Y-17366334D01*
X1925687Y-17182661D01*
X2025386Y-16942560D01*
X2025613Y-16682581D01*
X1926334Y-16442305D01*
X1742661Y-16258313D01*
X1502560Y-16158614D01*
X1242581Y-16158387D01*
X1184000Y-16182592D01*
X1184000Y-15945974D01*
X1473000Y-16035000D01*
X1823000Y-16035000D01*
X1823000Y-12427000D01*
X1803000Y-12427000D01*
X1803000Y-12173000D01*
X1823000Y-12173000D01*
X1823000Y-10427000D01*
X1803000Y-10427000D01*
X1803000Y-10173000D01*
X1823000Y-10173000D01*
X1823000Y-6565000D01*
X1473000Y-6565000D01*
X1184000Y-6654026D01*
X1184000Y-5655690D01*
X6977000Y-5655690D01*
X6977000Y-5996250D01*
X7135750Y-6155000D01*
X8335000Y-6155000D01*
X8335000Y-5305750D01*
X8176250Y-5147000D01*
X7485691Y-5147000D01*
X7252302Y-5243673D01*
X7073673Y-5422301D01*
X6977000Y-5655690D01*
X1184000Y-5655690D01*
X1184000Y-5170646D01*
X1457129Y-4897517D01*
X1892000Y-4984018D01*
X2380687Y-4886812D01*
X2794975Y-4609993D01*
X3067309Y-4202417D01*
X3236817Y-4563358D01*
X3665076Y-4953645D01*
X4075110Y-5123476D01*
X4305000Y-5002155D01*
X4305000Y-3809000D01*
X4285000Y-3809000D01*
X4285000Y-3555000D01*
X4305000Y-3555000D01*
X4305000Y-2361845D01*
X4075110Y-2240524D01*
X3665076Y-2410355D01*
X3236817Y-2800642D01*
X3067309Y-3161583D01*
X2794975Y-2754007D01*
X2380687Y-2477188D01*
X1892000Y-2379982D01*
X1403313Y-2477188D01*
X989025Y-2754007D01*
X712206Y-3168295D01*
X615000Y-3656982D01*
X615000Y-3707018D01*
X693200Y-4100154D01*
X502000Y-4291354D01*
X502000Y-502000D01*
X51498000Y-502000D01*
X51498000Y-22498000D01*
G36*
X42296635Y-8232000D02*
X42326409Y-8390237D01*
X42419927Y-8535567D01*
X42562619Y-8633064D01*
X42732000Y-8667365D01*
X43932000Y-8667365D01*
X44090237Y-8637591D01*
X44235567Y-8544073D01*
X44333064Y-8401381D01*
X44354272Y-8296652D01*
X46725320Y-8296652D01*
X46567188Y-8533313D01*
X46469982Y-9022000D01*
X46567188Y-9510687D01*
X46844007Y-9924975D01*
X47258295Y-10201794D01*
X47711791Y-10292000D01*
X47258295Y-10382206D01*
X46844007Y-10659025D01*
X46567188Y-11073313D01*
X46469982Y-11562000D01*
X46567188Y-12050687D01*
X46844007Y-12464975D01*
X47258295Y-12741794D01*
X47711791Y-12832000D01*
X47258295Y-12922206D01*
X46844007Y-13199025D01*
X46567188Y-13613313D01*
X46469982Y-14102000D01*
X46567188Y-14590687D01*
X46844007Y-15004975D01*
X47258295Y-15281794D01*
X47711791Y-15372000D01*
X47258295Y-15462206D01*
X46844007Y-15739025D01*
X46567188Y-16153313D01*
X46469982Y-16642000D01*
X46567188Y-17130687D01*
X46844007Y-17544975D01*
X47181991Y-17770809D01*
X46845076Y-17910355D01*
X46416817Y-18300642D01*
X46247309Y-18661583D01*
X45974975Y-18254007D01*
X45560687Y-17977188D01*
X45072000Y-17879982D01*
X44583313Y-17977188D01*
X44169025Y-18254007D01*
X43892206Y-18668295D01*
X43802000Y-19121791D01*
X43711794Y-18668295D01*
X43434975Y-18254007D01*
X43020687Y-17977188D01*
X42532000Y-17879982D01*
X42097129Y-17966483D01*
X40008011Y-15877365D01*
X40972000Y-15877365D01*
X41130237Y-15847591D01*
X41275567Y-15754073D01*
X41373064Y-15611381D01*
X41407365Y-15442000D01*
X41407365Y-14808011D01*
X42296635Y-15697281D01*
X42296635Y-15862000D01*
X42326409Y-16020237D01*
X42419927Y-16165567D01*
X42562619Y-16263064D01*
X42732000Y-16297365D01*
X43932000Y-16297365D01*
X44090237Y-16267591D01*
X44235567Y-16174073D01*
X44333064Y-16031381D01*
X44367365Y-15862000D01*
X44367365Y-14662000D01*
X44337591Y-14503763D01*
X44244073Y-14358433D01*
X44101381Y-14260936D01*
X43932000Y-14226635D01*
X42732000Y-14226635D01*
X42573763Y-14256409D01*
X42478412Y-14317766D01*
X41822499Y-13661853D01*
X41822499Y-13572260D01*
X41824186Y-13570576D01*
X41923885Y-13330475D01*
X41924112Y-13070496D01*
X41824833Y-12830220D01*
X41641160Y-12646228D01*
X41401059Y-12546529D01*
X41141080Y-12546302D01*
X40900804Y-12645581D01*
X40716812Y-12829254D01*
X40617113Y-13069355D01*
X40616886Y-13329334D01*
X40716165Y-13569610D01*
X40718499Y-13571948D01*
X40718499Y-13706635D01*
X39072000Y-13706635D01*
X38913763Y-13736409D01*
X38768433Y-13829927D01*
X38670936Y-13972619D01*
X38636635Y-14142000D01*
X38636635Y-15330000D01*
X38207365Y-15330000D01*
X38207365Y-14142000D01*
X38177591Y-13983763D01*
X38084073Y-13838433D01*
X37941381Y-13740936D01*
X37772000Y-13706635D01*
X35872000Y-13706635D01*
X35713763Y-13736409D01*
X35568433Y-13829927D01*
X35470936Y-13972619D01*
X35436635Y-14142000D01*
X35436635Y-15330000D01*
X32622579Y-15330000D01*
X32887846Y-15220394D01*
X33219230Y-14889588D01*
X33398795Y-14457147D01*
X33399204Y-13988907D01*
X33220394Y-13556154D01*
X32889588Y-13224770D01*
X32457147Y-13045205D01*
X31988907Y-13044796D01*
X31556154Y-13223606D01*
X31224770Y-13554412D01*
X31045205Y-13986853D01*
X31044796Y-14455093D01*
X31220166Y-14879520D01*
X31032323Y-14691677D01*
X30853242Y-14572018D01*
X30755286Y-14552534D01*
X30773965Y-14524578D01*
X30825499Y-14265501D01*
X30825499Y-12462000D01*
X42296635Y-12462000D01*
X42296635Y-13662000D01*
X42326409Y-13820237D01*
X42419927Y-13965567D01*
X42562619Y-14063064D01*
X42732000Y-14097365D01*
X43932000Y-14097365D01*
X44090237Y-14067591D01*
X44235567Y-13974073D01*
X44333064Y-13831381D01*
X44367365Y-13662000D01*
X44367365Y-12617281D01*
X44399035Y-12585611D01*
X44401419Y-12585613D01*
X44641695Y-12486334D01*
X44825687Y-12302661D01*
X44925386Y-12062560D01*
X44925613Y-11802581D01*
X44826334Y-11562305D01*
X44642661Y-11378313D01*
X44402560Y-11278614D01*
X44142581Y-11278387D01*
X43902305Y-11377666D01*
X43718313Y-11561339D01*
X43618614Y-11801440D01*
X43618611Y-11804743D01*
X43396719Y-12026635D01*
X42732000Y-12026635D01*
X42573763Y-12056409D01*
X42428433Y-12149927D01*
X42330936Y-12292619D01*
X42296635Y-12462000D01*
X30825499Y-12462000D01*
X30825499Y-11990362D01*
X30773965Y-11731285D01*
X30627210Y-11511651D01*
X30218848Y-11103289D01*
X30204467Y-11093680D01*
X29999214Y-10956534D01*
X29740137Y-10905000D01*
X28612586Y-10905000D01*
X28353509Y-10956534D01*
X28293124Y-10996882D01*
X28756006Y-10534000D01*
X29166985Y-10534000D01*
X29378227Y-10491982D01*
X29557308Y-10372323D01*
X31203148Y-8726483D01*
X31045205Y-9106853D01*
X31044796Y-9575093D01*
X31223606Y-10007846D01*
X31554412Y-10339230D01*
X31986853Y-10518795D01*
X32455093Y-10519204D01*
X32887846Y-10340394D01*
X33219230Y-10009588D01*
X33398795Y-9577147D01*
X33399204Y-9108907D01*
X33220394Y-8676154D01*
X32889588Y-8344770D01*
X32457147Y-8165205D01*
X31988907Y-8164796D01*
X31607058Y-8322573D01*
X31807123Y-8122508D01*
X37235263Y-8122508D01*
X37161677Y-8171677D01*
X37126719Y-8206635D01*
X35872000Y-8206635D01*
X35713763Y-8236409D01*
X35568433Y-8329927D01*
X35470936Y-8472619D01*
X35436635Y-8642000D01*
X35436635Y-9942000D01*
X35466409Y-10100237D01*
X35559927Y-10245567D01*
X35702619Y-10343064D01*
X35872000Y-10377365D01*
X37772000Y-10377365D01*
X37930237Y-10347591D01*
X38075567Y-10254073D01*
X38173064Y-10111381D01*
X38207365Y-9942000D01*
X38207365Y-9871001D01*
X38309440Y-9913386D01*
X38569419Y-9913613D01*
X38636635Y-9885840D01*
X38636635Y-9942000D01*
X38666409Y-10100237D01*
X38759927Y-10245567D01*
X38902619Y-10343064D01*
X39072000Y-10377365D01*
X40972000Y-10377365D01*
X41130237Y-10347591D01*
X41275567Y-10254073D01*
X41358018Y-10133402D01*
X41599419Y-10133613D01*
X41743695Y-10074000D01*
X42296635Y-10074000D01*
X42296635Y-10432000D01*
X42326409Y-10590237D01*
X42419927Y-10735567D01*
X42562619Y-10833064D01*
X42732000Y-10867365D01*
X43932000Y-10867365D01*
X44090237Y-10837591D01*
X44235567Y-10744073D01*
X44333064Y-10601381D01*
X44367365Y-10432000D01*
X44367365Y-9232000D01*
X44337591Y-9073763D01*
X44244073Y-8928433D01*
X44101381Y-8830936D01*
X43932000Y-8796635D01*
X42732000Y-8796635D01*
X42573763Y-8826409D01*
X42428433Y-8919927D01*
X42394220Y-8970000D01*
X41884272Y-8970000D01*
X41840661Y-8926313D01*
X41600560Y-8826614D01*
X41407365Y-8826445D01*
X41407365Y-8642000D01*
X41377591Y-8483763D01*
X41284073Y-8338433D01*
X41141381Y-8240936D01*
X40972000Y-8206635D01*
X39072000Y-8206635D01*
X38979450Y-8224049D01*
X38966334Y-8192305D01*
X38896658Y-8122508D01*
X41253492Y-8122508D01*
X41464734Y-8080490D01*
X41643815Y-7960831D01*
X42296635Y-7308011D01*
X42296635Y-8232000D01*
X42296635Y-8232000D01*
G37*
X42296635Y-8232000D02*
X42326409Y-8390237D01*
X42419927Y-8535567D01*
X42562619Y-8633064D01*
X42732000Y-8667365D01*
X43932000Y-8667365D01*
X44090237Y-8637591D01*
X44235567Y-8544073D01*
X44333064Y-8401381D01*
X44354272Y-8296652D01*
X46725320Y-8296652D01*
X46567188Y-8533313D01*
X46469982Y-9022000D01*
X46567188Y-9510687D01*
X46844007Y-9924975D01*
X47258295Y-10201794D01*
X47711791Y-10292000D01*
X47258295Y-10382206D01*
X46844007Y-10659025D01*
X46567188Y-11073313D01*
X46469982Y-11562000D01*
X46567188Y-12050687D01*
X46844007Y-12464975D01*
X47258295Y-12741794D01*
X47711791Y-12832000D01*
X47258295Y-12922206D01*
X46844007Y-13199025D01*
X46567188Y-13613313D01*
X46469982Y-14102000D01*
X46567188Y-14590687D01*
X46844007Y-15004975D01*
X47258295Y-15281794D01*
X47711791Y-15372000D01*
X47258295Y-15462206D01*
X46844007Y-15739025D01*
X46567188Y-16153313D01*
X46469982Y-16642000D01*
X46567188Y-17130687D01*
X46844007Y-17544975D01*
X47181991Y-17770809D01*
X46845076Y-17910355D01*
X46416817Y-18300642D01*
X46247309Y-18661583D01*
X45974975Y-18254007D01*
X45560687Y-17977188D01*
X45072000Y-17879982D01*
X44583313Y-17977188D01*
X44169025Y-18254007D01*
X43892206Y-18668295D01*
X43802000Y-19121791D01*
X43711794Y-18668295D01*
X43434975Y-18254007D01*
X43020687Y-17977188D01*
X42532000Y-17879982D01*
X42097129Y-17966483D01*
X40008011Y-15877365D01*
X40972000Y-15877365D01*
X41130237Y-15847591D01*
X41275567Y-15754073D01*
X41373064Y-15611381D01*
X41407365Y-15442000D01*
X41407365Y-14808011D01*
X42296635Y-15697281D01*
X42296635Y-15862000D01*
X42326409Y-16020237D01*
X42419927Y-16165567D01*
X42562619Y-16263064D01*
X42732000Y-16297365D01*
X43932000Y-16297365D01*
X44090237Y-16267591D01*
X44235567Y-16174073D01*
X44333064Y-16031381D01*
X44367365Y-15862000D01*
X44367365Y-14662000D01*
X44337591Y-14503763D01*
X44244073Y-14358433D01*
X44101381Y-14260936D01*
X43932000Y-14226635D01*
X42732000Y-14226635D01*
X42573763Y-14256409D01*
X42478412Y-14317766D01*
X41822499Y-13661853D01*
X41822499Y-13572260D01*
X41824186Y-13570576D01*
X41923885Y-13330475D01*
X41924112Y-13070496D01*
X41824833Y-12830220D01*
X41641160Y-12646228D01*
X41401059Y-12546529D01*
X41141080Y-12546302D01*
X40900804Y-12645581D01*
X40716812Y-12829254D01*
X40617113Y-13069355D01*
X40616886Y-13329334D01*
X40716165Y-13569610D01*
X40718499Y-13571948D01*
X40718499Y-13706635D01*
X39072000Y-13706635D01*
X38913763Y-13736409D01*
X38768433Y-13829927D01*
X38670936Y-13972619D01*
X38636635Y-14142000D01*
X38636635Y-15330000D01*
X38207365Y-15330000D01*
X38207365Y-14142000D01*
X38177591Y-13983763D01*
X38084073Y-13838433D01*
X37941381Y-13740936D01*
X37772000Y-13706635D01*
X35872000Y-13706635D01*
X35713763Y-13736409D01*
X35568433Y-13829927D01*
X35470936Y-13972619D01*
X35436635Y-14142000D01*
X35436635Y-15330000D01*
X32622579Y-15330000D01*
X32887846Y-15220394D01*
X33219230Y-14889588D01*
X33398795Y-14457147D01*
X33399204Y-13988907D01*
X33220394Y-13556154D01*
X32889588Y-13224770D01*
X32457147Y-13045205D01*
X31988907Y-13044796D01*
X31556154Y-13223606D01*
X31224770Y-13554412D01*
X31045205Y-13986853D01*
X31044796Y-14455093D01*
X31220166Y-14879520D01*
X31032323Y-14691677D01*
X30853242Y-14572018D01*
X30755286Y-14552534D01*
X30773965Y-14524578D01*
X30825499Y-14265501D01*
X30825499Y-12462000D01*
X42296635Y-12462000D01*
X42296635Y-13662000D01*
X42326409Y-13820237D01*
X42419927Y-13965567D01*
X42562619Y-14063064D01*
X42732000Y-14097365D01*
X43932000Y-14097365D01*
X44090237Y-14067591D01*
X44235567Y-13974073D01*
X44333064Y-13831381D01*
X44367365Y-13662000D01*
X44367365Y-12617281D01*
X44399035Y-12585611D01*
X44401419Y-12585613D01*
X44641695Y-12486334D01*
X44825687Y-12302661D01*
X44925386Y-12062560D01*
X44925613Y-11802581D01*
X44826334Y-11562305D01*
X44642661Y-11378313D01*
X44402560Y-11278614D01*
X44142581Y-11278387D01*
X43902305Y-11377666D01*
X43718313Y-11561339D01*
X43618614Y-11801440D01*
X43618611Y-11804743D01*
X43396719Y-12026635D01*
X42732000Y-12026635D01*
X42573763Y-12056409D01*
X42428433Y-12149927D01*
X42330936Y-12292619D01*
X42296635Y-12462000D01*
X30825499Y-12462000D01*
X30825499Y-11990362D01*
X30773965Y-11731285D01*
X30627210Y-11511651D01*
X30218848Y-11103289D01*
X30204467Y-11093680D01*
X29999214Y-10956534D01*
X29740137Y-10905000D01*
X28612586Y-10905000D01*
X28353509Y-10956534D01*
X28293124Y-10996882D01*
X28756006Y-10534000D01*
X29166985Y-10534000D01*
X29378227Y-10491982D01*
X29557308Y-10372323D01*
X31203148Y-8726483D01*
X31045205Y-9106853D01*
X31044796Y-9575093D01*
X31223606Y-10007846D01*
X31554412Y-10339230D01*
X31986853Y-10518795D01*
X32455093Y-10519204D01*
X32887846Y-10340394D01*
X33219230Y-10009588D01*
X33398795Y-9577147D01*
X33399204Y-9108907D01*
X33220394Y-8676154D01*
X32889588Y-8344770D01*
X32457147Y-8165205D01*
X31988907Y-8164796D01*
X31607058Y-8322573D01*
X31807123Y-8122508D01*
X37235263Y-8122508D01*
X37161677Y-8171677D01*
X37126719Y-8206635D01*
X35872000Y-8206635D01*
X35713763Y-8236409D01*
X35568433Y-8329927D01*
X35470936Y-8472619D01*
X35436635Y-8642000D01*
X35436635Y-9942000D01*
X35466409Y-10100237D01*
X35559927Y-10245567D01*
X35702619Y-10343064D01*
X35872000Y-10377365D01*
X37772000Y-10377365D01*
X37930237Y-10347591D01*
X38075567Y-10254073D01*
X38173064Y-10111381D01*
X38207365Y-9942000D01*
X38207365Y-9871001D01*
X38309440Y-9913386D01*
X38569419Y-9913613D01*
X38636635Y-9885840D01*
X38636635Y-9942000D01*
X38666409Y-10100237D01*
X38759927Y-10245567D01*
X38902619Y-10343064D01*
X39072000Y-10377365D01*
X40972000Y-10377365D01*
X41130237Y-10347591D01*
X41275567Y-10254073D01*
X41358018Y-10133402D01*
X41599419Y-10133613D01*
X41743695Y-10074000D01*
X42296635Y-10074000D01*
X42296635Y-10432000D01*
X42326409Y-10590237D01*
X42419927Y-10735567D01*
X42562619Y-10833064D01*
X42732000Y-10867365D01*
X43932000Y-10867365D01*
X44090237Y-10837591D01*
X44235567Y-10744073D01*
X44333064Y-10601381D01*
X44367365Y-10432000D01*
X44367365Y-9232000D01*
X44337591Y-9073763D01*
X44244073Y-8928433D01*
X44101381Y-8830936D01*
X43932000Y-8796635D01*
X42732000Y-8796635D01*
X42573763Y-8826409D01*
X42428433Y-8919927D01*
X42394220Y-8970000D01*
X41884272Y-8970000D01*
X41840661Y-8926313D01*
X41600560Y-8826614D01*
X41407365Y-8826445D01*
X41407365Y-8642000D01*
X41377591Y-8483763D01*
X41284073Y-8338433D01*
X41141381Y-8240936D01*
X40972000Y-8206635D01*
X39072000Y-8206635D01*
X38979450Y-8224049D01*
X38966334Y-8192305D01*
X38896658Y-8122508D01*
X41253492Y-8122508D01*
X41464734Y-8080490D01*
X41643815Y-7960831D01*
X42296635Y-7308011D01*
X42296635Y-8232000D01*
G36*
X9157000Y-12953000D02*
X9177000Y-12953000D01*
X9177000Y-13207000D01*
X9157000Y-13207000D01*
X9157000Y-15493000D01*
X9177000Y-15493000D01*
X9177000Y-15747000D01*
X9157000Y-15747000D01*
X9157000Y-15767000D01*
X8903000Y-15767000D01*
X8903000Y-15747000D01*
X8883000Y-15747000D01*
X8883000Y-15493000D01*
X8903000Y-15493000D01*
X8903000Y-13207000D01*
X8883000Y-13207000D01*
X8883000Y-12953000D01*
X8903000Y-12953000D01*
X8903000Y-12933000D01*
X9157000Y-12933000D01*
X9157000Y-12953000D01*
X9157000Y-12953000D01*
G37*
X9157000Y-12953000D02*
X9177000Y-12953000D01*
X9177000Y-13207000D01*
X9157000Y-13207000D01*
X9157000Y-15493000D01*
X9177000Y-15493000D01*
X9177000Y-15747000D01*
X9157000Y-15747000D01*
X9157000Y-15767000D01*
X8903000Y-15767000D01*
X8903000Y-15747000D01*
X8883000Y-15747000D01*
X8883000Y-15493000D01*
X8903000Y-15493000D01*
X8903000Y-13207000D01*
X8883000Y-13207000D01*
X8883000Y-12953000D01*
X8903000Y-12953000D01*
X8903000Y-12933000D01*
X9157000Y-12933000D01*
X9157000Y-12953000D01*
G36*
X29471499Y-12270784D02*
X29471499Y-13985079D01*
X29443289Y-14013289D01*
X29376660Y-14113006D01*
X29368313Y-14121339D01*
X29363750Y-14132328D01*
X29296534Y-14232924D01*
X29273137Y-14350548D01*
X29268614Y-14361440D01*
X29268604Y-14373338D01*
X29267816Y-14377297D01*
X28619080Y-13728561D01*
X28690127Y-13657513D01*
X28825212Y-13459810D01*
X28879696Y-13208648D01*
X28873263Y-13174459D01*
X28893721Y-13154001D01*
X28984557Y-13021057D01*
X29021194Y-12852165D01*
X28989237Y-12682326D01*
X28893721Y-12538301D01*
X28753714Y-12398294D01*
X28893008Y-12259000D01*
X29459715Y-12259000D01*
X29471499Y-12270784D01*
X29471499Y-12270784D01*
G37*
X29471499Y-12270784D02*
X29471499Y-13985079D01*
X29443289Y-14013289D01*
X29376660Y-14113006D01*
X29368313Y-14121339D01*
X29363750Y-14132328D01*
X29296534Y-14232924D01*
X29273137Y-14350548D01*
X29268614Y-14361440D01*
X29268604Y-14373338D01*
X29267816Y-14377297D01*
X28619080Y-13728561D01*
X28690127Y-13657513D01*
X28825212Y-13459810D01*
X28879696Y-13208648D01*
X28873263Y-13174459D01*
X28893721Y-13154001D01*
X28984557Y-13021057D01*
X29021194Y-12852165D01*
X28989237Y-12682326D01*
X28893721Y-12538301D01*
X28753714Y-12398294D01*
X28893008Y-12259000D01*
X29459715Y-12259000D01*
X29471499Y-12270784D01*
G36*
X5914396Y-11999000D02*
X6492018Y-11999000D01*
X6517297Y-12024279D01*
X6525161Y-12043312D01*
X6708834Y-12227304D01*
X6729808Y-12236013D01*
X6716285Y-12304000D01*
X6709999Y-12335604D01*
X6709999Y-13543146D01*
X5895179Y-14357966D01*
X6022312Y-13998854D01*
X5993949Y-13458556D01*
X5866743Y-13151452D01*
X5960000Y-12926309D01*
X5960000Y-12858750D01*
X5801250Y-12700000D01*
X5383867Y-12700000D01*
X5358878Y-12608247D01*
X5294243Y-12585365D01*
X5325000Y-12585365D01*
X5483237Y-12555591D01*
X5569627Y-12500000D01*
X5801250Y-12500000D01*
X5960000Y-12341250D01*
X5960000Y-12273691D01*
X5863327Y-12040302D01*
X5799090Y-11976064D01*
X5914396Y-11999000D01*
X5914396Y-11999000D01*
G37*
X5914396Y-11999000D02*
X6492018Y-11999000D01*
X6517297Y-12024279D01*
X6525161Y-12043312D01*
X6708834Y-12227304D01*
X6729808Y-12236013D01*
X6716285Y-12304000D01*
X6709999Y-12335604D01*
X6709999Y-13543146D01*
X5895179Y-14357966D01*
X6022312Y-13998854D01*
X5993949Y-13458556D01*
X5866743Y-13151452D01*
X5960000Y-12926309D01*
X5960000Y-12858750D01*
X5801250Y-12700000D01*
X5383867Y-12700000D01*
X5358878Y-12608247D01*
X5294243Y-12585365D01*
X5325000Y-12585365D01*
X5483237Y-12555591D01*
X5569627Y-12500000D01*
X5801250Y-12500000D01*
X5960000Y-12341250D01*
X5960000Y-12273691D01*
X5863327Y-12040302D01*
X5799090Y-11976064D01*
X5914396Y-11999000D01*
G36*
X23299542Y-9261120D02*
X23285399Y-9275262D01*
X25297825Y-11287688D01*
X25311968Y-11273546D01*
X25491573Y-11453151D01*
X25477430Y-11467293D01*
X25491573Y-11481436D01*
X25311968Y-11661041D01*
X25297825Y-11646898D01*
X23285399Y-13659324D01*
X23299542Y-13673467D01*
X23119937Y-13853072D01*
X23105794Y-13838929D01*
X23091652Y-13853072D01*
X22912047Y-13673467D01*
X22926189Y-13659324D01*
X20913763Y-11646898D01*
X20899621Y-11661041D01*
X20720016Y-11481436D01*
X20734158Y-11467293D01*
X21093368Y-11467293D01*
X23105794Y-13479719D01*
X25118220Y-11467293D01*
X23105794Y-9454867D01*
X21093368Y-11467293D01*
X20734158Y-11467293D01*
X20720016Y-11453151D01*
X20899621Y-11273546D01*
X20913763Y-11287688D01*
X22926189Y-9275262D01*
X22912047Y-9261120D01*
X23091652Y-9081515D01*
X23105794Y-9095657D01*
X23119937Y-9081515D01*
X23299542Y-9261120D01*
X23299542Y-9261120D01*
G37*
X23299542Y-9261120D02*
X23285399Y-9275262D01*
X25297825Y-11287688D01*
X25311968Y-11273546D01*
X25491573Y-11453151D01*
X25477430Y-11467293D01*
X25491573Y-11481436D01*
X25311968Y-11661041D01*
X25297825Y-11646898D01*
X23285399Y-13659324D01*
X23299542Y-13673467D01*
X23119937Y-13853072D01*
X23105794Y-13838929D01*
X23091652Y-13853072D01*
X22912047Y-13673467D01*
X22926189Y-13659324D01*
X20913763Y-11646898D01*
X20899621Y-11661041D01*
X20720016Y-11481436D01*
X20734158Y-11467293D01*
X21093368Y-11467293D01*
X23105794Y-13479719D01*
X25118220Y-11467293D01*
X23105794Y-9454867D01*
X21093368Y-11467293D01*
X20734158Y-11467293D01*
X20720016Y-11453151D01*
X20899621Y-11273546D01*
X20913763Y-11287688D01*
X22926189Y-9275262D01*
X22912047Y-9261120D01*
X23091652Y-9081515D01*
X23105794Y-9095657D01*
X23119937Y-9081515D01*
X23299542Y-9261120D01*
G36*
X10872206Y-4195705D02*
X11149025Y-4609993D01*
X11563313Y-4886812D01*
X12052000Y-4984018D01*
X12486871Y-4897517D01*
X13209677Y-5620323D01*
X13277000Y-5665307D01*
X13277000Y-5996250D01*
X13435750Y-6155000D01*
X14635000Y-6155000D01*
X14635000Y-6135000D01*
X14889000Y-6135000D01*
X14889000Y-6155000D01*
X14909000Y-6155000D01*
X14909000Y-6409000D01*
X14889000Y-6409000D01*
X14889000Y-7258250D01*
X15047750Y-7417000D01*
X15658000Y-7417000D01*
X15658000Y-7617395D01*
X15700018Y-7828637D01*
X15819677Y-8007718D01*
X16802791Y-8990832D01*
X16981872Y-9110491D01*
X17193114Y-9152509D01*
X17535491Y-9152509D01*
X17590758Y-9207776D01*
X17521461Y-9277073D01*
X17386376Y-9474776D01*
X17331892Y-9725938D01*
X17338325Y-9760127D01*
X17317867Y-9780585D01*
X17227031Y-9913529D01*
X17219373Y-9948832D01*
X17033918Y-10025460D01*
X16870181Y-10188913D01*
X16372945Y-9691677D01*
X16193864Y-9572018D01*
X16039718Y-9541357D01*
X16017591Y-9423763D01*
X15924073Y-9278433D01*
X15781381Y-9180936D01*
X15612000Y-9146635D01*
X13912000Y-9146635D01*
X13753763Y-9176409D01*
X13608433Y-9269927D01*
X13510936Y-9412619D01*
X13487165Y-9530000D01*
X10820508Y-9530000D01*
X10820508Y-6567750D01*
X13277000Y-6567750D01*
X13277000Y-6908310D01*
X13373673Y-7141699D01*
X13552302Y-7320327D01*
X13785691Y-7417000D01*
X14476250Y-7417000D01*
X14635000Y-7258250D01*
X14635000Y-6409000D01*
X13435750Y-6409000D01*
X13277000Y-6567750D01*
X10820508Y-6567750D01*
X10820508Y-5640589D01*
X10805288Y-5564070D01*
X10778490Y-5429347D01*
X10658831Y-5250266D01*
X10177341Y-4768776D01*
X10414975Y-4609993D01*
X10691794Y-4195705D01*
X10782000Y-3742209D01*
X10872206Y-4195705D01*
X10872206Y-4195705D01*
G37*
X10872206Y-4195705D02*
X11149025Y-4609993D01*
X11563313Y-4886812D01*
X12052000Y-4984018D01*
X12486871Y-4897517D01*
X13209677Y-5620323D01*
X13277000Y-5665307D01*
X13277000Y-5996250D01*
X13435750Y-6155000D01*
X14635000Y-6155000D01*
X14635000Y-6135000D01*
X14889000Y-6135000D01*
X14889000Y-6155000D01*
X14909000Y-6155000D01*
X14909000Y-6409000D01*
X14889000Y-6409000D01*
X14889000Y-7258250D01*
X15047750Y-7417000D01*
X15658000Y-7417000D01*
X15658000Y-7617395D01*
X15700018Y-7828637D01*
X15819677Y-8007718D01*
X16802791Y-8990832D01*
X16981872Y-9110491D01*
X17193114Y-9152509D01*
X17535491Y-9152509D01*
X17590758Y-9207776D01*
X17521461Y-9277073D01*
X17386376Y-9474776D01*
X17331892Y-9725938D01*
X17338325Y-9760127D01*
X17317867Y-9780585D01*
X17227031Y-9913529D01*
X17219373Y-9948832D01*
X17033918Y-10025460D01*
X16870181Y-10188913D01*
X16372945Y-9691677D01*
X16193864Y-9572018D01*
X16039718Y-9541357D01*
X16017591Y-9423763D01*
X15924073Y-9278433D01*
X15781381Y-9180936D01*
X15612000Y-9146635D01*
X13912000Y-9146635D01*
X13753763Y-9176409D01*
X13608433Y-9269927D01*
X13510936Y-9412619D01*
X13487165Y-9530000D01*
X10820508Y-9530000D01*
X10820508Y-6567750D01*
X13277000Y-6567750D01*
X13277000Y-6908310D01*
X13373673Y-7141699D01*
X13552302Y-7320327D01*
X13785691Y-7417000D01*
X14476250Y-7417000D01*
X14635000Y-7258250D01*
X14635000Y-6409000D01*
X13435750Y-6409000D01*
X13277000Y-6567750D01*
X10820508Y-6567750D01*
X10820508Y-5640589D01*
X10805288Y-5564070D01*
X10778490Y-5429347D01*
X10658831Y-5250266D01*
X10177341Y-4768776D01*
X10414975Y-4609993D01*
X10691794Y-4195705D01*
X10782000Y-3742209D01*
X10872206Y-4195705D01*
M02*
