M48
;DRILL file {KiCad 4.0.7} date 01/16/18 14:15:29
;FORMAT={3:3/ absolute / metric / suppress trailing zeros}
FMAT,2
METRIC,LZ
T1C0.300
T2C0.600
T3C0.800
T4C0.850
T5C1.000
%
G90
G05
M71
T1
X001372Y-016812
X0034Y-01225
X004979Y-016975
X00634Y-01042
X006502Y-005382
X00657Y-01525
X00667Y-012213
X007002Y-010963
X007079Y-011674
X00936Y-00727
X010302Y-01082
X010772Y-021212
X010792Y-019789
X010812Y-017472
X011492Y-007402
X015028Y-009038
X01536Y-00523
X016242Y-017582
X016954Y-011053
X017404Y-01058
X017452Y-009202
X017502Y-007442
X01751Y-01181
X017682Y-016151
X018976Y-016716
X019702Y-017306
X020572Y-006132
X020838Y-016989
X020872Y-019857
X021462Y-009712
X02227Y-00578
X02259Y-02048
X022632Y-011032
X023082Y-011297
X02332Y-00587
X023572Y-010972
X024039Y-017269
X024877Y-017207
X025252Y-017832
X026044Y-006549
X026589Y-006909
X0278Y-006909
X028671Y-007096
X028687Y-007759
X029016Y-013418
X02903Y-01227
X029202Y-006642
X029922Y-014492
X029932Y-016132
X030302Y-011072
X032242Y-008122
X03387Y-01256
X038412Y-008562
X03844Y-00926
X039416Y-005942
X040284Y-005934
X04127Y-0132
X04147Y-00948
X042062Y-005672
X044272Y-011932
X049204Y-007745
X04986Y-00509
X04987Y-00771
T3
X032222Y-009342
X032222Y-014222
T4
X00465Y-0088
X00465Y-0138
T5
X001892Y-003682
X001892Y-019182
X004432Y-003682
X004432Y-019182
X006972Y-003682
X006972Y-019182
X00903Y-01308
X00903Y-01562
X009512Y-003682
X009512Y-019182
X01157Y-01308
X01157Y-01562
X012052Y-003682
X012052Y-019182
X01411Y-01308
X01411Y-01562
X014592Y-003682
X014592Y-019182
X017132Y-003682
X017132Y-019182
X019672Y-003682
X019672Y-019182
X022212Y-003682
X022212Y-019182
X024752Y-003682
X024752Y-019182
X027292Y-003682
X027292Y-019182
X029832Y-003682
X029832Y-019182
X032372Y-003682
X032372Y-019182
X034912Y-003682
X034912Y-019182
X037452Y-003682
X037452Y-019182
X039992Y-003682
X039992Y-019182
X042532Y-003682
X042532Y-019182
X045072Y-003682
X045072Y-019182
X047612Y-003682
X047612Y-019182
X047772Y-006482
X047772Y-009022
X047772Y-011562
X047772Y-014102
X047772Y-016642
X050152Y-003682
X050152Y-019182
T2
X0016Y-0078G85X0023Y-0078
G05
X0023Y-0148G85X0016Y-0148
G05
T0
M30
