%TF.GenerationSoftware,KiCad,Pcbnew,4.0.7*%
%TF.CreationDate,2018-01-16T14:15:25+08:00*%
%TF.ProjectId,STM32F401CCT6,53544D333246343031434354362E6B69,rev?*%
%TF.FileFunction,Legend,Top*%
%FSLAX46Y46*%
G04 Gerber Fmt 4.6, Leading zero omitted, Abs format (unit mm)*
G04 Created by KiCad (PCBNEW 4.0.7) date 01/16/18 14:15:25*
%MOMM*%
%LPD*%
G01*
G04 APERTURE LIST*
%ADD10C,0.100000*%
%ADD11C,0.250000*%
%ADD12C,0.200000*%
%ADD13C,0.237500*%
%ADD14C,0.120000*%
%ADD15C,0.400000*%
%ADD16C,0.750000*%
%ADD17C,0.150000*%
G04 APERTURE END LIST*
D10*
D11*
X42354381Y-15404857D02*
X42354381Y-15881048D01*
X41354381Y-15881048D01*
X41830571Y-15071524D02*
X41830571Y-14738190D01*
X42354381Y-14595333D02*
X42354381Y-15071524D01*
X41354381Y-15071524D01*
X41354381Y-14595333D01*
X42354381Y-14166762D02*
X41354381Y-14166762D01*
X41354381Y-13928667D01*
X41402000Y-13785809D01*
X41497238Y-13690571D01*
X41592476Y-13642952D01*
X41782952Y-13595333D01*
X41925810Y-13595333D01*
X42116286Y-13642952D01*
X42211524Y-13690571D01*
X42306762Y-13785809D01*
X42354381Y-13928667D01*
X42354381Y-14166762D01*
X42374381Y-9065333D02*
X41374381Y-9065333D01*
X41374381Y-8684380D01*
X41422000Y-8589142D01*
X41469619Y-8541523D01*
X41564857Y-8493904D01*
X41707714Y-8493904D01*
X41802952Y-8541523D01*
X41850571Y-8589142D01*
X41898190Y-8684380D01*
X41898190Y-9065333D01*
X41374381Y-8160571D02*
X42374381Y-7922476D01*
X41660095Y-7731999D01*
X42374381Y-7541523D01*
X41374381Y-7303428D01*
X42374381Y-6351047D02*
X41898190Y-6684381D01*
X42374381Y-6922476D02*
X41374381Y-6922476D01*
X41374381Y-6541523D01*
X41422000Y-6446285D01*
X41469619Y-6398666D01*
X41564857Y-6351047D01*
X41707714Y-6351047D01*
X41802952Y-6398666D01*
X41850571Y-6446285D01*
X41898190Y-6541523D01*
X41898190Y-6922476D01*
D12*
X43362000Y-8900000D02*
X43362000Y-8560000D01*
X43100000Y-8550000D02*
X43600000Y-8550000D01*
X43360000Y-14320000D02*
X43360000Y-13980000D01*
X43102000Y-13980000D02*
X43602000Y-13980000D01*
X44947772Y-11467885D02*
X45046154Y-11392720D01*
X45141392Y-11227763D01*
X45138248Y-11137971D01*
X45116057Y-11081169D01*
X45052626Y-11000559D01*
X44970147Y-10952940D01*
X44868621Y-10938312D01*
X44808334Y-10947495D01*
X44728999Y-10989667D01*
X44611569Y-11097824D01*
X44532234Y-11139997D01*
X44471948Y-11149179D01*
X44370422Y-11134551D01*
X44287943Y-11086932D01*
X44224512Y-11006322D01*
X44202320Y-10949521D01*
X44199177Y-10859729D01*
X44294415Y-10694772D01*
X44392797Y-10619606D01*
X44484891Y-10364857D02*
X45446154Y-10699900D01*
X44903755Y-10210791D01*
X45598535Y-10435968D01*
X44827748Y-9771011D01*
X45846154Y-10007079D02*
X44980129Y-9507079D01*
X45075367Y-9342122D01*
X45173749Y-9266957D01*
X45294323Y-9248593D01*
X45395849Y-9263220D01*
X45579854Y-9325467D01*
X45703573Y-9396896D01*
X45849482Y-9525125D01*
X45912913Y-9605736D01*
X45957296Y-9719338D01*
X45941392Y-9842122D01*
X45846154Y-10007079D01*
X46392247Y-8870742D02*
X46414439Y-8927543D01*
X46398535Y-9050327D01*
X46360440Y-9116310D01*
X46262058Y-9191475D01*
X46141484Y-9209839D01*
X46039958Y-9195211D01*
X45855954Y-9132965D01*
X45732235Y-9061536D01*
X45586325Y-8933306D01*
X45522894Y-8852696D01*
X45478511Y-8739094D01*
X45494415Y-8616310D01*
X45532510Y-8550327D01*
X45630892Y-8475162D01*
X45691179Y-8465980D01*
X46836631Y-8291524D02*
X46646154Y-8621439D01*
X45780129Y-8121439D01*
X46969964Y-8060584D02*
X46103939Y-7560584D01*
X47198535Y-7664687D02*
X46532235Y-7675895D01*
X46332510Y-7164687D02*
X46598811Y-7846299D01*
X8412477Y-17182000D02*
X8336286Y-17139143D01*
X8222001Y-17139143D01*
X8107715Y-17182000D01*
X8031524Y-17267714D01*
X7993429Y-17353429D01*
X7955334Y-17524857D01*
X7955334Y-17653429D01*
X7993429Y-17824857D01*
X8031524Y-17910571D01*
X8107715Y-17996286D01*
X8222001Y-18039143D01*
X8298191Y-18039143D01*
X8412477Y-17996286D01*
X8450572Y-17953429D01*
X8450572Y-17653429D01*
X8298191Y-17653429D01*
X8793429Y-18039143D02*
X8793429Y-17139143D01*
X9250572Y-18039143D01*
X9250572Y-17139143D01*
X9631524Y-18039143D02*
X9631524Y-17139143D01*
X9822000Y-17139143D01*
X9936286Y-17182000D01*
X10012477Y-17267714D01*
X10050572Y-17353429D01*
X10088667Y-17524857D01*
X10088667Y-17653429D01*
X10050572Y-17824857D01*
X10012477Y-17910571D01*
X9936286Y-17996286D01*
X9822000Y-18039143D01*
X9631524Y-18039143D01*
X16608571Y-14836666D02*
X16656190Y-14722380D01*
X16703810Y-14684285D01*
X16799048Y-14646190D01*
X16941905Y-14646190D01*
X17037143Y-14684285D01*
X17084762Y-14722380D01*
X17132381Y-14798571D01*
X17132381Y-15103333D01*
X16132381Y-15103333D01*
X16132381Y-14836666D01*
X16180000Y-14760476D01*
X16227619Y-14722380D01*
X16322857Y-14684285D01*
X16418095Y-14684285D01*
X16513333Y-14722380D01*
X16560952Y-14760476D01*
X16608571Y-14836666D01*
X16608571Y-15103333D01*
X16132381Y-14150952D02*
X16132381Y-13998571D01*
X16180000Y-13922380D01*
X16275238Y-13846190D01*
X16465714Y-13808095D01*
X16799048Y-13808095D01*
X16989524Y-13846190D01*
X17084762Y-13922380D01*
X17132381Y-13998571D01*
X17132381Y-14150952D01*
X17084762Y-14227142D01*
X16989524Y-14303333D01*
X16799048Y-14341428D01*
X16465714Y-14341428D01*
X16275238Y-14303333D01*
X16180000Y-14227142D01*
X16132381Y-14150952D01*
X16132381Y-13312857D02*
X16132381Y-13160476D01*
X16180000Y-13084285D01*
X16275238Y-13008095D01*
X16465714Y-12970000D01*
X16799048Y-12970000D01*
X16989524Y-13008095D01*
X17084762Y-13084285D01*
X17132381Y-13160476D01*
X17132381Y-13312857D01*
X17084762Y-13389047D01*
X16989524Y-13465238D01*
X16799048Y-13503333D01*
X16465714Y-13503333D01*
X16275238Y-13465238D01*
X16180000Y-13389047D01*
X16132381Y-13312857D01*
X16132381Y-12741429D02*
X16132381Y-12284286D01*
X17132381Y-12512857D02*
X16132381Y-12512857D01*
X17132381Y-11598571D02*
X17132381Y-12055714D01*
X17132381Y-11827143D02*
X16132381Y-11827143D01*
X16275238Y-11903333D01*
X16370476Y-11979524D01*
X16418095Y-12055714D01*
X7352381Y-8638095D02*
X6876190Y-8904762D01*
X7352381Y-9095238D02*
X6352381Y-9095238D01*
X6352381Y-8790476D01*
X6400000Y-8714285D01*
X6447619Y-8676190D01*
X6542857Y-8638095D01*
X6685714Y-8638095D01*
X6780952Y-8676190D01*
X6828571Y-8714285D01*
X6876190Y-8790476D01*
X6876190Y-9095238D01*
X7304762Y-8333333D02*
X7352381Y-8219047D01*
X7352381Y-8028571D01*
X7304762Y-7952381D01*
X7257143Y-7914285D01*
X7161905Y-7876190D01*
X7066667Y-7876190D01*
X6971429Y-7914285D01*
X6923810Y-7952381D01*
X6876190Y-8028571D01*
X6828571Y-8180952D01*
X6780952Y-8257143D01*
X6733333Y-8295238D01*
X6638095Y-8333333D01*
X6542857Y-8333333D01*
X6447619Y-8295238D01*
X6400000Y-8257143D01*
X6352381Y-8180952D01*
X6352381Y-7990476D01*
X6400000Y-7876190D01*
X6352381Y-7647619D02*
X6352381Y-7190476D01*
X7352381Y-7419047D02*
X6352381Y-7419047D01*
X6270000Y-13140000D02*
X6270000Y-13310000D01*
X16540000Y-16370000D02*
X16150000Y-16100000D01*
X16540000Y-15830000D02*
X16540000Y-16370000D01*
X16150000Y-16100000D02*
X16540000Y-15830000D01*
X16900000Y-16100000D02*
X16150000Y-16100000D01*
X16920000Y-15470000D02*
X16900000Y-16100000D01*
X7030000Y-12820000D02*
X6610000Y-12590000D01*
X6600000Y-13060000D02*
X7030000Y-12820000D01*
X6600000Y-12600000D02*
X6600000Y-13060000D01*
X6920000Y-12790000D02*
X6600000Y-12600000D01*
X6270000Y-12800000D02*
X6920000Y-12790000D01*
X6270000Y-13130000D02*
X6270000Y-12800000D01*
X6548571Y-16846666D02*
X6596190Y-16732380D01*
X6643810Y-16694285D01*
X6739048Y-16656190D01*
X6881905Y-16656190D01*
X6977143Y-16694285D01*
X7024762Y-16732380D01*
X7072381Y-16808571D01*
X7072381Y-17113333D01*
X6072381Y-17113333D01*
X6072381Y-16846666D01*
X6120000Y-16770476D01*
X6167619Y-16732380D01*
X6262857Y-16694285D01*
X6358095Y-16694285D01*
X6453333Y-16732380D01*
X6500952Y-16770476D01*
X6548571Y-16846666D01*
X6548571Y-17113333D01*
X6072381Y-16160952D02*
X6072381Y-16008571D01*
X6120000Y-15932380D01*
X6215238Y-15856190D01*
X6405714Y-15818095D01*
X6739048Y-15818095D01*
X6929524Y-15856190D01*
X7024762Y-15932380D01*
X7072381Y-16008571D01*
X7072381Y-16160952D01*
X7024762Y-16237142D01*
X6929524Y-16313333D01*
X6739048Y-16351428D01*
X6405714Y-16351428D01*
X6215238Y-16313333D01*
X6120000Y-16237142D01*
X6072381Y-16160952D01*
X6072381Y-15322857D02*
X6072381Y-15170476D01*
X6120000Y-15094285D01*
X6215238Y-15018095D01*
X6405714Y-14980000D01*
X6739048Y-14980000D01*
X6929524Y-15018095D01*
X7024762Y-15094285D01*
X7072381Y-15170476D01*
X7072381Y-15322857D01*
X7024762Y-15399047D01*
X6929524Y-15475238D01*
X6739048Y-15513333D01*
X6405714Y-15513333D01*
X6215238Y-15475238D01*
X6120000Y-15399047D01*
X6072381Y-15322857D01*
X6072381Y-14751429D02*
X6072381Y-14294286D01*
X7072381Y-14522857D02*
X6072381Y-14522857D01*
X6072381Y-13875238D02*
X6072381Y-13799047D01*
X6120000Y-13722857D01*
X6167619Y-13684762D01*
X6262857Y-13646666D01*
X6453333Y-13608571D01*
X6691429Y-13608571D01*
X6881905Y-13646666D01*
X6977143Y-13684762D01*
X7024762Y-13722857D01*
X7072381Y-13799047D01*
X7072381Y-13875238D01*
X7024762Y-13951428D01*
X6977143Y-13989524D01*
X6881905Y-14027619D01*
X6691429Y-14065714D01*
X6453333Y-14065714D01*
X6262857Y-14027619D01*
X6167619Y-13989524D01*
X6120000Y-13951428D01*
X6072381Y-13875238D01*
X13175333Y-17169143D02*
X13442000Y-18069143D01*
X13708667Y-17169143D01*
X13975333Y-18069143D02*
X13975333Y-17169143D01*
X14165809Y-17169143D01*
X14280095Y-17212000D01*
X14356286Y-17297714D01*
X14394381Y-17383429D01*
X14432476Y-17554857D01*
X14432476Y-17683429D01*
X14394381Y-17854857D01*
X14356286Y-17940571D01*
X14280095Y-18026286D01*
X14165809Y-18069143D01*
X13975333Y-18069143D01*
X14775333Y-18069143D02*
X14775333Y-17169143D01*
X14965809Y-17169143D01*
X15080095Y-17212000D01*
X15156286Y-17297714D01*
X15194381Y-17383429D01*
X15232476Y-17554857D01*
X15232476Y-17683429D01*
X15194381Y-17854857D01*
X15156286Y-17940571D01*
X15080095Y-18026286D01*
X14965809Y-18069143D01*
X14775333Y-18069143D01*
X44844415Y-14811951D02*
X45843773Y-15081011D01*
X45111082Y-14350070D01*
X46110440Y-14619131D02*
X45244415Y-14119131D01*
X45339653Y-13954174D01*
X45438035Y-13879009D01*
X45558609Y-13860644D01*
X45660135Y-13875272D01*
X45844139Y-13937519D01*
X45967858Y-14008948D01*
X46113768Y-14137177D01*
X46177199Y-14217787D01*
X46221582Y-14331390D01*
X46205678Y-14454174D01*
X46110440Y-14619131D01*
X46510440Y-13926311D02*
X45644415Y-13426311D01*
X45739653Y-13261354D01*
X45838035Y-13186188D01*
X45958609Y-13167824D01*
X46060135Y-13182452D01*
X46244139Y-13244699D01*
X46367858Y-13316128D01*
X46513768Y-13444357D01*
X46577199Y-13524967D01*
X46621582Y-13638569D01*
X46605678Y-13761354D01*
X46510440Y-13926311D01*
X45137851Y-17403575D02*
X45715202Y-17736908D01*
X45220330Y-17451194D02*
X45198138Y-17394393D01*
X45194994Y-17304600D01*
X45252137Y-17205626D01*
X45331472Y-17163453D01*
X45432998Y-17178080D01*
X45886630Y-17439985D01*
X46305678Y-16714173D02*
X45759951Y-16707018D01*
X46077107Y-17110070D02*
X45211082Y-16610070D01*
X45363463Y-16346139D01*
X45442797Y-16303965D01*
X45503084Y-16294783D01*
X45604610Y-16309411D01*
X45728328Y-16380839D01*
X45791759Y-16461450D01*
X45813951Y-16518250D01*
X45817094Y-16608043D01*
X45664713Y-16871975D01*
X46416820Y-16426432D02*
X46515202Y-16351267D01*
X46610440Y-16186310D01*
X46607296Y-16096518D01*
X46585105Y-16039716D01*
X46521674Y-15959106D01*
X46439195Y-15911487D01*
X46337669Y-15896859D01*
X46277382Y-15906042D01*
X46198047Y-15948214D01*
X46080617Y-16056371D01*
X46001282Y-16098544D01*
X45940996Y-16107726D01*
X45839470Y-16093098D01*
X45756991Y-16045479D01*
X45693560Y-15964869D01*
X45671368Y-15908068D01*
X45668225Y-15818276D01*
X45763463Y-15653318D01*
X45861845Y-15578153D01*
X45934891Y-15356396D02*
X46163463Y-14960498D01*
X46915202Y-15658446D02*
X46049177Y-15158446D01*
X45384915Y-13322500D02*
X45483297Y-13247335D01*
X45578535Y-13082378D01*
X45575391Y-12992586D01*
X45553200Y-12935784D01*
X45489769Y-12855174D01*
X45407290Y-12807555D01*
X45305764Y-12792927D01*
X45245477Y-12802110D01*
X45166142Y-12844283D01*
X45048712Y-12952439D01*
X44969377Y-12994613D01*
X44909091Y-13003794D01*
X44807565Y-12989167D01*
X44725086Y-12941548D01*
X44661655Y-12860937D01*
X44639463Y-12804137D01*
X44636320Y-12714344D01*
X44731558Y-12549387D01*
X44829940Y-12474222D01*
X44922034Y-12219472D02*
X45883297Y-12554515D01*
X45340898Y-12065406D01*
X46035678Y-12290583D01*
X45264891Y-11625626D01*
X46283297Y-11861694D02*
X45417272Y-11361694D01*
X45512510Y-11196737D01*
X45610892Y-11121572D01*
X45731466Y-11103208D01*
X45832992Y-11117836D01*
X46016997Y-11180082D01*
X46140716Y-11251511D01*
X46286625Y-11379741D01*
X46350056Y-11460351D01*
X46394439Y-11573953D01*
X46378535Y-11696737D01*
X46283297Y-11861694D01*
X46683297Y-11168874D02*
X45817272Y-10668874D01*
X46083939Y-10206994D02*
X46160129Y-10075028D01*
X46239464Y-10032855D01*
X46360037Y-10014491D01*
X46544042Y-10076738D01*
X46832718Y-10243405D01*
X46978627Y-10371634D01*
X47023011Y-10485236D01*
X47026154Y-10575028D01*
X46949964Y-10706994D01*
X46870630Y-10749167D01*
X46750056Y-10767532D01*
X46566051Y-10705285D01*
X46277375Y-10538618D01*
X46131466Y-10410389D01*
X46087083Y-10296786D01*
X46083939Y-10206994D01*
X44744226Y-7109862D02*
X44664891Y-7152036D01*
X44607749Y-7251010D01*
X44591845Y-7373794D01*
X44636228Y-7487396D01*
X44699659Y-7568007D01*
X44845568Y-7696236D01*
X44969287Y-7767665D01*
X45153292Y-7829912D01*
X45254818Y-7844539D01*
X45375392Y-7826175D01*
X45473774Y-7751010D01*
X45511869Y-7685027D01*
X45527773Y-7562243D01*
X45505581Y-7505443D01*
X45216906Y-7338776D01*
X45140716Y-7470742D01*
X45759488Y-7256139D02*
X44893463Y-6756139D01*
X45988059Y-6860241D01*
X45122034Y-6360241D01*
X46178535Y-6530327D02*
X45312510Y-6030327D01*
X45407748Y-5865370D01*
X45506130Y-5790205D01*
X45626704Y-5771841D01*
X45728230Y-5786469D01*
X45912235Y-5848715D01*
X46035954Y-5920144D01*
X46181863Y-6048374D01*
X46245294Y-6128984D01*
X46289677Y-6242586D01*
X46273773Y-6365370D01*
X46178535Y-6530327D01*
D13*
X536519Y-1470913D02*
X892395Y-590088D01*
X1227948Y-725660D01*
X1294889Y-801497D01*
X1319888Y-860388D01*
X1327939Y-961222D01*
X1277099Y-1087055D01*
X1201262Y-1153997D01*
X1142371Y-1178994D01*
X1041536Y-1187045D01*
X705984Y-1051473D01*
X1689332Y-912072D02*
X1543176Y-1877629D01*
X1965150Y-1316254D01*
X1878729Y-2013201D01*
X2444325Y-1217109D01*
X2610412Y-1772121D02*
X2904020Y-1890746D01*
X2843441Y-2402970D02*
X2424000Y-2233505D01*
X2779876Y-1352680D01*
X3199317Y-1522145D01*
X4096834Y-798444D02*
X4029892Y-722607D01*
X3904060Y-671767D01*
X3761282Y-662872D01*
X3643501Y-712867D01*
X3567663Y-779808D01*
X3457933Y-930638D01*
X3407094Y-1056470D01*
X3381252Y-1241192D01*
X3389303Y-1342028D01*
X3439298Y-1459809D01*
X3548184Y-1552592D01*
X3632072Y-1586485D01*
X3774851Y-1595381D01*
X3833741Y-1570383D01*
X3952367Y-1276775D01*
X3784590Y-1208989D01*
X4177344Y-1806789D02*
X4533220Y-925965D01*
X4680673Y-2010147D01*
X5036549Y-1129323D01*
X5100112Y-2179612D02*
X5455989Y-1298787D01*
X5665709Y-1383520D01*
X5774595Y-1476303D01*
X5824590Y-1594084D01*
X5832642Y-1694919D01*
X5806799Y-1879642D01*
X5755960Y-2005474D01*
X5646230Y-2156303D01*
X5570392Y-2223245D01*
X5452611Y-2273240D01*
X5309833Y-2264345D01*
X5100112Y-2179612D01*
X6140451Y-703142D02*
X6078184Y-1702592D01*
X6727668Y-940393D01*
X6665400Y-1939843D02*
X7021276Y-1059018D01*
X7230997Y-1143751D01*
X7339882Y-1236534D01*
X7389877Y-1354315D01*
X7397929Y-1455150D01*
X7372087Y-1639873D01*
X7321247Y-1765705D01*
X7211518Y-1916534D01*
X7135680Y-1983476D01*
X7017899Y-2033471D01*
X6875120Y-2024575D01*
X6665400Y-1939843D01*
X7546224Y-2295719D02*
X7902101Y-1414894D01*
X8111821Y-1499627D01*
X8220707Y-1592410D01*
X8270702Y-1710191D01*
X8278754Y-1811026D01*
X8252911Y-1995749D01*
X8202072Y-2121581D01*
X8092342Y-2272410D01*
X8016504Y-2339352D01*
X7898723Y-2389347D01*
X7755945Y-2380452D01*
X7546224Y-2295719D01*
X8976652Y-1743584D02*
X8852508Y-1205518D01*
X8473323Y-1540226D02*
X8829199Y-659401D01*
X9164752Y-794973D01*
X9231693Y-870810D01*
X9256691Y-929701D01*
X9264742Y-1030535D01*
X9213903Y-1156368D01*
X9138066Y-1223309D01*
X9079175Y-1248306D01*
X8978340Y-1256357D01*
X8642788Y-1120785D01*
X9329150Y-1837211D02*
X9438036Y-1929995D01*
X9647756Y-2014727D01*
X9748590Y-2006676D01*
X9807481Y-1981679D01*
X9883319Y-1914738D01*
X9917212Y-1830849D01*
X9909160Y-1730014D01*
X9884162Y-1671124D01*
X9817221Y-1595287D01*
X9666392Y-1485557D01*
X9599450Y-1409720D01*
X9574452Y-1350830D01*
X9566401Y-1249994D01*
X9600294Y-1166107D01*
X9676131Y-1099165D01*
X9735022Y-1074168D01*
X9835857Y-1066117D01*
X10045576Y-1150849D01*
X10154463Y-1243633D01*
X10423073Y-1303368D02*
X10926401Y-1506725D01*
X10318861Y-2285871D02*
X10674737Y-1405047D01*
X11639455Y-1253574D02*
X11748340Y-1346357D01*
X11773339Y-1405248D01*
X11781390Y-1506082D01*
X11730550Y-1631915D01*
X11654713Y-1698857D01*
X11595822Y-1723854D01*
X11494987Y-1731905D01*
X11159435Y-1596333D01*
X11515311Y-715508D01*
X11808920Y-834134D01*
X11875861Y-909970D01*
X11900859Y-968861D01*
X11908911Y-1069696D01*
X11875018Y-1153583D01*
X11799180Y-1220525D01*
X11740289Y-1245523D01*
X11639455Y-1253574D01*
X11345846Y-1134948D01*
X12501645Y-2138621D02*
X11998316Y-1935263D01*
X12249980Y-2036942D02*
X12605857Y-1156117D01*
X12471129Y-1248056D01*
X12353349Y-1298051D01*
X12252513Y-1306102D01*
X13340526Y-2477551D02*
X12837196Y-2274192D01*
X13088861Y-2375871D02*
X13444737Y-1495047D01*
X13310010Y-1586986D01*
X13192229Y-1636981D01*
X13091394Y-1645031D01*
X14161455Y-1265574D02*
X14270340Y-1358357D01*
X14295339Y-1417248D01*
X14303390Y-1518082D01*
X14252550Y-1643915D01*
X14176713Y-1710857D01*
X14117822Y-1735854D01*
X14016987Y-1743905D01*
X13681435Y-1608333D01*
X14037311Y-727508D01*
X14330920Y-846134D01*
X14397861Y-921970D01*
X14422859Y-980861D01*
X14430911Y-1081696D01*
X14397018Y-1165583D01*
X14321180Y-1232525D01*
X14262289Y-1257523D01*
X14161455Y-1265574D01*
X13867846Y-1146948D01*
X15023645Y-2150621D02*
X14520316Y-1947263D01*
X14771980Y-2048942D02*
X15127857Y-1168117D01*
X14993129Y-1260056D01*
X14875349Y-1310051D01*
X14774513Y-1318102D01*
X15924793Y-1490100D02*
X16008681Y-1523993D01*
X16075623Y-1599830D01*
X16100620Y-1658720D01*
X16108671Y-1759555D01*
X16082830Y-1944278D01*
X15998098Y-2153998D01*
X15888367Y-2304828D01*
X15812530Y-2371769D01*
X15753639Y-2396767D01*
X15652805Y-2404818D01*
X15568917Y-2370925D01*
X15501976Y-2295088D01*
X15476978Y-2236198D01*
X15468926Y-2135363D01*
X15494768Y-1950640D01*
X15579501Y-1740920D01*
X15689231Y-1590090D01*
X15765069Y-1523149D01*
X15823959Y-1498151D01*
X15924793Y-1490100D01*
X16920895Y-1305039D02*
X17029781Y-1397822D01*
X17054779Y-1456713D01*
X17062830Y-1557547D01*
X17011990Y-1683380D01*
X16936153Y-1750321D01*
X16877262Y-1775319D01*
X16776428Y-1783370D01*
X16440875Y-1647798D01*
X16796752Y-766973D01*
X17090360Y-885599D01*
X17157302Y-961435D01*
X17182299Y-1020326D01*
X17190351Y-1121160D01*
X17156458Y-1205048D01*
X17080620Y-1271990D01*
X17021730Y-1296988D01*
X16920895Y-1305039D01*
X16627287Y-1186413D01*
X17783085Y-2190086D02*
X17279756Y-1986727D01*
X17531421Y-2088407D02*
X17887297Y-1207582D01*
X17752570Y-1299521D01*
X17634789Y-1349516D01*
X17533954Y-1357566D01*
X19300895Y-1425039D02*
X19409781Y-1517822D01*
X19434779Y-1576713D01*
X19442830Y-1677547D01*
X19391990Y-1803380D01*
X19316153Y-1870321D01*
X19257262Y-1895319D01*
X19156428Y-1903370D01*
X18820875Y-1767798D01*
X19176752Y-886973D01*
X19470360Y-1005599D01*
X19537302Y-1081435D01*
X19562299Y-1140326D01*
X19570351Y-1241160D01*
X19536458Y-1325048D01*
X19460620Y-1391990D01*
X19401730Y-1416988D01*
X19300895Y-1425039D01*
X19007287Y-1306413D01*
X20225353Y-1310635D02*
X20309241Y-1344528D01*
X20376182Y-1420365D01*
X20401180Y-1479256D01*
X20409231Y-1580090D01*
X20383390Y-1764813D01*
X20298657Y-1974533D01*
X20188926Y-2125363D01*
X20113089Y-2192304D01*
X20054199Y-2217302D01*
X19953365Y-2225353D01*
X19869477Y-2191460D01*
X19802535Y-2115623D01*
X19777538Y-2056733D01*
X19769486Y-1955898D01*
X19795328Y-1771175D01*
X19880060Y-1561455D01*
X19989790Y-1410625D01*
X20065628Y-1343684D01*
X20124519Y-1318686D01*
X20225353Y-1310635D01*
X21573526Y-1514606D02*
X21992967Y-1684071D01*
X21387959Y-1732378D02*
X22037444Y-970179D01*
X21975176Y-1969629D01*
X22540772Y-1173537D02*
X23127990Y-1410788D01*
X22394617Y-2139094D01*
X24133526Y-1464606D02*
X24552967Y-1634071D01*
X23947959Y-1682378D02*
X24597444Y-920179D01*
X24535176Y-1919629D01*
X25562157Y-1309948D02*
X25394381Y-1242162D01*
X25293547Y-1250213D01*
X25234656Y-1275211D01*
X25099928Y-1367149D01*
X24990198Y-1517980D01*
X24854626Y-1853532D01*
X24862677Y-1954366D01*
X24887675Y-2013257D01*
X24954617Y-2089094D01*
X25122393Y-2156880D01*
X25223227Y-2148829D01*
X25282117Y-2123831D01*
X25357955Y-2056890D01*
X25442688Y-1847170D01*
X25434636Y-1746335D01*
X25409638Y-1687444D01*
X25342697Y-1611608D01*
X25174921Y-1543822D01*
X25074087Y-1551873D01*
X25015195Y-1576870D01*
X24939359Y-1643811D01*
X26723526Y-1464606D02*
X27142967Y-1634071D01*
X26537959Y-1682378D02*
X27187444Y-920179D01*
X27125176Y-1919629D01*
X28194101Y-1326894D02*
X27774660Y-1157430D01*
X27563252Y-1559923D01*
X27622142Y-1534926D01*
X27722977Y-1526875D01*
X27932697Y-1611608D01*
X27999638Y-1687444D01*
X28024636Y-1746335D01*
X28032688Y-1847170D01*
X27947955Y-2056890D01*
X27872117Y-2123831D01*
X27813227Y-2148829D01*
X27712393Y-2156880D01*
X27502673Y-2072147D01*
X27435731Y-1996310D01*
X27410733Y-1937420D01*
X29313526Y-1484606D02*
X29732967Y-1654071D01*
X29127959Y-1702378D02*
X29777444Y-940179D01*
X29715176Y-1939629D01*
X30623531Y-1623557D02*
X30386281Y-2210773D01*
X30549384Y-1203272D02*
X30085466Y-1747699D01*
X30630739Y-1968004D01*
X31793526Y-1444606D02*
X32212967Y-1614071D01*
X31607959Y-1662378D02*
X32257444Y-900179D01*
X32195176Y-1899629D01*
X32760772Y-1103537D02*
X33306046Y-1323841D01*
X32876865Y-1540768D01*
X33002697Y-1591608D01*
X33069638Y-1667444D01*
X33094636Y-1726335D01*
X33102688Y-1827170D01*
X33017955Y-2036890D01*
X32942117Y-2103831D01*
X32883227Y-2128829D01*
X32782393Y-2136880D01*
X32530729Y-2035201D01*
X32463787Y-1959364D01*
X32438789Y-1900473D01*
X34413526Y-1444606D02*
X34832967Y-1614071D01*
X34227959Y-1662378D02*
X34877444Y-900179D01*
X34815176Y-1899629D01*
X35388824Y-1204371D02*
X35447714Y-1179373D01*
X35548549Y-1171323D01*
X35758269Y-1256055D01*
X35825210Y-1331892D01*
X35850208Y-1390782D01*
X35858260Y-1491617D01*
X35824367Y-1575505D01*
X35731582Y-1684391D01*
X35024896Y-1984361D01*
X35570169Y-2204666D01*
X36933526Y-1494606D02*
X37352967Y-1664071D01*
X36747959Y-1712378D02*
X37397444Y-950179D01*
X37335176Y-1949629D01*
X38090169Y-2254666D02*
X37586840Y-2051308D01*
X37838505Y-2152987D02*
X38194381Y-1272162D01*
X38059654Y-1364101D01*
X37941873Y-1414096D01*
X37841038Y-1422147D01*
X39353526Y-1494606D02*
X39772967Y-1664071D01*
X39167959Y-1712378D02*
X39817444Y-950179D01*
X39755176Y-1949629D01*
X40572437Y-1255216D02*
X40656325Y-1289109D01*
X40723266Y-1364945D01*
X40748264Y-1423836D01*
X40756315Y-1524670D01*
X40730474Y-1709394D01*
X40645741Y-1919113D01*
X40536010Y-2069943D01*
X40460173Y-2136885D01*
X40401283Y-2161882D01*
X40300449Y-2169933D01*
X40216561Y-2136040D01*
X40149619Y-2060204D01*
X40124622Y-2001313D01*
X40116570Y-1900478D01*
X40142412Y-1715755D01*
X40227144Y-1506036D01*
X40336875Y-1355205D01*
X40412712Y-1288264D01*
X40471603Y-1263267D01*
X40572437Y-1255216D01*
X41818657Y-1667803D02*
X41759767Y-1692801D01*
X41616987Y-1683905D01*
X41533100Y-1650012D01*
X41424214Y-1557229D01*
X41374219Y-1439448D01*
X41366168Y-1338612D01*
X41392009Y-1153890D01*
X41442849Y-1028058D01*
X41552579Y-877228D01*
X41628417Y-810287D01*
X41746198Y-760292D01*
X41888976Y-769187D01*
X41972864Y-803080D01*
X42081750Y-895864D01*
X42106748Y-954754D01*
X42623645Y-2090621D02*
X42120316Y-1887263D01*
X42371980Y-1988942D02*
X42727857Y-1108117D01*
X42593129Y-1200056D01*
X42475349Y-1250051D01*
X42374513Y-1258102D01*
X43776457Y-1531779D02*
X43357017Y-1362314D01*
X43145608Y-1764808D01*
X43204498Y-1739811D01*
X43305333Y-1731760D01*
X43515053Y-1816492D01*
X43581995Y-1892329D01*
X43606992Y-1951219D01*
X43615044Y-2052054D01*
X43530311Y-2261775D01*
X43454474Y-2328716D01*
X43395583Y-2353713D01*
X43294749Y-2361764D01*
X43085029Y-2277032D01*
X43018087Y-2201195D01*
X42993089Y-2142304D01*
X44498657Y-1637803D02*
X44439767Y-1662801D01*
X44296987Y-1653905D01*
X44213100Y-1620012D01*
X44104214Y-1527229D01*
X44054219Y-1409448D01*
X44046168Y-1308612D01*
X44072009Y-1123890D01*
X44122849Y-998058D01*
X44232579Y-847228D01*
X44308417Y-780287D01*
X44426198Y-730292D01*
X44568976Y-739187D01*
X44652864Y-773080D01*
X44761750Y-865864D01*
X44786748Y-924754D01*
X45303645Y-2060621D02*
X44800316Y-1857263D01*
X45051980Y-1958942D02*
X45407857Y-1078117D01*
X45273129Y-1170056D01*
X45155349Y-1220051D01*
X45054513Y-1228102D01*
X46295888Y-1778441D02*
X46058637Y-2365657D01*
X46221740Y-1358156D02*
X45757822Y-1902584D01*
X46303095Y-2122888D01*
X47078657Y-1647803D02*
X47019767Y-1672801D01*
X46876987Y-1663905D01*
X46793100Y-1630012D01*
X46684214Y-1537229D01*
X46634219Y-1419448D01*
X46626168Y-1318612D01*
X46652009Y-1133890D01*
X46702849Y-1008058D01*
X46812579Y-857228D01*
X46888417Y-790287D01*
X47006198Y-740292D01*
X47148976Y-749187D01*
X47232864Y-783080D01*
X47341750Y-875864D01*
X47366748Y-934754D01*
X47883645Y-2070621D02*
X47380316Y-1867263D01*
X47631980Y-1968942D02*
X47987857Y-1088117D01*
X47853129Y-1180056D01*
X47735349Y-1230051D01*
X47634513Y-1238102D01*
X48533129Y-1308421D02*
X49078402Y-1528726D01*
X48649221Y-1745653D01*
X48775053Y-1796492D01*
X48841995Y-1872329D01*
X48866992Y-1931219D01*
X48875044Y-2032054D01*
X48790311Y-2241775D01*
X48714474Y-2308716D01*
X48655583Y-2333713D01*
X48554749Y-2341764D01*
X48303085Y-2240086D01*
X48236143Y-2164248D01*
X48211145Y-2105358D01*
X49632864Y-903080D02*
X49570596Y-1902530D01*
X50220081Y-1140331D01*
X50637832Y-1797022D02*
X50746717Y-1889806D01*
X50771716Y-1948696D01*
X50779767Y-2049531D01*
X50728927Y-2175363D01*
X50653090Y-2242305D01*
X50594199Y-2267302D01*
X50493365Y-2275353D01*
X50157812Y-2139781D01*
X50513688Y-1258956D01*
X50807297Y-1377582D01*
X50874238Y-1453419D01*
X50899236Y-1512309D01*
X50907288Y-1613144D01*
X50873395Y-1697032D01*
X50797557Y-1763974D01*
X50738666Y-1788971D01*
X50637832Y-1797022D01*
X50344223Y-1678397D01*
X1049455Y-21053574D02*
X1158340Y-21146357D01*
X1183339Y-21205248D01*
X1191390Y-21306082D01*
X1140550Y-21431915D01*
X1064713Y-21498857D01*
X1005822Y-21523854D01*
X904987Y-21531905D01*
X569435Y-21396333D01*
X925311Y-20515508D01*
X1218920Y-20634134D01*
X1285861Y-20709970D01*
X1310859Y-20768861D01*
X1318911Y-20869696D01*
X1285018Y-20953583D01*
X1209180Y-21020525D01*
X1150289Y-21045523D01*
X1049455Y-21053574D01*
X755846Y-20934948D01*
X1911645Y-21938621D02*
X1408316Y-21735263D01*
X1659980Y-21836942D02*
X2015857Y-20956117D01*
X1881129Y-21048056D01*
X1763349Y-21098051D01*
X1662513Y-21106102D01*
X2569180Y-21277256D02*
X2628070Y-21252258D01*
X2728905Y-21244207D01*
X2938625Y-21328940D01*
X3005567Y-21404777D01*
X3030564Y-21463667D01*
X3038616Y-21564502D01*
X3004723Y-21648390D01*
X2911939Y-21757275D01*
X2205252Y-22057246D01*
X2750526Y-22277551D01*
X3749455Y-21053574D02*
X3858340Y-21146357D01*
X3883339Y-21205248D01*
X3891390Y-21306082D01*
X3840550Y-21431915D01*
X3764713Y-21498857D01*
X3705822Y-21523854D01*
X3604987Y-21531905D01*
X3269435Y-21396333D01*
X3625311Y-20515508D01*
X3918920Y-20634134D01*
X3985861Y-20709970D01*
X4010859Y-20768861D01*
X4018911Y-20869696D01*
X3985018Y-20953583D01*
X3909180Y-21020525D01*
X3850289Y-21045523D01*
X3749455Y-21053574D01*
X3455846Y-20934948D01*
X4611645Y-21938621D02*
X4108316Y-21735263D01*
X4359980Y-21836942D02*
X4715857Y-20956117D01*
X4581129Y-21048056D01*
X4463349Y-21098051D01*
X4362513Y-21106102D01*
X5261129Y-21176421D02*
X5806402Y-21396726D01*
X5377221Y-21613653D01*
X5503053Y-21664492D01*
X5569995Y-21740329D01*
X5594992Y-21799219D01*
X5603044Y-21900054D01*
X5518311Y-22109775D01*
X5442474Y-22176716D01*
X5383583Y-22201713D01*
X5282749Y-22209764D01*
X5031085Y-22108086D01*
X4964143Y-22032248D01*
X4939145Y-21973358D01*
X6529455Y-21133574D02*
X6638340Y-21226357D01*
X6663339Y-21285248D01*
X6671390Y-21386082D01*
X6620550Y-21511915D01*
X6544713Y-21578857D01*
X6485822Y-21603854D01*
X6384987Y-21611905D01*
X6049435Y-21476333D01*
X6405311Y-20595508D01*
X6698920Y-20714134D01*
X6765861Y-20789970D01*
X6790859Y-20848861D01*
X6798911Y-20949696D01*
X6765018Y-21033583D01*
X6689180Y-21100525D01*
X6630289Y-21125523D01*
X6529455Y-21133574D01*
X6235846Y-21014948D01*
X7391645Y-22018621D02*
X6888316Y-21815263D01*
X7139980Y-21916942D02*
X7495857Y-21036117D01*
X7361129Y-21128056D01*
X7243349Y-21178051D01*
X7142513Y-21186102D01*
X8383888Y-21736441D02*
X8146637Y-22323657D01*
X8309740Y-21316156D02*
X7845822Y-21860584D01*
X8391095Y-22080888D01*
X9059455Y-21273574D02*
X9168340Y-21366357D01*
X9193339Y-21425248D01*
X9201390Y-21526082D01*
X9150550Y-21651915D01*
X9074713Y-21718857D01*
X9015822Y-21743854D01*
X8914987Y-21751905D01*
X8579435Y-21616333D01*
X8935311Y-20735508D01*
X9228920Y-20854134D01*
X9295861Y-20929970D01*
X9320859Y-20988861D01*
X9328911Y-21089696D01*
X9295018Y-21173583D01*
X9219180Y-21240525D01*
X9160289Y-21265523D01*
X9059455Y-21273574D01*
X8765846Y-21154948D01*
X9921645Y-22158621D02*
X9418316Y-21955263D01*
X9669980Y-22056942D02*
X10025857Y-21176117D01*
X9891129Y-21268056D01*
X9773349Y-21318051D01*
X9672513Y-21326102D01*
X11074457Y-21599779D02*
X10655017Y-21430314D01*
X10443608Y-21832808D01*
X10502498Y-21807811D01*
X10603333Y-21799760D01*
X10813053Y-21884492D01*
X10879995Y-21960329D01*
X10904992Y-22019219D01*
X10913044Y-22120054D01*
X10828311Y-22329775D01*
X10752474Y-22396716D01*
X10693583Y-22421713D01*
X10592749Y-22429764D01*
X10383029Y-22345032D01*
X10316087Y-22269195D01*
X10291089Y-22210304D01*
X11531526Y-21412606D02*
X11950967Y-21582071D01*
X11345959Y-21630378D02*
X11995444Y-20868179D01*
X11933176Y-21867629D01*
X12555975Y-21533766D02*
X12489033Y-21457929D01*
X12464035Y-21399038D01*
X12455984Y-21298203D01*
X12472931Y-21256259D01*
X12548767Y-21189317D01*
X12607659Y-21164320D01*
X12708493Y-21156269D01*
X12876269Y-21224055D01*
X12943210Y-21299892D01*
X12968208Y-21358782D01*
X12976260Y-21459617D01*
X12959313Y-21501561D01*
X12883475Y-21568503D01*
X12824585Y-21593500D01*
X12723750Y-21601552D01*
X12555975Y-21533766D01*
X12455140Y-21541817D01*
X12396249Y-21566814D01*
X12320412Y-21633755D01*
X12252626Y-21801532D01*
X12260677Y-21902366D01*
X12285675Y-21961257D01*
X12352617Y-22037094D01*
X12520393Y-22104880D01*
X12621227Y-22096829D01*
X12680117Y-22071831D01*
X12755955Y-22004890D01*
X12823741Y-21837113D01*
X12815689Y-21736279D01*
X12790692Y-21677388D01*
X12723750Y-21601552D01*
X13751526Y-21442606D02*
X14170967Y-21612071D01*
X13565959Y-21660378D02*
X14215444Y-20898179D01*
X14153176Y-21897629D01*
X14488729Y-22033201D02*
X14656505Y-22100987D01*
X14757339Y-22092936D01*
X14816229Y-22067938D01*
X14950957Y-21975998D01*
X15060688Y-21825170D01*
X15196260Y-21489617D01*
X15188208Y-21388782D01*
X15163210Y-21329892D01*
X15096269Y-21254055D01*
X14928493Y-21186269D01*
X14827659Y-21194320D01*
X14768767Y-21219317D01*
X14692931Y-21286259D01*
X14608198Y-21495980D01*
X14616249Y-21596814D01*
X14641247Y-21655705D01*
X14708189Y-21731541D01*
X14875965Y-21799327D01*
X14976799Y-21791276D01*
X15035689Y-21766279D01*
X15111527Y-21699338D01*
X15874086Y-21353141D02*
X16293526Y-21522606D01*
X15688519Y-21570913D02*
X16338004Y-20808714D01*
X16275736Y-21808164D01*
X17030729Y-22113201D02*
X16527400Y-21909843D01*
X16779064Y-22011522D02*
X17134941Y-21130697D01*
X17000213Y-21222636D01*
X16882433Y-21272631D01*
X16781597Y-21280682D01*
X17931877Y-21452681D02*
X18015765Y-21486574D01*
X18082707Y-21562410D01*
X18107704Y-21621301D01*
X18115755Y-21722135D01*
X18089914Y-21906859D01*
X18005182Y-22116578D01*
X17895451Y-22267408D01*
X17819614Y-22334350D01*
X17760723Y-22359347D01*
X17659889Y-22367398D01*
X17576001Y-22333505D01*
X17509060Y-22257668D01*
X17484062Y-22198778D01*
X17476010Y-22097943D01*
X17501853Y-21913220D01*
X17586585Y-21703500D01*
X17696315Y-21552670D01*
X17772153Y-21485729D01*
X17831043Y-21460732D01*
X17931877Y-21452681D01*
X18502086Y-21253141D02*
X18921526Y-21422606D01*
X18316519Y-21470913D02*
X18966004Y-20708714D01*
X18903736Y-21708164D01*
X19658729Y-22013201D02*
X19155400Y-21809843D01*
X19407064Y-21911522D02*
X19762941Y-21030697D01*
X19628213Y-21122636D01*
X19510433Y-21172631D01*
X19409597Y-21180682D01*
X20497610Y-22352131D02*
X19994281Y-22148773D01*
X20245945Y-22250452D02*
X20601821Y-21369627D01*
X20467094Y-21461566D01*
X20349313Y-21511561D01*
X20248478Y-21519612D01*
X21074086Y-21233141D02*
X21493526Y-21402606D01*
X20888519Y-21450913D02*
X21538004Y-20688714D01*
X21475736Y-21688164D01*
X22230729Y-21993201D02*
X21727400Y-21789843D01*
X21979064Y-21891522D02*
X22334941Y-21010697D01*
X22200213Y-21102636D01*
X22082433Y-21152631D01*
X21981597Y-21160682D01*
X22888264Y-21331836D02*
X22947154Y-21306838D01*
X23047990Y-21298788D01*
X23257709Y-21383520D01*
X23324651Y-21459357D01*
X23349648Y-21518247D01*
X23357700Y-21619082D01*
X23323807Y-21702970D01*
X23231023Y-21811856D01*
X22524337Y-22111826D01*
X23069610Y-22332131D01*
X23782086Y-21293141D02*
X24201526Y-21462606D01*
X23596519Y-21510913D02*
X24246004Y-20748714D01*
X24183736Y-21748164D01*
X24938729Y-22053201D02*
X24435400Y-21849843D01*
X24687064Y-21951522D02*
X25042941Y-21070697D01*
X24908213Y-21162636D01*
X24790433Y-21212631D01*
X24689597Y-21220682D01*
X26091541Y-21494359D02*
X25672101Y-21324894D01*
X25460692Y-21727388D01*
X25519582Y-21702391D01*
X25620418Y-21694340D01*
X25830137Y-21779072D01*
X25897079Y-21854909D01*
X25922076Y-21913800D01*
X25930128Y-22014634D01*
X25845395Y-22224355D01*
X25769558Y-22291296D01*
X25710667Y-22316294D01*
X25609833Y-22324345D01*
X25400113Y-22239612D01*
X25333171Y-22163775D01*
X25308173Y-22104885D01*
X26918895Y-21353039D02*
X27027781Y-21445822D01*
X27052779Y-21504713D01*
X27060830Y-21605547D01*
X27009990Y-21731380D01*
X26934153Y-21798321D01*
X26875262Y-21823319D01*
X26774428Y-21831370D01*
X26438875Y-21695798D01*
X26794752Y-20814973D01*
X27088360Y-20933599D01*
X27155302Y-21009435D01*
X27180299Y-21068326D01*
X27188351Y-21169160D01*
X27154458Y-21253048D01*
X27078620Y-21319990D01*
X27019730Y-21344988D01*
X26918895Y-21353039D01*
X26625287Y-21234413D01*
X27591688Y-21136956D02*
X28136962Y-21357261D01*
X27707781Y-21574188D01*
X27833613Y-21625027D01*
X27900554Y-21700864D01*
X27925552Y-21759754D01*
X27933604Y-21860589D01*
X27848871Y-22070310D01*
X27773033Y-22137251D01*
X27714143Y-22162248D01*
X27613309Y-22170299D01*
X27361645Y-22068621D01*
X27294703Y-21992783D01*
X27269705Y-21933893D01*
X29458895Y-21343039D02*
X29567781Y-21435822D01*
X29592779Y-21494713D01*
X29600830Y-21595547D01*
X29549990Y-21721380D01*
X29474153Y-21788321D01*
X29415262Y-21813319D01*
X29314428Y-21821370D01*
X28978875Y-21685798D01*
X29334752Y-20804973D01*
X29628360Y-20923599D01*
X29695302Y-20999435D01*
X29720299Y-21058326D01*
X29728351Y-21159160D01*
X29694458Y-21243048D01*
X29618620Y-21309990D01*
X29559730Y-21334988D01*
X29458895Y-21343039D01*
X29165287Y-21224413D01*
X30474447Y-21606976D02*
X30237196Y-22194192D01*
X30400299Y-21186691D02*
X29936382Y-21731119D01*
X30481655Y-21951424D01*
X31938895Y-21333039D02*
X32047781Y-21425822D01*
X32072779Y-21484713D01*
X32080830Y-21585547D01*
X32029990Y-21711380D01*
X31954153Y-21778321D01*
X31895262Y-21803319D01*
X31794428Y-21811370D01*
X31458875Y-21675798D01*
X31814752Y-20794973D01*
X32108360Y-20913599D01*
X32175302Y-20989435D01*
X32200299Y-21048326D01*
X32208351Y-21149160D01*
X32174458Y-21233048D01*
X32098620Y-21299990D01*
X32039730Y-21324988D01*
X31938895Y-21333039D01*
X31645287Y-21214413D01*
X33115017Y-21320314D02*
X32695576Y-21150849D01*
X32484167Y-21553343D01*
X32543058Y-21528346D01*
X32643893Y-21520295D01*
X32853613Y-21605027D01*
X32920554Y-21680864D01*
X32945552Y-21739754D01*
X32953604Y-21840589D01*
X32868871Y-22050310D01*
X32793033Y-22117251D01*
X32734143Y-22142248D01*
X32633309Y-22150299D01*
X32423589Y-22065567D01*
X32356646Y-21989730D01*
X32331649Y-21930840D01*
X34588895Y-21353039D02*
X34697781Y-21445822D01*
X34722779Y-21504713D01*
X34730830Y-21605547D01*
X34679990Y-21731380D01*
X34604153Y-21798321D01*
X34545262Y-21823319D01*
X34444428Y-21831370D01*
X34108875Y-21695798D01*
X34464752Y-20814973D01*
X34758360Y-20933599D01*
X34825302Y-21009435D01*
X34850299Y-21068326D01*
X34858351Y-21169160D01*
X34824458Y-21253048D01*
X34748620Y-21319990D01*
X34689730Y-21344988D01*
X34588895Y-21353039D01*
X34295287Y-21234413D01*
X35723073Y-21323368D02*
X35555297Y-21255582D01*
X35454463Y-21263633D01*
X35395572Y-21288630D01*
X35260844Y-21380569D01*
X35151114Y-21531399D01*
X35015542Y-21866952D01*
X35023593Y-21967786D01*
X35048591Y-22026677D01*
X35115533Y-22102514D01*
X35283309Y-22170299D01*
X35384143Y-22162248D01*
X35443033Y-22137251D01*
X35518871Y-22070310D01*
X35603604Y-21860589D01*
X35595552Y-21759754D01*
X35570554Y-21700864D01*
X35503613Y-21625027D01*
X35335837Y-21557241D01*
X35235003Y-21565292D01*
X35176111Y-21590290D01*
X35100275Y-21657231D01*
X37038895Y-21363039D02*
X37147781Y-21455822D01*
X37172779Y-21514713D01*
X37180830Y-21615547D01*
X37129990Y-21741380D01*
X37054153Y-21808321D01*
X36995262Y-21833319D01*
X36894428Y-21841370D01*
X36558875Y-21705798D01*
X36914752Y-20824973D01*
X37208360Y-20943599D01*
X37275302Y-21019435D01*
X37300299Y-21078326D01*
X37308351Y-21179160D01*
X37274458Y-21263048D01*
X37198620Y-21329990D01*
X37139730Y-21354988D01*
X37038895Y-21363039D01*
X36745287Y-21244413D01*
X37711688Y-21146956D02*
X38298905Y-21384207D01*
X37565533Y-22112514D01*
X39538895Y-21353039D02*
X39647781Y-21445822D01*
X39672779Y-21504713D01*
X39680830Y-21605547D01*
X39629990Y-21731380D01*
X39554153Y-21798321D01*
X39495262Y-21823319D01*
X39394428Y-21831370D01*
X39058875Y-21695798D01*
X39414752Y-20814973D01*
X39708360Y-20933599D01*
X39775302Y-21009435D01*
X39800299Y-21068326D01*
X39808351Y-21169160D01*
X39774458Y-21253048D01*
X39698620Y-21319990D01*
X39639730Y-21344988D01*
X39538895Y-21353039D01*
X39245287Y-21234413D01*
X40268891Y-21599185D02*
X40201949Y-21523349D01*
X40176951Y-21464458D01*
X40168900Y-21363622D01*
X40185847Y-21321679D01*
X40261683Y-21254737D01*
X40320575Y-21229740D01*
X40421409Y-21221689D01*
X40589185Y-21289475D01*
X40656126Y-21365312D01*
X40681124Y-21424202D01*
X40689176Y-21525037D01*
X40672229Y-21566981D01*
X40596391Y-21633923D01*
X40537501Y-21658920D01*
X40436666Y-21666971D01*
X40268891Y-21599185D01*
X40168056Y-21607236D01*
X40109165Y-21632234D01*
X40033328Y-21699175D01*
X39965542Y-21866952D01*
X39973593Y-21967786D01*
X39998591Y-22026677D01*
X40065533Y-22102514D01*
X40233309Y-22170299D01*
X40334143Y-22162248D01*
X40393033Y-22137251D01*
X40468871Y-22070310D01*
X40536657Y-21902533D01*
X40528605Y-21801698D01*
X40503608Y-21742808D01*
X40436666Y-21666971D01*
X42028895Y-21393039D02*
X42137781Y-21485822D01*
X42162779Y-21544713D01*
X42170830Y-21645547D01*
X42119990Y-21771380D01*
X42044153Y-21838321D01*
X41985262Y-21863319D01*
X41884428Y-21871370D01*
X41548875Y-21735798D01*
X41904752Y-20854973D01*
X42198360Y-20973599D01*
X42265302Y-21049435D01*
X42290299Y-21108326D01*
X42298351Y-21209160D01*
X42264458Y-21293048D01*
X42188620Y-21359990D01*
X42129730Y-21384988D01*
X42028895Y-21393039D01*
X41735287Y-21274413D01*
X42471645Y-22108621D02*
X42639421Y-22176407D01*
X42740255Y-22168355D01*
X42799145Y-22143358D01*
X42933873Y-22051418D01*
X43043604Y-21900589D01*
X43179176Y-21565037D01*
X43171124Y-21464202D01*
X43146126Y-21405312D01*
X43079185Y-21329475D01*
X42911409Y-21261689D01*
X42810575Y-21269740D01*
X42751683Y-21294737D01*
X42675847Y-21361679D01*
X42591114Y-21571399D01*
X42599165Y-21672234D01*
X42624163Y-21731124D01*
X42691105Y-21806961D01*
X42858881Y-21874747D01*
X42959715Y-21866696D01*
X43018605Y-21841698D01*
X43094443Y-21774757D01*
X44917108Y-20979858D02*
X44497668Y-20810393D01*
X44286259Y-21212887D01*
X44345149Y-21187889D01*
X44445984Y-21179838D01*
X44655704Y-21264571D01*
X44722645Y-21340408D01*
X44747643Y-21399298D01*
X44755695Y-21500133D01*
X44670962Y-21709853D01*
X44595125Y-21776794D01*
X44536234Y-21801792D01*
X44435400Y-21809843D01*
X44225680Y-21725111D01*
X44158738Y-21649273D01*
X44133740Y-21590383D01*
X45210716Y-21098483D02*
X45148449Y-22097933D01*
X45797933Y-21335734D01*
X49130451Y-20613142D02*
X49068184Y-21612592D01*
X49717668Y-20850393D01*
X49655400Y-21849843D02*
X50011276Y-20969018D01*
X50220997Y-21053751D01*
X50329882Y-21146534D01*
X50379877Y-21264315D01*
X50387929Y-21365150D01*
X50362087Y-21549873D01*
X50311247Y-21675705D01*
X50201518Y-21826534D01*
X50125680Y-21893476D01*
X50007899Y-21943471D01*
X49865120Y-21934575D01*
X49655400Y-21849843D01*
X50536224Y-22205719D02*
X50892101Y-21324894D01*
X51101821Y-21409627D01*
X51210707Y-21502410D01*
X51260702Y-21620191D01*
X51268754Y-21721026D01*
X51242911Y-21905749D01*
X51192072Y-22031581D01*
X51082342Y-22182410D01*
X51006504Y-22249352D01*
X50888723Y-22299347D01*
X50745945Y-22290452D01*
X50536224Y-22205719D01*
X47016834Y-20788444D02*
X46949892Y-20712607D01*
X46824060Y-20661767D01*
X46681282Y-20652872D01*
X46563501Y-20702867D01*
X46487663Y-20769808D01*
X46377933Y-20920638D01*
X46327094Y-21046470D01*
X46301252Y-21231192D01*
X46309303Y-21332028D01*
X46359298Y-21449809D01*
X46468184Y-21542592D01*
X46552072Y-21576485D01*
X46694851Y-21585381D01*
X46753741Y-21560383D01*
X46872367Y-21266775D01*
X46704590Y-21198989D01*
X47097344Y-21796789D02*
X47453220Y-20915965D01*
X47600673Y-22000147D01*
X47956549Y-21119323D01*
X48020112Y-22169612D02*
X48375989Y-21288787D01*
X48585709Y-21373520D01*
X48694595Y-21466303D01*
X48744590Y-21584084D01*
X48752642Y-21684919D01*
X48726799Y-21869642D01*
X48675960Y-21995474D01*
X48566230Y-22146303D01*
X48490392Y-22213245D01*
X48372611Y-22263240D01*
X48229833Y-22254345D01*
X48020112Y-22169612D01*
D14*
X40222000Y-10142000D02*
X40222000Y-13942000D01*
X36622000Y-13942000D02*
X36622000Y-10142000D01*
D15*
X23395708Y-6524617D02*
X23105794Y-6234703D01*
X22822951Y-6517546D02*
X23105794Y-6234703D01*
X28055541Y-11184450D02*
X28338384Y-11467293D01*
X28338384Y-11467293D02*
X28055541Y-11750136D01*
X18156047Y-11184450D02*
X17873204Y-11467293D01*
X18156047Y-11750136D02*
X17873204Y-11467293D01*
X23105794Y-16699883D02*
X23388637Y-16417040D01*
X23105794Y-16699883D02*
X22822951Y-16417040D01*
D16*
X28978851Y-10828916D02*
G75*
G03X28978851Y-10828916I-72801J0D01*
G01*
D14*
X46502000Y-6482000D02*
X46502000Y-5212000D01*
X46502000Y-5212000D02*
X47772000Y-5212000D01*
X9912000Y-10482000D02*
X10362000Y-10932000D01*
X13312000Y-10482000D02*
X12862000Y-10932000D01*
X13312000Y-5882000D02*
X12862000Y-5432000D01*
X9912000Y-5882000D02*
X10362000Y-5432000D01*
X14362000Y-7182000D02*
X14362000Y-9182000D01*
X10362000Y-10932000D02*
X12862000Y-10932000D01*
X8862000Y-7182000D02*
X8862000Y-9182000D01*
X10362000Y-5432000D02*
X12862000Y-5432000D01*
X7700000Y-11750000D02*
X7700000Y-16950000D01*
X12840000Y-11750000D02*
X7700000Y-11750000D01*
X15440000Y-16950000D02*
X7700000Y-16950000D01*
X12840000Y-11750000D02*
X12840000Y-14350000D01*
X12840000Y-14350000D02*
X15440000Y-14350000D01*
X15440000Y-14350000D02*
X15440000Y-16950000D01*
X14110000Y-11750000D02*
X15440000Y-11750000D01*
X15440000Y-11750000D02*
X15440000Y-13080000D01*
X42632000Y-10532000D02*
X44032000Y-10532000D01*
X44032000Y-10532000D02*
X44032000Y-7732000D01*
X42632000Y-10532000D02*
X42632000Y-7732000D01*
X42632000Y-15962000D02*
X44032000Y-15962000D01*
X44032000Y-15962000D02*
X44032000Y-13162000D01*
X42632000Y-15962000D02*
X42632000Y-13162000D01*
D10*
G36*
X29641023Y-14973986D02*
X29867983Y-15690000D01*
X29809142Y-15456483D01*
X29773247Y-15217271D01*
X29760957Y-14973986D01*
X29760957Y-8576991D01*
X29773247Y-8333383D01*
X29809142Y-8093928D01*
X29867983Y-7860237D01*
X29949109Y-7633920D01*
X30051861Y-7416588D01*
X30175577Y-7209851D01*
X30319598Y-7015321D01*
X30483264Y-6834608D01*
X30663976Y-6670944D01*
X30858503Y-6526932D01*
X31065228Y-6403243D01*
X31282539Y-6300543D01*
X31508822Y-6219501D01*
X31742461Y-6160787D01*
X31981843Y-6125068D01*
X32225355Y-6113013D01*
X32468866Y-6125068D01*
X32708248Y-6160787D01*
X32941887Y-6219501D01*
X33168170Y-6300543D01*
X33385481Y-6403243D01*
X33592206Y-6526932D01*
X33786733Y-6670944D01*
X33967445Y-6834608D01*
X34131108Y-7015321D01*
X34275107Y-7209851D01*
X34398762Y-7416588D01*
X34501394Y-7633920D01*
X34582323Y-7860237D01*
X34640869Y-8093928D01*
X34676352Y-8333383D01*
X34688093Y-8576991D01*
X34688093Y-14973986D01*
X34676352Y-15217271D01*
X34640869Y-15456483D01*
X34582323Y-15690000D01*
X34501394Y-15916200D01*
X34398762Y-16133461D01*
X34275107Y-16340160D01*
X34131108Y-16534676D01*
X33967445Y-16715387D01*
X33786733Y-16879052D01*
X33592206Y-17023064D01*
X33385481Y-17146754D01*
X33168170Y-17249455D01*
X32941887Y-17330497D01*
X32708248Y-17389213D01*
X32468866Y-17424932D01*
X32225355Y-17436987D01*
X31981843Y-17424932D01*
X31742461Y-17389213D01*
X31508822Y-17330497D01*
X31282539Y-17249455D01*
X31065228Y-17146754D01*
X30858503Y-17023064D01*
X30663976Y-16879052D01*
X30483264Y-16715387D01*
X30319598Y-16534676D01*
X30175577Y-16340160D01*
X30051861Y-16133461D01*
X29949109Y-15916200D01*
X29867983Y-15690000D01*
X29641023Y-14973986D01*
X29653901Y-15229113D01*
X29691538Y-15479976D01*
X29753241Y-15724871D01*
X29838316Y-15962094D01*
X29946069Y-16189942D01*
X30075806Y-16406711D01*
X30226834Y-16610698D01*
X30398457Y-16800199D01*
X30587959Y-16971821D01*
X30791955Y-17122839D01*
X31008750Y-17252549D01*
X31236647Y-17360251D01*
X31473952Y-17445242D01*
X31718968Y-17506819D01*
X31970001Y-17544280D01*
X32225355Y-17556923D01*
X32480708Y-17544280D01*
X32731741Y-17506819D01*
X32976757Y-17445242D01*
X33214062Y-17360251D01*
X33441959Y-17252549D01*
X33658754Y-17122839D01*
X33862750Y-16971821D01*
X34052252Y-16800199D01*
X34223872Y-16610698D01*
X34374877Y-16406711D01*
X34504552Y-16189942D01*
X34612185Y-15962094D01*
X34697063Y-15724871D01*
X34758471Y-15479976D01*
X34795696Y-15229113D01*
X34808025Y-14973986D01*
X34808025Y-8576991D01*
X34795696Y-8321541D01*
X34758471Y-8070436D01*
X34697063Y-7825367D01*
X34612185Y-7588028D01*
X34504552Y-7360109D01*
X34374877Y-7143304D01*
X34223872Y-6939304D01*
X34052252Y-6749801D01*
X33862750Y-6578179D01*
X33658754Y-6427162D01*
X33441959Y-6297451D01*
X33214062Y-6189749D01*
X32976757Y-6104758D01*
X32731741Y-6043181D01*
X32480708Y-6005720D01*
X32225355Y-5993077D01*
X31970001Y-6005720D01*
X31718968Y-6043181D01*
X31473952Y-6104758D01*
X31236647Y-6189749D01*
X31008750Y-6297451D01*
X30791955Y-6427162D01*
X30587959Y-6578179D01*
X30398457Y-6749801D01*
X30226834Y-6939304D01*
X30075806Y-7143304D01*
X29946069Y-7360109D01*
X29838316Y-7588028D01*
X29753241Y-7825367D01*
X29691538Y-8070436D01*
X29653901Y-8321541D01*
X29641023Y-8576991D01*
X29641023Y-14973986D01*
X29641023Y-14973986D01*
G37*
G36*
X36620327Y-16297615D02*
X40220125Y-16298122D01*
X40280090Y-16237650D01*
X40280090Y-15638530D01*
X40220125Y-15577551D01*
X40160159Y-15638530D01*
X40160283Y-16177567D01*
X36680298Y-16177049D01*
X36680298Y-15638530D01*
X36620332Y-15577551D01*
X36560367Y-15638530D01*
X36559858Y-16237650D01*
X36620327Y-16297615D01*
X36620327Y-16297615D01*
G37*
G36*
X40280090Y-10139824D02*
X40280090Y-13937637D01*
X40280090Y-10139824D01*
X40280090Y-10139824D01*
G37*
G36*
X36560360Y-7842350D02*
X36560360Y-8441470D01*
X36620326Y-8502449D01*
X36680291Y-8441470D01*
X36680291Y-7901763D01*
X37862128Y-7901819D01*
X37920846Y-8098611D01*
X38043186Y-8257750D01*
X38214203Y-8364235D01*
X38418949Y-8403064D01*
X38623480Y-8364312D01*
X38794365Y-8257993D01*
X38916697Y-8099014D01*
X38975571Y-7902280D01*
X40160792Y-7901776D01*
X40160152Y-8441471D01*
X40220118Y-8502449D01*
X40280084Y-8441471D01*
X40280084Y-7842351D01*
X40220118Y-7781879D01*
X38919507Y-7782470D01*
X38858715Y-7843367D01*
X38798832Y-8065640D01*
X38641223Y-8223246D01*
X38418949Y-8283128D01*
X38196708Y-8223211D01*
X38039324Y-8065355D01*
X37980051Y-7842408D01*
X37920105Y-7782385D01*
X36620322Y-7781878D01*
X36560360Y-7842350D01*
X36560360Y-7842350D01*
G37*
G36*
X36680291Y-10139824D02*
X36680291Y-13937637D01*
X36680291Y-10139824D01*
X36680291Y-10139824D01*
G37*
G36*
X29361411Y-10830000D02*
X29319055Y-11020288D01*
X29207146Y-11168271D01*
X29066178Y-11251725D01*
X28910000Y-11279345D01*
X28757416Y-11253027D01*
X28612888Y-11168300D01*
X28501549Y-11021567D01*
X28458589Y-10830000D01*
X28493625Y-10656128D01*
X28591372Y-10511701D01*
X28727755Y-10418779D01*
X28910000Y-10380655D01*
X29083769Y-10415155D01*
X29224265Y-10507431D01*
X29317729Y-10636918D01*
X29361411Y-10830000D01*
X29361411Y-10830000D01*
G37*
D14*
X4950000Y-7400000D02*
X4950000Y-7850000D01*
X3100000Y-7400000D02*
X4950000Y-7400000D01*
X550000Y-15200000D02*
X800000Y-15200000D01*
X550000Y-7400000D02*
X800000Y-7400000D01*
X3100000Y-15200000D02*
X4950000Y-15200000D01*
X4950000Y-15200000D02*
X4950000Y-14750000D01*
X5500000Y-9600000D02*
X5500000Y-10050000D01*
X5500000Y-9600000D02*
X5050000Y-9600000D01*
D12*
X38576190Y-12276191D02*
X39052381Y-12276191D01*
X38052381Y-12609524D02*
X38576190Y-12276191D01*
X38052381Y-11942857D01*
X39052381Y-11085714D02*
X39052381Y-11657143D01*
X39052381Y-11371429D02*
X38052381Y-11371429D01*
X38195238Y-11466667D01*
X38290476Y-11561905D01*
X38338095Y-11657143D01*
X32301190Y-12276191D02*
X32777381Y-12276191D01*
X31777381Y-12609524D02*
X32301190Y-12276191D01*
X31777381Y-11942857D01*
X31872619Y-11657143D02*
X31825000Y-11609524D01*
X31777381Y-11514286D01*
X31777381Y-11276190D01*
X31825000Y-11180952D01*
X31872619Y-11133333D01*
X31967857Y-11085714D01*
X32063095Y-11085714D01*
X32205952Y-11133333D01*
X32777381Y-11704762D01*
X32777381Y-11085714D01*
X10256667Y-8914762D02*
X10399524Y-8962381D01*
X10637620Y-8962381D01*
X10732858Y-8914762D01*
X10780477Y-8867143D01*
X10828096Y-8771905D01*
X10828096Y-8676667D01*
X10780477Y-8581429D01*
X10732858Y-8533810D01*
X10637620Y-8486190D01*
X10447143Y-8438571D01*
X10351905Y-8390952D01*
X10304286Y-8343333D01*
X10256667Y-8248095D01*
X10256667Y-8152857D01*
X10304286Y-8057619D01*
X10351905Y-8010000D01*
X10447143Y-7962381D01*
X10685239Y-7962381D01*
X10828096Y-8010000D01*
X11161429Y-7962381D02*
X11399524Y-8962381D01*
X11590001Y-8248095D01*
X11780477Y-8962381D01*
X12018572Y-7962381D01*
X12923334Y-8962381D02*
X12351905Y-8962381D01*
X12637619Y-8962381D02*
X12637619Y-7962381D01*
X12542381Y-8105238D01*
X12447143Y-8200476D01*
X12351905Y-8248095D01*
D17*
X5752381Y-11633333D02*
X6466667Y-11633333D01*
X6609524Y-11680953D01*
X6704762Y-11776191D01*
X6752381Y-11919048D01*
X6752381Y-12014286D01*
X6752381Y-10633333D02*
X6752381Y-11204762D01*
X6752381Y-10919048D02*
X5752381Y-10919048D01*
X5895238Y-11014286D01*
X5990476Y-11109524D01*
X6038095Y-11204762D01*
M02*
