%TF.GenerationSoftware,KiCad,Pcbnew,4.0.7*%
%TF.CreationDate,2018-01-16T14:15:25+08:00*%
%TF.ProjectId,STM32F401CCT6,53544D333246343031434354362E6B69,rev?*%
%TF.FileFunction,Paste,Bot*%
%FSLAX46Y46*%
G04 Gerber Fmt 4.6, Leading zero omitted, Abs format (unit mm)*
G04 Created by KiCad (PCBNEW 4.0.7) date 01/16/18 14:15:25*
%MOMM*%
%LPD*%
G01*
G04 APERTURE LIST*
%ADD10C,0.100000*%
%ADD11R,0.500000X0.900000*%
%ADD12R,0.800000X0.750000*%
%ADD13R,0.750000X0.800000*%
%ADD14R,0.900000X0.500000*%
%ADD15R,1.060000X0.650000*%
G04 APERTURE END LIST*
D10*
D11*
X2250000Y-16550000D03*
X3750000Y-16550000D03*
D12*
X31402000Y-12262000D03*
X32902000Y-12262000D03*
D13*
X34542000Y-13792000D03*
X34542000Y-15292000D03*
X45102000Y-15342000D03*
X45102000Y-13842000D03*
D12*
X6482000Y-6472000D03*
X4982000Y-6472000D03*
X15962000Y-6532000D03*
X17462000Y-6532000D03*
D14*
X16912000Y-13752000D03*
X16912000Y-15252000D03*
D13*
X18592000Y-15242000D03*
X18592000Y-13742000D03*
X20232000Y-13752000D03*
X20232000Y-15252000D03*
D15*
X22002000Y-15382000D03*
X22002000Y-14432000D03*
X22002000Y-13482000D03*
X24202000Y-13482000D03*
X24202000Y-15382000D03*
D13*
X26282000Y-13722000D03*
X26282000Y-15222000D03*
X28022000Y-13732000D03*
X28022000Y-15232000D03*
D14*
X30012000Y-13752000D03*
X30012000Y-15252000D03*
X40192000Y-13812000D03*
X40192000Y-15312000D03*
D13*
X43452000Y-15322000D03*
X43452000Y-13822000D03*
D14*
X41240000Y-8700000D03*
X41240000Y-10200000D03*
D13*
X37502000Y-10072000D03*
X37502000Y-8572000D03*
X35602000Y-8552000D03*
X35602000Y-10052000D03*
X33872000Y-8552000D03*
X33872000Y-10052000D03*
D14*
X30082000Y-10092000D03*
X30082000Y-8592000D03*
D13*
X27772000Y-10052000D03*
X27772000Y-8552000D03*
X20592000Y-10042000D03*
X20592000Y-8542000D03*
X25892000Y-10042000D03*
X25892000Y-8542000D03*
X22322000Y-10062000D03*
X22322000Y-8562000D03*
X24202000Y-10032000D03*
X24202000Y-8532000D03*
D14*
X18772000Y-8522000D03*
X18772000Y-10022000D03*
D11*
X13120000Y-6510000D03*
X11620000Y-6510000D03*
D15*
X13882000Y-8462000D03*
X13882000Y-9412000D03*
X13882000Y-10362000D03*
X11682000Y-10362000D03*
X11682000Y-8462000D03*
X11682000Y-9412000D03*
D11*
X9452000Y-10152000D03*
X7952000Y-10152000D03*
X9452000Y-8242000D03*
X7952000Y-8242000D03*
D14*
X2162000Y-10692000D03*
X2162000Y-12192000D03*
D13*
X39362000Y-10072000D03*
X39362000Y-8572000D03*
M02*
