%TF.GenerationSoftware,KiCad,Pcbnew,4.0.7*%
%TF.CreationDate,2018-01-16T14:15:25+08:00*%
%TF.ProjectId,STM32F401CCT6,53544D333246343031434354362E6B69,rev?*%
%TF.FileFunction,Other,ECO1*%
%FSLAX46Y46*%
G04 Gerber Fmt 4.6, Leading zero omitted, Abs format (unit mm)*
G04 Created by KiCad (PCBNEW 4.0.7) date 01/16/18 14:15:25*
%MOMM*%
%LPD*%
G01*
G04 APERTURE LIST*
%ADD10C,0.100000*%
%ADD11C,0.300000*%
G04 APERTURE END LIST*
D10*
D11*
X-2481429Y-5285715D02*
X-2410000Y-5357144D01*
X-2338571Y-5500001D01*
X-2338571Y-5857144D01*
X-2410000Y-6000001D01*
X-2481429Y-6071430D01*
X-2624286Y-6142858D01*
X-2767143Y-6142858D01*
X-2981429Y-6071430D01*
X-3838571Y-5214287D01*
X-3838571Y-6142858D01*
X-2338571Y-6642858D02*
X-2338571Y-7571429D01*
X-2910000Y-7071429D01*
X-2910000Y-7285715D01*
X-2981429Y-7428572D01*
X-3052857Y-7500001D01*
X-3195714Y-7571429D01*
X-3552857Y-7571429D01*
X-3695714Y-7500001D01*
X-3767143Y-7428572D01*
X-3838571Y-7285715D01*
X-3838571Y-6857143D01*
X-3767143Y-6714286D01*
X-3695714Y-6642858D01*
X-3695714Y-8214286D02*
X-3767143Y-8285714D01*
X-3838571Y-8214286D01*
X-3767143Y-8142857D01*
X-3695714Y-8214286D01*
X-3838571Y-8214286D01*
X-2338571Y-9214286D02*
X-2338571Y-9357143D01*
X-2410000Y-9500000D01*
X-2481429Y-9571429D01*
X-2624286Y-9642858D01*
X-2910000Y-9714286D01*
X-3267143Y-9714286D01*
X-3552857Y-9642858D01*
X-3695714Y-9571429D01*
X-3767143Y-9500000D01*
X-3838571Y-9357143D01*
X-3838571Y-9214286D01*
X-3767143Y-9071429D01*
X-3695714Y-9000000D01*
X-3552857Y-8928572D01*
X-3267143Y-8857143D01*
X-2910000Y-8857143D01*
X-2624286Y-8928572D01*
X-2481429Y-9000000D01*
X-2410000Y-9071429D01*
X-2338571Y-9214286D01*
X-2338571Y-10642857D02*
X-2338571Y-10785714D01*
X-2410000Y-10928571D01*
X-2481429Y-11000000D01*
X-2624286Y-11071429D01*
X-2910000Y-11142857D01*
X-3267143Y-11142857D01*
X-3552857Y-11071429D01*
X-3695714Y-11000000D01*
X-3767143Y-10928571D01*
X-3838571Y-10785714D01*
X-3838571Y-10642857D01*
X-3767143Y-10500000D01*
X-3695714Y-10428571D01*
X-3552857Y-10357143D01*
X-3267143Y-10285714D01*
X-2910000Y-10285714D01*
X-2624286Y-10357143D01*
X-2481429Y-10428571D01*
X-2410000Y-10500000D01*
X-2338571Y-10642857D01*
X-2338571Y-12071428D02*
X-2338571Y-12214285D01*
X-2410000Y-12357142D01*
X-2481429Y-12428571D01*
X-2624286Y-12500000D01*
X-2910000Y-12571428D01*
X-3267143Y-12571428D01*
X-3552857Y-12500000D01*
X-3695714Y-12428571D01*
X-3767143Y-12357142D01*
X-3838571Y-12214285D01*
X-3838571Y-12071428D01*
X-3767143Y-11928571D01*
X-3695714Y-11857142D01*
X-3552857Y-11785714D01*
X-3267143Y-11714285D01*
X-2910000Y-11714285D01*
X-2624286Y-11785714D01*
X-2481429Y-11857142D01*
X-2410000Y-11928571D01*
X-2338571Y-12071428D01*
X-3838571Y-14357142D02*
X-2838571Y-14357142D01*
X-2981429Y-14357142D02*
X-2910000Y-14428570D01*
X-2838571Y-14571428D01*
X-2838571Y-14785713D01*
X-2910000Y-14928570D01*
X-3052857Y-14999999D01*
X-3838571Y-14999999D01*
X-3052857Y-14999999D02*
X-2910000Y-15071428D01*
X-2838571Y-15214285D01*
X-2838571Y-15428570D01*
X-2910000Y-15571428D01*
X-3052857Y-15642856D01*
X-3838571Y-15642856D01*
X-3838571Y-16357142D02*
X-2838571Y-16357142D01*
X-2981429Y-16357142D02*
X-2910000Y-16428570D01*
X-2838571Y-16571428D01*
X-2838571Y-16785713D01*
X-2910000Y-16928570D01*
X-3052857Y-16999999D01*
X-3838571Y-16999999D01*
X-3052857Y-16999999D02*
X-2910000Y-17071428D01*
X-2838571Y-17214285D01*
X-2838571Y-17428570D01*
X-2910000Y-17571428D01*
X-3052857Y-17642856D01*
X-3838571Y-17642856D01*
X-1810000Y0D02*
X-1810000Y-23000000D01*
X0Y0D02*
X-4510000Y0D01*
X0Y-23000000D02*
X-4510000Y-23000000D01*
X-1810000Y-23000000D02*
X-2396421Y-21873496D01*
X-1810000Y-23000000D02*
X-1223579Y-21873496D01*
X-1810000Y0D02*
X-2396421Y-1126504D01*
X-1810000Y0D02*
X-1223579Y-1126504D01*
X20573400Y3917202D02*
X19859114Y3916652D01*
X19788234Y3202312D01*
X19859608Y3273795D01*
X20002411Y3345333D01*
X20359553Y3345608D01*
X20502465Y3274289D01*
X20573949Y3202916D01*
X20645487Y3060114D01*
X20645762Y2702971D01*
X20574444Y2560059D01*
X20503070Y2488575D01*
X20360268Y2417037D01*
X20003125Y2416763D01*
X19860213Y2488081D01*
X19788729Y2559455D01*
X21216366Y3774838D02*
X21287740Y3846322D01*
X21430542Y3917861D01*
X21787684Y3918136D01*
X21930596Y3846817D01*
X22002080Y3775442D01*
X22073618Y3632640D01*
X22073728Y3489783D01*
X22002465Y3275443D01*
X21145981Y2417642D01*
X22074552Y2418356D01*
X22717299Y2561707D02*
X22788782Y2490333D01*
X22717409Y2418850D01*
X22645925Y2490223D01*
X22717299Y2561707D01*
X22717409Y2418850D01*
X23716255Y3919619D02*
X23859112Y3919729D01*
X24002024Y3848410D01*
X24073508Y3777036D01*
X24145047Y3634234D01*
X24216694Y3348575D01*
X24216969Y2991432D01*
X24145761Y2705663D01*
X24074442Y2562751D01*
X24003068Y2491267D01*
X23860266Y2419729D01*
X23717409Y2419619D01*
X23574497Y2490937D01*
X23503013Y2562311D01*
X23431475Y2705113D01*
X23359826Y2990772D01*
X23359552Y3347915D01*
X23430761Y3633684D01*
X23502079Y3776596D01*
X23573453Y3848080D01*
X23716255Y3919619D01*
X25645979Y2421103D02*
X24788836Y2420443D01*
X25217408Y2420773D02*
X25216254Y3920772D01*
X25073562Y3706377D01*
X24930814Y3563410D01*
X24788012Y3491871D01*
X26573396Y3921816D02*
X26716253Y3921926D01*
X26859165Y3850607D01*
X26930649Y3779233D01*
X27002188Y3636431D01*
X27073835Y3350772D01*
X27074110Y2993629D01*
X27002902Y2707860D01*
X26931583Y2564948D01*
X26860209Y2493464D01*
X26717407Y2421927D01*
X26574550Y2421817D01*
X26431638Y2493135D01*
X26360154Y2564509D01*
X26288616Y2707311D01*
X26216967Y2992970D01*
X26216693Y3350113D01*
X26287902Y3635882D01*
X26359220Y3778793D01*
X26430594Y3850277D01*
X26573396Y3921816D01*
X28860263Y2423575D02*
X28859494Y3423574D01*
X28859604Y3280716D02*
X28930977Y3352200D01*
X29073780Y3423739D01*
X29288065Y3423904D01*
X29430977Y3352585D01*
X29502516Y3209783D01*
X29503120Y2424069D01*
X29502516Y3209783D02*
X29573835Y3352695D01*
X29716637Y3424233D01*
X29930922Y3424398D01*
X30073835Y3353079D01*
X30145372Y3210277D01*
X30145977Y2424563D01*
X30860262Y2425113D02*
X30859493Y3425112D01*
X30859603Y3282254D02*
X30930976Y3353738D01*
X31073779Y3425277D01*
X31288064Y3425442D01*
X31430976Y3354123D01*
X31502515Y3211321D01*
X31503119Y2425607D01*
X31502515Y3211321D02*
X31573834Y3354233D01*
X31716636Y3425772D01*
X31930921Y3425936D01*
X32073834Y3354617D01*
X32145372Y3211815D01*
X32145976Y2426102D01*
X-1361Y1729948D02*
X52008639Y1769948D01*
X0Y-40000D02*
X-3438Y4429947D01*
X52010000Y0D02*
X52006562Y4469947D01*
X52008639Y1769948D02*
X50882587Y1182661D01*
X52008639Y1769948D02*
X50881685Y2355502D01*
X-1361Y1729948D02*
X1125593Y1144394D01*
X-1361Y1729948D02*
X1124691Y2317235D01*
M02*
