%
M48
METRIC,000.000
T01C0.30
T02C0.60
T03C0.80
T04C0.85
T05C1.00
T10C1.50
T11C2.40
%
T01
X001372Y006187
X003400Y010750
X004979Y006024
X006340Y012580
X006502Y017618
X006570Y007750
X006670Y010787
X007002Y012037
X007079Y011326
X009360Y015730
X010302Y012180
X010772Y001788
X010792Y003210
X010812Y005527
X011492Y015597
X015028Y013962
X015360Y017770
X016242Y005417
X016954Y011947
X017404Y012420
X017452Y013798
X017502Y015558
X017510Y011190
X017682Y006849
X018976Y006283
X019702Y005693
X020572Y016868
X020838Y006010
X020872Y003143
X021462Y013288
X022270Y017220
X022590Y002519
X022632Y011968
X023082Y011703
X023320Y017130
X023572Y012028
X024039Y005731
X024877Y005792
X025252Y005167
X026044Y016451
X026589Y016091
X027800Y016091
X028671Y015904
X028687Y015241
X029016Y009582
X029030Y010730
X029202Y016358
X029922Y008508
X029932Y006867
X030302Y011928
X032241Y014878
X033870Y010440
X038412Y014438
X038440Y013740
X039416Y017058
X040284Y017066
X041270Y009800
X041470Y013520
X042062Y017328
X044272Y011068
X049204Y015254
X049860Y017910
X049870Y015290
X001372Y029188
X003400Y033750
X004979Y029025
X006340Y035580
X006502Y040618
X006570Y030750
X006670Y033787
X007002Y035037
X007079Y034326
X009360Y038730
X010302Y035180
X010772Y024788
X010792Y026211
X010812Y028528
X011492Y038598
X015028Y036962
X015360Y040769
X016242Y028418
X016954Y034947
X017404Y035420
X017452Y036798
X017502Y038558
X017510Y034190
X017682Y029849
X018976Y029284
X019702Y028694
X020572Y039868
X020838Y029011
X020872Y026143
X021462Y036288
X022270Y040220
X022590Y025520
X022632Y034968
X023082Y034703
X023320Y040130
X023572Y035028
X024039Y028731
X024877Y028793
X025252Y028168
X026044Y039451
X026589Y039091
X027800Y039091
X028671Y038904
X028687Y038241
X029016Y032582
X029030Y033730
X029202Y039358
X029922Y031508
X029932Y029868
X030302Y034928
X032241Y037878
X033870Y033440
X038412Y037438
X038440Y036740
X039416Y040058
X040284Y040066
X041270Y032800
X041470Y036519
X042062Y040328
X044272Y034068
X049204Y038255
X049860Y040910
X049870Y038290
X001372Y052188
X003400Y056750
X004979Y052025
X006340Y058580
X006502Y063618
X006570Y053750
X006670Y056787
X007002Y058037
X007079Y057326
X009360Y061730
X010302Y058180
X010772Y047788
X010792Y049211
X010812Y051528
X011492Y061598
X015028Y059962
X015360Y063769
X016242Y051418
X016954Y057947
X017404Y058420
X017452Y059798
X017502Y061558
X017510Y057190
X017682Y052849
X018976Y052284
X019702Y051694
X020572Y062868
X020838Y052010
X020872Y049143
X021462Y059288
X022270Y063220
X022590Y048519
X022632Y057968
X023082Y057703
X023320Y063130
X023572Y058028
X024039Y051731
X024877Y051793
X025252Y051168
X026044Y062451
X026589Y062091
X027800Y062091
X028671Y061904
X028687Y061241
X029016Y055582
X029030Y056730
X029202Y062358
X029922Y054507
X029932Y052867
X030302Y057928
X032241Y060878
X033870Y056440
X038412Y060438
X038440Y059740
X039416Y063058
X040284Y063066
X041270Y055800
X041470Y059519
X042062Y063328
X044272Y057068
X049204Y061255
X049860Y063910
X049870Y061290
X001372Y075188
X003400Y079750
X004979Y075025
X006340Y081580
X006502Y086618
X006570Y076750
X006670Y079787
X007002Y081037
X007079Y080326
X009360Y084730
X010302Y081180
X010772Y070788
X010792Y072211
X010812Y074527
X011492Y084598
X015028Y082962
X015360Y086770
X016242Y074418
X016954Y080947
X017404Y081420
X017452Y082798
X017502Y084558
X017510Y080190
X017682Y075849
X018976Y075283
X019702Y074694
X020572Y085868
X020838Y075011
X020872Y072143
X021462Y082288
X022270Y086220
X022590Y071520
X022632Y080968
X023082Y080703
X023320Y086130
X023572Y081028
X024039Y074731
X024877Y074793
X025252Y074168
X026044Y085451
X026589Y085091
X027800Y085091
X028671Y084904
X028687Y084241
X029016Y078582
X029030Y079730
X029202Y085358
X029922Y077508
X029932Y075868
X030302Y080928
X032241Y083878
X033870Y079440
X038412Y083438
X038440Y082740
X039416Y086058
X040284Y086066
X041270Y078800
X041470Y082520
X042062Y086328
X044272Y080068
X049204Y084255
X049860Y086910
X049870Y084290
X053198Y004725
X053425Y018125
X053730Y001820
X054400Y019250
X055150Y010820
X055160Y012330
X055750Y006699
X057425Y003149
X057810Y010220
X058300Y016430
X059410Y014762
X059568Y016358
X059831Y005000
X060750Y004225
X061578Y020964
X061875Y015578
X062550Y020275
X063060Y010725
X064161Y012352
X064590Y008830
X064890Y006039
X064974Y018225
X065126Y012378
X065343Y013128
X065376Y014742
X065518Y008332
X065974Y013725
X066700Y004520
X066710Y013998
X066769Y017323
X067387Y017095
X067920Y004658
X068047Y017543
X068199Y006103
X068377Y002853
X069450Y012330
X070714Y017178
X071090Y004556
X071320Y002859
X072099Y002309
X072467Y017177
X073108Y005359
X073125Y002570
X073506Y017448
X073549Y016791
X074387Y015091
X074510Y004320
X074702Y015676
X075179Y014289
X075894Y013135
X076048Y014283
X076310Y007789
X076420Y011450
X076549Y005736
X076590Y003120
X076783Y008239
X076825Y010511
X076975Y014350
X077110Y012410
X077160Y008772
X077170Y017410
X077644Y011667
X077746Y013381
X077836Y015959
X077880Y009050
X077889Y011061
X078338Y013650
X078350Y010601
X078490Y006850
X078840Y005170
X078969Y009437
X078980Y013550
X079597Y009257
X079610Y014030
X079799Y016634
X053198Y027725
X053425Y041125
X053730Y024820
X054400Y042250
X055150Y033820
X055160Y035330
X055750Y029700
X057425Y026150
X057810Y033220
X058300Y039430
X059410Y037762
X059568Y039358
X059831Y028000
X060750Y027225
X061578Y043964
X061875Y038578
X062550Y043275
X063060Y033725
X064161Y035352
X064590Y031830
X064890Y029040
X064974Y041225
X065126Y035378
X065343Y036128
X065376Y037742
X065518Y031332
X065974Y036725
X066700Y027520
X066710Y036998
X066769Y040323
X067387Y040095
X067920Y027659
X068047Y040543
X068199Y029104
X068377Y025853
X069450Y035330
X070714Y040178
X071090Y027557
X071320Y025860
X072099Y025310
X072467Y040177
X073108Y028360
X073125Y025570
X073506Y040448
X073549Y039791
X074387Y038091
X074510Y027320
X074702Y038676
X075179Y037289
X075894Y036135
X076048Y037283
X076310Y030790
X076420Y034450
X076549Y028736
X076590Y026120
X076783Y031239
X076825Y033510
X076975Y037350
X077110Y035410
X077160Y031772
X077170Y040410
X077644Y034667
X077746Y036381
X077836Y038959
X077880Y032049
X077889Y034061
X078338Y036650
X078350Y033601
X078490Y029851
X078840Y028170
X078969Y032436
X078980Y036550
X079597Y032256
X079610Y037030
X079799Y039635
X053198Y073725
X053425Y087125
X053730Y070820
X054400Y088250
X055150Y079820
X055160Y081330
X055750Y075700
X057425Y072150
X057810Y079220
X058300Y085430
X059410Y083762
X059568Y085358
X059831Y074000
X060750Y073225
X061578Y089964
X061875Y084578
X062550Y089275
X063060Y079725
X064161Y081352
X064590Y077830
X064890Y075039
X064974Y087225
X065126Y081378
X065343Y082128
X065376Y083742
X065518Y077332
X065974Y082725
X066700Y073520
X066710Y082998
X066769Y086323
X067387Y086095
X067920Y073658
X068047Y086543
X068199Y075104
X068377Y071853
X069450Y081330
X070714Y086178
X071090Y073557
X071320Y071860
X072099Y071310
X072467Y086176
X073108Y074360
X073125Y071570
X073506Y086448
X073549Y085791
X074387Y084091
X074510Y073320
X074702Y084676
X075179Y083289
X075894Y082135
X076048Y083283
X076310Y076789
X076420Y080450
X076549Y074736
X076590Y072120
X076783Y077239
X076825Y079511
X076975Y083350
X077110Y081410
X077160Y077772
X077170Y086410
X077644Y080667
X077746Y082381
X077836Y084959
X077880Y078050
X077889Y080061
X078338Y082650
X078350Y079601
X078490Y075851
X078840Y074170
X078969Y078437
X078980Y082550
X079597Y078257
X079610Y083030
X079799Y085635
X053198Y050725
X053425Y064125
X053730Y047820
X054400Y065250
X055150Y056820
X055160Y058330
X055750Y052700
X057425Y049150
X057810Y056220
X058300Y062430
X059410Y060762
X059568Y062358
X059831Y051000
X060750Y050225
X061578Y066964
X061875Y061578
X062550Y066275
X063060Y056725
X064161Y058352
X064590Y054830
X064890Y052040
X064974Y064224
X065126Y058378
X065343Y059128
X065376Y060742
X065518Y054332
X065974Y059725
X066700Y050519
X066710Y059998
X066769Y063323
X067387Y063095
X067920Y050659
X068047Y063543
X068199Y052104
X068377Y048853
X069450Y058330
X070714Y063178
X071090Y050557
X071320Y048860
X072099Y048310
X072467Y063177
X073108Y051360
X073125Y048570
X073506Y063448
X073549Y062791
X074387Y061091
X074510Y050320
X074702Y061676
X075179Y060289
X075894Y059135
X076048Y060283
X076310Y053790
X076420Y057450
X076549Y051736
X076590Y049120
X076783Y054239
X076825Y056510
X076975Y060350
X077110Y058410
X077160Y054772
X077170Y063410
X077644Y057667
X077746Y059381
X077836Y061959
X077880Y055050
X077889Y057061
X078338Y059650
X078350Y056601
X078490Y052851
X078840Y051170
X078969Y055437
X078980Y059550
X079597Y055257
X079610Y060030
X079799Y062635
X086170Y005070
X086500Y010700
X090380Y017650
X090530Y005309
X095430Y006859
X096820Y011570
X097560Y003410
X086170Y028070
X086500Y033700
X090380Y040650
X090530Y028310
X095430Y029860
X096820Y034570
X097560Y026410
X086170Y051070
X086500Y056700
X090380Y063650
X090530Y051310
X095430Y052860
X096820Y057570
X097560Y049410
X086170Y074070
X086500Y079700
X090380Y086650
X090530Y074310
X095430Y075860
X096820Y080570
X097560Y072410
T02
X001600Y015200G85X002300Y015200
X002300Y008200G85X001600Y008200
X001600Y038200G85X002300Y038200
X002300Y031200G85X001600Y031200
X001600Y061200G85X002300Y061200
X002300Y054200G85X001600Y054200
X001600Y084200G85X002300Y084200
X002300Y077200G85X001600Y077200
X053350Y015000G85X054050Y015000
X054050Y008000G85X053350Y008000
X053350Y038000G85X054050Y038000
X054050Y031000G85X053350Y031000
X053350Y084000G85X054050Y084000
X054050Y077000G85X053350Y077000
X053350Y061000G85X054050Y061000
X054050Y054000G85X053350Y054000
T03
X032222Y013658
X032222Y008778
X032222Y036658
X032222Y031778
X032222Y059658
X032222Y054778
X032222Y082658
X032222Y077778
X061799Y013118
X061799Y008238
X061799Y036118
X061799Y031238
X061799Y082118
X061799Y077238
X061799Y059118
X061799Y054238
X089210Y010190
X090225Y012730
X091240Y010190
X092255Y012730
X093270Y010190
X094285Y012730
X089210Y033190
X090225Y035730
X091240Y033190
X092255Y035730
X093270Y033190
X094285Y035730
X089210Y056190
X090225Y058730
X091240Y056190
X092255Y058730
X093270Y056190
X094285Y058730
X089210Y079190
X090225Y081730
X091240Y079190
X092255Y081730
X093270Y079190
X094285Y081730
T04
X004650Y014200
X004650Y009200
X004650Y037200
X004650Y032200
X004650Y060200
X004650Y055200
X004650Y083200
X004650Y078200
X056400Y014000
X056400Y009000
X056400Y037000
X056400Y032000
X056400Y083000
X056400Y078000
X056400Y060000
X056400Y055000
T05
X001892Y019318
X001892Y003818
X004432Y019318
X004432Y003818
X006972Y019318
X006972Y003818
X009030Y009920
X009030Y007380
X009512Y019318
X009512Y003818
X011570Y009920
X011570Y007380
X012052Y019318
X012052Y003818
X014110Y009920
X014110Y007380
X014592Y019318
X014592Y003818
X017132Y019318
X017132Y003818
X019672Y019318
X019672Y003818
X022212Y019318
X022212Y003818
X024752Y019318
X024752Y003818
X027292Y019318
X027292Y003818
X029832Y019318
X029832Y003818
X032372Y019318
X032372Y003818
X034912Y019318
X034912Y003818
X037452Y019318
X037452Y003818
X039992Y019318
X039992Y003818
X042532Y019318
X042532Y003818
X045072Y019318
X045072Y003818
X047612Y019318
X047612Y003818
X047772Y016518
X047772Y013978
X047772Y011438
X047772Y008898
X047772Y006358
X050152Y019318
X050152Y003818
X001892Y042318
X001892Y026818
X004432Y042318
X004432Y026818
X006972Y042318
X006972Y026818
X009030Y032920
X009030Y030380
X009512Y042318
X009512Y026818
X011570Y032920
X011570Y030380
X012052Y042318
X012052Y026818
X014110Y032920
X014110Y030380
X014592Y042318
X014592Y026818
X017132Y042318
X017132Y026818
X019672Y042318
X019672Y026818
X022212Y042318
X022212Y026818
X024752Y042318
X024752Y026818
X027292Y042318
X027292Y026818
X029832Y042318
X029832Y026818
X032372Y042318
X032372Y026818
X034912Y042318
X034912Y026818
X037452Y042318
X037452Y026818
X039992Y042318
X039992Y026818
X042532Y042318
X042532Y026818
X045072Y042318
X045072Y026818
X047612Y042318
X047612Y026818
X047772Y039518
X047772Y036978
X047772Y034438
X047772Y031898
X047772Y029358
X050152Y042318
X050152Y026818
X001892Y065318
X001892Y049818
X004432Y065318
X004432Y049818
X006972Y065318
X006972Y049818
X009030Y055920
X009030Y053380
X009512Y065318
X009512Y049818
X011570Y055920
X011570Y053380
X012052Y065318
X012052Y049818
X014110Y055920
X014110Y053380
X014592Y065318
X014592Y049818
X017132Y065318
X017132Y049818
X019672Y065318
X019672Y049818
X022212Y065318
X022212Y049818
X024752Y065318
X024752Y049818
X027292Y065318
X027292Y049818
X029832Y065318
X029832Y049818
X032372Y065318
X032372Y049818
X034912Y065318
X034912Y049818
X037452Y065318
X037452Y049818
X039992Y065318
X039992Y049818
X042532Y065318
X042532Y049818
X045072Y065318
X045072Y049818
X047612Y065318
X047612Y049818
X047772Y062518
X047772Y059978
X047772Y057438
X047772Y054897
X047772Y052358
X050152Y065318
X050152Y049818
X001892Y088318
X001892Y072818
X004432Y088318
X004432Y072818
X006972Y088318
X006972Y072818
X009030Y078920
X009030Y076380
X009512Y088318
X009512Y072818
X011570Y078920
X011570Y076380
X012052Y088318
X012052Y072818
X014110Y078920
X014110Y076380
X014592Y088318
X014592Y072818
X017132Y088318
X017132Y072818
X019672Y088318
X019672Y072818
X022212Y088318
X022212Y072818
X024752Y088318
X024752Y072818
X027292Y088318
X027292Y072818
X029832Y088318
X029832Y072818
X032372Y088318
X032372Y072818
X034912Y088318
X034912Y072818
X037452Y088318
X037452Y072818
X039992Y088318
X039992Y072818
X042532Y088318
X042532Y072818
X045072Y088318
X045072Y072818
X047612Y088318
X047612Y072818
X047772Y085518
X047772Y082978
X047772Y080438
X047772Y077898
X047772Y075358
X050152Y088318
X050152Y072818
X064135Y019972
X066675Y019972
X069215Y019972
X071755Y019972
X074295Y019972
X076835Y019972
X064135Y042972
X066675Y042972
X069215Y042972
X071755Y042972
X074295Y042972
X076835Y042972
X064135Y088972
X066675Y088972
X069215Y088972
X071755Y088972
X074295Y088972
X076835Y088972
X064135Y065972
X066675Y065972
X069215Y065972
X071755Y065972
X074295Y065972
X076835Y065972
X085450Y020000
X087990Y020000
X090530Y020000
X093070Y020000
X095610Y020000
X098150Y020000
X085450Y043000
X087990Y043000
X090530Y043000
X093070Y043000
X095610Y043000
X098150Y043000
X085450Y066000
X087990Y066000
X090530Y066000
X093070Y066000
X095610Y066000
X098150Y066000
X085450Y089000
X087990Y089000
X090530Y089000
X093070Y089000
X095610Y089000
X098150Y089000
T10
X001560Y098450
X086380Y098010
T11
X085750Y007890
X097750Y007890
X085750Y030890
X097750Y030890
X085750Y053890
X097750Y053890
X085750Y076890
X097750Y076890
M30