%MOIN*%
%OFA0B0*%
%FSLAX46Y46*%
%IPPOS*%
%LPD*%
%ADD10C,0.0039370078740157488*%
%ADD11C,0.0019685039370078744*%
%ADD22C,0.0039370078740157488*%
%ADD23C,0.0039370078740157488*%
%ADD24C,0.0039370078740157488*%
%ADD25C,0.011811023622047244*%
%ADD26C,0.0039370078740157488*%
%ADD27C,0.0039370078740157488*%
%ADD28C,0.0019685039370078744*%
%ADD29C,0.0039370078740157488*%
%ADD30C,0.0039370078740157488*%
%ADD31C,0.0019685039370078744*%
%ADD32C,0.0039370078740157488*%
%ADD33C,0.0039370078740157488*%
%ADD34C,0.0039370078740157488*%
%ADD35C,0.011811023622047244*%
%ADD36C,0.0039370078740157488*%
%ADD37C,0.0039370078740157488*%
%ADD38C,0.0019685039370078744*%
%ADD39C,0.0039370078740157488*%
%ADD40C,0.0039370078740157488*%
%ADD41C,0.0019685039370078744*%
%ADD42C,0.0039370078740157488*%
%ADD43C,0.0039370078740157488*%
%ADD44C,0.0039370078740157488*%
%ADD45C,0.011811023622047244*%
%ADD46C,0.0039370078740157488*%
%ADD47C,0.0039370078740157488*%
%ADD48C,0.0019685039370078744*%
%ADD49C,0.0039370078740157488*%
%ADD50C,0.0039370078740157488*%
%ADD51C,0.0019685039370078744*%
%ADD52C,0.0039370078740157488*%
%ADD53C,0.0039370078740157488*%
%ADD54C,0.0039370078740157488*%
%ADD55C,0.011811023622047244*%
%ADD56C,0.0039370078740157488*%
%ADD57C,0.0039370078740157488*%
%ADD58C,0.0019685039370078744*%
%ADD59C,0.0039370078740157488*%
%ADD60C,0.0039370078740157488*%
%ADD61C,0.0019685039370078744*%
%ADD62C,0.0039370078740157488*%
%ADD63C,0.0039370078740157488*%
%ADD64C,0.0031496062992125988*%
%ADD65C,0.0039370078740157488*%
%ADD66C,0.011811023622047244*%
%ADD67C,0.0039370078740157488*%
%ADD68C,0.0039370078740157488*%
%ADD69C,0.0019685039370078744*%
%ADD70C,0.0039370078740157488*%
%ADD71C,0.0039370078740157488*%
%ADD72C,0.0019685039370078744*%
%ADD73C,0.0039370078740157488*%
%ADD74C,0.0039370078740157488*%
%ADD75C,0.0031496062992125988*%
%ADD76C,0.0039370078740157488*%
%ADD77C,0.011811023622047244*%
%ADD78C,0.0039370078740157488*%
%ADD79C,0.0039370078740157488*%
%ADD80C,0.0019685039370078744*%
%ADD81C,0.0039370078740157488*%
%ADD82C,0.0039370078740157488*%
%ADD83C,0.0019685039370078744*%
%ADD84C,0.0039370078740157488*%
%ADD85C,0.0039370078740157488*%
%ADD86C,0.0031496062992125988*%
%ADD87C,0.0039370078740157488*%
%ADD88C,0.011811023622047244*%
%ADD89C,0.0039370078740157488*%
%ADD90C,0.0039370078740157488*%
%ADD91C,0.0019685039370078744*%
%ADD92C,0.0039370078740157488*%
%ADD93C,0.0039370078740157488*%
%ADD94C,0.0019685039370078744*%
%ADD95C,0.0039370078740157488*%
%ADD96C,0.0039370078740157488*%
%ADD97C,0.0031496062992125988*%
%ADD98C,0.0039370078740157488*%
%ADD99C,0.011811023622047244*%
%ADD100C,0.0039370078740157488*%
%ADD101C,0.0039370078740157488*%
%ADD102C,0.0019685039370078744*%
%ADD103C,0.0039370078740157488*%
%ADD104C,0.0039370078740157488*%
%ADD105C,0.0019685039370078744*%
%ADD106C,0.0039370078740157488*%
%ADD107C,0.0039370078740157488*%
%ADD108C,0.0039370078740157488*%
%ADD109C,0.011811023622047244*%
%ADD110C,0.0039370078740157488*%
%ADD111C,0.0039370078740157488*%
%ADD112C,0.0039370078740157488*%
%ADD113C,0.0039370078740157488*%
%ADD114C,0.0019685039370078744*%
%ADD115C,0.0039370078740157488*%
%ADD116C,0.0039370078740157488*%
%ADD117C,0.0039370078740157488*%
%ADD118C,0.011811023622047244*%
%ADD119C,0.0039370078740157488*%
%ADD120C,0.0039370078740157488*%
%ADD121C,0.0039370078740157488*%
%ADD122C,0.0039370078740157488*%
%ADD123C,0.0019685039370078744*%
%ADD124C,0.0039370078740157488*%
%ADD125C,0.0039370078740157488*%
%ADD126C,0.0039370078740157488*%
%ADD127C,0.011811023622047244*%
%ADD128C,0.0039370078740157488*%
%ADD129C,0.0039370078740157488*%
%ADD130C,0.0039370078740157488*%
%ADD131C,0.0039370078740157488*%
%ADD132C,0.0019685039370078744*%
%ADD133C,0.0039370078740157488*%
%ADD134C,0.0039370078740157488*%
%ADD135C,0.0039370078740157488*%
%ADD136C,0.011811023622047244*%
%ADD137C,0.0039370078740157488*%
%ADD138C,0.0039370078740157488*%
%ADD139C,0.0039370078740157488*%
G01G01*
D10*
D11*
X0000068897Y0000226377D02*
X0000167322Y0000226377D01*
X0000068897Y0000226377D02*
X0000068897Y0000281496D01*
X0000167322Y0000281496D02*
X0000167322Y0000226377D01*
X0000167322Y0000281496D02*
X0000068897Y0000281496D01*
X0001210708Y0000397165D02*
X0001320944Y0000397165D01*
X0001210708Y0000397165D02*
X0001210708Y0000448346D01*
X0001320944Y0000448346D02*
X0001320944Y0000397165D01*
X0001320944Y0000448346D02*
X0001210708Y0000448346D01*
X0001334330Y0000388110D02*
X0001334330Y0000277874D01*
X0001334330Y0000388110D02*
X0001385511Y0000388110D01*
X0001385511Y0000277874D02*
X0001334330Y0000277874D01*
X0001385511Y0000277874D02*
X0001385511Y0000388110D01*
X0001801259Y0000275905D02*
X0001801259Y0000386141D01*
X0001801259Y0000275905D02*
X0001750078Y0000275905D01*
X0001750078Y0000386141D02*
X0001801259Y0000386141D01*
X0001750078Y0000386141D02*
X0001750078Y0000275905D01*
X0000280787Y0000676299D02*
X0000170551Y0000676299D01*
X0000280787Y0000676299D02*
X0000280787Y0000625118D01*
X0000170551Y0000625118D02*
X0000170551Y0000676299D01*
X0000170551Y0000625118D02*
X0000280787Y0000625118D01*
X0000602834Y0000622755D02*
X0000713070Y0000622755D01*
X0000602834Y0000622755D02*
X0000602834Y0000673937D01*
X0000713070Y0000673937D02*
X0000713070Y0000622755D01*
X0000713070Y0000673937D02*
X0000602834Y0000673937D01*
X0000638267Y0000383779D02*
X0000638267Y0000285354D01*
X0000638267Y0000383779D02*
X0000693385Y0000383779D01*
X0000693385Y0000285354D02*
X0000638267Y0000285354D01*
X0000693385Y0000285354D02*
X0000693385Y0000383779D01*
X0000757559Y0000279842D02*
X0000757559Y0000390078D01*
X0000757559Y0000279842D02*
X0000706377Y0000279842D01*
X0000706377Y0000390078D02*
X0000757559Y0000390078D01*
X0000706377Y0000390078D02*
X0000706377Y0000279842D01*
X0000770944Y0000389685D02*
X0000770944Y0000279448D01*
X0000770944Y0000389685D02*
X0000822125Y0000389685D01*
X0000822125Y0000279448D02*
X0000770944Y0000279448D01*
X0000822125Y0000279448D02*
X0000822125Y0000389685D01*
X0000834724Y0000266456D02*
X0000984330Y0000266456D01*
X0000984330Y0000266456D02*
X0000984330Y0000408188D01*
X0000984330Y0000408188D02*
X0000834724Y0000408188D01*
X0000834724Y0000408188D02*
X0000834724Y0000266456D01*
X0001009133Y0000390866D02*
X0001009133Y0000280629D01*
X0001009133Y0000390866D02*
X0001060314Y0000390866D01*
X0001060314Y0000280629D02*
X0001009133Y0000280629D01*
X0001060314Y0000280629D02*
X0001060314Y0000390866D01*
X0001077637Y0000390472D02*
X0001077637Y0000280236D01*
X0001077637Y0000390472D02*
X0001128818Y0000390472D01*
X0001128818Y0000280236D02*
X0001077637Y0000280236D01*
X0001128818Y0000280236D02*
X0001128818Y0000390472D01*
X0001154015Y0000383779D02*
X0001154015Y0000285354D01*
X0001154015Y0000383779D02*
X0001209133Y0000383779D01*
X0001209133Y0000285354D02*
X0001154015Y0000285354D01*
X0001209133Y0000285354D02*
X0001209133Y0000383779D01*
X0001554803Y0000381417D02*
X0001554803Y0000282992D01*
X0001554803Y0000381417D02*
X0001609921Y0000381417D01*
X0001609921Y0000282992D02*
X0001554803Y0000282992D01*
X0001609921Y0000282992D02*
X0001609921Y0000381417D01*
X0001736299Y0000276692D02*
X0001736299Y0000386929D01*
X0001736299Y0000276692D02*
X0001685118Y0000276692D01*
X0001685118Y0000386929D02*
X0001736299Y0000386929D01*
X0001685118Y0000386929D02*
X0001685118Y0000276692D01*
X0001596062Y0000582677D02*
X0001596062Y0000484251D01*
X0001596062Y0000582677D02*
X0001651181Y0000582677D01*
X0001651181Y0000484251D02*
X0001596062Y0000484251D01*
X0001651181Y0000484251D02*
X0001651181Y0000582677D01*
X0001502047Y0000483385D02*
X0001502047Y0000593622D01*
X0001502047Y0000483385D02*
X0001450866Y0000483385D01*
X0001450866Y0000593622D02*
X0001502047Y0000593622D01*
X0001450866Y0000593622D02*
X0001450866Y0000483385D01*
X0001376062Y0000594409D02*
X0001376062Y0000484173D01*
X0001376062Y0000594409D02*
X0001427244Y0000594409D01*
X0001427244Y0000484173D02*
X0001376062Y0000484173D01*
X0001427244Y0000484173D02*
X0001427244Y0000594409D01*
X0001307952Y0000594409D02*
X0001307952Y0000484173D01*
X0001307952Y0000594409D02*
X0001359133Y0000594409D01*
X0001359133Y0000484173D02*
X0001307952Y0000484173D01*
X0001359133Y0000484173D02*
X0001359133Y0000594409D01*
X0001211889Y0000488503D02*
X0001211889Y0000586929D01*
X0001211889Y0000488503D02*
X0001156771Y0000488503D01*
X0001156771Y0000586929D02*
X0001211889Y0000586929D01*
X0001156771Y0000586929D02*
X0001156771Y0000488503D01*
X0001118976Y0000484173D02*
X0001118976Y0000594409D01*
X0001118976Y0000484173D02*
X0001067795Y0000484173D01*
X0001067795Y0000594409D02*
X0001118976Y0000594409D01*
X0001067795Y0000594409D02*
X0001067795Y0000484173D01*
X0000836299Y0000484566D02*
X0000836299Y0000594803D01*
X0000836299Y0000484566D02*
X0000785118Y0000484566D01*
X0000785118Y0000594803D02*
X0000836299Y0000594803D01*
X0000785118Y0000594803D02*
X0000785118Y0000484566D01*
X0001044960Y0000484566D02*
X0001044960Y0000594803D01*
X0001044960Y0000484566D02*
X0000993779Y0000484566D01*
X0000993779Y0000594803D02*
X0001044960Y0000594803D01*
X0000993779Y0000594803D02*
X0000993779Y0000484566D01*
X0000904409Y0000483779D02*
X0000904409Y0000594015D01*
X0000904409Y0000483779D02*
X0000853228Y0000483779D01*
X0000853228Y0000594015D02*
X0000904409Y0000594015D01*
X0000853228Y0000594015D02*
X0000853228Y0000483779D01*
X0000978425Y0000484960D02*
X0000978425Y0000595196D01*
X0000978425Y0000484960D02*
X0000927244Y0000484960D01*
X0000927244Y0000595196D02*
X0000978425Y0000595196D01*
X0000927244Y0000595196D02*
X0000927244Y0000484960D01*
X0000711496Y0000589685D02*
X0000711496Y0000491259D01*
X0000711496Y0000589685D02*
X0000766614Y0000589685D01*
X0000766614Y0000491259D02*
X0000711496Y0000491259D01*
X0000766614Y0000491259D02*
X0000766614Y0000589685D01*
X0000536220Y0000676771D02*
X0000437795Y0000676771D01*
X0000536220Y0000676771D02*
X0000536220Y0000621653D01*
X0000437795Y0000621653D02*
X0000437795Y0000676771D01*
X0000437795Y0000621653D02*
X0000536220Y0000621653D01*
X0000428425Y0000605826D02*
X0000578031Y0000605826D01*
X0000428425Y0000464094D02*
X0000428425Y0000605826D01*
X0000578031Y0000464094D02*
X0000428425Y0000464094D01*
X0000578031Y0000605826D02*
X0000578031Y0000464094D01*
X0000391811Y0000533385D02*
X0000293385Y0000533385D01*
X0000391811Y0000533385D02*
X0000391811Y0000478267D01*
X0000293385Y0000478267D02*
X0000293385Y0000533385D01*
X0000293385Y0000478267D02*
X0000391811Y0000478267D01*
X0000391811Y0000608582D02*
X0000293385Y0000608582D01*
X0000391811Y0000608582D02*
X0000391811Y0000553464D01*
X0000293385Y0000553464D02*
X0000293385Y0000608582D01*
X0000293385Y0000553464D02*
X0000391811Y0000553464D01*
X0000057559Y0000504251D02*
X0000057559Y0000405826D01*
X0000057559Y0000504251D02*
X0000112677Y0000504251D01*
X0000112677Y0000405826D02*
X0000057559Y0000405826D01*
X0000112677Y0000405826D02*
X0000112677Y0000504251D01*
X0002045354Y0000079448D02*
X0000004015Y0000079448D01*
X0000004015Y0000079448D02*
X0000004015Y0000221181D01*
X0000004015Y0000221181D02*
X0002045354Y0000221181D01*
X0002045354Y0000221181D02*
X0002045354Y0000079448D01*
X0002045354Y0000689685D02*
X0000004015Y0000689685D01*
X0000004015Y0000689685D02*
X0000004015Y0000831417D01*
X0000004015Y0000831417D02*
X0002045354Y0000831417D01*
X0002045354Y0000831417D02*
X0002045354Y0000689685D01*
X0001575275Y0000483385D02*
X0001575275Y0000593622D01*
X0001575275Y0000483385D02*
X0001524094Y0000483385D01*
X0001524094Y0000593622D02*
X0001575275Y0000593622D01*
X0001524094Y0000593622D02*
X0001524094Y0000483385D01*
G04 next file*
G04 Gerber Fmt 4.6, Leading zero omitted, Abs format (unit mm)*
G04 Created by KiCad (PCBNEW 4.0.7) date 01/16/18 14:15:25*
G01G01*
G04 APERTURE LIST*
G04 APERTURE END LIST*
D22*
G04 next file*
G04 Gerber Fmt 4.6, Leading zero omitted, Abs format (unit mm)*
G04 Created by KiCad (PCBNEW 4.0.7) date 01/16/18 14:15:25*
G01G01*
G04 APERTURE LIST*
G04 APERTURE END LIST*
D23*
G04 next file*
G04 Gerber Fmt 4.6, Leading zero omitted, Abs format (unit mm)*
G04 Created by KiCad (PCBNEW 4.0.7) date 01/16/18 14:15:25*
G01G01*
G04 APERTURE LIST*
G04 APERTURE END LIST*
D24*
D25*
X-0000097694Y0000697412D02*
X-0000094881Y0000694600D01*
X-0000092069Y0000688976D01*
X-0000092069Y0000674915D01*
X-0000094881Y0000669291D01*
X-0000097694Y0000666479D01*
X-0000103318Y0000663667D01*
X-0000108942Y0000663667D01*
X-0000117379Y0000666479D01*
X-0000151124Y0000700224D01*
X-0000151124Y0000663667D01*
X-0000092069Y0000643981D02*
X-0000092069Y0000607424D01*
X-0000114566Y0000627109D01*
X-0000114566Y0000618672D01*
X-0000117379Y0000613048D01*
X-0000120191Y0000610236D01*
X-0000125815Y0000607424D01*
X-0000139876Y0000607424D01*
X-0000145500Y0000610236D01*
X-0000148312Y0000613048D01*
X-0000151124Y0000618672D01*
X-0000151124Y0000635545D01*
X-0000148312Y0000641169D01*
X-0000145500Y0000643981D01*
X-0000145500Y0000582114D02*
X-0000148312Y0000579302D01*
X-0000151124Y0000582114D01*
X-0000148312Y0000584926D01*
X-0000145500Y0000582114D01*
X-0000151124Y0000582114D01*
X-0000092069Y0000542744D02*
X-0000092069Y0000537120D01*
X-0000094881Y0000531496D01*
X-0000097694Y0000528683D01*
X-0000103318Y0000525871D01*
X-0000114566Y0000523059D01*
X-0000128627Y0000523059D01*
X-0000139876Y0000525871D01*
X-0000145500Y0000528683D01*
X-0000148312Y0000531496D01*
X-0000151124Y0000537120D01*
X-0000151124Y0000542744D01*
X-0000148312Y0000548368D01*
X-0000145500Y0000551181D01*
X-0000139876Y0000553993D01*
X-0000128627Y0000556805D01*
X-0000114566Y0000556805D01*
X-0000103318Y0000553993D01*
X-0000097694Y0000551181D01*
X-0000094881Y0000548368D01*
X-0000092069Y0000542744D01*
X-0000092069Y0000486501D02*
X-0000092069Y0000480877D01*
X-0000094881Y0000475253D01*
X-0000097694Y0000472440D01*
X-0000103318Y0000469628D01*
X-0000114566Y0000466816D01*
X-0000128627Y0000466816D01*
X-0000139876Y0000469628D01*
X-0000145500Y0000472440D01*
X-0000148312Y0000475253D01*
X-0000151124Y0000480877D01*
X-0000151124Y0000486501D01*
X-0000148312Y0000492125D01*
X-0000145500Y0000494938D01*
X-0000139876Y0000497750D01*
X-0000128627Y0000500562D01*
X-0000114566Y0000500562D01*
X-0000103318Y0000497750D01*
X-0000097694Y0000494938D01*
X-0000094881Y0000492125D01*
X-0000092069Y0000486501D01*
X-0000092069Y0000430258D02*
X-0000092069Y0000424634D01*
X-0000094881Y0000419010D01*
X-0000097694Y0000416197D01*
X-0000103318Y0000413385D01*
X-0000114566Y0000410573D01*
X-0000128627Y0000410573D01*
X-0000139876Y0000413385D01*
X-0000145500Y0000416197D01*
X-0000148312Y0000419010D01*
X-0000151124Y0000424634D01*
X-0000151124Y0000430258D01*
X-0000148312Y0000435883D01*
X-0000145500Y0000438695D01*
X-0000139876Y0000441507D01*
X-0000128627Y0000444319D01*
X-0000114566Y0000444319D01*
X-0000103318Y0000441507D01*
X-0000097694Y0000438695D01*
X-0000094881Y0000435883D01*
X-0000092069Y0000430258D01*
X-0000151124Y0000340270D02*
X-0000111754Y0000340270D01*
X-0000117379Y0000340270D02*
X-0000114566Y0000337457D01*
X-0000111754Y0000331833D01*
X-0000111754Y0000323397D01*
X-0000114566Y0000317772D01*
X-0000120191Y0000314960D01*
X-0000151124Y0000314960D01*
X-0000120191Y0000314960D02*
X-0000114566Y0000312148D01*
X-0000111754Y0000306524D01*
X-0000111754Y0000298087D01*
X-0000114566Y0000292463D01*
X-0000120191Y0000289651D01*
X-0000151124Y0000289651D01*
X-0000151124Y0000261529D02*
X-0000111754Y0000261529D01*
X-0000117379Y0000261529D02*
X-0000114566Y0000258717D01*
X-0000111754Y0000253093D01*
X-0000111754Y0000244656D01*
X-0000114566Y0000239032D01*
X-0000120191Y0000236220D01*
X-0000151124Y0000236220D01*
X-0000120191Y0000236220D02*
X-0000114566Y0000233408D01*
X-0000111754Y0000227784D01*
X-0000111754Y0000219347D01*
X-0000114566Y0000213723D01*
X-0000120191Y0000210911D01*
X-0000151124Y0000210911D01*
X-0000071259Y0000905511D02*
X-0000071259Y0000000000D01*
X0000000000Y0000905511D02*
X-0000177559Y0000905511D01*
X0000000000Y0000000000D02*
X-0000177559Y0000000000D01*
X-0000071259Y0000000000D02*
X-0000094347Y0000044350D01*
X-0000071259Y0000000000D02*
X-0000048172Y0000044350D01*
X-0000071259Y0000905511D02*
X-0000094347Y0000861161D01*
X-0000071259Y0000905511D02*
X-0000048172Y0000861161D01*
X0000809976Y0001059732D02*
X0000781854Y0001059710D01*
X0000779064Y0001031587D01*
X0000781874Y0001034401D01*
X0000787496Y0001037217D01*
X0000801557Y0001037228D01*
X0000807183Y0001034420D01*
X0000809997Y0001031610D01*
X0000812814Y0001025988D01*
X0000812825Y0001011927D01*
X0000810017Y0001006301D01*
X0000807207Y0001003487D01*
X0000801585Y0001000670D01*
X0000787524Y0001000659D01*
X0000781898Y0001003467D01*
X0000779083Y0001006277D01*
X0000835290Y0001054127D02*
X0000838100Y0001056941D01*
X0000843722Y0001059758D01*
X0000857782Y0001059769D01*
X0000863409Y0001056961D01*
X0000866223Y0001054151D01*
X0000869040Y0001048529D01*
X0000869044Y0001042904D01*
X0000866238Y0001034466D01*
X0000832518Y0001000694D01*
X0000869076Y0001000722D01*
X0000894381Y0001006366D02*
X0000897196Y0001003556D01*
X0000894386Y0001000742D01*
X0000891571Y0001003552D01*
X0000894381Y0001006366D01*
X0000894386Y0001000742D01*
X0000933710Y0001059827D02*
X0000939335Y0001059831D01*
X0000944961Y0001057024D01*
X0000947775Y0001054214D01*
X0000950592Y0001048591D01*
X0000953413Y0001037345D01*
X0000953423Y0001023284D01*
X0000950620Y0001012033D01*
X0000947812Y0001006407D01*
X0000945002Y0001003593D01*
X0000939380Y0001000776D01*
X0000933756Y0001000772D01*
X0000928129Y0001003580D01*
X0000925315Y0001006390D01*
X0000922499Y0001012012D01*
X0000919678Y0001023258D01*
X0000919667Y0001037319D01*
X0000922470Y0001048570D01*
X0000925278Y0001054196D01*
X0000928088Y0001057011D01*
X0000933710Y0001059827D01*
X0001009684Y0001000830D02*
X0000975938Y0001000804D01*
X0000992811Y0001000817D02*
X0000992765Y0001059872D01*
X0000987148Y0001051432D01*
X0000981528Y0001045803D01*
X0000975905Y0001042987D01*
X0001046196Y0001059914D02*
X0001051820Y0001059918D01*
X0001057447Y0001057110D01*
X0001060261Y0001054300D01*
X0001063078Y0001048678D01*
X0001065899Y0001037431D01*
X0001065909Y0001023371D01*
X0001063106Y0001012120D01*
X0001060298Y0001006494D01*
X0001057488Y0001003679D01*
X0001051866Y0001000863D01*
X0001046242Y0001000858D01*
X0001040615Y0001003666D01*
X0001037801Y0001006476D01*
X0001034984Y0001012098D01*
X0001032164Y0001023345D01*
X0001032153Y0001037406D01*
X0001034956Y0001048656D01*
X0001037764Y0001054283D01*
X0001040574Y0001057097D01*
X0001046196Y0001059914D01*
X0001136230Y0001000928D02*
X0001136200Y0001040298D01*
X0001136204Y0001034673D02*
X0001139014Y0001037488D01*
X0001144637Y0001040304D01*
X0001153073Y0001040311D01*
X0001158699Y0001037503D01*
X0001161516Y0001031881D01*
X0001161540Y0001000947D01*
X0001161516Y0001031881D02*
X0001164324Y0001037507D01*
X0001169946Y0001040324D01*
X0001178382Y0001040330D01*
X0001184009Y0001037522D01*
X0001186825Y0001031900D01*
X0001186849Y0001000967D01*
X0001214970Y0001000988D02*
X0001214940Y0001040358D01*
X0001214945Y0001034734D02*
X0001217754Y0001037548D01*
X0001223377Y0001040365D01*
X0001231813Y0001040371D01*
X0001237440Y0001037563D01*
X0001240256Y0001031941D01*
X0001240280Y0001001008D01*
X0001240256Y0001031941D02*
X0001243064Y0001037568D01*
X0001248686Y0001040384D01*
X0001257122Y0001040391D01*
X0001262749Y0001037583D01*
X0001265565Y0001031961D01*
X0001265589Y0001001027D01*
X-0000000053Y0000973620D02*
X0002047584Y0000975194D01*
X0000000000Y0000903937D02*
X-0000000135Y0001079919D01*
X0002047637Y0000905511D02*
X0002047502Y0001081493D01*
X0002047584Y0000975194D02*
X0002003251Y0000952073D01*
X0002047584Y0000975194D02*
X0002003215Y0000998248D01*
X-0000000053Y0000973620D02*
X0000044314Y0000950566D01*
X-0000000053Y0000973620D02*
X0000044279Y0000996741D01*
G04 next file*
G04 Gerber Fmt 4.6, Leading zero omitted, Abs format (unit mm)*
G04 Created by KiCad (PCBNEW 4.0.7) date 01/16/18 14:15:25*
G01G01*
G04 APERTURE LIST*
G04 APERTURE END LIST*
D26*
G04 next file*
G04 Gerber Fmt 4.6, Leading zero omitted, Abs format (unit mm)*
G04 Created by KiCad (PCBNEW 4.0.7) date 01/16/18 14:15:25*
G01G01*
G04 APERTURE LIST*
G04 APERTURE END LIST*
D27*
D28*
X0001622913Y0000600708D02*
X0001402440Y0000600708D01*
X0001402440Y0000600708D02*
X0001402440Y0000262125D01*
X0001402440Y0000262125D02*
X0001622913Y0000262125D01*
X0001622913Y0000262125D02*
X0001622913Y0000600708D01*
X0001158346Y0000203858D02*
X0001378818Y0000203858D01*
X0001378818Y0000203858D02*
X0001378818Y0000680236D01*
X0001378818Y0000680236D02*
X0001158346Y0000680236D01*
X0001158346Y0000680236D02*
X0001158346Y0000203858D01*
X0001809921Y0000721181D02*
X0001809921Y0000179842D01*
X0001809921Y0000179842D02*
X0002296141Y0000179842D01*
X0002296141Y0000179842D02*
X0002296141Y0000721181D01*
X0002296141Y0000721181D02*
X0001809921Y0000721181D01*
X0000289842Y0000701496D02*
X0000624488Y0000701496D01*
X0000624488Y0000701496D02*
X0000624488Y0000465275D01*
X0000624488Y0000465275D02*
X0000289842Y0000465275D01*
X0000289842Y0000465275D02*
X0000289842Y0000701496D01*
X0000626377Y0000461417D02*
X0000285826Y0000461417D01*
X0000285826Y0000461417D02*
X0000285826Y0000219291D01*
X0000285826Y0000219291D02*
X0000626377Y0000219291D01*
X0000626377Y0000219291D02*
X0000626377Y0000461417D01*
X0001672519Y0000638503D02*
X0001739448Y0000638503D01*
X0001739448Y0000638503D02*
X0001739448Y0000484960D01*
X0001739448Y0000484960D02*
X0001672519Y0000484960D01*
X0001672519Y0000484960D02*
X0001672519Y0000638503D01*
X0001672519Y0000424724D02*
X0001739448Y0000424724D01*
X0001739448Y0000424724D02*
X0001739448Y0000271181D01*
X0001739448Y0000271181D02*
X0001672519Y0000271181D01*
X0001672519Y0000271181D02*
X0001672519Y0000424724D01*
X-0000017716Y0000633858D02*
X-0000017716Y0000287401D01*
X0000222440Y0000287401D02*
X-0000017716Y0000287401D01*
X0000222440Y0000633858D02*
X0000222440Y0000287401D01*
X-0000017716Y0000633858D02*
X0000222440Y0000633858D01*
G04 next file*
G04 Gerber Fmt 4.6, Leading zero omitted, Abs format (unit mm)*
G04 Created by KiCad (PCBNEW 4.0.7) date 01/16/18 14:15:25*
G01G01*
G04 APERTURE LIST*
G04 APERTURE END LIST*
D29*
G04 next file*
G04 Gerber Fmt 4.6, Leading zero omitted, Abs format (unit mm)*
G04 Created by KiCad (PCBNEW 4.0.7) date 01/16/18 14:15:25*
G01G01*
G04 APERTURE LIST*
G04 APERTURE END LIST*
D30*
D31*
X0000068897Y0001131889D02*
X0000167322Y0001131889D01*
X0000068897Y0001131889D02*
X0000068897Y0001187007D01*
X0000167322Y0001187007D02*
X0000167322Y0001131889D01*
X0000167322Y0001187007D02*
X0000068897Y0001187007D01*
X0001210708Y0001302677D02*
X0001320944Y0001302677D01*
X0001210708Y0001302677D02*
X0001210708Y0001353858D01*
X0001320944Y0001353858D02*
X0001320944Y0001302677D01*
X0001320944Y0001353858D02*
X0001210708Y0001353858D01*
X0001334330Y0001293622D02*
X0001334330Y0001183385D01*
X0001334330Y0001293622D02*
X0001385511Y0001293622D01*
X0001385511Y0001183385D02*
X0001334330Y0001183385D01*
X0001385511Y0001183385D02*
X0001385511Y0001293622D01*
X0001801259Y0001181417D02*
X0001801259Y0001291653D01*
X0001801259Y0001181417D02*
X0001750078Y0001181417D01*
X0001750078Y0001291653D02*
X0001801259Y0001291653D01*
X0001750078Y0001291653D02*
X0001750078Y0001181417D01*
X0000280787Y0001581811D02*
X0000170551Y0001581811D01*
X0000280787Y0001581811D02*
X0000280787Y0001530629D01*
X0000170551Y0001530629D02*
X0000170551Y0001581811D01*
X0000170551Y0001530629D02*
X0000280787Y0001530629D01*
X0000602834Y0001528267D02*
X0000713070Y0001528267D01*
X0000602834Y0001528267D02*
X0000602834Y0001579448D01*
X0000713070Y0001579448D02*
X0000713070Y0001528267D01*
X0000713070Y0001579448D02*
X0000602834Y0001579448D01*
X0000638267Y0001289291D02*
X0000638267Y0001190866D01*
X0000638267Y0001289291D02*
X0000693385Y0001289291D01*
X0000693385Y0001190866D02*
X0000638267Y0001190866D01*
X0000693385Y0001190866D02*
X0000693385Y0001289291D01*
X0000757559Y0001185354D02*
X0000757559Y0001295590D01*
X0000757559Y0001185354D02*
X0000706377Y0001185354D01*
X0000706377Y0001295590D02*
X0000757559Y0001295590D01*
X0000706377Y0001295590D02*
X0000706377Y0001185354D01*
X0000770944Y0001295196D02*
X0000770944Y0001184960D01*
X0000770944Y0001295196D02*
X0000822125Y0001295196D01*
X0000822125Y0001184960D02*
X0000770944Y0001184960D01*
X0000822125Y0001184960D02*
X0000822125Y0001295196D01*
X0000834724Y0001171968D02*
X0000984330Y0001171968D01*
X0000984330Y0001171968D02*
X0000984330Y0001313700D01*
X0000984330Y0001313700D02*
X0000834724Y0001313700D01*
X0000834724Y0001313700D02*
X0000834724Y0001171968D01*
X0001009133Y0001296377D02*
X0001009133Y0001186141D01*
X0001009133Y0001296377D02*
X0001060314Y0001296377D01*
X0001060314Y0001186141D02*
X0001009133Y0001186141D01*
X0001060314Y0001186141D02*
X0001060314Y0001296377D01*
X0001077637Y0001295984D02*
X0001077637Y0001185748D01*
X0001077637Y0001295984D02*
X0001128818Y0001295984D01*
X0001128818Y0001185748D02*
X0001077637Y0001185748D01*
X0001128818Y0001185748D02*
X0001128818Y0001295984D01*
X0001154015Y0001289291D02*
X0001154015Y0001190866D01*
X0001154015Y0001289291D02*
X0001209133Y0001289291D01*
X0001209133Y0001190866D02*
X0001154015Y0001190866D01*
X0001209133Y0001190866D02*
X0001209133Y0001289291D01*
X0001554803Y0001286929D02*
X0001554803Y0001188503D01*
X0001554803Y0001286929D02*
X0001609921Y0001286929D01*
X0001609921Y0001188503D02*
X0001554803Y0001188503D01*
X0001609921Y0001188503D02*
X0001609921Y0001286929D01*
X0001736299Y0001182204D02*
X0001736299Y0001292440D01*
X0001736299Y0001182204D02*
X0001685118Y0001182204D01*
X0001685118Y0001292440D02*
X0001736299Y0001292440D01*
X0001685118Y0001292440D02*
X0001685118Y0001182204D01*
X0001596062Y0001488188D02*
X0001596062Y0001389763D01*
X0001596062Y0001488188D02*
X0001651181Y0001488188D01*
X0001651181Y0001389763D02*
X0001596062Y0001389763D01*
X0001651181Y0001389763D02*
X0001651181Y0001488188D01*
X0001502047Y0001388897D02*
X0001502047Y0001499133D01*
X0001502047Y0001388897D02*
X0001450866Y0001388897D01*
X0001450866Y0001499133D02*
X0001502047Y0001499133D01*
X0001450866Y0001499133D02*
X0001450866Y0001388897D01*
X0001376062Y0001499921D02*
X0001376062Y0001389685D01*
X0001376062Y0001499921D02*
X0001427244Y0001499921D01*
X0001427244Y0001389685D02*
X0001376062Y0001389685D01*
X0001427244Y0001389685D02*
X0001427244Y0001499921D01*
X0001307952Y0001499921D02*
X0001307952Y0001389685D01*
X0001307952Y0001499921D02*
X0001359133Y0001499921D01*
X0001359133Y0001389685D02*
X0001307952Y0001389685D01*
X0001359133Y0001389685D02*
X0001359133Y0001499921D01*
X0001211889Y0001394015D02*
X0001211889Y0001492440D01*
X0001211889Y0001394015D02*
X0001156771Y0001394015D01*
X0001156771Y0001492440D02*
X0001211889Y0001492440D01*
X0001156771Y0001492440D02*
X0001156771Y0001394015D01*
X0001118976Y0001389685D02*
X0001118976Y0001499921D01*
X0001118976Y0001389685D02*
X0001067795Y0001389685D01*
X0001067795Y0001499921D02*
X0001118976Y0001499921D01*
X0001067795Y0001499921D02*
X0001067795Y0001389685D01*
X0000836299Y0001390078D02*
X0000836299Y0001500314D01*
X0000836299Y0001390078D02*
X0000785118Y0001390078D01*
X0000785118Y0001500314D02*
X0000836299Y0001500314D01*
X0000785118Y0001500314D02*
X0000785118Y0001390078D01*
X0001044960Y0001390078D02*
X0001044960Y0001500314D01*
X0001044960Y0001390078D02*
X0000993779Y0001390078D01*
X0000993779Y0001500314D02*
X0001044960Y0001500314D01*
X0000993779Y0001500314D02*
X0000993779Y0001390078D01*
X0000904409Y0001389291D02*
X0000904409Y0001499527D01*
X0000904409Y0001389291D02*
X0000853228Y0001389291D01*
X0000853228Y0001499527D02*
X0000904409Y0001499527D01*
X0000853228Y0001499527D02*
X0000853228Y0001389291D01*
X0000978425Y0001390472D02*
X0000978425Y0001500708D01*
X0000978425Y0001390472D02*
X0000927244Y0001390472D01*
X0000927244Y0001500708D02*
X0000978425Y0001500708D01*
X0000927244Y0001500708D02*
X0000927244Y0001390472D01*
X0000711496Y0001495196D02*
X0000711496Y0001396771D01*
X0000711496Y0001495196D02*
X0000766614Y0001495196D01*
X0000766614Y0001396771D02*
X0000711496Y0001396771D01*
X0000766614Y0001396771D02*
X0000766614Y0001495196D01*
X0000536220Y0001582283D02*
X0000437795Y0001582283D01*
X0000536220Y0001582283D02*
X0000536220Y0001527165D01*
X0000437795Y0001527165D02*
X0000437795Y0001582283D01*
X0000437795Y0001527165D02*
X0000536220Y0001527165D01*
X0000428425Y0001511338D02*
X0000578031Y0001511338D01*
X0000428425Y0001369606D02*
X0000428425Y0001511338D01*
X0000578031Y0001369606D02*
X0000428425Y0001369606D01*
X0000578031Y0001511338D02*
X0000578031Y0001369606D01*
X0000391811Y0001438897D02*
X0000293385Y0001438897D01*
X0000391811Y0001438897D02*
X0000391811Y0001383779D01*
X0000293385Y0001383779D02*
X0000293385Y0001438897D01*
X0000293385Y0001383779D02*
X0000391811Y0001383779D01*
X0000391811Y0001514094D02*
X0000293385Y0001514094D01*
X0000391811Y0001514094D02*
X0000391811Y0001458976D01*
X0000293385Y0001458976D02*
X0000293385Y0001514094D01*
X0000293385Y0001458976D02*
X0000391811Y0001458976D01*
X0000057559Y0001409763D02*
X0000057559Y0001311338D01*
X0000057559Y0001409763D02*
X0000112677Y0001409763D01*
X0000112677Y0001311338D02*
X0000057559Y0001311338D01*
X0000112677Y0001311338D02*
X0000112677Y0001409763D01*
X0002045354Y0000984960D02*
X0000004015Y0000984960D01*
X0000004015Y0000984960D02*
X0000004015Y0001126692D01*
X0000004015Y0001126692D02*
X0002045354Y0001126692D01*
X0002045354Y0001126692D02*
X0002045354Y0000984960D01*
X0002045354Y0001595196D02*
X0000004015Y0001595196D01*
X0000004015Y0001595196D02*
X0000004015Y0001736929D01*
X0000004015Y0001736929D02*
X0002045354Y0001736929D01*
X0002045354Y0001736929D02*
X0002045354Y0001595196D01*
X0001575275Y0001388897D02*
X0001575275Y0001499133D01*
X0001575275Y0001388897D02*
X0001524094Y0001388897D01*
X0001524094Y0001499133D02*
X0001575275Y0001499133D01*
X0001524094Y0001499133D02*
X0001524094Y0001388897D01*
G04 next file*
G04 Gerber Fmt 4.6, Leading zero omitted, Abs format (unit mm)*
G04 Created by KiCad (PCBNEW 4.0.7) date 01/16/18 14:15:25*
G01G01*
G04 APERTURE LIST*
G04 APERTURE END LIST*
D32*
G04 next file*
G04 Gerber Fmt 4.6, Leading zero omitted, Abs format (unit mm)*
G04 Created by KiCad (PCBNEW 4.0.7) date 01/16/18 14:15:25*
G01G01*
G04 APERTURE LIST*
G04 APERTURE END LIST*
D33*
G04 next file*
G04 Gerber Fmt 4.6, Leading zero omitted, Abs format (unit mm)*
G04 Created by KiCad (PCBNEW 4.0.7) date 01/16/18 14:15:25*
G01G01*
G04 APERTURE LIST*
G04 APERTURE END LIST*
D34*
D35*
X-0000097694Y0001602924D02*
X-0000094881Y0001600112D01*
X-0000092069Y0001594488D01*
X-0000092069Y0001580427D01*
X-0000094881Y0001574803D01*
X-0000097694Y0001571990D01*
X-0000103318Y0001569178D01*
X-0000108942Y0001569178D01*
X-0000117379Y0001571990D01*
X-0000151124Y0001605736D01*
X-0000151124Y0001569178D01*
X-0000092069Y0001549493D02*
X-0000092069Y0001512935D01*
X-0000114566Y0001532620D01*
X-0000114566Y0001524184D01*
X-0000117379Y0001518560D01*
X-0000120191Y0001515747D01*
X-0000125815Y0001512935D01*
X-0000139876Y0001512935D01*
X-0000145500Y0001515747D01*
X-0000148312Y0001518560D01*
X-0000151124Y0001524184D01*
X-0000151124Y0001541057D01*
X-0000148312Y0001546681D01*
X-0000145500Y0001549493D01*
X-0000145500Y0001487626D02*
X-0000148312Y0001484814D01*
X-0000151124Y0001487626D01*
X-0000148312Y0001490438D01*
X-0000145500Y0001487626D01*
X-0000151124Y0001487626D01*
X-0000092069Y0001448256D02*
X-0000092069Y0001442632D01*
X-0000094881Y0001437007D01*
X-0000097694Y0001434195D01*
X-0000103318Y0001431383D01*
X-0000114566Y0001428571D01*
X-0000128627Y0001428571D01*
X-0000139876Y0001431383D01*
X-0000145500Y0001434195D01*
X-0000148312Y0001437007D01*
X-0000151124Y0001442632D01*
X-0000151124Y0001448256D01*
X-0000148312Y0001453880D01*
X-0000145500Y0001456692D01*
X-0000139876Y0001459505D01*
X-0000128627Y0001462317D01*
X-0000114566Y0001462317D01*
X-0000103318Y0001459505D01*
X-0000097694Y0001456692D01*
X-0000094881Y0001453880D01*
X-0000092069Y0001448256D01*
X-0000092069Y0001392013D02*
X-0000092069Y0001386389D01*
X-0000094881Y0001380764D01*
X-0000097694Y0001377952D01*
X-0000103318Y0001375140D01*
X-0000114566Y0001372328D01*
X-0000128627Y0001372328D01*
X-0000139876Y0001375140D01*
X-0000145500Y0001377952D01*
X-0000148312Y0001380764D01*
X-0000151124Y0001386389D01*
X-0000151124Y0001392013D01*
X-0000148312Y0001397637D01*
X-0000145500Y0001400449D01*
X-0000139876Y0001403262D01*
X-0000128627Y0001406074D01*
X-0000114566Y0001406074D01*
X-0000103318Y0001403262D01*
X-0000097694Y0001400449D01*
X-0000094881Y0001397637D01*
X-0000092069Y0001392013D01*
X-0000092069Y0001335770D02*
X-0000092069Y0001330146D01*
X-0000094881Y0001324521D01*
X-0000097694Y0001321709D01*
X-0000103318Y0001318897D01*
X-0000114566Y0001316085D01*
X-0000128627Y0001316085D01*
X-0000139876Y0001318897D01*
X-0000145500Y0001321709D01*
X-0000148312Y0001324521D01*
X-0000151124Y0001330146D01*
X-0000151124Y0001335770D01*
X-0000148312Y0001341394D01*
X-0000145500Y0001344207D01*
X-0000139876Y0001347019D01*
X-0000128627Y0001349831D01*
X-0000114566Y0001349831D01*
X-0000103318Y0001347019D01*
X-0000097694Y0001344207D01*
X-0000094881Y0001341394D01*
X-0000092069Y0001335770D01*
X-0000151124Y0001245781D02*
X-0000111754Y0001245781D01*
X-0000117379Y0001245781D02*
X-0000114566Y0001242969D01*
X-0000111754Y0001237345D01*
X-0000111754Y0001228908D01*
X-0000114566Y0001223284D01*
X-0000120191Y0001220472D01*
X-0000151124Y0001220472D01*
X-0000120191Y0001220472D02*
X-0000114566Y0001217660D01*
X-0000111754Y0001212036D01*
X-0000111754Y0001203599D01*
X-0000114566Y0001197975D01*
X-0000120191Y0001195163D01*
X-0000151124Y0001195163D01*
X-0000151124Y0001167041D02*
X-0000111754Y0001167041D01*
X-0000117379Y0001167041D02*
X-0000114566Y0001164229D01*
X-0000111754Y0001158605D01*
X-0000111754Y0001150168D01*
X-0000114566Y0001144544D01*
X-0000120191Y0001141732D01*
X-0000151124Y0001141732D01*
X-0000120191Y0001141732D02*
X-0000114566Y0001138920D01*
X-0000111754Y0001133295D01*
X-0000111754Y0001124859D01*
X-0000114566Y0001119235D01*
X-0000120191Y0001116422D01*
X-0000151124Y0001116422D01*
X-0000071259Y0001811023D02*
X-0000071259Y0000905511D01*
X0000000000Y0001811023D02*
X-0000177559Y0001811023D01*
X0000000000Y0000905511D02*
X-0000177559Y0000905511D01*
X-0000071259Y0000905511D02*
X-0000094347Y0000949862D01*
X-0000071259Y0000905511D02*
X-0000048172Y0000949862D01*
X-0000071259Y0001811023D02*
X-0000094347Y0001766673D01*
X-0000071259Y0001811023D02*
X-0000048172Y0001766673D01*
X0000809976Y0001965244D02*
X0000781854Y0001965222D01*
X0000779064Y0001937098D01*
X0000781874Y0001939913D01*
X0000787496Y0001942729D01*
X0000801557Y0001942740D01*
X0000807183Y0001939932D01*
X0000809997Y0001937122D01*
X0000812814Y0001931500D01*
X0000812825Y0001917439D01*
X0000810017Y0001911813D01*
X0000807207Y0001908999D01*
X0000801585Y0001906182D01*
X0000787524Y0001906171D01*
X0000781898Y0001908979D01*
X0000779083Y0001911789D01*
X0000835290Y0001959639D02*
X0000838100Y0001962453D01*
X0000843722Y0001965270D01*
X0000857782Y0001965280D01*
X0000863409Y0001962473D01*
X0000866223Y0001959663D01*
X0000869040Y0001954040D01*
X0000869044Y0001948416D01*
X0000866238Y0001939978D01*
X0000832518Y0001906206D01*
X0000869076Y0001906234D01*
X0000894381Y0001911878D02*
X0000897196Y0001909068D01*
X0000894386Y0001906253D01*
X0000891571Y0001909063D01*
X0000894381Y0001911878D01*
X0000894386Y0001906253D01*
X0000933710Y0001965339D02*
X0000939335Y0001965343D01*
X0000944961Y0001962535D01*
X0000947775Y0001959725D01*
X0000950592Y0001954103D01*
X0000953413Y0001942857D01*
X0000953423Y0001928796D01*
X0000950620Y0001917545D01*
X0000947812Y0001911919D01*
X0000945002Y0001909105D01*
X0000939380Y0001906288D01*
X0000933756Y0001906284D01*
X0000928129Y0001909092D01*
X0000925315Y0001911902D01*
X0000922499Y0001917524D01*
X0000919678Y0001928770D01*
X0000919667Y0001942831D01*
X0000922470Y0001954082D01*
X0000925278Y0001959708D01*
X0000928088Y0001962522D01*
X0000933710Y0001965339D01*
X0001009684Y0001906342D02*
X0000975938Y0001906316D01*
X0000992811Y0001906329D02*
X0000992765Y0001965384D01*
X0000987148Y0001956943D01*
X0000981528Y0001951315D01*
X0000975905Y0001948498D01*
X0001046196Y0001965425D02*
X0001051820Y0001965430D01*
X0001057447Y0001962622D01*
X0001060261Y0001959812D01*
X0001063078Y0001954190D01*
X0001065899Y0001942943D01*
X0001065909Y0001928883D01*
X0001063106Y0001917632D01*
X0001060298Y0001912005D01*
X0001057488Y0001909191D01*
X0001051866Y0001906375D01*
X0001046242Y0001906370D01*
X0001040615Y0001909178D01*
X0001037801Y0001911988D01*
X0001034984Y0001917610D01*
X0001032164Y0001928857D01*
X0001032153Y0001942917D01*
X0001034956Y0001954168D01*
X0001037764Y0001959795D01*
X0001040574Y0001962609D01*
X0001046196Y0001965425D01*
X0001136230Y0001906439D02*
X0001136200Y0001945810D01*
X0001136204Y0001940185D02*
X0001139014Y0001943000D01*
X0001144637Y0001945816D01*
X0001153073Y0001945822D01*
X0001158699Y0001943015D01*
X0001161516Y0001937393D01*
X0001161540Y0001906459D01*
X0001161516Y0001937393D02*
X0001164324Y0001943019D01*
X0001169946Y0001945835D01*
X0001178382Y0001945842D01*
X0001184009Y0001943034D01*
X0001186825Y0001937412D01*
X0001186849Y0001906478D01*
X0001214970Y0001906500D02*
X0001214940Y0001945870D01*
X0001214945Y0001940246D02*
X0001217754Y0001943060D01*
X0001223377Y0001945877D01*
X0001231813Y0001945883D01*
X0001237440Y0001943075D01*
X0001240256Y0001937453D01*
X0001240280Y0001906519D01*
X0001240256Y0001937453D02*
X0001243064Y0001943080D01*
X0001248686Y0001945896D01*
X0001257122Y0001945902D01*
X0001262749Y0001943095D01*
X0001265565Y0001937473D01*
X0001265589Y0001906539D01*
X-0000000053Y0001879131D02*
X0002047584Y0001880706D01*
X0000000000Y0001809448D02*
X-0000000135Y0001985430D01*
X0002047637Y0001811023D02*
X0002047502Y0001987005D01*
X0002047584Y0001880706D02*
X0002003251Y0001857585D01*
X0002047584Y0001880706D02*
X0002003215Y0001903759D01*
X-0000000053Y0001879131D02*
X0000044314Y0001856078D01*
X-0000000053Y0001879131D02*
X0000044279Y0001902253D01*
G04 next file*
G04 Gerber Fmt 4.6, Leading zero omitted, Abs format (unit mm)*
G04 Created by KiCad (PCBNEW 4.0.7) date 01/16/18 14:15:25*
G01G01*
G04 APERTURE LIST*
G04 APERTURE END LIST*
D36*
G04 next file*
G04 Gerber Fmt 4.6, Leading zero omitted, Abs format (unit mm)*
G04 Created by KiCad (PCBNEW 4.0.7) date 01/16/18 14:15:25*
G01G01*
G04 APERTURE LIST*
G04 APERTURE END LIST*
D37*
D38*
X0001622913Y0001506220D02*
X0001402440Y0001506220D01*
X0001402440Y0001506220D02*
X0001402440Y0001167637D01*
X0001402440Y0001167637D02*
X0001622913Y0001167637D01*
X0001622913Y0001167637D02*
X0001622913Y0001506220D01*
X0001158346Y0001109370D02*
X0001378818Y0001109370D01*
X0001378818Y0001109370D02*
X0001378818Y0001585748D01*
X0001378818Y0001585748D02*
X0001158346Y0001585748D01*
X0001158346Y0001585748D02*
X0001158346Y0001109370D01*
X0001809921Y0001626692D02*
X0001809921Y0001085354D01*
X0001809921Y0001085354D02*
X0002296141Y0001085354D01*
X0002296141Y0001085354D02*
X0002296141Y0001626692D01*
X0002296141Y0001626692D02*
X0001809921Y0001626692D01*
X0000289842Y0001607007D02*
X0000624488Y0001607007D01*
X0000624488Y0001607007D02*
X0000624488Y0001370787D01*
X0000624488Y0001370787D02*
X0000289842Y0001370787D01*
X0000289842Y0001370787D02*
X0000289842Y0001607007D01*
X0000626377Y0001366929D02*
X0000285826Y0001366929D01*
X0000285826Y0001366929D02*
X0000285826Y0001124803D01*
X0000285826Y0001124803D02*
X0000626377Y0001124803D01*
X0000626377Y0001124803D02*
X0000626377Y0001366929D01*
X0001672519Y0001544015D02*
X0001739448Y0001544015D01*
X0001739448Y0001544015D02*
X0001739448Y0001390472D01*
X0001739448Y0001390472D02*
X0001672519Y0001390472D01*
X0001672519Y0001390472D02*
X0001672519Y0001544015D01*
X0001672519Y0001330236D02*
X0001739448Y0001330236D01*
X0001739448Y0001330236D02*
X0001739448Y0001176692D01*
X0001739448Y0001176692D02*
X0001672519Y0001176692D01*
X0001672519Y0001176692D02*
X0001672519Y0001330236D01*
X-0000017716Y0001539370D02*
X-0000017716Y0001192913D01*
X0000222440Y0001192913D02*
X-0000017716Y0001192913D01*
X0000222440Y0001539370D02*
X0000222440Y0001192913D01*
X-0000017716Y0001539370D02*
X0000222440Y0001539370D01*
G04 next file*
G04 Gerber Fmt 4.6, Leading zero omitted, Abs format (unit mm)*
G04 Created by KiCad (PCBNEW 4.0.7) date 01/16/18 14:15:25*
G01G01*
G04 APERTURE LIST*
G04 APERTURE END LIST*
D39*
G04 next file*
G04 Gerber Fmt 4.6, Leading zero omitted, Abs format (unit mm)*
G04 Created by KiCad (PCBNEW 4.0.7) date 01/16/18 14:15:25*
G01G01*
G04 APERTURE LIST*
G04 APERTURE END LIST*
D40*
D41*
X0000068897Y0002037401D02*
X0000167322Y0002037401D01*
X0000068897Y0002037401D02*
X0000068897Y0002092519D01*
X0000167322Y0002092519D02*
X0000167322Y0002037401D01*
X0000167322Y0002092519D02*
X0000068897Y0002092519D01*
X0001210708Y0002208188D02*
X0001320944Y0002208188D01*
X0001210708Y0002208188D02*
X0001210708Y0002259370D01*
X0001320944Y0002259370D02*
X0001320944Y0002208188D01*
X0001320944Y0002259370D02*
X0001210708Y0002259370D01*
X0001334330Y0002199133D02*
X0001334330Y0002088897D01*
X0001334330Y0002199133D02*
X0001385511Y0002199133D01*
X0001385511Y0002088897D02*
X0001334330Y0002088897D01*
X0001385511Y0002088897D02*
X0001385511Y0002199133D01*
X0001801259Y0002086929D02*
X0001801259Y0002197165D01*
X0001801259Y0002086929D02*
X0001750078Y0002086929D01*
X0001750078Y0002197165D02*
X0001801259Y0002197165D01*
X0001750078Y0002197165D02*
X0001750078Y0002086929D01*
X0000280787Y0002487322D02*
X0000170551Y0002487322D01*
X0000280787Y0002487322D02*
X0000280787Y0002436141D01*
X0000170551Y0002436141D02*
X0000170551Y0002487322D01*
X0000170551Y0002436141D02*
X0000280787Y0002436141D01*
X0000602834Y0002433779D02*
X0000713070Y0002433779D01*
X0000602834Y0002433779D02*
X0000602834Y0002484960D01*
X0000713070Y0002484960D02*
X0000713070Y0002433779D01*
X0000713070Y0002484960D02*
X0000602834Y0002484960D01*
X0000638267Y0002194803D02*
X0000638267Y0002096377D01*
X0000638267Y0002194803D02*
X0000693385Y0002194803D01*
X0000693385Y0002096377D02*
X0000638267Y0002096377D01*
X0000693385Y0002096377D02*
X0000693385Y0002194803D01*
X0000757559Y0002090866D02*
X0000757559Y0002201102D01*
X0000757559Y0002090866D02*
X0000706377Y0002090866D01*
X0000706377Y0002201102D02*
X0000757559Y0002201102D01*
X0000706377Y0002201102D02*
X0000706377Y0002090866D01*
X0000770944Y0002200708D02*
X0000770944Y0002090472D01*
X0000770944Y0002200708D02*
X0000822125Y0002200708D01*
X0000822125Y0002090472D02*
X0000770944Y0002090472D01*
X0000822125Y0002090472D02*
X0000822125Y0002200708D01*
X0000834724Y0002077480D02*
X0000984330Y0002077480D01*
X0000984330Y0002077480D02*
X0000984330Y0002219212D01*
X0000984330Y0002219212D02*
X0000834724Y0002219212D01*
X0000834724Y0002219212D02*
X0000834724Y0002077480D01*
X0001009133Y0002201889D02*
X0001009133Y0002091653D01*
X0001009133Y0002201889D02*
X0001060314Y0002201889D01*
X0001060314Y0002091653D02*
X0001009133Y0002091653D01*
X0001060314Y0002091653D02*
X0001060314Y0002201889D01*
X0001077637Y0002201496D02*
X0001077637Y0002091259D01*
X0001077637Y0002201496D02*
X0001128818Y0002201496D01*
X0001128818Y0002091259D02*
X0001077637Y0002091259D01*
X0001128818Y0002091259D02*
X0001128818Y0002201496D01*
X0001154015Y0002194803D02*
X0001154015Y0002096377D01*
X0001154015Y0002194803D02*
X0001209133Y0002194803D01*
X0001209133Y0002096377D02*
X0001154015Y0002096377D01*
X0001209133Y0002096377D02*
X0001209133Y0002194803D01*
X0001554803Y0002192440D02*
X0001554803Y0002094015D01*
X0001554803Y0002192440D02*
X0001609921Y0002192440D01*
X0001609921Y0002094015D02*
X0001554803Y0002094015D01*
X0001609921Y0002094015D02*
X0001609921Y0002192440D01*
X0001736299Y0002087716D02*
X0001736299Y0002197952D01*
X0001736299Y0002087716D02*
X0001685118Y0002087716D01*
X0001685118Y0002197952D02*
X0001736299Y0002197952D01*
X0001685118Y0002197952D02*
X0001685118Y0002087716D01*
X0001596062Y0002393700D02*
X0001596062Y0002295275D01*
X0001596062Y0002393700D02*
X0001651181Y0002393700D01*
X0001651181Y0002295275D02*
X0001596062Y0002295275D01*
X0001651181Y0002295275D02*
X0001651181Y0002393700D01*
X0001502047Y0002294409D02*
X0001502047Y0002404645D01*
X0001502047Y0002294409D02*
X0001450866Y0002294409D01*
X0001450866Y0002404645D02*
X0001502047Y0002404645D01*
X0001450866Y0002404645D02*
X0001450866Y0002294409D01*
X0001376062Y0002405433D02*
X0001376062Y0002295196D01*
X0001376062Y0002405433D02*
X0001427244Y0002405433D01*
X0001427244Y0002295196D02*
X0001376062Y0002295196D01*
X0001427244Y0002295196D02*
X0001427244Y0002405433D01*
X0001307952Y0002405433D02*
X0001307952Y0002295196D01*
X0001307952Y0002405433D02*
X0001359133Y0002405433D01*
X0001359133Y0002295196D02*
X0001307952Y0002295196D01*
X0001359133Y0002295196D02*
X0001359133Y0002405433D01*
X0001211889Y0002299527D02*
X0001211889Y0002397952D01*
X0001211889Y0002299527D02*
X0001156771Y0002299527D01*
X0001156771Y0002397952D02*
X0001211889Y0002397952D01*
X0001156771Y0002397952D02*
X0001156771Y0002299527D01*
X0001118976Y0002295196D02*
X0001118976Y0002405433D01*
X0001118976Y0002295196D02*
X0001067795Y0002295196D01*
X0001067795Y0002405433D02*
X0001118976Y0002405433D01*
X0001067795Y0002405433D02*
X0001067795Y0002295196D01*
X0000836299Y0002295590D02*
X0000836299Y0002405826D01*
X0000836299Y0002295590D02*
X0000785118Y0002295590D01*
X0000785118Y0002405826D02*
X0000836299Y0002405826D01*
X0000785118Y0002405826D02*
X0000785118Y0002295590D01*
X0001044960Y0002295590D02*
X0001044960Y0002405826D01*
X0001044960Y0002295590D02*
X0000993779Y0002295590D01*
X0000993779Y0002405826D02*
X0001044960Y0002405826D01*
X0000993779Y0002405826D02*
X0000993779Y0002295590D01*
X0000904409Y0002294803D02*
X0000904409Y0002405039D01*
X0000904409Y0002294803D02*
X0000853228Y0002294803D01*
X0000853228Y0002405039D02*
X0000904409Y0002405039D01*
X0000853228Y0002405039D02*
X0000853228Y0002294803D01*
X0000978425Y0002295984D02*
X0000978425Y0002406220D01*
X0000978425Y0002295984D02*
X0000927244Y0002295984D01*
X0000927244Y0002406220D02*
X0000978425Y0002406220D01*
X0000927244Y0002406220D02*
X0000927244Y0002295984D01*
X0000711496Y0002400708D02*
X0000711496Y0002302283D01*
X0000711496Y0002400708D02*
X0000766614Y0002400708D01*
X0000766614Y0002302283D02*
X0000711496Y0002302283D01*
X0000766614Y0002302283D02*
X0000766614Y0002400708D01*
X0000536220Y0002487795D02*
X0000437795Y0002487795D01*
X0000536220Y0002487795D02*
X0000536220Y0002432677D01*
X0000437795Y0002432677D02*
X0000437795Y0002487795D01*
X0000437795Y0002432677D02*
X0000536220Y0002432677D01*
X0000428425Y0002416850D02*
X0000578031Y0002416850D01*
X0000428425Y0002275118D02*
X0000428425Y0002416850D01*
X0000578031Y0002275118D02*
X0000428425Y0002275118D01*
X0000578031Y0002416850D02*
X0000578031Y0002275118D01*
X0000391811Y0002344409D02*
X0000293385Y0002344409D01*
X0000391811Y0002344409D02*
X0000391811Y0002289291D01*
X0000293385Y0002289291D02*
X0000293385Y0002344409D01*
X0000293385Y0002289291D02*
X0000391811Y0002289291D01*
X0000391811Y0002419606D02*
X0000293385Y0002419606D01*
X0000391811Y0002419606D02*
X0000391811Y0002364488D01*
X0000293385Y0002364488D02*
X0000293385Y0002419606D01*
X0000293385Y0002364488D02*
X0000391811Y0002364488D01*
X0000057559Y0002315275D02*
X0000057559Y0002216850D01*
X0000057559Y0002315275D02*
X0000112677Y0002315275D01*
X0000112677Y0002216850D02*
X0000057559Y0002216850D01*
X0000112677Y0002216850D02*
X0000112677Y0002315275D01*
X0002045354Y0001890472D02*
X0000004015Y0001890472D01*
X0000004015Y0001890472D02*
X0000004015Y0002032204D01*
X0000004015Y0002032204D02*
X0002045354Y0002032204D01*
X0002045354Y0002032204D02*
X0002045354Y0001890472D01*
X0002045354Y0002500708D02*
X0000004015Y0002500708D01*
X0000004015Y0002500708D02*
X0000004015Y0002642440D01*
X0000004015Y0002642440D02*
X0002045354Y0002642440D01*
X0002045354Y0002642440D02*
X0002045354Y0002500708D01*
X0001575275Y0002294409D02*
X0001575275Y0002404645D01*
X0001575275Y0002294409D02*
X0001524094Y0002294409D01*
X0001524094Y0002404645D02*
X0001575275Y0002404645D01*
X0001524094Y0002404645D02*
X0001524094Y0002294409D01*
G04 next file*
G04 Gerber Fmt 4.6, Leading zero omitted, Abs format (unit mm)*
G04 Created by KiCad (PCBNEW 4.0.7) date 01/16/18 14:15:25*
G01G01*
G04 APERTURE LIST*
G04 APERTURE END LIST*
D42*
G04 next file*
G04 Gerber Fmt 4.6, Leading zero omitted, Abs format (unit mm)*
G04 Created by KiCad (PCBNEW 4.0.7) date 01/16/18 14:15:25*
G01G01*
G04 APERTURE LIST*
G04 APERTURE END LIST*
D43*
G04 next file*
G04 Gerber Fmt 4.6, Leading zero omitted, Abs format (unit mm)*
G04 Created by KiCad (PCBNEW 4.0.7) date 01/16/18 14:15:25*
G01G01*
G04 APERTURE LIST*
G04 APERTURE END LIST*
D44*
D45*
X-0000097694Y0002508436D02*
X-0000094881Y0002505624D01*
X-0000092069Y0002499999D01*
X-0000092069Y0002485939D01*
X-0000094881Y0002480314D01*
X-0000097694Y0002477502D01*
X-0000103318Y0002474690D01*
X-0000108942Y0002474690D01*
X-0000117379Y0002477502D01*
X-0000151124Y0002511248D01*
X-0000151124Y0002474690D01*
X-0000092069Y0002455005D02*
X-0000092069Y0002418447D01*
X-0000114566Y0002438132D01*
X-0000114566Y0002429696D01*
X-0000117379Y0002424071D01*
X-0000120191Y0002421259D01*
X-0000125815Y0002418447D01*
X-0000139876Y0002418447D01*
X-0000145500Y0002421259D01*
X-0000148312Y0002424071D01*
X-0000151124Y0002429696D01*
X-0000151124Y0002446569D01*
X-0000148312Y0002452193D01*
X-0000145500Y0002455005D01*
X-0000145500Y0002393138D02*
X-0000148312Y0002390326D01*
X-0000151124Y0002393138D01*
X-0000148312Y0002395950D01*
X-0000145500Y0002393138D01*
X-0000151124Y0002393138D01*
X-0000092069Y0002353768D02*
X-0000092069Y0002348143D01*
X-0000094881Y0002342519D01*
X-0000097694Y0002339707D01*
X-0000103318Y0002336895D01*
X-0000114566Y0002334083D01*
X-0000128627Y0002334083D01*
X-0000139876Y0002336895D01*
X-0000145500Y0002339707D01*
X-0000148312Y0002342519D01*
X-0000151124Y0002348143D01*
X-0000151124Y0002353768D01*
X-0000148312Y0002359392D01*
X-0000145500Y0002362204D01*
X-0000139876Y0002365016D01*
X-0000128627Y0002367829D01*
X-0000114566Y0002367829D01*
X-0000103318Y0002365016D01*
X-0000097694Y0002362204D01*
X-0000094881Y0002359392D01*
X-0000092069Y0002353768D01*
X-0000092069Y0002297525D02*
X-0000092069Y0002291901D01*
X-0000094881Y0002286276D01*
X-0000097694Y0002283464D01*
X-0000103318Y0002280652D01*
X-0000114566Y0002277840D01*
X-0000128627Y0002277840D01*
X-0000139876Y0002280652D01*
X-0000145500Y0002283464D01*
X-0000148312Y0002286276D01*
X-0000151124Y0002291901D01*
X-0000151124Y0002297525D01*
X-0000148312Y0002303149D01*
X-0000145500Y0002305961D01*
X-0000139876Y0002308773D01*
X-0000128627Y0002311586D01*
X-0000114566Y0002311586D01*
X-0000103318Y0002308773D01*
X-0000097694Y0002305961D01*
X-0000094881Y0002303149D01*
X-0000092069Y0002297525D01*
X-0000092069Y0002241282D02*
X-0000092069Y0002235658D01*
X-0000094881Y0002230033D01*
X-0000097694Y0002227221D01*
X-0000103318Y0002224409D01*
X-0000114566Y0002221597D01*
X-0000128627Y0002221597D01*
X-0000139876Y0002224409D01*
X-0000145500Y0002227221D01*
X-0000148312Y0002230033D01*
X-0000151124Y0002235658D01*
X-0000151124Y0002241282D01*
X-0000148312Y0002246906D01*
X-0000145500Y0002249718D01*
X-0000139876Y0002252530D01*
X-0000128627Y0002255343D01*
X-0000114566Y0002255343D01*
X-0000103318Y0002252530D01*
X-0000097694Y0002249718D01*
X-0000094881Y0002246906D01*
X-0000092069Y0002241282D01*
X-0000151124Y0002151293D02*
X-0000111754Y0002151293D01*
X-0000117379Y0002151293D02*
X-0000114566Y0002148481D01*
X-0000111754Y0002142857D01*
X-0000111754Y0002134420D01*
X-0000114566Y0002128796D01*
X-0000120191Y0002125984D01*
X-0000151124Y0002125984D01*
X-0000120191Y0002125984D02*
X-0000114566Y0002123172D01*
X-0000111754Y0002117547D01*
X-0000111754Y0002109111D01*
X-0000114566Y0002103487D01*
X-0000120191Y0002100674D01*
X-0000151124Y0002100674D01*
X-0000151124Y0002072553D02*
X-0000111754Y0002072553D01*
X-0000117379Y0002072553D02*
X-0000114566Y0002069741D01*
X-0000111754Y0002064117D01*
X-0000111754Y0002055680D01*
X-0000114566Y0002050056D01*
X-0000120191Y0002047244D01*
X-0000151124Y0002047244D01*
X-0000120191Y0002047244D02*
X-0000114566Y0002044431D01*
X-0000111754Y0002038807D01*
X-0000111754Y0002030371D01*
X-0000114566Y0002024746D01*
X-0000120191Y0002021934D01*
X-0000151124Y0002021934D01*
X-0000071259Y0002716535D02*
X-0000071259Y0001811023D01*
X0000000000Y0002716535D02*
X-0000177559Y0002716535D01*
X0000000000Y0001811023D02*
X-0000177559Y0001811023D01*
X-0000071259Y0001811023D02*
X-0000094347Y0001855374D01*
X-0000071259Y0001811023D02*
X-0000048172Y0001855374D01*
X-0000071259Y0002716535D02*
X-0000094347Y0002672184D01*
X-0000071259Y0002716535D02*
X-0000048172Y0002672184D01*
X0000809976Y0002870755D02*
X0000781854Y0002870734D01*
X0000779064Y0002842610D01*
X0000781874Y0002845425D01*
X0000787496Y0002848241D01*
X0000801557Y0002848252D01*
X0000807183Y0002845444D01*
X0000809997Y0002842634D01*
X0000812814Y0002837012D01*
X0000812825Y0002822951D01*
X0000810017Y0002817325D01*
X0000807207Y0002814510D01*
X0000801585Y0002811694D01*
X0000787524Y0002811683D01*
X0000781898Y0002814491D01*
X0000779083Y0002817301D01*
X0000835290Y0002865151D02*
X0000838100Y0002867965D01*
X0000843722Y0002870781D01*
X0000857782Y0002870792D01*
X0000863409Y0002867984D01*
X0000866223Y0002865174D01*
X0000869040Y0002859552D01*
X0000869044Y0002853928D01*
X0000866238Y0002845489D01*
X0000832518Y0002811718D01*
X0000869076Y0002811746D01*
X0000894381Y0002817390D02*
X0000897196Y0002814580D01*
X0000894386Y0002811765D01*
X0000891571Y0002814575D01*
X0000894381Y0002817390D01*
X0000894386Y0002811765D01*
X0000933710Y0002870851D02*
X0000939335Y0002870855D01*
X0000944961Y0002868047D01*
X0000947775Y0002865237D01*
X0000950592Y0002859615D01*
X0000953413Y0002848369D01*
X0000953423Y0002834308D01*
X0000950620Y0002823057D01*
X0000947812Y0002817431D01*
X0000945002Y0002814616D01*
X0000939380Y0002811800D01*
X0000933756Y0002811796D01*
X0000928129Y0002814603D01*
X0000925315Y0002817413D01*
X0000922499Y0002823035D01*
X0000919678Y0002834282D01*
X0000919667Y0002848343D01*
X0000922470Y0002859593D01*
X0000925278Y0002865220D01*
X0000928088Y0002868034D01*
X0000933710Y0002870851D01*
X0001009684Y0002811854D02*
X0000975938Y0002811828D01*
X0000992811Y0002811841D02*
X0000992765Y0002870896D01*
X0000987148Y0002862455D01*
X0000981528Y0002856827D01*
X0000975905Y0002854010D01*
X0001046196Y0002870937D02*
X0001051820Y0002870941D01*
X0001057447Y0002868134D01*
X0001060261Y0002865324D01*
X0001063078Y0002859702D01*
X0001065899Y0002848455D01*
X0001065909Y0002834394D01*
X0001063106Y0002823144D01*
X0001060298Y0002817517D01*
X0001057488Y0002814703D01*
X0001051866Y0002811886D01*
X0001046242Y0002811882D01*
X0001040615Y0002814690D01*
X0001037801Y0002817500D01*
X0001034984Y0002823122D01*
X0001032164Y0002834368D01*
X0001032153Y0002848429D01*
X0001034956Y0002859680D01*
X0001037764Y0002865306D01*
X0001040574Y0002868121D01*
X0001046196Y0002870937D01*
X0001136230Y0002811951D02*
X0001136200Y0002851321D01*
X0001136204Y0002845697D02*
X0001139014Y0002848511D01*
X0001144637Y0002851328D01*
X0001153073Y0002851334D01*
X0001158699Y0002848526D01*
X0001161516Y0002842904D01*
X0001161540Y0002811971D01*
X0001161516Y0002842904D02*
X0001164324Y0002848531D01*
X0001169946Y0002851347D01*
X0001178382Y0002851354D01*
X0001184009Y0002848546D01*
X0001186825Y0002842924D01*
X0001186849Y0002811990D01*
X0001214970Y0002812012D02*
X0001214940Y0002851382D01*
X0001214945Y0002845758D02*
X0001217754Y0002848572D01*
X0001223377Y0002851388D01*
X0001231813Y0002851395D01*
X0001237440Y0002848587D01*
X0001240256Y0002842965D01*
X0001240280Y0002812031D01*
X0001240256Y0002842965D02*
X0001243064Y0002848591D01*
X0001248686Y0002851408D01*
X0001257122Y0002851414D01*
X0001262749Y0002848606D01*
X0001265565Y0002842984D01*
X0001265589Y0002812051D01*
X-0000000053Y0002784643D02*
X0002047584Y0002786218D01*
X0000000000Y0002714960D02*
X-0000000135Y0002890942D01*
X0002047637Y0002716535D02*
X0002047502Y0002892517D01*
X0002047584Y0002786218D02*
X0002003251Y0002763096D01*
X0002047584Y0002786218D02*
X0002003215Y0002809271D01*
X-0000000053Y0002784643D02*
X0000044314Y0002761590D01*
X-0000000053Y0002784643D02*
X0000044279Y0002807765D01*
G04 next file*
G04 Gerber Fmt 4.6, Leading zero omitted, Abs format (unit mm)*
G04 Created by KiCad (PCBNEW 4.0.7) date 01/16/18 14:15:25*
G01G01*
G04 APERTURE LIST*
G04 APERTURE END LIST*
D46*
G04 next file*
G04 Gerber Fmt 4.6, Leading zero omitted, Abs format (unit mm)*
G04 Created by KiCad (PCBNEW 4.0.7) date 01/16/18 14:15:25*
G01G01*
G04 APERTURE LIST*
G04 APERTURE END LIST*
D47*
D48*
X0001622913Y0002411732D02*
X0001402440Y0002411732D01*
X0001402440Y0002411732D02*
X0001402440Y0002073149D01*
X0001402440Y0002073149D02*
X0001622913Y0002073149D01*
X0001622913Y0002073149D02*
X0001622913Y0002411732D01*
X0001158346Y0002014881D02*
X0001378818Y0002014881D01*
X0001378818Y0002014881D02*
X0001378818Y0002491259D01*
X0001378818Y0002491259D02*
X0001158346Y0002491259D01*
X0001158346Y0002491259D02*
X0001158346Y0002014881D01*
X0001809921Y0002532204D02*
X0001809921Y0001990866D01*
X0001809921Y0001990866D02*
X0002296141Y0001990866D01*
X0002296141Y0001990866D02*
X0002296141Y0002532204D01*
X0002296141Y0002532204D02*
X0001809921Y0002532204D01*
X0000289842Y0002512519D02*
X0000624488Y0002512519D01*
X0000624488Y0002512519D02*
X0000624488Y0002276299D01*
X0000624488Y0002276299D02*
X0000289842Y0002276299D01*
X0000289842Y0002276299D02*
X0000289842Y0002512519D01*
X0000626377Y0002272440D02*
X0000285826Y0002272440D01*
X0000285826Y0002272440D02*
X0000285826Y0002030314D01*
X0000285826Y0002030314D02*
X0000626377Y0002030314D01*
X0000626377Y0002030314D02*
X0000626377Y0002272440D01*
X0001672519Y0002449527D02*
X0001739448Y0002449527D01*
X0001739448Y0002449527D02*
X0001739448Y0002295984D01*
X0001739448Y0002295984D02*
X0001672519Y0002295984D01*
X0001672519Y0002295984D02*
X0001672519Y0002449527D01*
X0001672519Y0002235748D02*
X0001739448Y0002235748D01*
X0001739448Y0002235748D02*
X0001739448Y0002082204D01*
X0001739448Y0002082204D02*
X0001672519Y0002082204D01*
X0001672519Y0002082204D02*
X0001672519Y0002235748D01*
X-0000017716Y0002444881D02*
X-0000017716Y0002098425D01*
X0000222440Y0002098425D02*
X-0000017716Y0002098425D01*
X0000222440Y0002444881D02*
X0000222440Y0002098425D01*
X-0000017716Y0002444881D02*
X0000222440Y0002444881D01*
G04 next file*
G04 Gerber Fmt 4.6, Leading zero omitted, Abs format (unit mm)*
G04 Created by KiCad (PCBNEW 4.0.7) date 01/16/18 14:15:25*
G01G01*
G04 APERTURE LIST*
G04 APERTURE END LIST*
D49*
G04 next file*
G04 Gerber Fmt 4.6, Leading zero omitted, Abs format (unit mm)*
G04 Created by KiCad (PCBNEW 4.0.7) date 01/16/18 14:15:25*
G01G01*
G04 APERTURE LIST*
G04 APERTURE END LIST*
D50*
D51*
X0000068897Y0002942913D02*
X0000167322Y0002942913D01*
X0000068897Y0002942913D02*
X0000068897Y0002998031D01*
X0000167322Y0002998031D02*
X0000167322Y0002942913D01*
X0000167322Y0002998031D02*
X0000068897Y0002998031D01*
X0001210708Y0003113700D02*
X0001320944Y0003113700D01*
X0001210708Y0003113700D02*
X0001210708Y0003164881D01*
X0001320944Y0003164881D02*
X0001320944Y0003113700D01*
X0001320944Y0003164881D02*
X0001210708Y0003164881D01*
X0001334330Y0003104645D02*
X0001334330Y0002994409D01*
X0001334330Y0003104645D02*
X0001385511Y0003104645D01*
X0001385511Y0002994409D02*
X0001334330Y0002994409D01*
X0001385511Y0002994409D02*
X0001385511Y0003104645D01*
X0001801259Y0002992440D02*
X0001801259Y0003102677D01*
X0001801259Y0002992440D02*
X0001750078Y0002992440D01*
X0001750078Y0003102677D02*
X0001801259Y0003102677D01*
X0001750078Y0003102677D02*
X0001750078Y0002992440D01*
X0000280787Y0003392834D02*
X0000170551Y0003392834D01*
X0000280787Y0003392834D02*
X0000280787Y0003341653D01*
X0000170551Y0003341653D02*
X0000170551Y0003392834D01*
X0000170551Y0003341653D02*
X0000280787Y0003341653D01*
X0000602834Y0003339291D02*
X0000713070Y0003339291D01*
X0000602834Y0003339291D02*
X0000602834Y0003390472D01*
X0000713070Y0003390472D02*
X0000713070Y0003339291D01*
X0000713070Y0003390472D02*
X0000602834Y0003390472D01*
X0000638267Y0003100314D02*
X0000638267Y0003001889D01*
X0000638267Y0003100314D02*
X0000693385Y0003100314D01*
X0000693385Y0003001889D02*
X0000638267Y0003001889D01*
X0000693385Y0003001889D02*
X0000693385Y0003100314D01*
X0000757559Y0002996377D02*
X0000757559Y0003106614D01*
X0000757559Y0002996377D02*
X0000706377Y0002996377D01*
X0000706377Y0003106614D02*
X0000757559Y0003106614D01*
X0000706377Y0003106614D02*
X0000706377Y0002996377D01*
X0000770944Y0003106220D02*
X0000770944Y0002995984D01*
X0000770944Y0003106220D02*
X0000822125Y0003106220D01*
X0000822125Y0002995984D02*
X0000770944Y0002995984D01*
X0000822125Y0002995984D02*
X0000822125Y0003106220D01*
X0000834724Y0002982992D02*
X0000984330Y0002982992D01*
X0000984330Y0002982992D02*
X0000984330Y0003124724D01*
X0000984330Y0003124724D02*
X0000834724Y0003124724D01*
X0000834724Y0003124724D02*
X0000834724Y0002982992D01*
X0001009133Y0003107401D02*
X0001009133Y0002997165D01*
X0001009133Y0003107401D02*
X0001060314Y0003107401D01*
X0001060314Y0002997165D02*
X0001009133Y0002997165D01*
X0001060314Y0002997165D02*
X0001060314Y0003107401D01*
X0001077637Y0003107007D02*
X0001077637Y0002996771D01*
X0001077637Y0003107007D02*
X0001128818Y0003107007D01*
X0001128818Y0002996771D02*
X0001077637Y0002996771D01*
X0001128818Y0002996771D02*
X0001128818Y0003107007D01*
X0001154015Y0003100314D02*
X0001154015Y0003001889D01*
X0001154015Y0003100314D02*
X0001209133Y0003100314D01*
X0001209133Y0003001889D02*
X0001154015Y0003001889D01*
X0001209133Y0003001889D02*
X0001209133Y0003100314D01*
X0001554803Y0003097952D02*
X0001554803Y0002999527D01*
X0001554803Y0003097952D02*
X0001609921Y0003097952D01*
X0001609921Y0002999527D02*
X0001554803Y0002999527D01*
X0001609921Y0002999527D02*
X0001609921Y0003097952D01*
X0001736299Y0002993228D02*
X0001736299Y0003103464D01*
X0001736299Y0002993228D02*
X0001685118Y0002993228D01*
X0001685118Y0003103464D02*
X0001736299Y0003103464D01*
X0001685118Y0003103464D02*
X0001685118Y0002993228D01*
X0001596062Y0003299212D02*
X0001596062Y0003200787D01*
X0001596062Y0003299212D02*
X0001651181Y0003299212D01*
X0001651181Y0003200787D02*
X0001596062Y0003200787D01*
X0001651181Y0003200787D02*
X0001651181Y0003299212D01*
X0001502047Y0003199921D02*
X0001502047Y0003310157D01*
X0001502047Y0003199921D02*
X0001450866Y0003199921D01*
X0001450866Y0003310157D02*
X0001502047Y0003310157D01*
X0001450866Y0003310157D02*
X0001450866Y0003199921D01*
X0001376062Y0003310944D02*
X0001376062Y0003200708D01*
X0001376062Y0003310944D02*
X0001427244Y0003310944D01*
X0001427244Y0003200708D02*
X0001376062Y0003200708D01*
X0001427244Y0003200708D02*
X0001427244Y0003310944D01*
X0001307952Y0003310944D02*
X0001307952Y0003200708D01*
X0001307952Y0003310944D02*
X0001359133Y0003310944D01*
X0001359133Y0003200708D02*
X0001307952Y0003200708D01*
X0001359133Y0003200708D02*
X0001359133Y0003310944D01*
X0001211889Y0003205039D02*
X0001211889Y0003303464D01*
X0001211889Y0003205039D02*
X0001156771Y0003205039D01*
X0001156771Y0003303464D02*
X0001211889Y0003303464D01*
X0001156771Y0003303464D02*
X0001156771Y0003205039D01*
X0001118976Y0003200708D02*
X0001118976Y0003310944D01*
X0001118976Y0003200708D02*
X0001067795Y0003200708D01*
X0001067795Y0003310944D02*
X0001118976Y0003310944D01*
X0001067795Y0003310944D02*
X0001067795Y0003200708D01*
X0000836299Y0003201102D02*
X0000836299Y0003311338D01*
X0000836299Y0003201102D02*
X0000785118Y0003201102D01*
X0000785118Y0003311338D02*
X0000836299Y0003311338D01*
X0000785118Y0003311338D02*
X0000785118Y0003201102D01*
X0001044960Y0003201102D02*
X0001044960Y0003311338D01*
X0001044960Y0003201102D02*
X0000993779Y0003201102D01*
X0000993779Y0003311338D02*
X0001044960Y0003311338D01*
X0000993779Y0003311338D02*
X0000993779Y0003201102D01*
X0000904409Y0003200314D02*
X0000904409Y0003310551D01*
X0000904409Y0003200314D02*
X0000853228Y0003200314D01*
X0000853228Y0003310551D02*
X0000904409Y0003310551D01*
X0000853228Y0003310551D02*
X0000853228Y0003200314D01*
X0000978425Y0003201496D02*
X0000978425Y0003311732D01*
X0000978425Y0003201496D02*
X0000927244Y0003201496D01*
X0000927244Y0003311732D02*
X0000978425Y0003311732D01*
X0000927244Y0003311732D02*
X0000927244Y0003201496D01*
X0000711496Y0003306220D02*
X0000711496Y0003207795D01*
X0000711496Y0003306220D02*
X0000766614Y0003306220D01*
X0000766614Y0003207795D02*
X0000711496Y0003207795D01*
X0000766614Y0003207795D02*
X0000766614Y0003306220D01*
X0000536220Y0003393307D02*
X0000437795Y0003393307D01*
X0000536220Y0003393307D02*
X0000536220Y0003338188D01*
X0000437795Y0003338188D02*
X0000437795Y0003393307D01*
X0000437795Y0003338188D02*
X0000536220Y0003338188D01*
X0000428425Y0003322362D02*
X0000578031Y0003322362D01*
X0000428425Y0003180629D02*
X0000428425Y0003322362D01*
X0000578031Y0003180629D02*
X0000428425Y0003180629D01*
X0000578031Y0003322362D02*
X0000578031Y0003180629D01*
X0000391811Y0003249921D02*
X0000293385Y0003249921D01*
X0000391811Y0003249921D02*
X0000391811Y0003194803D01*
X0000293385Y0003194803D02*
X0000293385Y0003249921D01*
X0000293385Y0003194803D02*
X0000391811Y0003194803D01*
X0000391811Y0003325118D02*
X0000293385Y0003325118D01*
X0000391811Y0003325118D02*
X0000391811Y0003270000D01*
X0000293385Y0003270000D02*
X0000293385Y0003325118D01*
X0000293385Y0003270000D02*
X0000391811Y0003270000D01*
X0000057559Y0003220787D02*
X0000057559Y0003122362D01*
X0000057559Y0003220787D02*
X0000112677Y0003220787D01*
X0000112677Y0003122362D02*
X0000057559Y0003122362D01*
X0000112677Y0003122362D02*
X0000112677Y0003220787D01*
X0002045354Y0002795984D02*
X0000004015Y0002795984D01*
X0000004015Y0002795984D02*
X0000004015Y0002937716D01*
X0000004015Y0002937716D02*
X0002045354Y0002937716D01*
X0002045354Y0002937716D02*
X0002045354Y0002795984D01*
X0002045354Y0003406220D02*
X0000004015Y0003406220D01*
X0000004015Y0003406220D02*
X0000004015Y0003547952D01*
X0000004015Y0003547952D02*
X0002045354Y0003547952D01*
X0002045354Y0003547952D02*
X0002045354Y0003406220D01*
X0001575275Y0003199921D02*
X0001575275Y0003310157D01*
X0001575275Y0003199921D02*
X0001524094Y0003199921D01*
X0001524094Y0003310157D02*
X0001575275Y0003310157D01*
X0001524094Y0003310157D02*
X0001524094Y0003199921D01*
G04 next file*
G04 Gerber Fmt 4.6, Leading zero omitted, Abs format (unit mm)*
G04 Created by KiCad (PCBNEW 4.0.7) date 01/16/18 14:15:25*
G01G01*
G04 APERTURE LIST*
G04 APERTURE END LIST*
D52*
G04 next file*
G04 Gerber Fmt 4.6, Leading zero omitted, Abs format (unit mm)*
G04 Created by KiCad (PCBNEW 4.0.7) date 01/16/18 14:15:25*
G01G01*
G04 APERTURE LIST*
G04 APERTURE END LIST*
D53*
G04 next file*
G04 Gerber Fmt 4.6, Leading zero omitted, Abs format (unit mm)*
G04 Created by KiCad (PCBNEW 4.0.7) date 01/16/18 14:15:25*
G01G01*
G04 APERTURE LIST*
G04 APERTURE END LIST*
D54*
D55*
X-0000097694Y0003413948D02*
X-0000094881Y0003411136D01*
X-0000092069Y0003405511D01*
X-0000092069Y0003391451D01*
X-0000094881Y0003385826D01*
X-0000097694Y0003383014D01*
X-0000103318Y0003380202D01*
X-0000108942Y0003380202D01*
X-0000117379Y0003383014D01*
X-0000151124Y0003416760D01*
X-0000151124Y0003380202D01*
X-0000092069Y0003360517D02*
X-0000092069Y0003323959D01*
X-0000114566Y0003343644D01*
X-0000114566Y0003335208D01*
X-0000117379Y0003329583D01*
X-0000120191Y0003326771D01*
X-0000125815Y0003323959D01*
X-0000139876Y0003323959D01*
X-0000145500Y0003326771D01*
X-0000148312Y0003329583D01*
X-0000151124Y0003335208D01*
X-0000151124Y0003352080D01*
X-0000148312Y0003357705D01*
X-0000145500Y0003360517D01*
X-0000145500Y0003298650D02*
X-0000148312Y0003295838D01*
X-0000151124Y0003298650D01*
X-0000148312Y0003301462D01*
X-0000145500Y0003298650D01*
X-0000151124Y0003298650D01*
X-0000092069Y0003259280D02*
X-0000092069Y0003253655D01*
X-0000094881Y0003248031D01*
X-0000097694Y0003245219D01*
X-0000103318Y0003242407D01*
X-0000114566Y0003239595D01*
X-0000128627Y0003239595D01*
X-0000139876Y0003242407D01*
X-0000145500Y0003245219D01*
X-0000148312Y0003248031D01*
X-0000151124Y0003253655D01*
X-0000151124Y0003259280D01*
X-0000148312Y0003264904D01*
X-0000145500Y0003267716D01*
X-0000139876Y0003270528D01*
X-0000128627Y0003273340D01*
X-0000114566Y0003273340D01*
X-0000103318Y0003270528D01*
X-0000097694Y0003267716D01*
X-0000094881Y0003264904D01*
X-0000092069Y0003259280D01*
X-0000092069Y0003203037D02*
X-0000092069Y0003197412D01*
X-0000094881Y0003191788D01*
X-0000097694Y0003188976D01*
X-0000103318Y0003186164D01*
X-0000114566Y0003183352D01*
X-0000128627Y0003183352D01*
X-0000139876Y0003186164D01*
X-0000145500Y0003188976D01*
X-0000148312Y0003191788D01*
X-0000151124Y0003197412D01*
X-0000151124Y0003203037D01*
X-0000148312Y0003208661D01*
X-0000145500Y0003211473D01*
X-0000139876Y0003214285D01*
X-0000128627Y0003217097D01*
X-0000114566Y0003217097D01*
X-0000103318Y0003214285D01*
X-0000097694Y0003211473D01*
X-0000094881Y0003208661D01*
X-0000092069Y0003203037D01*
X-0000092069Y0003146794D02*
X-0000092069Y0003141169D01*
X-0000094881Y0003135545D01*
X-0000097694Y0003132733D01*
X-0000103318Y0003129921D01*
X-0000114566Y0003127109D01*
X-0000128627Y0003127109D01*
X-0000139876Y0003129921D01*
X-0000145500Y0003132733D01*
X-0000148312Y0003135545D01*
X-0000151124Y0003141169D01*
X-0000151124Y0003146794D01*
X-0000148312Y0003152418D01*
X-0000145500Y0003155230D01*
X-0000139876Y0003158042D01*
X-0000128627Y0003160854D01*
X-0000114566Y0003160854D01*
X-0000103318Y0003158042D01*
X-0000097694Y0003155230D01*
X-0000094881Y0003152418D01*
X-0000092069Y0003146794D01*
X-0000151124Y0003056805D02*
X-0000111754Y0003056805D01*
X-0000117379Y0003056805D02*
X-0000114566Y0003053993D01*
X-0000111754Y0003048368D01*
X-0000111754Y0003039932D01*
X-0000114566Y0003034308D01*
X-0000120191Y0003031496D01*
X-0000151124Y0003031496D01*
X-0000120191Y0003031496D02*
X-0000114566Y0003028683D01*
X-0000111754Y0003023059D01*
X-0000111754Y0003014623D01*
X-0000114566Y0003008998D01*
X-0000120191Y0003006186D01*
X-0000151124Y0003006186D01*
X-0000151124Y0002978065D02*
X-0000111754Y0002978065D01*
X-0000117379Y0002978065D02*
X-0000114566Y0002975253D01*
X-0000111754Y0002969628D01*
X-0000111754Y0002961192D01*
X-0000114566Y0002955568D01*
X-0000120191Y0002952755D01*
X-0000151124Y0002952755D01*
X-0000120191Y0002952755D02*
X-0000114566Y0002949943D01*
X-0000111754Y0002944319D01*
X-0000111754Y0002935883D01*
X-0000114566Y0002930258D01*
X-0000120191Y0002927446D01*
X-0000151124Y0002927446D01*
X-0000071259Y0003622047D02*
X-0000071259Y0002716535D01*
X0000000000Y0003622047D02*
X-0000177559Y0003622047D01*
X0000000000Y0002716535D02*
X-0000177559Y0002716535D01*
X-0000071259Y0002716535D02*
X-0000094347Y0002760885D01*
X-0000071259Y0002716535D02*
X-0000048172Y0002760885D01*
X-0000071259Y0003622047D02*
X-0000094347Y0003577696D01*
X-0000071259Y0003622047D02*
X-0000048172Y0003577696D01*
X0000809976Y0003776267D02*
X0000781854Y0003776246D01*
X0000779064Y0003748122D01*
X0000781874Y0003750936D01*
X0000787496Y0003753753D01*
X0000801557Y0003753764D01*
X0000807183Y0003750956D01*
X0000809997Y0003748146D01*
X0000812814Y0003742524D01*
X0000812825Y0003728463D01*
X0000810017Y0003722836D01*
X0000807207Y0003720022D01*
X0000801585Y0003717206D01*
X0000787524Y0003717195D01*
X0000781898Y0003720003D01*
X0000779083Y0003722813D01*
X0000835290Y0003770662D02*
X0000838100Y0003773477D01*
X0000843722Y0003776293D01*
X0000857782Y0003776304D01*
X0000863409Y0003773496D01*
X0000866223Y0003770686D01*
X0000869040Y0003765064D01*
X0000869044Y0003759440D01*
X0000866238Y0003751001D01*
X0000832518Y0003717230D01*
X0000869076Y0003717258D01*
X0000894381Y0003722901D02*
X0000897196Y0003720091D01*
X0000894386Y0003717277D01*
X0000891571Y0003720087D01*
X0000894381Y0003722901D01*
X0000894386Y0003717277D01*
X0000933710Y0003776362D02*
X0000939335Y0003776367D01*
X0000944961Y0003773559D01*
X0000947775Y0003770749D01*
X0000950592Y0003765127D01*
X0000953413Y0003753880D01*
X0000953423Y0003739820D01*
X0000950620Y0003728569D01*
X0000947812Y0003722942D01*
X0000945002Y0003720128D01*
X0000939380Y0003717312D01*
X0000933756Y0003717307D01*
X0000928129Y0003720115D01*
X0000925315Y0003722925D01*
X0000922499Y0003728547D01*
X0000919678Y0003739794D01*
X0000919667Y0003753854D01*
X0000922470Y0003765105D01*
X0000925278Y0003770732D01*
X0000928088Y0003773546D01*
X0000933710Y0003776362D01*
X0001009684Y0003717366D02*
X0000975938Y0003717340D01*
X0000992811Y0003717353D02*
X0000992765Y0003776408D01*
X0000987148Y0003767967D01*
X0000981528Y0003762338D01*
X0000975905Y0003759522D01*
X0001046196Y0003776449D02*
X0001051820Y0003776453D01*
X0001057447Y0003773645D01*
X0001060261Y0003770835D01*
X0001063078Y0003765213D01*
X0001065899Y0003753967D01*
X0001065909Y0003739906D01*
X0001063106Y0003728655D01*
X0001060298Y0003723029D01*
X0001057488Y0003720215D01*
X0001051866Y0003717398D01*
X0001046242Y0003717394D01*
X0001040615Y0003720202D01*
X0001037801Y0003723012D01*
X0001034984Y0003728634D01*
X0001032164Y0003739880D01*
X0001032153Y0003753941D01*
X0001034956Y0003765192D01*
X0001037764Y0003770818D01*
X0001040574Y0003773632D01*
X0001046196Y0003776449D01*
X0001136230Y0003717463D02*
X0001136200Y0003756833D01*
X0001136204Y0003751209D02*
X0001139014Y0003754023D01*
X0001144637Y0003756840D01*
X0001153073Y0003756846D01*
X0001158699Y0003754038D01*
X0001161516Y0003748416D01*
X0001161540Y0003717483D01*
X0001161516Y0003748416D02*
X0001164324Y0003754043D01*
X0001169946Y0003756859D01*
X0001178382Y0003756866D01*
X0001184009Y0003754058D01*
X0001186825Y0003748436D01*
X0001186849Y0003717502D01*
X0001214970Y0003717524D02*
X0001214940Y0003756894D01*
X0001214945Y0003751269D02*
X0001217754Y0003754084D01*
X0001223377Y0003756900D01*
X0001231813Y0003756907D01*
X0001237440Y0003754099D01*
X0001240256Y0003748477D01*
X0001240280Y0003717543D01*
X0001240256Y0003748477D02*
X0001243064Y0003754103D01*
X0001248686Y0003756920D01*
X0001257122Y0003756926D01*
X0001262749Y0003754118D01*
X0001265565Y0003748496D01*
X0001265589Y0003717563D01*
X-0000000053Y0003690155D02*
X0002047584Y0003691730D01*
X0000000000Y0003620472D02*
X-0000000135Y0003796454D01*
X0002047637Y0003622047D02*
X0002047502Y0003798029D01*
X0002047584Y0003691730D02*
X0002003251Y0003668608D01*
X0002047584Y0003691730D02*
X0002003215Y0003714783D01*
X-0000000053Y0003690155D02*
X0000044314Y0003667102D01*
X-0000000053Y0003690155D02*
X0000044279Y0003713276D01*
G04 next file*
G04 Gerber Fmt 4.6, Leading zero omitted, Abs format (unit mm)*
G04 Created by KiCad (PCBNEW 4.0.7) date 01/16/18 14:15:25*
G01G01*
G04 APERTURE LIST*
G04 APERTURE END LIST*
D56*
G04 next file*
G04 Gerber Fmt 4.6, Leading zero omitted, Abs format (unit mm)*
G04 Created by KiCad (PCBNEW 4.0.7) date 01/16/18 14:15:25*
G01G01*
G04 APERTURE LIST*
G04 APERTURE END LIST*
D57*
D58*
X0001622913Y0003317244D02*
X0001402440Y0003317244D01*
X0001402440Y0003317244D02*
X0001402440Y0002978661D01*
X0001402440Y0002978661D02*
X0001622913Y0002978661D01*
X0001622913Y0002978661D02*
X0001622913Y0003317244D01*
X0001158346Y0002920393D02*
X0001378818Y0002920393D01*
X0001378818Y0002920393D02*
X0001378818Y0003396771D01*
X0001378818Y0003396771D02*
X0001158346Y0003396771D01*
X0001158346Y0003396771D02*
X0001158346Y0002920393D01*
X0001809921Y0003437716D02*
X0001809921Y0002896377D01*
X0001809921Y0002896377D02*
X0002296141Y0002896377D01*
X0002296141Y0002896377D02*
X0002296141Y0003437716D01*
X0002296141Y0003437716D02*
X0001809921Y0003437716D01*
X0000289842Y0003418031D02*
X0000624488Y0003418031D01*
X0000624488Y0003418031D02*
X0000624488Y0003181811D01*
X0000624488Y0003181811D02*
X0000289842Y0003181811D01*
X0000289842Y0003181811D02*
X0000289842Y0003418031D01*
X0000626377Y0003177952D02*
X0000285826Y0003177952D01*
X0000285826Y0003177952D02*
X0000285826Y0002935826D01*
X0000285826Y0002935826D02*
X0000626377Y0002935826D01*
X0000626377Y0002935826D02*
X0000626377Y0003177952D01*
X0001672519Y0003355039D02*
X0001739448Y0003355039D01*
X0001739448Y0003355039D02*
X0001739448Y0003201496D01*
X0001739448Y0003201496D02*
X0001672519Y0003201496D01*
X0001672519Y0003201496D02*
X0001672519Y0003355039D01*
X0001672519Y0003141259D02*
X0001739448Y0003141259D01*
X0001739448Y0003141259D02*
X0001739448Y0002987716D01*
X0001739448Y0002987716D02*
X0001672519Y0002987716D01*
X0001672519Y0002987716D02*
X0001672519Y0003141259D01*
X-0000017716Y0003350393D02*
X-0000017716Y0003003937D01*
X0000222440Y0003003937D02*
X-0000017716Y0003003937D01*
X0000222440Y0003350393D02*
X0000222440Y0003003937D01*
X-0000017716Y0003350393D02*
X0000222440Y0003350393D01*
G04 next file*
G04 Gerber Fmt 4.6, Leading zero omitted, Abs format (unit mm)*
G04 Created by KiCad (PCBNEW 4.0.7) date 01/16/18 14:15:25*
G01G01*
G04 APERTURE LIST*
G04 APERTURE END LIST*
D59*
G04 next file*
G04 Gerber Fmt 4.6, Leading zero omitted, Abs format (unit mm)*
G04 Created by KiCad (PCBNEW 4.0.7) date 02/10/18 00:31:40*
G01G01*
G04 APERTURE LIST*
G04 APERTURE END LIST*
D60*
D61*
X0002585236Y0000338976D02*
X0002585236Y0000240551D01*
X0002585236Y0000338976D02*
X0002640354Y0000338976D01*
X0002640354Y0000240551D02*
X0002585236Y0000240551D01*
X0002640354Y0000240551D02*
X0002640354Y0000338976D01*
X0002972440Y0000247637D02*
X0002972440Y0000346062D01*
X0002972440Y0000247637D02*
X0002917322Y0000247637D01*
X0002917322Y0000346062D02*
X0002972440Y0000346062D01*
X0002917322Y0000346062D02*
X0002917322Y0000247637D01*
X0002807874Y0000341732D02*
X0002807874Y0000243307D01*
X0002807874Y0000341732D02*
X0002862992Y0000341732D01*
X0002862992Y0000243307D02*
X0002807874Y0000243307D01*
X0002862992Y0000243307D02*
X0002862992Y0000341732D01*
X0002742913Y0000624015D02*
X0002742913Y0000722440D01*
X0002742913Y0000624015D02*
X0002687795Y0000624015D01*
X0002687795Y0000722440D02*
X0002742913Y0000722440D01*
X0002687795Y0000722440D02*
X0002687795Y0000624015D01*
X0002705574Y0000372440D02*
X0002705574Y0000470866D01*
X0002705574Y0000372440D02*
X0002650456Y0000372440D01*
X0002650456Y0000470866D02*
X0002705574Y0000470866D01*
X0002650456Y0000470866D02*
X0002650456Y0000372440D01*
X0002715354Y0000231496D02*
X0002715354Y0000121259D01*
X0002715354Y0000231496D02*
X0002766535Y0000231496D01*
X0002766535Y0000121259D02*
X0002715354Y0000121259D01*
X0002766535Y0000121259D02*
X0002766535Y0000231496D01*
X0002992606Y0000366535D02*
X0002992606Y0000476771D01*
X0002992606Y0000366535D02*
X0002941425Y0000366535D01*
X0002941425Y0000476771D02*
X0002992606Y0000476771D01*
X0002941425Y0000476771D02*
X0002941425Y0000366535D01*
X0002875984Y0000618110D02*
X0002875984Y0000728346D01*
X0002875984Y0000618110D02*
X0002824803Y0000618110D01*
X0002824803Y0000728346D02*
X0002875984Y0000728346D01*
X0002824803Y0000728346D02*
X0002824803Y0000618110D01*
X0002631606Y0000364196D02*
X0002631606Y0000474433D01*
X0002631606Y0000364196D02*
X0002580425Y0000364196D01*
X0002580425Y0000474433D02*
X0002631606Y0000474433D01*
X0002580425Y0000474433D02*
X0002580425Y0000364196D01*
X0002420078Y0000118110D02*
X0002420078Y0000216535D01*
X0002420078Y0000118110D02*
X0002364960Y0000118110D01*
X0002364960Y0000216535D02*
X0002420078Y0000216535D01*
X0002364960Y0000216535D02*
X0002364960Y0000118110D01*
X0003030744Y0000210781D02*
X0003030744Y0000112356D01*
X0003030744Y0000210781D02*
X0003085862Y0000210781D01*
X0003085862Y0000112356D02*
X0003030744Y0000112356D01*
X0003085862Y0000112356D02*
X0003085862Y0000210781D01*
X0003000929Y0000111141D02*
X0003000929Y0000209566D01*
X0003000929Y0000111141D02*
X0002945811Y0000111141D01*
X0002945811Y0000209566D02*
X0003000929Y0000209566D01*
X0002945811Y0000209566D02*
X0002945811Y0000111141D01*
X0002345275Y0000117322D02*
X0002195669Y0000117322D01*
X0002345275Y0000259055D02*
X0002345275Y0000117322D01*
X0002195669Y0000259055D02*
X0002345275Y0000259055D01*
X0002195669Y0000117322D02*
X0002195669Y0000259055D01*
X0002755511Y0000722440D02*
X0002755511Y0000624015D01*
X0002755511Y0000722440D02*
X0002810629Y0000722440D01*
X0002810629Y0000624015D02*
X0002755511Y0000624015D01*
X0002810629Y0000624015D02*
X0002810629Y0000722440D01*
X0002718456Y0000470866D02*
X0002718456Y0000372440D01*
X0002718456Y0000470866D02*
X0002773574Y0000470866D01*
X0002773574Y0000372440D02*
X0002718456Y0000372440D01*
X0002773574Y0000372440D02*
X0002773574Y0000470866D01*
X0002838574Y0000372440D02*
X0002838574Y0000470866D01*
X0002838574Y0000372440D02*
X0002783456Y0000372440D01*
X0002783456Y0000470866D02*
X0002838574Y0000470866D01*
X0002783456Y0000470866D02*
X0002783456Y0000372440D01*
X0002875196Y0000470866D02*
X0002875196Y0000372440D01*
X0002875196Y0000470866D02*
X0002930314Y0000470866D01*
X0002930314Y0000372440D02*
X0002875196Y0000372440D01*
X0002930314Y0000372440D02*
X0002930314Y0000470866D01*
X0002359692Y0000814433D02*
X0002359692Y0000716007D01*
X0002359692Y0000814433D02*
X0002414811Y0000814433D01*
X0002414811Y0000716007D02*
X0002359692Y0000716007D01*
X0002414811Y0000716007D02*
X0002414811Y0000814433D01*
X0002617322Y0000725196D02*
X0002617322Y0000626771D01*
X0002617322Y0000725196D02*
X0002672440Y0000725196D01*
X0002672440Y0000626771D02*
X0002617322Y0000626771D01*
X0002672440Y0000626771D02*
X0002672440Y0000725196D01*
X0002282811Y0000716007D02*
X0002282811Y0000814433D01*
X0002282811Y0000716007D02*
X0002227692Y0000716007D01*
X0002227692Y0000814433D02*
X0002282811Y0000814433D01*
X0002227692Y0000814433D02*
X0002227692Y0000716007D01*
X0002293692Y0000814433D02*
X0002293692Y0000716007D01*
X0002293692Y0000814433D02*
X0002348811Y0000814433D01*
X0002348811Y0000716007D02*
X0002293692Y0000716007D01*
X0002348811Y0000716007D02*
X0002348811Y0000814433D01*
X0002101574Y0000503937D02*
X0002101574Y0000405511D01*
X0002101574Y0000503937D02*
X0002156692Y0000503937D01*
X0002156692Y0000405511D02*
X0002101574Y0000405511D01*
X0002156692Y0000405511D02*
X0002156692Y0000503937D01*
X0002165354Y0000099409D02*
X0002066929Y0000099409D01*
X0002165354Y0000099409D02*
X0002165354Y0000044291D01*
X0002066929Y0000044291D02*
X0002066929Y0000099409D01*
X0002066929Y0000044291D02*
X0002165354Y0000044291D01*
X0002165354Y0000248031D02*
X0002066929Y0000248031D01*
X0002165354Y0000248031D02*
X0002165354Y0000192913D01*
X0002066929Y0000192913D02*
X0002066929Y0000248031D01*
X0002066929Y0000192913D02*
X0002165354Y0000192913D01*
X0002165354Y0000177165D02*
X0002066929Y0000177165D01*
X0002165354Y0000177165D02*
X0002165354Y0000122047D01*
X0002066929Y0000122047D02*
X0002066929Y0000177165D01*
X0002066929Y0000122047D02*
X0002165354Y0000122047D01*
X0002585236Y0000227937D02*
X0002585236Y0000129511D01*
X0002585236Y0000227937D02*
X0002640354Y0000227937D01*
X0002640354Y0000129511D02*
X0002585236Y0000129511D01*
X0002640354Y0000129511D02*
X0002640354Y0000227937D01*
X0002648236Y0000227937D02*
X0002648236Y0000129511D01*
X0002648236Y0000227937D02*
X0002703354Y0000227937D01*
X0002703354Y0000129511D02*
X0002648236Y0000129511D01*
X0002703354Y0000129511D02*
X0002703354Y0000227937D01*
X0002523236Y0000226936D02*
X0002523236Y0000128511D01*
X0002523236Y0000226936D02*
X0002578354Y0000226936D01*
X0002578354Y0000128511D02*
X0002523236Y0000128511D01*
X0002578354Y0000128511D02*
X0002578354Y0000226936D01*
X0002212598Y0000826771D02*
X0002078740Y0000826771D01*
X0002078740Y0000826771D02*
X0002078740Y0000688976D01*
X0002078740Y0000688976D02*
X0002212598Y0000688976D01*
X0002212598Y0000688976D02*
X0002212598Y0000826771D01*
X0002564566Y0000363779D02*
X0002564566Y0000474015D01*
X0002564566Y0000363779D02*
X0002513385Y0000363779D01*
X0002513385Y0000474015D02*
X0002564566Y0000474015D01*
X0002513385Y0000474015D02*
X0002513385Y0000363779D01*
X0002422937Y0000701275D02*
X0002312700Y0000701275D01*
X0002422937Y0000701275D02*
X0002422937Y0000650094D01*
X0002312700Y0000650094D02*
X0002312700Y0000701275D01*
X0002312700Y0000650094D02*
X0002422937Y0000650094D01*
X0002459055Y0000474409D02*
X0002459055Y0000364173D01*
X0002459055Y0000474409D02*
X0002510236Y0000474409D01*
X0002510236Y0000364173D02*
X0002459055Y0000364173D01*
X0002510236Y0000364173D02*
X0002510236Y0000474409D01*
X0002397637Y0000363779D02*
X0002397637Y0000474015D01*
X0002397637Y0000363779D02*
X0002346456Y0000363779D01*
X0002346456Y0000474015D02*
X0002397637Y0000474015D01*
X0002346456Y0000474015D02*
X0002346456Y0000363779D01*
X0002510385Y0000123606D02*
X0002510385Y0000233842D01*
X0002510385Y0000123606D02*
X0002459204Y0000123606D01*
X0002459204Y0000233842D02*
X0002510385Y0000233842D01*
X0002459204Y0000233842D02*
X0002459204Y0000123606D01*
X0002779133Y0000231496D02*
X0002779133Y0000121259D01*
X0002779133Y0000231496D02*
X0002830314Y0000231496D01*
X0002830314Y0000121259D02*
X0002779133Y0000121259D01*
X0002830314Y0000121259D02*
X0002830314Y0000231496D01*
X0002422937Y0000638275D02*
X0002312700Y0000638275D01*
X0002422937Y0000638275D02*
X0002422937Y0000587094D01*
X0002312700Y0000587094D02*
X0002312700Y0000638275D01*
X0002312700Y0000587094D02*
X0002422937Y0000587094D01*
X0002444094Y0000577559D02*
X0002593700Y0000577559D01*
X0002593700Y0000577559D02*
X0002593700Y0000719291D01*
X0002593700Y0000719291D02*
X0002444094Y0000719291D01*
X0002444094Y0000719291D02*
X0002444094Y0000577559D01*
G04 next file*
G04 Gerber Fmt 4.6, Leading zero omitted, Abs format (unit mm)*
G04 Created by KiCad (PCBNEW 4.0.7) date 02/10/18 00:31:40*
G01G01*
G04 APERTURE LIST*
G04 APERTURE END LIST*
D62*
G04 next file*
G04 Gerber Fmt 4.6, Leading zero omitted, Abs format (unit mm)*
G04 Created by KiCad (PCBNEW 4.0.7) date 02/10/18 00:31:40*
G01G01*
G04 APERTURE LIST*
G04 APERTURE END LIST*
D63*
D64*
X0002065991Y0000385264D02*
X0002046306Y0000385264D01*
X0002046306Y0000392763D01*
X0002047244Y0000394638D01*
X0002048181Y0000395575D01*
X0002050056Y0000396512D01*
X0002052868Y0000396512D01*
X0002054743Y0000395575D01*
X0002055680Y0000394638D01*
X0002056617Y0000392763D01*
X0002056617Y0000385264D01*
X0002064116Y0000416197D02*
X0002065054Y0000415260D01*
X0002065991Y0000412448D01*
X0002065991Y0000410573D01*
X0002065054Y0000407761D01*
X0002063179Y0000405886D01*
X0002061304Y0000404949D01*
X0002057555Y0000404012D01*
X0002054743Y0000404012D01*
X0002050993Y0000404949D01*
X0002049118Y0000405886D01*
X0002047244Y0000407761D01*
X0002046306Y0000410573D01*
X0002046306Y0000412448D01*
X0002047244Y0000415260D01*
X0002048181Y0000416197D01*
X0002055680Y0000431196D02*
X0002056617Y0000434008D01*
X0002057555Y0000434945D01*
X0002059430Y0000435883D01*
X0002062242Y0000435883D01*
X0002064116Y0000434945D01*
X0002065054Y0000434008D01*
X0002065991Y0000432133D01*
X0002065991Y0000424634D01*
X0002046306Y0000424634D01*
X0002046306Y0000431196D01*
X0002047244Y0000433070D01*
X0002048181Y0000434008D01*
X0002050056Y0000434945D01*
X0002051931Y0000434945D01*
X0002053805Y0000434008D01*
X0002054743Y0000433070D01*
X0002055680Y0000431196D01*
X0002055680Y0000424634D01*
X0002055680Y0000459317D02*
X0002055680Y0000465879D01*
X0002065991Y0000468691D02*
X0002065991Y0000459317D01*
X0002046306Y0000459317D01*
X0002046306Y0000468691D01*
X0002065991Y0000485564D02*
X0002046306Y0000485564D01*
X0002065054Y0000485564D02*
X0002065991Y0000483689D01*
X0002065991Y0000479940D01*
X0002065054Y0000478065D01*
X0002064116Y0000477127D01*
X0002062242Y0000476190D01*
X0002056617Y0000476190D01*
X0002054743Y0000477127D01*
X0002053805Y0000478065D01*
X0002052868Y0000479940D01*
X0002052868Y0000483689D01*
X0002053805Y0000485564D01*
X0002052868Y0000503374D02*
X0002068803Y0000503374D01*
X0002070678Y0000502437D01*
X0002071616Y0000501499D01*
X0002072553Y0000499625D01*
X0002072553Y0000496812D01*
X0002071616Y0000494938D01*
X0002065054Y0000503374D02*
X0002065991Y0000501499D01*
X0002065991Y0000497750D01*
X0002065054Y0000495875D01*
X0002064116Y0000494938D01*
X0002062242Y0000494000D01*
X0002056617Y0000494000D01*
X0002054743Y0000494938D01*
X0002053805Y0000495875D01*
X0002052868Y0000497750D01*
X0002052868Y0000501499D01*
X0002053805Y0000503374D01*
X0002065054Y0000520247D02*
X0002065991Y0000518372D01*
X0002065991Y0000514623D01*
X0002065054Y0000512748D01*
X0002063179Y0000511811D01*
X0002055680Y0000511811D01*
X0002053805Y0000512748D01*
X0002052868Y0000514623D01*
X0002052868Y0000518372D01*
X0002053805Y0000520247D01*
X0002055680Y0000521184D01*
X0002057555Y0000521184D01*
X0002059430Y0000511811D01*
G04 next file*
G04 Gerber Fmt 4.6, Leading zero omitted, Abs format (unit mm)*
G04 Created by KiCad (PCBNEW 4.0.7) date 02/10/18 00:31:40*
G01G01*
G04 APERTURE LIST*
G04 APERTURE END LIST*
D65*
D66*
X0002003093Y0000697412D02*
X0002005905Y0000694600D01*
X0002008717Y0000688976D01*
X0002008717Y0000674915D01*
X0002005905Y0000669291D01*
X0002003093Y0000666479D01*
X0001997469Y0000663667D01*
X0001991844Y0000663667D01*
X0001983408Y0000666479D01*
X0001949662Y0000700224D01*
X0001949662Y0000663667D01*
X0002008717Y0000643981D02*
X0002008717Y0000607424D01*
X0001986220Y0000627109D01*
X0001986220Y0000618672D01*
X0001983408Y0000613048D01*
X0001980596Y0000610236D01*
X0001974971Y0000607424D01*
X0001960911Y0000607424D01*
X0001955286Y0000610236D01*
X0001952474Y0000613048D01*
X0001949662Y0000618672D01*
X0001949662Y0000635545D01*
X0001952474Y0000641169D01*
X0001955286Y0000643981D01*
X0001955286Y0000582114D02*
X0001952474Y0000579302D01*
X0001949662Y0000582114D01*
X0001952474Y0000584926D01*
X0001955286Y0000582114D01*
X0001949662Y0000582114D01*
X0002008717Y0000542744D02*
X0002008717Y0000537120D01*
X0002005905Y0000531496D01*
X0002003093Y0000528683D01*
X0001997469Y0000525871D01*
X0001986220Y0000523059D01*
X0001972159Y0000523059D01*
X0001960911Y0000525871D01*
X0001955286Y0000528683D01*
X0001952474Y0000531496D01*
X0001949662Y0000537120D01*
X0001949662Y0000542744D01*
X0001952474Y0000548368D01*
X0001955286Y0000551181D01*
X0001960911Y0000553993D01*
X0001972159Y0000556805D01*
X0001986220Y0000556805D01*
X0001997469Y0000553993D01*
X0002003093Y0000551181D01*
X0002005905Y0000548368D01*
X0002008717Y0000542744D01*
X0002008717Y0000486501D02*
X0002008717Y0000480877D01*
X0002005905Y0000475253D01*
X0002003093Y0000472440D01*
X0001997469Y0000469628D01*
X0001986220Y0000466816D01*
X0001972159Y0000466816D01*
X0001960911Y0000469628D01*
X0001955286Y0000472440D01*
X0001952474Y0000475253D01*
X0001949662Y0000480877D01*
X0001949662Y0000486501D01*
X0001952474Y0000492125D01*
X0001955286Y0000494938D01*
X0001960911Y0000497750D01*
X0001972159Y0000500562D01*
X0001986220Y0000500562D01*
X0001997469Y0000497750D01*
X0002003093Y0000494938D01*
X0002005905Y0000492125D01*
X0002008717Y0000486501D01*
X0002008717Y0000430258D02*
X0002008717Y0000424634D01*
X0002005905Y0000419010D01*
X0002003093Y0000416197D01*
X0001997469Y0000413385D01*
X0001986220Y0000410573D01*
X0001972159Y0000410573D01*
X0001960911Y0000413385D01*
X0001955286Y0000416197D01*
X0001952474Y0000419010D01*
X0001949662Y0000424634D01*
X0001949662Y0000430258D01*
X0001952474Y0000435883D01*
X0001955286Y0000438695D01*
X0001960911Y0000441507D01*
X0001972159Y0000444319D01*
X0001986220Y0000444319D01*
X0001997469Y0000441507D01*
X0002003093Y0000438695D01*
X0002005905Y0000435883D01*
X0002008717Y0000430258D01*
X0001949662Y0000340270D02*
X0001989032Y0000340270D01*
X0001983408Y0000340270D02*
X0001986220Y0000337457D01*
X0001989032Y0000331833D01*
X0001989032Y0000323397D01*
X0001986220Y0000317772D01*
X0001980596Y0000314960D01*
X0001949662Y0000314960D01*
X0001980596Y0000314960D02*
X0001986220Y0000312148D01*
X0001989032Y0000306524D01*
X0001989032Y0000298087D01*
X0001986220Y0000292463D01*
X0001980596Y0000289651D01*
X0001949662Y0000289651D01*
X0001949662Y0000261529D02*
X0001989032Y0000261529D01*
X0001983408Y0000261529D02*
X0001986220Y0000258717D01*
X0001989032Y0000253093D01*
X0001989032Y0000244656D01*
X0001986220Y0000239032D01*
X0001980596Y0000236220D01*
X0001949662Y0000236220D01*
X0001980596Y0000236220D02*
X0001986220Y0000233408D01*
X0001989032Y0000227784D01*
X0001989032Y0000219347D01*
X0001986220Y0000213723D01*
X0001980596Y0000210911D01*
X0001949662Y0000210911D01*
X0002029527Y0000905511D02*
X0002029527Y0000000000D01*
X0002047244Y0000905511D02*
X0001923228Y0000905511D01*
X0002047244Y0000000000D02*
X0001923228Y0000000000D01*
X0002029527Y0000000000D02*
X0002006440Y0000044350D01*
X0002029527Y0000000000D02*
X0002052614Y0000044350D01*
X0002029527Y0000905511D02*
X0002006440Y0000861161D01*
X0002029527Y0000905511D02*
X0002052614Y0000861161D01*
X0002425759Y0001053993D02*
X0002462317Y0001053993D01*
X0002442632Y0001031496D01*
X0002451068Y0001031496D01*
X0002456692Y0001028683D01*
X0002459505Y0001025871D01*
X0002462317Y0001020247D01*
X0002462317Y0001006186D01*
X0002459505Y0001000562D01*
X0002456692Y0000997750D01*
X0002451068Y0000994938D01*
X0002434195Y0000994938D01*
X0002428571Y0000997750D01*
X0002425759Y0001000562D01*
X0002518560Y0000994938D02*
X0002484814Y0000994938D01*
X0002501687Y0000994938D02*
X0002501687Y0001053993D01*
X0002496063Y0001045556D01*
X0002490438Y0001039932D01*
X0002484814Y0001037120D01*
X0002543869Y0001000562D02*
X0002546681Y0000997750D01*
X0002543869Y0000994938D01*
X0002541057Y0000997750D01*
X0002543869Y0001000562D01*
X0002543869Y0000994938D01*
X0002580427Y0001028683D02*
X0002574803Y0001031496D01*
X0002571990Y0001034308D01*
X0002569178Y0001039932D01*
X0002569178Y0001042744D01*
X0002571990Y0001048368D01*
X0002574803Y0001051181D01*
X0002580427Y0001053993D01*
X0002591676Y0001053993D01*
X0002597300Y0001051181D01*
X0002600112Y0001048368D01*
X0002602924Y0001042744D01*
X0002602924Y0001039932D01*
X0002600112Y0001034308D01*
X0002597300Y0001031496D01*
X0002591676Y0001028683D01*
X0002580427Y0001028683D01*
X0002574803Y0001025871D01*
X0002571990Y0001023059D01*
X0002569178Y0001017435D01*
X0002569178Y0001006186D01*
X0002571990Y0001000562D01*
X0002574803Y0000997750D01*
X0002580427Y0000994938D01*
X0002591676Y0000994938D01*
X0002597300Y0000997750D01*
X0002600112Y0001000562D01*
X0002602924Y0001006186D01*
X0002602924Y0001017435D01*
X0002600112Y0001023059D01*
X0002597300Y0001025871D01*
X0002591676Y0001028683D01*
X0002639482Y0001053993D02*
X0002645106Y0001053993D01*
X0002650731Y0001051181D01*
X0002653543Y0001048368D01*
X0002656355Y0001042744D01*
X0002659167Y0001031496D01*
X0002659167Y0001017435D01*
X0002656355Y0001006186D01*
X0002653543Y0001000562D01*
X0002650731Y0000997750D01*
X0002645106Y0000994938D01*
X0002639482Y0000994938D01*
X0002633858Y0000997750D01*
X0002631046Y0001000562D01*
X0002628233Y0001006186D01*
X0002625421Y0001017435D01*
X0002625421Y0001031496D01*
X0002628233Y0001042744D01*
X0002631046Y0001048368D01*
X0002633858Y0001051181D01*
X0002639482Y0001053993D01*
X0002695725Y0001053993D02*
X0002701349Y0001053993D01*
X0002706974Y0001051181D01*
X0002709786Y0001048368D01*
X0002712598Y0001042744D01*
X0002715410Y0001031496D01*
X0002715410Y0001017435D01*
X0002712598Y0001006186D01*
X0002709786Y0001000562D01*
X0002706974Y0000997750D01*
X0002701349Y0000994938D01*
X0002695725Y0000994938D01*
X0002690101Y0000997750D01*
X0002687289Y0001000562D01*
X0002684476Y0001006186D01*
X0002681664Y0001017435D01*
X0002681664Y0001031496D01*
X0002684476Y0001042744D01*
X0002687289Y0001048368D01*
X0002690101Y0001051181D01*
X0002695725Y0001053993D01*
X0002785714Y0000994938D02*
X0002785714Y0001034308D01*
X0002785714Y0001028683D02*
X0002788526Y0001031496D01*
X0002794150Y0001034308D01*
X0002802587Y0001034308D01*
X0002808211Y0001031496D01*
X0002811023Y0001025871D01*
X0002811023Y0000994938D01*
X0002811023Y0001025871D02*
X0002813835Y0001031496D01*
X0002819460Y0001034308D01*
X0002827896Y0001034308D01*
X0002833520Y0001031496D01*
X0002836332Y0001025871D01*
X0002836332Y0000994938D01*
X0002864454Y0000994938D02*
X0002864454Y0001034308D01*
X0002864454Y0001028683D02*
X0002867266Y0001031496D01*
X0002872890Y0001034308D01*
X0002881327Y0001034308D01*
X0002886951Y0001031496D01*
X0002889763Y0001025871D01*
X0002889763Y0000994938D01*
X0002889763Y0001025871D02*
X0002892575Y0001031496D01*
X0002898200Y0001034308D01*
X0002906636Y0001034308D01*
X0002912260Y0001031496D01*
X0002915073Y0001025871D01*
X0002915073Y0000994938D01*
X0002047244Y0000968503D02*
X0003299212Y0000968503D01*
X0002047244Y0000905511D02*
X0002047244Y0001074803D01*
X0003299212Y0000905511D02*
X0003299212Y0001074803D01*
X0003299212Y0000968503D02*
X0003254862Y0000945416D01*
X0003299212Y0000968503D02*
X0003254862Y0000991591D01*
X0002047244Y0000968503D02*
X0002091594Y0000945416D01*
X0002047244Y0000968503D02*
X0002091594Y0000991591D01*
G04 next file*
G04 Gerber Fmt 4.6, Leading zero omitted, Abs format (unit mm)*
G04 Created by KiCad (PCBNEW 4.0.7) date 02/10/18 00:31:40*
G01G01*
G04 APERTURE LIST*
G04 APERTURE END LIST*
D67*
G04 next file*
G04 Gerber Fmt 4.6, Leading zero omitted, Abs format (unit mm)*
G04 Created by KiCad (PCBNEW 4.0.7) date 02/10/18 00:31:40*
G01G01*
G04 APERTURE LIST*
G04 APERTURE END LIST*
D68*
D69*
X0002019685Y0000625984D02*
X0002019685Y0000279527D01*
X0002259842Y0000279527D02*
X0002019685Y0000279527D01*
X0002259842Y0000625984D02*
X0002259842Y0000279527D01*
X0002019685Y0000625984D02*
X0002259842Y0000625984D01*
X0002322779Y0000182582D02*
X0002543251Y0000182582D01*
X0002543251Y0000182582D02*
X0002543251Y0000658960D01*
X0002543251Y0000658960D02*
X0002322779Y0000658960D01*
X0002322779Y0000658960D02*
X0002322779Y0000182582D01*
X0003095881Y0000857181D02*
X0002454149Y0000857181D01*
X0002454149Y0000857181D02*
X0002454149Y0000715448D01*
X0002454149Y0000715448D02*
X0003095881Y0000715448D01*
X0003095881Y0000715448D02*
X0003095881Y0000857181D01*
X0002430787Y0000154779D02*
X0002430787Y0000087850D01*
X0002430787Y0000087850D02*
X0002277244Y0000087850D01*
X0002277244Y0000087850D02*
X0002277244Y0000154779D01*
X0002277244Y0000154779D02*
X0002430787Y0000154779D01*
X0003091768Y0000084403D02*
X0003024839Y0000084403D01*
X0003024839Y0000084403D02*
X0003024839Y0000237946D01*
X0003024839Y0000237946D02*
X0003091768Y0000237946D01*
X0003091768Y0000237946D02*
X0003091768Y0000084403D01*
X0003006834Y0000083582D02*
X0002939905Y0000083582D01*
X0002939905Y0000083582D02*
X0002939905Y0000237125D01*
X0002939905Y0000237125D02*
X0003006834Y0000237125D01*
X0003006834Y0000237125D02*
X0003006834Y0000083582D01*
G04 next file*
G04 Gerber Fmt 4.6, Leading zero omitted, Abs format (unit mm)*
G04 Created by KiCad (PCBNEW 4.0.7) date 02/10/18 00:31:40*
G01G01*
G04 APERTURE LIST*
G04 APERTURE END LIST*
D70*
G04 next file*
G04 Gerber Fmt 4.6, Leading zero omitted, Abs format (unit mm)*
G04 Created by KiCad (PCBNEW 4.0.7) date 02/10/18 00:31:40*
G01G01*
G04 APERTURE LIST*
G04 APERTURE END LIST*
D71*
D72*
X0002585236Y0001244488D02*
X0002585236Y0001146062D01*
X0002585236Y0001244488D02*
X0002640354Y0001244488D01*
X0002640354Y0001146062D02*
X0002585236Y0001146062D01*
X0002640354Y0001146062D02*
X0002640354Y0001244488D01*
X0002972440Y0001153149D02*
X0002972440Y0001251574D01*
X0002972440Y0001153149D02*
X0002917322Y0001153149D01*
X0002917322Y0001251574D02*
X0002972440Y0001251574D01*
X0002917322Y0001251574D02*
X0002917322Y0001153149D01*
X0002807874Y0001247244D02*
X0002807874Y0001148818D01*
X0002807874Y0001247244D02*
X0002862992Y0001247244D01*
X0002862992Y0001148818D02*
X0002807874Y0001148818D01*
X0002862992Y0001148818D02*
X0002862992Y0001247244D01*
X0002742913Y0001529527D02*
X0002742913Y0001627952D01*
X0002742913Y0001529527D02*
X0002687795Y0001529527D01*
X0002687795Y0001627952D02*
X0002742913Y0001627952D01*
X0002687795Y0001627952D02*
X0002687795Y0001529527D01*
X0002705574Y0001277952D02*
X0002705574Y0001376377D01*
X0002705574Y0001277952D02*
X0002650456Y0001277952D01*
X0002650456Y0001376377D02*
X0002705574Y0001376377D01*
X0002650456Y0001376377D02*
X0002650456Y0001277952D01*
X0002715354Y0001137007D02*
X0002715354Y0001026771D01*
X0002715354Y0001137007D02*
X0002766535Y0001137007D01*
X0002766535Y0001026771D02*
X0002715354Y0001026771D01*
X0002766535Y0001026771D02*
X0002766535Y0001137007D01*
X0002992606Y0001272047D02*
X0002992606Y0001382283D01*
X0002992606Y0001272047D02*
X0002941425Y0001272047D01*
X0002941425Y0001382283D02*
X0002992606Y0001382283D01*
X0002941425Y0001382283D02*
X0002941425Y0001272047D01*
X0002875984Y0001523622D02*
X0002875984Y0001633858D01*
X0002875984Y0001523622D02*
X0002824803Y0001523622D01*
X0002824803Y0001633858D02*
X0002875984Y0001633858D01*
X0002824803Y0001633858D02*
X0002824803Y0001523622D01*
X0002631606Y0001269708D02*
X0002631606Y0001379944D01*
X0002631606Y0001269708D02*
X0002580425Y0001269708D01*
X0002580425Y0001379944D02*
X0002631606Y0001379944D01*
X0002580425Y0001379944D02*
X0002580425Y0001269708D01*
X0002420078Y0001023622D02*
X0002420078Y0001122047D01*
X0002420078Y0001023622D02*
X0002364960Y0001023622D01*
X0002364960Y0001122047D02*
X0002420078Y0001122047D01*
X0002364960Y0001122047D02*
X0002364960Y0001023622D01*
X0003030744Y0001116293D02*
X0003030744Y0001017868D01*
X0003030744Y0001116293D02*
X0003085862Y0001116293D01*
X0003085862Y0001017868D02*
X0003030744Y0001017868D01*
X0003085862Y0001017868D02*
X0003085862Y0001116293D01*
X0003000929Y0001016653D02*
X0003000929Y0001115078D01*
X0003000929Y0001016653D02*
X0002945811Y0001016653D01*
X0002945811Y0001115078D02*
X0003000929Y0001115078D01*
X0002945811Y0001115078D02*
X0002945811Y0001016653D01*
X0002345275Y0001022834D02*
X0002195669Y0001022834D01*
X0002345275Y0001164566D02*
X0002345275Y0001022834D01*
X0002195669Y0001164566D02*
X0002345275Y0001164566D01*
X0002195669Y0001022834D02*
X0002195669Y0001164566D01*
X0002755511Y0001627952D02*
X0002755511Y0001529527D01*
X0002755511Y0001627952D02*
X0002810629Y0001627952D01*
X0002810629Y0001529527D02*
X0002755511Y0001529527D01*
X0002810629Y0001529527D02*
X0002810629Y0001627952D01*
X0002718456Y0001376377D02*
X0002718456Y0001277952D01*
X0002718456Y0001376377D02*
X0002773574Y0001376377D01*
X0002773574Y0001277952D02*
X0002718456Y0001277952D01*
X0002773574Y0001277952D02*
X0002773574Y0001376377D01*
X0002838574Y0001277952D02*
X0002838574Y0001376377D01*
X0002838574Y0001277952D02*
X0002783456Y0001277952D01*
X0002783456Y0001376377D02*
X0002838574Y0001376377D01*
X0002783456Y0001376377D02*
X0002783456Y0001277952D01*
X0002875196Y0001376377D02*
X0002875196Y0001277952D01*
X0002875196Y0001376377D02*
X0002930314Y0001376377D01*
X0002930314Y0001277952D02*
X0002875196Y0001277952D01*
X0002930314Y0001277952D02*
X0002930314Y0001376377D01*
X0002359692Y0001719944D02*
X0002359692Y0001621519D01*
X0002359692Y0001719944D02*
X0002414811Y0001719944D01*
X0002414811Y0001621519D02*
X0002359692Y0001621519D01*
X0002414811Y0001621519D02*
X0002414811Y0001719944D01*
X0002617322Y0001630708D02*
X0002617322Y0001532283D01*
X0002617322Y0001630708D02*
X0002672440Y0001630708D01*
X0002672440Y0001532283D02*
X0002617322Y0001532283D01*
X0002672440Y0001532283D02*
X0002672440Y0001630708D01*
X0002282811Y0001621519D02*
X0002282811Y0001719944D01*
X0002282811Y0001621519D02*
X0002227692Y0001621519D01*
X0002227692Y0001719944D02*
X0002282811Y0001719944D01*
X0002227692Y0001719944D02*
X0002227692Y0001621519D01*
X0002293692Y0001719944D02*
X0002293692Y0001621519D01*
X0002293692Y0001719944D02*
X0002348811Y0001719944D01*
X0002348811Y0001621519D02*
X0002293692Y0001621519D01*
X0002348811Y0001621519D02*
X0002348811Y0001719944D01*
X0002101574Y0001409448D02*
X0002101574Y0001311023D01*
X0002101574Y0001409448D02*
X0002156692Y0001409448D01*
X0002156692Y0001311023D02*
X0002101574Y0001311023D01*
X0002156692Y0001311023D02*
X0002156692Y0001409448D01*
X0002165354Y0001004921D02*
X0002066929Y0001004921D01*
X0002165354Y0001004921D02*
X0002165354Y0000949803D01*
X0002066929Y0000949803D02*
X0002066929Y0001004921D01*
X0002066929Y0000949803D02*
X0002165354Y0000949803D01*
X0002165354Y0001153543D02*
X0002066929Y0001153543D01*
X0002165354Y0001153543D02*
X0002165354Y0001098425D01*
X0002066929Y0001098425D02*
X0002066929Y0001153543D01*
X0002066929Y0001098425D02*
X0002165354Y0001098425D01*
X0002165354Y0001082677D02*
X0002066929Y0001082677D01*
X0002165354Y0001082677D02*
X0002165354Y0001027559D01*
X0002066929Y0001027559D02*
X0002066929Y0001082677D01*
X0002066929Y0001027559D02*
X0002165354Y0001027559D01*
X0002585236Y0001133448D02*
X0002585236Y0001035023D01*
X0002585236Y0001133448D02*
X0002640354Y0001133448D01*
X0002640354Y0001035023D02*
X0002585236Y0001035023D01*
X0002640354Y0001035023D02*
X0002640354Y0001133448D01*
X0002648236Y0001133448D02*
X0002648236Y0001035023D01*
X0002648236Y0001133448D02*
X0002703354Y0001133448D01*
X0002703354Y0001035023D02*
X0002648236Y0001035023D01*
X0002703354Y0001035023D02*
X0002703354Y0001133448D01*
X0002523236Y0001132448D02*
X0002523236Y0001034023D01*
X0002523236Y0001132448D02*
X0002578354Y0001132448D01*
X0002578354Y0001034023D02*
X0002523236Y0001034023D01*
X0002578354Y0001034023D02*
X0002578354Y0001132448D01*
X0002212598Y0001732283D02*
X0002078740Y0001732283D01*
X0002078740Y0001732283D02*
X0002078740Y0001594488D01*
X0002078740Y0001594488D02*
X0002212598Y0001594488D01*
X0002212598Y0001594488D02*
X0002212598Y0001732283D01*
X0002564566Y0001269291D02*
X0002564566Y0001379527D01*
X0002564566Y0001269291D02*
X0002513385Y0001269291D01*
X0002513385Y0001379527D02*
X0002564566Y0001379527D01*
X0002513385Y0001379527D02*
X0002513385Y0001269291D01*
X0002422937Y0001606787D02*
X0002312700Y0001606787D01*
X0002422937Y0001606787D02*
X0002422937Y0001555606D01*
X0002312700Y0001555606D02*
X0002312700Y0001606787D01*
X0002312700Y0001555606D02*
X0002422937Y0001555606D01*
X0002459055Y0001379921D02*
X0002459055Y0001269685D01*
X0002459055Y0001379921D02*
X0002510236Y0001379921D01*
X0002510236Y0001269685D02*
X0002459055Y0001269685D01*
X0002510236Y0001269685D02*
X0002510236Y0001379921D01*
X0002397637Y0001269291D02*
X0002397637Y0001379527D01*
X0002397637Y0001269291D02*
X0002346456Y0001269291D01*
X0002346456Y0001379527D02*
X0002397637Y0001379527D01*
X0002346456Y0001379527D02*
X0002346456Y0001269291D01*
X0002510385Y0001029118D02*
X0002510385Y0001139354D01*
X0002510385Y0001029118D02*
X0002459204Y0001029118D01*
X0002459204Y0001139354D02*
X0002510385Y0001139354D01*
X0002459204Y0001139354D02*
X0002459204Y0001029118D01*
X0002779133Y0001137007D02*
X0002779133Y0001026771D01*
X0002779133Y0001137007D02*
X0002830314Y0001137007D01*
X0002830314Y0001026771D02*
X0002779133Y0001026771D01*
X0002830314Y0001026771D02*
X0002830314Y0001137007D01*
X0002422937Y0001543787D02*
X0002312700Y0001543787D01*
X0002422937Y0001543787D02*
X0002422937Y0001492606D01*
X0002312700Y0001492606D02*
X0002312700Y0001543787D01*
X0002312700Y0001492606D02*
X0002422937Y0001492606D01*
X0002444094Y0001483070D02*
X0002593700Y0001483070D01*
X0002593700Y0001483070D02*
X0002593700Y0001624803D01*
X0002593700Y0001624803D02*
X0002444094Y0001624803D01*
X0002444094Y0001624803D02*
X0002444094Y0001483070D01*
G04 next file*
G04 Gerber Fmt 4.6, Leading zero omitted, Abs format (unit mm)*
G04 Created by KiCad (PCBNEW 4.0.7) date 02/10/18 00:31:40*
G01G01*
G04 APERTURE LIST*
G04 APERTURE END LIST*
D73*
G04 next file*
G04 Gerber Fmt 4.6, Leading zero omitted, Abs format (unit mm)*
G04 Created by KiCad (PCBNEW 4.0.7) date 02/10/18 00:31:40*
G01G01*
G04 APERTURE LIST*
G04 APERTURE END LIST*
D74*
D75*
X0002065991Y0001290776D02*
X0002046306Y0001290776D01*
X0002046306Y0001298275D01*
X0002047244Y0001300149D01*
X0002048181Y0001301087D01*
X0002050056Y0001302024D01*
X0002052868Y0001302024D01*
X0002054743Y0001301087D01*
X0002055680Y0001300149D01*
X0002056617Y0001298275D01*
X0002056617Y0001290776D01*
X0002064116Y0001321709D02*
X0002065054Y0001320772D01*
X0002065991Y0001317960D01*
X0002065991Y0001316085D01*
X0002065054Y0001313273D01*
X0002063179Y0001311398D01*
X0002061304Y0001310461D01*
X0002057555Y0001309523D01*
X0002054743Y0001309523D01*
X0002050993Y0001310461D01*
X0002049118Y0001311398D01*
X0002047244Y0001313273D01*
X0002046306Y0001316085D01*
X0002046306Y0001317960D01*
X0002047244Y0001320772D01*
X0002048181Y0001321709D01*
X0002055680Y0001336707D02*
X0002056617Y0001339520D01*
X0002057555Y0001340457D01*
X0002059430Y0001341394D01*
X0002062242Y0001341394D01*
X0002064116Y0001340457D01*
X0002065054Y0001339520D01*
X0002065991Y0001337645D01*
X0002065991Y0001330146D01*
X0002046306Y0001330146D01*
X0002046306Y0001336707D01*
X0002047244Y0001338582D01*
X0002048181Y0001339520D01*
X0002050056Y0001340457D01*
X0002051931Y0001340457D01*
X0002053805Y0001339520D01*
X0002054743Y0001338582D01*
X0002055680Y0001336707D01*
X0002055680Y0001330146D01*
X0002055680Y0001364829D02*
X0002055680Y0001371391D01*
X0002065991Y0001374203D02*
X0002065991Y0001364829D01*
X0002046306Y0001364829D01*
X0002046306Y0001374203D01*
X0002065991Y0001391076D02*
X0002046306Y0001391076D01*
X0002065054Y0001391076D02*
X0002065991Y0001389201D01*
X0002065991Y0001385451D01*
X0002065054Y0001383577D01*
X0002064116Y0001382639D01*
X0002062242Y0001381702D01*
X0002056617Y0001381702D01*
X0002054743Y0001382639D01*
X0002053805Y0001383577D01*
X0002052868Y0001385451D01*
X0002052868Y0001389201D01*
X0002053805Y0001391076D01*
X0002052868Y0001408886D02*
X0002068803Y0001408886D01*
X0002070678Y0001407949D01*
X0002071616Y0001407011D01*
X0002072553Y0001405136D01*
X0002072553Y0001402324D01*
X0002071616Y0001400449D01*
X0002065054Y0001408886D02*
X0002065991Y0001407011D01*
X0002065991Y0001403262D01*
X0002065054Y0001401387D01*
X0002064116Y0001400449D01*
X0002062242Y0001399512D01*
X0002056617Y0001399512D01*
X0002054743Y0001400449D01*
X0002053805Y0001401387D01*
X0002052868Y0001403262D01*
X0002052868Y0001407011D01*
X0002053805Y0001408886D01*
X0002065054Y0001425759D02*
X0002065991Y0001423884D01*
X0002065991Y0001420135D01*
X0002065054Y0001418260D01*
X0002063179Y0001417322D01*
X0002055680Y0001417322D01*
X0002053805Y0001418260D01*
X0002052868Y0001420135D01*
X0002052868Y0001423884D01*
X0002053805Y0001425759D01*
X0002055680Y0001426696D01*
X0002057555Y0001426696D01*
X0002059430Y0001417322D01*
G04 next file*
G04 Gerber Fmt 4.6, Leading zero omitted, Abs format (unit mm)*
G04 Created by KiCad (PCBNEW 4.0.7) date 02/10/18 00:31:40*
G01G01*
G04 APERTURE LIST*
G04 APERTURE END LIST*
D76*
D77*
X0002003093Y0001602924D02*
X0002005905Y0001600112D01*
X0002008717Y0001594488D01*
X0002008717Y0001580427D01*
X0002005905Y0001574803D01*
X0002003093Y0001571990D01*
X0001997469Y0001569178D01*
X0001991844Y0001569178D01*
X0001983408Y0001571990D01*
X0001949662Y0001605736D01*
X0001949662Y0001569178D01*
X0002008717Y0001549493D02*
X0002008717Y0001512935D01*
X0001986220Y0001532620D01*
X0001986220Y0001524184D01*
X0001983408Y0001518560D01*
X0001980596Y0001515747D01*
X0001974971Y0001512935D01*
X0001960911Y0001512935D01*
X0001955286Y0001515747D01*
X0001952474Y0001518560D01*
X0001949662Y0001524184D01*
X0001949662Y0001541057D01*
X0001952474Y0001546681D01*
X0001955286Y0001549493D01*
X0001955286Y0001487626D02*
X0001952474Y0001484814D01*
X0001949662Y0001487626D01*
X0001952474Y0001490438D01*
X0001955286Y0001487626D01*
X0001949662Y0001487626D01*
X0002008717Y0001448256D02*
X0002008717Y0001442632D01*
X0002005905Y0001437007D01*
X0002003093Y0001434195D01*
X0001997469Y0001431383D01*
X0001986220Y0001428571D01*
X0001972159Y0001428571D01*
X0001960911Y0001431383D01*
X0001955286Y0001434195D01*
X0001952474Y0001437007D01*
X0001949662Y0001442632D01*
X0001949662Y0001448256D01*
X0001952474Y0001453880D01*
X0001955286Y0001456692D01*
X0001960911Y0001459505D01*
X0001972159Y0001462317D01*
X0001986220Y0001462317D01*
X0001997469Y0001459505D01*
X0002003093Y0001456692D01*
X0002005905Y0001453880D01*
X0002008717Y0001448256D01*
X0002008717Y0001392013D02*
X0002008717Y0001386389D01*
X0002005905Y0001380764D01*
X0002003093Y0001377952D01*
X0001997469Y0001375140D01*
X0001986220Y0001372328D01*
X0001972159Y0001372328D01*
X0001960911Y0001375140D01*
X0001955286Y0001377952D01*
X0001952474Y0001380764D01*
X0001949662Y0001386389D01*
X0001949662Y0001392013D01*
X0001952474Y0001397637D01*
X0001955286Y0001400449D01*
X0001960911Y0001403262D01*
X0001972159Y0001406074D01*
X0001986220Y0001406074D01*
X0001997469Y0001403262D01*
X0002003093Y0001400449D01*
X0002005905Y0001397637D01*
X0002008717Y0001392013D01*
X0002008717Y0001335770D02*
X0002008717Y0001330146D01*
X0002005905Y0001324521D01*
X0002003093Y0001321709D01*
X0001997469Y0001318897D01*
X0001986220Y0001316085D01*
X0001972159Y0001316085D01*
X0001960911Y0001318897D01*
X0001955286Y0001321709D01*
X0001952474Y0001324521D01*
X0001949662Y0001330146D01*
X0001949662Y0001335770D01*
X0001952474Y0001341394D01*
X0001955286Y0001344207D01*
X0001960911Y0001347019D01*
X0001972159Y0001349831D01*
X0001986220Y0001349831D01*
X0001997469Y0001347019D01*
X0002003093Y0001344207D01*
X0002005905Y0001341394D01*
X0002008717Y0001335770D01*
X0001949662Y0001245781D02*
X0001989032Y0001245781D01*
X0001983408Y0001245781D02*
X0001986220Y0001242969D01*
X0001989032Y0001237345D01*
X0001989032Y0001228908D01*
X0001986220Y0001223284D01*
X0001980596Y0001220472D01*
X0001949662Y0001220472D01*
X0001980596Y0001220472D02*
X0001986220Y0001217660D01*
X0001989032Y0001212036D01*
X0001989032Y0001203599D01*
X0001986220Y0001197975D01*
X0001980596Y0001195163D01*
X0001949662Y0001195163D01*
X0001949662Y0001167041D02*
X0001989032Y0001167041D01*
X0001983408Y0001167041D02*
X0001986220Y0001164229D01*
X0001989032Y0001158605D01*
X0001989032Y0001150168D01*
X0001986220Y0001144544D01*
X0001980596Y0001141732D01*
X0001949662Y0001141732D01*
X0001980596Y0001141732D02*
X0001986220Y0001138920D01*
X0001989032Y0001133295D01*
X0001989032Y0001124859D01*
X0001986220Y0001119235D01*
X0001980596Y0001116422D01*
X0001949662Y0001116422D01*
X0002029527Y0001811023D02*
X0002029527Y0000905511D01*
X0002047244Y0001811023D02*
X0001923228Y0001811023D01*
X0002047244Y0000905511D02*
X0001923228Y0000905511D01*
X0002029527Y0000905511D02*
X0002006440Y0000949862D01*
X0002029527Y0000905511D02*
X0002052614Y0000949862D01*
X0002029527Y0001811023D02*
X0002006440Y0001766673D01*
X0002029527Y0001811023D02*
X0002052614Y0001766673D01*
X0002425759Y0001959505D02*
X0002462317Y0001959505D01*
X0002442632Y0001937007D01*
X0002451068Y0001937007D01*
X0002456692Y0001934195D01*
X0002459505Y0001931383D01*
X0002462317Y0001925759D01*
X0002462317Y0001911698D01*
X0002459505Y0001906074D01*
X0002456692Y0001903262D01*
X0002451068Y0001900449D01*
X0002434195Y0001900449D01*
X0002428571Y0001903262D01*
X0002425759Y0001906074D01*
X0002518560Y0001900449D02*
X0002484814Y0001900449D01*
X0002501687Y0001900449D02*
X0002501687Y0001959505D01*
X0002496063Y0001951068D01*
X0002490438Y0001945444D01*
X0002484814Y0001942632D01*
X0002543869Y0001906074D02*
X0002546681Y0001903262D01*
X0002543869Y0001900449D01*
X0002541057Y0001903262D01*
X0002543869Y0001906074D01*
X0002543869Y0001900449D01*
X0002580427Y0001934195D02*
X0002574803Y0001937007D01*
X0002571990Y0001939820D01*
X0002569178Y0001945444D01*
X0002569178Y0001948256D01*
X0002571990Y0001953880D01*
X0002574803Y0001956692D01*
X0002580427Y0001959505D01*
X0002591676Y0001959505D01*
X0002597300Y0001956692D01*
X0002600112Y0001953880D01*
X0002602924Y0001948256D01*
X0002602924Y0001945444D01*
X0002600112Y0001939820D01*
X0002597300Y0001937007D01*
X0002591676Y0001934195D01*
X0002580427Y0001934195D01*
X0002574803Y0001931383D01*
X0002571990Y0001928571D01*
X0002569178Y0001922947D01*
X0002569178Y0001911698D01*
X0002571990Y0001906074D01*
X0002574803Y0001903262D01*
X0002580427Y0001900449D01*
X0002591676Y0001900449D01*
X0002597300Y0001903262D01*
X0002600112Y0001906074D01*
X0002602924Y0001911698D01*
X0002602924Y0001922947D01*
X0002600112Y0001928571D01*
X0002597300Y0001931383D01*
X0002591676Y0001934195D01*
X0002639482Y0001959505D02*
X0002645106Y0001959505D01*
X0002650731Y0001956692D01*
X0002653543Y0001953880D01*
X0002656355Y0001948256D01*
X0002659167Y0001937007D01*
X0002659167Y0001922947D01*
X0002656355Y0001911698D01*
X0002653543Y0001906074D01*
X0002650731Y0001903262D01*
X0002645106Y0001900449D01*
X0002639482Y0001900449D01*
X0002633858Y0001903262D01*
X0002631046Y0001906074D01*
X0002628233Y0001911698D01*
X0002625421Y0001922947D01*
X0002625421Y0001937007D01*
X0002628233Y0001948256D01*
X0002631046Y0001953880D01*
X0002633858Y0001956692D01*
X0002639482Y0001959505D01*
X0002695725Y0001959505D02*
X0002701349Y0001959505D01*
X0002706974Y0001956692D01*
X0002709786Y0001953880D01*
X0002712598Y0001948256D01*
X0002715410Y0001937007D01*
X0002715410Y0001922947D01*
X0002712598Y0001911698D01*
X0002709786Y0001906074D01*
X0002706974Y0001903262D01*
X0002701349Y0001900449D01*
X0002695725Y0001900449D01*
X0002690101Y0001903262D01*
X0002687289Y0001906074D01*
X0002684476Y0001911698D01*
X0002681664Y0001922947D01*
X0002681664Y0001937007D01*
X0002684476Y0001948256D01*
X0002687289Y0001953880D01*
X0002690101Y0001956692D01*
X0002695725Y0001959505D01*
X0002785714Y0001900449D02*
X0002785714Y0001939820D01*
X0002785714Y0001934195D02*
X0002788526Y0001937007D01*
X0002794150Y0001939820D01*
X0002802587Y0001939820D01*
X0002808211Y0001937007D01*
X0002811023Y0001931383D01*
X0002811023Y0001900449D01*
X0002811023Y0001931383D02*
X0002813835Y0001937007D01*
X0002819460Y0001939820D01*
X0002827896Y0001939820D01*
X0002833520Y0001937007D01*
X0002836332Y0001931383D01*
X0002836332Y0001900449D01*
X0002864454Y0001900449D02*
X0002864454Y0001939820D01*
X0002864454Y0001934195D02*
X0002867266Y0001937007D01*
X0002872890Y0001939820D01*
X0002881327Y0001939820D01*
X0002886951Y0001937007D01*
X0002889763Y0001931383D01*
X0002889763Y0001900449D01*
X0002889763Y0001931383D02*
X0002892575Y0001937007D01*
X0002898200Y0001939820D01*
X0002906636Y0001939820D01*
X0002912260Y0001937007D01*
X0002915073Y0001931383D01*
X0002915073Y0001900449D01*
X0002047244Y0001874015D02*
X0003299212Y0001874015D01*
X0002047244Y0001811023D02*
X0002047244Y0001980314D01*
X0003299212Y0001811023D02*
X0003299212Y0001980314D01*
X0003299212Y0001874015D02*
X0003254862Y0001850928D01*
X0003299212Y0001874015D02*
X0003254862Y0001897103D01*
X0002047244Y0001874015D02*
X0002091594Y0001850928D01*
X0002047244Y0001874015D02*
X0002091594Y0001897103D01*
G04 next file*
G04 Gerber Fmt 4.6, Leading zero omitted, Abs format (unit mm)*
G04 Created by KiCad (PCBNEW 4.0.7) date 02/10/18 00:31:40*
G01G01*
G04 APERTURE LIST*
G04 APERTURE END LIST*
D78*
G04 next file*
G04 Gerber Fmt 4.6, Leading zero omitted, Abs format (unit mm)*
G04 Created by KiCad (PCBNEW 4.0.7) date 02/10/18 00:31:40*
G01G01*
G04 APERTURE LIST*
G04 APERTURE END LIST*
D79*
D80*
X0002019685Y0001531496D02*
X0002019685Y0001185039D01*
X0002259842Y0001185039D02*
X0002019685Y0001185039D01*
X0002259842Y0001531496D02*
X0002259842Y0001185039D01*
X0002019685Y0001531496D02*
X0002259842Y0001531496D01*
X0002322779Y0001088094D02*
X0002543251Y0001088094D01*
X0002543251Y0001088094D02*
X0002543251Y0001564472D01*
X0002543251Y0001564472D02*
X0002322779Y0001564472D01*
X0002322779Y0001564472D02*
X0002322779Y0001088094D01*
X0003095881Y0001762692D02*
X0002454149Y0001762692D01*
X0002454149Y0001762692D02*
X0002454149Y0001620960D01*
X0002454149Y0001620960D02*
X0003095881Y0001620960D01*
X0003095881Y0001620960D02*
X0003095881Y0001762692D01*
X0002430787Y0001060291D02*
X0002430787Y0000993362D01*
X0002430787Y0000993362D02*
X0002277244Y0000993362D01*
X0002277244Y0000993362D02*
X0002277244Y0001060291D01*
X0002277244Y0001060291D02*
X0002430787Y0001060291D01*
X0003091768Y0000989915D02*
X0003024839Y0000989915D01*
X0003024839Y0000989915D02*
X0003024839Y0001143458D01*
X0003024839Y0001143458D02*
X0003091768Y0001143458D01*
X0003091768Y0001143458D02*
X0003091768Y0000989915D01*
X0003006834Y0000989094D02*
X0002939905Y0000989094D01*
X0002939905Y0000989094D02*
X0002939905Y0001142637D01*
X0002939905Y0001142637D02*
X0003006834Y0001142637D01*
X0003006834Y0001142637D02*
X0003006834Y0000989094D01*
G04 next file*
G04 Gerber Fmt 4.6, Leading zero omitted, Abs format (unit mm)*
G04 Created by KiCad (PCBNEW 4.0.7) date 02/10/18 00:31:40*
G01G01*
G04 APERTURE LIST*
G04 APERTURE END LIST*
D81*
G04 next file*
G04 Gerber Fmt 4.6, Leading zero omitted, Abs format (unit mm)*
G04 Created by KiCad (PCBNEW 4.0.7) date 02/10/18 00:31:40*
G01G01*
G04 APERTURE LIST*
G04 APERTURE END LIST*
D82*
D83*
X0002585236Y0003055511D02*
X0002585236Y0002957086D01*
X0002585236Y0003055511D02*
X0002640354Y0003055511D01*
X0002640354Y0002957086D02*
X0002585236Y0002957086D01*
X0002640354Y0002957086D02*
X0002640354Y0003055511D01*
X0002972440Y0002964173D02*
X0002972440Y0003062598D01*
X0002972440Y0002964173D02*
X0002917322Y0002964173D01*
X0002917322Y0003062598D02*
X0002972440Y0003062598D01*
X0002917322Y0003062598D02*
X0002917322Y0002964173D01*
X0002807874Y0003058267D02*
X0002807874Y0002959842D01*
X0002807874Y0003058267D02*
X0002862992Y0003058267D01*
X0002862992Y0002959842D02*
X0002807874Y0002959842D01*
X0002862992Y0002959842D02*
X0002862992Y0003058267D01*
X0002742913Y0003340551D02*
X0002742913Y0003438976D01*
X0002742913Y0003340551D02*
X0002687795Y0003340551D01*
X0002687795Y0003438976D02*
X0002742913Y0003438976D01*
X0002687795Y0003438976D02*
X0002687795Y0003340551D01*
X0002705574Y0003088976D02*
X0002705574Y0003187401D01*
X0002705574Y0003088976D02*
X0002650456Y0003088976D01*
X0002650456Y0003187401D02*
X0002705574Y0003187401D01*
X0002650456Y0003187401D02*
X0002650456Y0003088976D01*
X0002715354Y0002948031D02*
X0002715354Y0002837795D01*
X0002715354Y0002948031D02*
X0002766535Y0002948031D01*
X0002766535Y0002837795D02*
X0002715354Y0002837795D01*
X0002766535Y0002837795D02*
X0002766535Y0002948031D01*
X0002992606Y0003083070D02*
X0002992606Y0003193307D01*
X0002992606Y0003083070D02*
X0002941425Y0003083070D01*
X0002941425Y0003193307D02*
X0002992606Y0003193307D01*
X0002941425Y0003193307D02*
X0002941425Y0003083070D01*
X0002875984Y0003334645D02*
X0002875984Y0003444881D01*
X0002875984Y0003334645D02*
X0002824803Y0003334645D01*
X0002824803Y0003444881D02*
X0002875984Y0003444881D01*
X0002824803Y0003444881D02*
X0002824803Y0003334645D01*
X0002631606Y0003080732D02*
X0002631606Y0003190968D01*
X0002631606Y0003080732D02*
X0002580425Y0003080732D01*
X0002580425Y0003190968D02*
X0002631606Y0003190968D01*
X0002580425Y0003190968D02*
X0002580425Y0003080732D01*
X0002420078Y0002834645D02*
X0002420078Y0002933070D01*
X0002420078Y0002834645D02*
X0002364960Y0002834645D01*
X0002364960Y0002933070D02*
X0002420078Y0002933070D01*
X0002364960Y0002933070D02*
X0002364960Y0002834645D01*
X0003030744Y0002927316D02*
X0003030744Y0002828891D01*
X0003030744Y0002927316D02*
X0003085862Y0002927316D01*
X0003085862Y0002828891D02*
X0003030744Y0002828891D01*
X0003085862Y0002828891D02*
X0003085862Y0002927316D01*
X0003000929Y0002827677D02*
X0003000929Y0002926102D01*
X0003000929Y0002827677D02*
X0002945811Y0002827677D01*
X0002945811Y0002926102D02*
X0003000929Y0002926102D01*
X0002945811Y0002926102D02*
X0002945811Y0002827677D01*
X0002345275Y0002833858D02*
X0002195669Y0002833858D01*
X0002345275Y0002975590D02*
X0002345275Y0002833858D01*
X0002195669Y0002975590D02*
X0002345275Y0002975590D01*
X0002195669Y0002833858D02*
X0002195669Y0002975590D01*
X0002755511Y0003438976D02*
X0002755511Y0003340551D01*
X0002755511Y0003438976D02*
X0002810629Y0003438976D01*
X0002810629Y0003340551D02*
X0002755511Y0003340551D01*
X0002810629Y0003340551D02*
X0002810629Y0003438976D01*
X0002718456Y0003187401D02*
X0002718456Y0003088976D01*
X0002718456Y0003187401D02*
X0002773574Y0003187401D01*
X0002773574Y0003088976D02*
X0002718456Y0003088976D01*
X0002773574Y0003088976D02*
X0002773574Y0003187401D01*
X0002838574Y0003088976D02*
X0002838574Y0003187401D01*
X0002838574Y0003088976D02*
X0002783456Y0003088976D01*
X0002783456Y0003187401D02*
X0002838574Y0003187401D01*
X0002783456Y0003187401D02*
X0002783456Y0003088976D01*
X0002875196Y0003187401D02*
X0002875196Y0003088976D01*
X0002875196Y0003187401D02*
X0002930314Y0003187401D01*
X0002930314Y0003088976D02*
X0002875196Y0003088976D01*
X0002930314Y0003088976D02*
X0002930314Y0003187401D01*
X0002359692Y0003530968D02*
X0002359692Y0003432543D01*
X0002359692Y0003530968D02*
X0002414811Y0003530968D01*
X0002414811Y0003432543D02*
X0002359692Y0003432543D01*
X0002414811Y0003432543D02*
X0002414811Y0003530968D01*
X0002617322Y0003441732D02*
X0002617322Y0003343307D01*
X0002617322Y0003441732D02*
X0002672440Y0003441732D01*
X0002672440Y0003343307D02*
X0002617322Y0003343307D01*
X0002672440Y0003343307D02*
X0002672440Y0003441732D01*
X0002282811Y0003432543D02*
X0002282811Y0003530968D01*
X0002282811Y0003432543D02*
X0002227692Y0003432543D01*
X0002227692Y0003530968D02*
X0002282811Y0003530968D01*
X0002227692Y0003530968D02*
X0002227692Y0003432543D01*
X0002293692Y0003530968D02*
X0002293692Y0003432543D01*
X0002293692Y0003530968D02*
X0002348811Y0003530968D01*
X0002348811Y0003432543D02*
X0002293692Y0003432543D01*
X0002348811Y0003432543D02*
X0002348811Y0003530968D01*
X0002101574Y0003220472D02*
X0002101574Y0003122047D01*
X0002101574Y0003220472D02*
X0002156692Y0003220472D01*
X0002156692Y0003122047D02*
X0002101574Y0003122047D01*
X0002156692Y0003122047D02*
X0002156692Y0003220472D01*
X0002165354Y0002815944D02*
X0002066929Y0002815944D01*
X0002165354Y0002815944D02*
X0002165354Y0002760826D01*
X0002066929Y0002760826D02*
X0002066929Y0002815944D01*
X0002066929Y0002760826D02*
X0002165354Y0002760826D01*
X0002165354Y0002964566D02*
X0002066929Y0002964566D01*
X0002165354Y0002964566D02*
X0002165354Y0002909448D01*
X0002066929Y0002909448D02*
X0002066929Y0002964566D01*
X0002066929Y0002909448D02*
X0002165354Y0002909448D01*
X0002165354Y0002893700D02*
X0002066929Y0002893700D01*
X0002165354Y0002893700D02*
X0002165354Y0002838582D01*
X0002066929Y0002838582D02*
X0002066929Y0002893700D01*
X0002066929Y0002838582D02*
X0002165354Y0002838582D01*
X0002585236Y0002944472D02*
X0002585236Y0002846047D01*
X0002585236Y0002944472D02*
X0002640354Y0002944472D01*
X0002640354Y0002846047D02*
X0002585236Y0002846047D01*
X0002640354Y0002846047D02*
X0002640354Y0002944472D01*
X0002648236Y0002944472D02*
X0002648236Y0002846047D01*
X0002648236Y0002944472D02*
X0002703354Y0002944472D01*
X0002703354Y0002846047D02*
X0002648236Y0002846047D01*
X0002703354Y0002846047D02*
X0002703354Y0002944472D01*
X0002523236Y0002943472D02*
X0002523236Y0002845047D01*
X0002523236Y0002943472D02*
X0002578354Y0002943472D01*
X0002578354Y0002845047D02*
X0002523236Y0002845047D01*
X0002578354Y0002845047D02*
X0002578354Y0002943472D01*
X0002212598Y0003543307D02*
X0002078740Y0003543307D01*
X0002078740Y0003543307D02*
X0002078740Y0003405511D01*
X0002078740Y0003405511D02*
X0002212598Y0003405511D01*
X0002212598Y0003405511D02*
X0002212598Y0003543307D01*
X0002564566Y0003080314D02*
X0002564566Y0003190551D01*
X0002564566Y0003080314D02*
X0002513385Y0003080314D01*
X0002513385Y0003190551D02*
X0002564566Y0003190551D01*
X0002513385Y0003190551D02*
X0002513385Y0003080314D01*
X0002422937Y0003417811D02*
X0002312700Y0003417811D01*
X0002422937Y0003417811D02*
X0002422937Y0003366629D01*
X0002312700Y0003366629D02*
X0002312700Y0003417811D01*
X0002312700Y0003366629D02*
X0002422937Y0003366629D01*
X0002459055Y0003190944D02*
X0002459055Y0003080708D01*
X0002459055Y0003190944D02*
X0002510236Y0003190944D01*
X0002510236Y0003080708D02*
X0002459055Y0003080708D01*
X0002510236Y0003080708D02*
X0002510236Y0003190944D01*
X0002397637Y0003080314D02*
X0002397637Y0003190551D01*
X0002397637Y0003080314D02*
X0002346456Y0003080314D01*
X0002346456Y0003190551D02*
X0002397637Y0003190551D01*
X0002346456Y0003190551D02*
X0002346456Y0003080314D01*
X0002510385Y0002840141D02*
X0002510385Y0002950377D01*
X0002510385Y0002840141D02*
X0002459204Y0002840141D01*
X0002459204Y0002950377D02*
X0002510385Y0002950377D01*
X0002459204Y0002950377D02*
X0002459204Y0002840141D01*
X0002779133Y0002948031D02*
X0002779133Y0002837795D01*
X0002779133Y0002948031D02*
X0002830314Y0002948031D01*
X0002830314Y0002837795D02*
X0002779133Y0002837795D01*
X0002830314Y0002837795D02*
X0002830314Y0002948031D01*
X0002422937Y0003354811D02*
X0002312700Y0003354811D01*
X0002422937Y0003354811D02*
X0002422937Y0003303629D01*
X0002312700Y0003303629D02*
X0002312700Y0003354811D01*
X0002312700Y0003303629D02*
X0002422937Y0003303629D01*
X0002444094Y0003294094D02*
X0002593700Y0003294094D01*
X0002593700Y0003294094D02*
X0002593700Y0003435826D01*
X0002593700Y0003435826D02*
X0002444094Y0003435826D01*
X0002444094Y0003435826D02*
X0002444094Y0003294094D01*
G04 next file*
G04 Gerber Fmt 4.6, Leading zero omitted, Abs format (unit mm)*
G04 Created by KiCad (PCBNEW 4.0.7) date 02/10/18 00:31:40*
G01G01*
G04 APERTURE LIST*
G04 APERTURE END LIST*
D84*
G04 next file*
G04 Gerber Fmt 4.6, Leading zero omitted, Abs format (unit mm)*
G04 Created by KiCad (PCBNEW 4.0.7) date 02/10/18 00:31:40*
G01G01*
G04 APERTURE LIST*
G04 APERTURE END LIST*
D85*
D86*
X0002065991Y0003101799D02*
X0002046306Y0003101799D01*
X0002046306Y0003109298D01*
X0002047244Y0003111173D01*
X0002048181Y0003112110D01*
X0002050056Y0003113048D01*
X0002052868Y0003113048D01*
X0002054743Y0003112110D01*
X0002055680Y0003111173D01*
X0002056617Y0003109298D01*
X0002056617Y0003101799D01*
X0002064116Y0003132733D02*
X0002065054Y0003131796D01*
X0002065991Y0003128983D01*
X0002065991Y0003127109D01*
X0002065054Y0003124296D01*
X0002063179Y0003122422D01*
X0002061304Y0003121484D01*
X0002057555Y0003120547D01*
X0002054743Y0003120547D01*
X0002050993Y0003121484D01*
X0002049118Y0003122422D01*
X0002047244Y0003124296D01*
X0002046306Y0003127109D01*
X0002046306Y0003128983D01*
X0002047244Y0003131796D01*
X0002048181Y0003132733D01*
X0002055680Y0003147731D02*
X0002056617Y0003150543D01*
X0002057555Y0003151481D01*
X0002059430Y0003152418D01*
X0002062242Y0003152418D01*
X0002064116Y0003151481D01*
X0002065054Y0003150543D01*
X0002065991Y0003148668D01*
X0002065991Y0003141169D01*
X0002046306Y0003141169D01*
X0002046306Y0003147731D01*
X0002047244Y0003149606D01*
X0002048181Y0003150543D01*
X0002050056Y0003151481D01*
X0002051931Y0003151481D01*
X0002053805Y0003150543D01*
X0002054743Y0003149606D01*
X0002055680Y0003147731D01*
X0002055680Y0003141169D01*
X0002055680Y0003175853D02*
X0002055680Y0003182414D01*
X0002065991Y0003185226D02*
X0002065991Y0003175853D01*
X0002046306Y0003175853D01*
X0002046306Y0003185226D01*
X0002065991Y0003202099D02*
X0002046306Y0003202099D01*
X0002065054Y0003202099D02*
X0002065991Y0003200224D01*
X0002065991Y0003196475D01*
X0002065054Y0003194600D01*
X0002064116Y0003193663D01*
X0002062242Y0003192725D01*
X0002056617Y0003192725D01*
X0002054743Y0003193663D01*
X0002053805Y0003194600D01*
X0002052868Y0003196475D01*
X0002052868Y0003200224D01*
X0002053805Y0003202099D01*
X0002052868Y0003219910D02*
X0002068803Y0003219910D01*
X0002070678Y0003218972D01*
X0002071616Y0003218035D01*
X0002072553Y0003216160D01*
X0002072553Y0003213348D01*
X0002071616Y0003211473D01*
X0002065054Y0003219910D02*
X0002065991Y0003218035D01*
X0002065991Y0003214285D01*
X0002065054Y0003212410D01*
X0002064116Y0003211473D01*
X0002062242Y0003210536D01*
X0002056617Y0003210536D01*
X0002054743Y0003211473D01*
X0002053805Y0003212410D01*
X0002052868Y0003214285D01*
X0002052868Y0003218035D01*
X0002053805Y0003219910D01*
X0002065054Y0003236782D02*
X0002065991Y0003234908D01*
X0002065991Y0003231158D01*
X0002065054Y0003229283D01*
X0002063179Y0003228346D01*
X0002055680Y0003228346D01*
X0002053805Y0003229283D01*
X0002052868Y0003231158D01*
X0002052868Y0003234908D01*
X0002053805Y0003236782D01*
X0002055680Y0003237720D01*
X0002057555Y0003237720D01*
X0002059430Y0003228346D01*
G04 next file*
G04 Gerber Fmt 4.6, Leading zero omitted, Abs format (unit mm)*
G04 Created by KiCad (PCBNEW 4.0.7) date 02/10/18 00:31:40*
G01G01*
G04 APERTURE LIST*
G04 APERTURE END LIST*
D87*
D88*
X0002003093Y0003413948D02*
X0002005905Y0003411136D01*
X0002008717Y0003405511D01*
X0002008717Y0003391451D01*
X0002005905Y0003385826D01*
X0002003093Y0003383014D01*
X0001997469Y0003380202D01*
X0001991844Y0003380202D01*
X0001983408Y0003383014D01*
X0001949662Y0003416760D01*
X0001949662Y0003380202D01*
X0002008717Y0003360517D02*
X0002008717Y0003323959D01*
X0001986220Y0003343644D01*
X0001986220Y0003335208D01*
X0001983408Y0003329583D01*
X0001980596Y0003326771D01*
X0001974971Y0003323959D01*
X0001960911Y0003323959D01*
X0001955286Y0003326771D01*
X0001952474Y0003329583D01*
X0001949662Y0003335208D01*
X0001949662Y0003352080D01*
X0001952474Y0003357705D01*
X0001955286Y0003360517D01*
X0001955286Y0003298650D02*
X0001952474Y0003295838D01*
X0001949662Y0003298650D01*
X0001952474Y0003301462D01*
X0001955286Y0003298650D01*
X0001949662Y0003298650D01*
X0002008717Y0003259280D02*
X0002008717Y0003253655D01*
X0002005905Y0003248031D01*
X0002003093Y0003245219D01*
X0001997469Y0003242407D01*
X0001986220Y0003239595D01*
X0001972159Y0003239595D01*
X0001960911Y0003242407D01*
X0001955286Y0003245219D01*
X0001952474Y0003248031D01*
X0001949662Y0003253655D01*
X0001949662Y0003259280D01*
X0001952474Y0003264904D01*
X0001955286Y0003267716D01*
X0001960911Y0003270528D01*
X0001972159Y0003273340D01*
X0001986220Y0003273340D01*
X0001997469Y0003270528D01*
X0002003093Y0003267716D01*
X0002005905Y0003264904D01*
X0002008717Y0003259280D01*
X0002008717Y0003203037D02*
X0002008717Y0003197412D01*
X0002005905Y0003191788D01*
X0002003093Y0003188976D01*
X0001997469Y0003186164D01*
X0001986220Y0003183352D01*
X0001972159Y0003183352D01*
X0001960911Y0003186164D01*
X0001955286Y0003188976D01*
X0001952474Y0003191788D01*
X0001949662Y0003197412D01*
X0001949662Y0003203037D01*
X0001952474Y0003208661D01*
X0001955286Y0003211473D01*
X0001960911Y0003214285D01*
X0001972159Y0003217097D01*
X0001986220Y0003217097D01*
X0001997469Y0003214285D01*
X0002003093Y0003211473D01*
X0002005905Y0003208661D01*
X0002008717Y0003203037D01*
X0002008717Y0003146794D02*
X0002008717Y0003141169D01*
X0002005905Y0003135545D01*
X0002003093Y0003132733D01*
X0001997469Y0003129921D01*
X0001986220Y0003127109D01*
X0001972159Y0003127109D01*
X0001960911Y0003129921D01*
X0001955286Y0003132733D01*
X0001952474Y0003135545D01*
X0001949662Y0003141169D01*
X0001949662Y0003146794D01*
X0001952474Y0003152418D01*
X0001955286Y0003155230D01*
X0001960911Y0003158042D01*
X0001972159Y0003160854D01*
X0001986220Y0003160854D01*
X0001997469Y0003158042D01*
X0002003093Y0003155230D01*
X0002005905Y0003152418D01*
X0002008717Y0003146794D01*
X0001949662Y0003056805D02*
X0001989032Y0003056805D01*
X0001983408Y0003056805D02*
X0001986220Y0003053993D01*
X0001989032Y0003048368D01*
X0001989032Y0003039932D01*
X0001986220Y0003034308D01*
X0001980596Y0003031496D01*
X0001949662Y0003031496D01*
X0001980596Y0003031496D02*
X0001986220Y0003028683D01*
X0001989032Y0003023059D01*
X0001989032Y0003014623D01*
X0001986220Y0003008998D01*
X0001980596Y0003006186D01*
X0001949662Y0003006186D01*
X0001949662Y0002978065D02*
X0001989032Y0002978065D01*
X0001983408Y0002978065D02*
X0001986220Y0002975253D01*
X0001989032Y0002969628D01*
X0001989032Y0002961192D01*
X0001986220Y0002955568D01*
X0001980596Y0002952755D01*
X0001949662Y0002952755D01*
X0001980596Y0002952755D02*
X0001986220Y0002949943D01*
X0001989032Y0002944319D01*
X0001989032Y0002935883D01*
X0001986220Y0002930258D01*
X0001980596Y0002927446D01*
X0001949662Y0002927446D01*
X0002029527Y0003622047D02*
X0002029527Y0002716535D01*
X0002047244Y0003622047D02*
X0001923228Y0003622047D01*
X0002047244Y0002716535D02*
X0001923228Y0002716535D01*
X0002029527Y0002716535D02*
X0002006440Y0002760885D01*
X0002029527Y0002716535D02*
X0002052614Y0002760885D01*
X0002029527Y0003622047D02*
X0002006440Y0003577696D01*
X0002029527Y0003622047D02*
X0002052614Y0003577696D01*
X0002425759Y0003770528D02*
X0002462317Y0003770528D01*
X0002442632Y0003748031D01*
X0002451068Y0003748031D01*
X0002456692Y0003745219D01*
X0002459505Y0003742407D01*
X0002462317Y0003736782D01*
X0002462317Y0003722722D01*
X0002459505Y0003717097D01*
X0002456692Y0003714285D01*
X0002451068Y0003711473D01*
X0002434195Y0003711473D01*
X0002428571Y0003714285D01*
X0002425759Y0003717097D01*
X0002518560Y0003711473D02*
X0002484814Y0003711473D01*
X0002501687Y0003711473D02*
X0002501687Y0003770528D01*
X0002496063Y0003762092D01*
X0002490438Y0003756467D01*
X0002484814Y0003753655D01*
X0002543869Y0003717097D02*
X0002546681Y0003714285D01*
X0002543869Y0003711473D01*
X0002541057Y0003714285D01*
X0002543869Y0003717097D01*
X0002543869Y0003711473D01*
X0002580427Y0003745219D02*
X0002574803Y0003748031D01*
X0002571990Y0003750843D01*
X0002569178Y0003756467D01*
X0002569178Y0003759280D01*
X0002571990Y0003764904D01*
X0002574803Y0003767716D01*
X0002580427Y0003770528D01*
X0002591676Y0003770528D01*
X0002597300Y0003767716D01*
X0002600112Y0003764904D01*
X0002602924Y0003759280D01*
X0002602924Y0003756467D01*
X0002600112Y0003750843D01*
X0002597300Y0003748031D01*
X0002591676Y0003745219D01*
X0002580427Y0003745219D01*
X0002574803Y0003742407D01*
X0002571990Y0003739595D01*
X0002569178Y0003733970D01*
X0002569178Y0003722722D01*
X0002571990Y0003717097D01*
X0002574803Y0003714285D01*
X0002580427Y0003711473D01*
X0002591676Y0003711473D01*
X0002597300Y0003714285D01*
X0002600112Y0003717097D01*
X0002602924Y0003722722D01*
X0002602924Y0003733970D01*
X0002600112Y0003739595D01*
X0002597300Y0003742407D01*
X0002591676Y0003745219D01*
X0002639482Y0003770528D02*
X0002645106Y0003770528D01*
X0002650731Y0003767716D01*
X0002653543Y0003764904D01*
X0002656355Y0003759280D01*
X0002659167Y0003748031D01*
X0002659167Y0003733970D01*
X0002656355Y0003722722D01*
X0002653543Y0003717097D01*
X0002650731Y0003714285D01*
X0002645106Y0003711473D01*
X0002639482Y0003711473D01*
X0002633858Y0003714285D01*
X0002631046Y0003717097D01*
X0002628233Y0003722722D01*
X0002625421Y0003733970D01*
X0002625421Y0003748031D01*
X0002628233Y0003759280D01*
X0002631046Y0003764904D01*
X0002633858Y0003767716D01*
X0002639482Y0003770528D01*
X0002695725Y0003770528D02*
X0002701349Y0003770528D01*
X0002706974Y0003767716D01*
X0002709786Y0003764904D01*
X0002712598Y0003759280D01*
X0002715410Y0003748031D01*
X0002715410Y0003733970D01*
X0002712598Y0003722722D01*
X0002709786Y0003717097D01*
X0002706974Y0003714285D01*
X0002701349Y0003711473D01*
X0002695725Y0003711473D01*
X0002690101Y0003714285D01*
X0002687289Y0003717097D01*
X0002684476Y0003722722D01*
X0002681664Y0003733970D01*
X0002681664Y0003748031D01*
X0002684476Y0003759280D01*
X0002687289Y0003764904D01*
X0002690101Y0003767716D01*
X0002695725Y0003770528D01*
X0002785714Y0003711473D02*
X0002785714Y0003750843D01*
X0002785714Y0003745219D02*
X0002788526Y0003748031D01*
X0002794150Y0003750843D01*
X0002802587Y0003750843D01*
X0002808211Y0003748031D01*
X0002811023Y0003742407D01*
X0002811023Y0003711473D01*
X0002811023Y0003742407D02*
X0002813835Y0003748031D01*
X0002819460Y0003750843D01*
X0002827896Y0003750843D01*
X0002833520Y0003748031D01*
X0002836332Y0003742407D01*
X0002836332Y0003711473D01*
X0002864454Y0003711473D02*
X0002864454Y0003750843D01*
X0002864454Y0003745219D02*
X0002867266Y0003748031D01*
X0002872890Y0003750843D01*
X0002881327Y0003750843D01*
X0002886951Y0003748031D01*
X0002889763Y0003742407D01*
X0002889763Y0003711473D01*
X0002889763Y0003742407D02*
X0002892575Y0003748031D01*
X0002898200Y0003750843D01*
X0002906636Y0003750843D01*
X0002912260Y0003748031D01*
X0002915073Y0003742407D01*
X0002915073Y0003711473D01*
X0002047244Y0003685039D02*
X0003299212Y0003685039D01*
X0002047244Y0003622047D02*
X0002047244Y0003791338D01*
X0003299212Y0003622047D02*
X0003299212Y0003791338D01*
X0003299212Y0003685039D02*
X0003254862Y0003661951D01*
X0003299212Y0003685039D02*
X0003254862Y0003708126D01*
X0002047244Y0003685039D02*
X0002091594Y0003661951D01*
X0002047244Y0003685039D02*
X0002091594Y0003708126D01*
G04 next file*
G04 Gerber Fmt 4.6, Leading zero omitted, Abs format (unit mm)*
G04 Created by KiCad (PCBNEW 4.0.7) date 02/10/18 00:31:40*
G01G01*
G04 APERTURE LIST*
G04 APERTURE END LIST*
D89*
G04 next file*
G04 Gerber Fmt 4.6, Leading zero omitted, Abs format (unit mm)*
G04 Created by KiCad (PCBNEW 4.0.7) date 02/10/18 00:31:40*
G01G01*
G04 APERTURE LIST*
G04 APERTURE END LIST*
D90*
D91*
X0002019685Y0003342519D02*
X0002019685Y0002996062D01*
X0002259842Y0002996062D02*
X0002019685Y0002996062D01*
X0002259842Y0003342519D02*
X0002259842Y0002996062D01*
X0002019685Y0003342519D02*
X0002259842Y0003342519D01*
X0002322779Y0002899118D02*
X0002543251Y0002899118D01*
X0002543251Y0002899118D02*
X0002543251Y0003375496D01*
X0002543251Y0003375496D02*
X0002322779Y0003375496D01*
X0002322779Y0003375496D02*
X0002322779Y0002899118D01*
X0003095881Y0003573716D02*
X0002454149Y0003573716D01*
X0002454149Y0003573716D02*
X0002454149Y0003431984D01*
X0002454149Y0003431984D02*
X0003095881Y0003431984D01*
X0003095881Y0003431984D02*
X0003095881Y0003573716D01*
X0002430787Y0002871314D02*
X0002430787Y0002804385D01*
X0002430787Y0002804385D02*
X0002277244Y0002804385D01*
X0002277244Y0002804385D02*
X0002277244Y0002871314D01*
X0002277244Y0002871314D02*
X0002430787Y0002871314D01*
X0003091768Y0002800938D02*
X0003024839Y0002800938D01*
X0003024839Y0002800938D02*
X0003024839Y0002954482D01*
X0003024839Y0002954482D02*
X0003091768Y0002954482D01*
X0003091768Y0002954482D02*
X0003091768Y0002800938D01*
X0003006834Y0002800118D02*
X0002939905Y0002800118D01*
X0002939905Y0002800118D02*
X0002939905Y0002953661D01*
X0002939905Y0002953661D02*
X0003006834Y0002953661D01*
X0003006834Y0002953661D02*
X0003006834Y0002800118D01*
G04 next file*
G04 Gerber Fmt 4.6, Leading zero omitted, Abs format (unit mm)*
G04 Created by KiCad (PCBNEW 4.0.7) date 02/10/18 00:31:40*
G01G01*
G04 APERTURE LIST*
G04 APERTURE END LIST*
D92*
G04 next file*
G04 Gerber Fmt 4.6, Leading zero omitted, Abs format (unit mm)*
G04 Created by KiCad (PCBNEW 4.0.7) date 02/10/18 00:31:40*
G01G01*
G04 APERTURE LIST*
G04 APERTURE END LIST*
D93*
D94*
X0002585236Y0002150000D02*
X0002585236Y0002051574D01*
X0002585236Y0002150000D02*
X0002640354Y0002150000D01*
X0002640354Y0002051574D02*
X0002585236Y0002051574D01*
X0002640354Y0002051574D02*
X0002640354Y0002150000D01*
X0002972440Y0002058661D02*
X0002972440Y0002157086D01*
X0002972440Y0002058661D02*
X0002917322Y0002058661D01*
X0002917322Y0002157086D02*
X0002972440Y0002157086D01*
X0002917322Y0002157086D02*
X0002917322Y0002058661D01*
X0002807874Y0002152755D02*
X0002807874Y0002054330D01*
X0002807874Y0002152755D02*
X0002862992Y0002152755D01*
X0002862992Y0002054330D02*
X0002807874Y0002054330D01*
X0002862992Y0002054330D02*
X0002862992Y0002152755D01*
X0002742913Y0002435039D02*
X0002742913Y0002533464D01*
X0002742913Y0002435039D02*
X0002687795Y0002435039D01*
X0002687795Y0002533464D02*
X0002742913Y0002533464D01*
X0002687795Y0002533464D02*
X0002687795Y0002435039D01*
X0002705574Y0002183464D02*
X0002705574Y0002281889D01*
X0002705574Y0002183464D02*
X0002650456Y0002183464D01*
X0002650456Y0002281889D02*
X0002705574Y0002281889D01*
X0002650456Y0002281889D02*
X0002650456Y0002183464D01*
X0002715354Y0002042519D02*
X0002715354Y0001932283D01*
X0002715354Y0002042519D02*
X0002766535Y0002042519D01*
X0002766535Y0001932283D02*
X0002715354Y0001932283D01*
X0002766535Y0001932283D02*
X0002766535Y0002042519D01*
X0002992606Y0002177559D02*
X0002992606Y0002287795D01*
X0002992606Y0002177559D02*
X0002941425Y0002177559D01*
X0002941425Y0002287795D02*
X0002992606Y0002287795D01*
X0002941425Y0002287795D02*
X0002941425Y0002177559D01*
X0002875984Y0002429133D02*
X0002875984Y0002539370D01*
X0002875984Y0002429133D02*
X0002824803Y0002429133D01*
X0002824803Y0002539370D02*
X0002875984Y0002539370D01*
X0002824803Y0002539370D02*
X0002824803Y0002429133D01*
X0002631606Y0002175220D02*
X0002631606Y0002285456D01*
X0002631606Y0002175220D02*
X0002580425Y0002175220D01*
X0002580425Y0002285456D02*
X0002631606Y0002285456D01*
X0002580425Y0002285456D02*
X0002580425Y0002175220D01*
X0002420078Y0001929133D02*
X0002420078Y0002027559D01*
X0002420078Y0001929133D02*
X0002364960Y0001929133D01*
X0002364960Y0002027559D02*
X0002420078Y0002027559D01*
X0002364960Y0002027559D02*
X0002364960Y0001929133D01*
X0003030744Y0002021805D02*
X0003030744Y0001923379D01*
X0003030744Y0002021805D02*
X0003085862Y0002021805D01*
X0003085862Y0001923379D02*
X0003030744Y0001923379D01*
X0003085862Y0001923379D02*
X0003085862Y0002021805D01*
X0003000929Y0001922165D02*
X0003000929Y0002020590D01*
X0003000929Y0001922165D02*
X0002945811Y0001922165D01*
X0002945811Y0002020590D02*
X0003000929Y0002020590D01*
X0002945811Y0002020590D02*
X0002945811Y0001922165D01*
X0002345275Y0001928346D02*
X0002195669Y0001928346D01*
X0002345275Y0002070078D02*
X0002345275Y0001928346D01*
X0002195669Y0002070078D02*
X0002345275Y0002070078D01*
X0002195669Y0001928346D02*
X0002195669Y0002070078D01*
X0002755511Y0002533464D02*
X0002755511Y0002435039D01*
X0002755511Y0002533464D02*
X0002810629Y0002533464D01*
X0002810629Y0002435039D02*
X0002755511Y0002435039D01*
X0002810629Y0002435039D02*
X0002810629Y0002533464D01*
X0002718456Y0002281889D02*
X0002718456Y0002183464D01*
X0002718456Y0002281889D02*
X0002773574Y0002281889D01*
X0002773574Y0002183464D02*
X0002718456Y0002183464D01*
X0002773574Y0002183464D02*
X0002773574Y0002281889D01*
X0002838574Y0002183464D02*
X0002838574Y0002281889D01*
X0002838574Y0002183464D02*
X0002783456Y0002183464D01*
X0002783456Y0002281889D02*
X0002838574Y0002281889D01*
X0002783456Y0002281889D02*
X0002783456Y0002183464D01*
X0002875196Y0002281889D02*
X0002875196Y0002183464D01*
X0002875196Y0002281889D02*
X0002930314Y0002281889D01*
X0002930314Y0002183464D02*
X0002875196Y0002183464D01*
X0002930314Y0002183464D02*
X0002930314Y0002281889D01*
X0002359692Y0002625456D02*
X0002359692Y0002527031D01*
X0002359692Y0002625456D02*
X0002414811Y0002625456D01*
X0002414811Y0002527031D02*
X0002359692Y0002527031D01*
X0002414811Y0002527031D02*
X0002414811Y0002625456D01*
X0002617322Y0002536220D02*
X0002617322Y0002437795D01*
X0002617322Y0002536220D02*
X0002672440Y0002536220D01*
X0002672440Y0002437795D02*
X0002617322Y0002437795D01*
X0002672440Y0002437795D02*
X0002672440Y0002536220D01*
X0002282811Y0002527031D02*
X0002282811Y0002625456D01*
X0002282811Y0002527031D02*
X0002227692Y0002527031D01*
X0002227692Y0002625456D02*
X0002282811Y0002625456D01*
X0002227692Y0002625456D02*
X0002227692Y0002527031D01*
X0002293692Y0002625456D02*
X0002293692Y0002527031D01*
X0002293692Y0002625456D02*
X0002348811Y0002625456D01*
X0002348811Y0002527031D02*
X0002293692Y0002527031D01*
X0002348811Y0002527031D02*
X0002348811Y0002625456D01*
X0002101574Y0002314960D02*
X0002101574Y0002216535D01*
X0002101574Y0002314960D02*
X0002156692Y0002314960D01*
X0002156692Y0002216535D02*
X0002101574Y0002216535D01*
X0002156692Y0002216535D02*
X0002156692Y0002314960D01*
X0002165354Y0001910433D02*
X0002066929Y0001910433D01*
X0002165354Y0001910433D02*
X0002165354Y0001855314D01*
X0002066929Y0001855314D02*
X0002066929Y0001910433D01*
X0002066929Y0001855314D02*
X0002165354Y0001855314D01*
X0002165354Y0002059055D02*
X0002066929Y0002059055D01*
X0002165354Y0002059055D02*
X0002165354Y0002003937D01*
X0002066929Y0002003937D02*
X0002066929Y0002059055D01*
X0002066929Y0002003937D02*
X0002165354Y0002003937D01*
X0002165354Y0001988188D02*
X0002066929Y0001988188D01*
X0002165354Y0001988188D02*
X0002165354Y0001933070D01*
X0002066929Y0001933070D02*
X0002066929Y0001988188D01*
X0002066929Y0001933070D02*
X0002165354Y0001933070D01*
X0002585236Y0002038960D02*
X0002585236Y0001940535D01*
X0002585236Y0002038960D02*
X0002640354Y0002038960D01*
X0002640354Y0001940535D02*
X0002585236Y0001940535D01*
X0002640354Y0001940535D02*
X0002640354Y0002038960D01*
X0002648236Y0002038960D02*
X0002648236Y0001940535D01*
X0002648236Y0002038960D02*
X0002703354Y0002038960D01*
X0002703354Y0001940535D02*
X0002648236Y0001940535D01*
X0002703354Y0001940535D02*
X0002703354Y0002038960D01*
X0002523236Y0002037960D02*
X0002523236Y0001939535D01*
X0002523236Y0002037960D02*
X0002578354Y0002037960D01*
X0002578354Y0001939535D02*
X0002523236Y0001939535D01*
X0002578354Y0001939535D02*
X0002578354Y0002037960D01*
X0002212598Y0002637795D02*
X0002078740Y0002637795D01*
X0002078740Y0002637795D02*
X0002078740Y0002500000D01*
X0002078740Y0002500000D02*
X0002212598Y0002500000D01*
X0002212598Y0002500000D02*
X0002212598Y0002637795D01*
X0002564566Y0002174803D02*
X0002564566Y0002285039D01*
X0002564566Y0002174803D02*
X0002513385Y0002174803D01*
X0002513385Y0002285039D02*
X0002564566Y0002285039D01*
X0002513385Y0002285039D02*
X0002513385Y0002174803D01*
X0002422937Y0002512299D02*
X0002312700Y0002512299D01*
X0002422937Y0002512299D02*
X0002422937Y0002461118D01*
X0002312700Y0002461118D02*
X0002312700Y0002512299D01*
X0002312700Y0002461118D02*
X0002422937Y0002461118D01*
X0002459055Y0002285433D02*
X0002459055Y0002175196D01*
X0002459055Y0002285433D02*
X0002510236Y0002285433D01*
X0002510236Y0002175196D02*
X0002459055Y0002175196D01*
X0002510236Y0002175196D02*
X0002510236Y0002285433D01*
X0002397637Y0002174803D02*
X0002397637Y0002285039D01*
X0002397637Y0002174803D02*
X0002346456Y0002174803D01*
X0002346456Y0002285039D02*
X0002397637Y0002285039D01*
X0002346456Y0002285039D02*
X0002346456Y0002174803D01*
X0002510385Y0001934629D02*
X0002510385Y0002044866D01*
X0002510385Y0001934629D02*
X0002459204Y0001934629D01*
X0002459204Y0002044866D02*
X0002510385Y0002044866D01*
X0002459204Y0002044866D02*
X0002459204Y0001934629D01*
X0002779133Y0002042519D02*
X0002779133Y0001932283D01*
X0002779133Y0002042519D02*
X0002830314Y0002042519D01*
X0002830314Y0001932283D02*
X0002779133Y0001932283D01*
X0002830314Y0001932283D02*
X0002830314Y0002042519D01*
X0002422937Y0002449299D02*
X0002312700Y0002449299D01*
X0002422937Y0002449299D02*
X0002422937Y0002398118D01*
X0002312700Y0002398118D02*
X0002312700Y0002449299D01*
X0002312700Y0002398118D02*
X0002422937Y0002398118D01*
X0002444094Y0002388582D02*
X0002593700Y0002388582D01*
X0002593700Y0002388582D02*
X0002593700Y0002530314D01*
X0002593700Y0002530314D02*
X0002444094Y0002530314D01*
X0002444094Y0002530314D02*
X0002444094Y0002388582D01*
G04 next file*
G04 Gerber Fmt 4.6, Leading zero omitted, Abs format (unit mm)*
G04 Created by KiCad (PCBNEW 4.0.7) date 02/10/18 00:31:40*
G01G01*
G04 APERTURE LIST*
G04 APERTURE END LIST*
D95*
G04 next file*
G04 Gerber Fmt 4.6, Leading zero omitted, Abs format (unit mm)*
G04 Created by KiCad (PCBNEW 4.0.7) date 02/10/18 00:31:40*
G01G01*
G04 APERTURE LIST*
G04 APERTURE END LIST*
D96*
D97*
X0002065991Y0002196287D02*
X0002046306Y0002196287D01*
X0002046306Y0002203787D01*
X0002047244Y0002205661D01*
X0002048181Y0002206599D01*
X0002050056Y0002207536D01*
X0002052868Y0002207536D01*
X0002054743Y0002206599D01*
X0002055680Y0002205661D01*
X0002056617Y0002203787D01*
X0002056617Y0002196287D01*
X0002064116Y0002227221D02*
X0002065054Y0002226284D01*
X0002065991Y0002223472D01*
X0002065991Y0002221597D01*
X0002065054Y0002218785D01*
X0002063179Y0002216910D01*
X0002061304Y0002215972D01*
X0002057555Y0002215035D01*
X0002054743Y0002215035D01*
X0002050993Y0002215972D01*
X0002049118Y0002216910D01*
X0002047244Y0002218785D01*
X0002046306Y0002221597D01*
X0002046306Y0002223472D01*
X0002047244Y0002226284D01*
X0002048181Y0002227221D01*
X0002055680Y0002242219D02*
X0002056617Y0002245031D01*
X0002057555Y0002245969D01*
X0002059430Y0002246906D01*
X0002062242Y0002246906D01*
X0002064116Y0002245969D01*
X0002065054Y0002245031D01*
X0002065991Y0002243157D01*
X0002065991Y0002235658D01*
X0002046306Y0002235658D01*
X0002046306Y0002242219D01*
X0002047244Y0002244094D01*
X0002048181Y0002245031D01*
X0002050056Y0002245969D01*
X0002051931Y0002245969D01*
X0002053805Y0002245031D01*
X0002054743Y0002244094D01*
X0002055680Y0002242219D01*
X0002055680Y0002235658D01*
X0002055680Y0002270341D02*
X0002055680Y0002276902D01*
X0002065991Y0002279715D02*
X0002065991Y0002270341D01*
X0002046306Y0002270341D01*
X0002046306Y0002279715D01*
X0002065991Y0002296587D02*
X0002046306Y0002296587D01*
X0002065054Y0002296587D02*
X0002065991Y0002294713D01*
X0002065991Y0002290963D01*
X0002065054Y0002289088D01*
X0002064116Y0002288151D01*
X0002062242Y0002287214D01*
X0002056617Y0002287214D01*
X0002054743Y0002288151D01*
X0002053805Y0002289088D01*
X0002052868Y0002290963D01*
X0002052868Y0002294713D01*
X0002053805Y0002296587D01*
X0002052868Y0002314398D02*
X0002068803Y0002314398D01*
X0002070678Y0002313460D01*
X0002071616Y0002312523D01*
X0002072553Y0002310648D01*
X0002072553Y0002307836D01*
X0002071616Y0002305961D01*
X0002065054Y0002314398D02*
X0002065991Y0002312523D01*
X0002065991Y0002308773D01*
X0002065054Y0002306899D01*
X0002064116Y0002305961D01*
X0002062242Y0002305024D01*
X0002056617Y0002305024D01*
X0002054743Y0002305961D01*
X0002053805Y0002306899D01*
X0002052868Y0002308773D01*
X0002052868Y0002312523D01*
X0002053805Y0002314398D01*
X0002065054Y0002331271D02*
X0002065991Y0002329396D01*
X0002065991Y0002325646D01*
X0002065054Y0002323772D01*
X0002063179Y0002322834D01*
X0002055680Y0002322834D01*
X0002053805Y0002323772D01*
X0002052868Y0002325646D01*
X0002052868Y0002329396D01*
X0002053805Y0002331271D01*
X0002055680Y0002332208D01*
X0002057555Y0002332208D01*
X0002059430Y0002322834D01*
G04 next file*
G04 Gerber Fmt 4.6, Leading zero omitted, Abs format (unit mm)*
G04 Created by KiCad (PCBNEW 4.0.7) date 02/10/18 00:31:40*
G01G01*
G04 APERTURE LIST*
G04 APERTURE END LIST*
D98*
D99*
X0002003093Y0002508436D02*
X0002005905Y0002505624D01*
X0002008717Y0002499999D01*
X0002008717Y0002485939D01*
X0002005905Y0002480314D01*
X0002003093Y0002477502D01*
X0001997469Y0002474690D01*
X0001991844Y0002474690D01*
X0001983408Y0002477502D01*
X0001949662Y0002511248D01*
X0001949662Y0002474690D01*
X0002008717Y0002455005D02*
X0002008717Y0002418447D01*
X0001986220Y0002438132D01*
X0001986220Y0002429696D01*
X0001983408Y0002424071D01*
X0001980596Y0002421259D01*
X0001974971Y0002418447D01*
X0001960911Y0002418447D01*
X0001955286Y0002421259D01*
X0001952474Y0002424071D01*
X0001949662Y0002429696D01*
X0001949662Y0002446569D01*
X0001952474Y0002452193D01*
X0001955286Y0002455005D01*
X0001955286Y0002393138D02*
X0001952474Y0002390326D01*
X0001949662Y0002393138D01*
X0001952474Y0002395950D01*
X0001955286Y0002393138D01*
X0001949662Y0002393138D01*
X0002008717Y0002353768D02*
X0002008717Y0002348143D01*
X0002005905Y0002342519D01*
X0002003093Y0002339707D01*
X0001997469Y0002336895D01*
X0001986220Y0002334083D01*
X0001972159Y0002334083D01*
X0001960911Y0002336895D01*
X0001955286Y0002339707D01*
X0001952474Y0002342519D01*
X0001949662Y0002348143D01*
X0001949662Y0002353768D01*
X0001952474Y0002359392D01*
X0001955286Y0002362204D01*
X0001960911Y0002365016D01*
X0001972159Y0002367829D01*
X0001986220Y0002367829D01*
X0001997469Y0002365016D01*
X0002003093Y0002362204D01*
X0002005905Y0002359392D01*
X0002008717Y0002353768D01*
X0002008717Y0002297525D02*
X0002008717Y0002291901D01*
X0002005905Y0002286276D01*
X0002003093Y0002283464D01*
X0001997469Y0002280652D01*
X0001986220Y0002277840D01*
X0001972159Y0002277840D01*
X0001960911Y0002280652D01*
X0001955286Y0002283464D01*
X0001952474Y0002286276D01*
X0001949662Y0002291901D01*
X0001949662Y0002297525D01*
X0001952474Y0002303149D01*
X0001955286Y0002305961D01*
X0001960911Y0002308773D01*
X0001972159Y0002311586D01*
X0001986220Y0002311586D01*
X0001997469Y0002308773D01*
X0002003093Y0002305961D01*
X0002005905Y0002303149D01*
X0002008717Y0002297525D01*
X0002008717Y0002241282D02*
X0002008717Y0002235658D01*
X0002005905Y0002230033D01*
X0002003093Y0002227221D01*
X0001997469Y0002224409D01*
X0001986220Y0002221597D01*
X0001972159Y0002221597D01*
X0001960911Y0002224409D01*
X0001955286Y0002227221D01*
X0001952474Y0002230033D01*
X0001949662Y0002235658D01*
X0001949662Y0002241282D01*
X0001952474Y0002246906D01*
X0001955286Y0002249718D01*
X0001960911Y0002252530D01*
X0001972159Y0002255343D01*
X0001986220Y0002255343D01*
X0001997469Y0002252530D01*
X0002003093Y0002249718D01*
X0002005905Y0002246906D01*
X0002008717Y0002241282D01*
X0001949662Y0002151293D02*
X0001989032Y0002151293D01*
X0001983408Y0002151293D02*
X0001986220Y0002148481D01*
X0001989032Y0002142857D01*
X0001989032Y0002134420D01*
X0001986220Y0002128796D01*
X0001980596Y0002125984D01*
X0001949662Y0002125984D01*
X0001980596Y0002125984D02*
X0001986220Y0002123172D01*
X0001989032Y0002117547D01*
X0001989032Y0002109111D01*
X0001986220Y0002103487D01*
X0001980596Y0002100674D01*
X0001949662Y0002100674D01*
X0001949662Y0002072553D02*
X0001989032Y0002072553D01*
X0001983408Y0002072553D02*
X0001986220Y0002069741D01*
X0001989032Y0002064117D01*
X0001989032Y0002055680D01*
X0001986220Y0002050056D01*
X0001980596Y0002047244D01*
X0001949662Y0002047244D01*
X0001980596Y0002047244D02*
X0001986220Y0002044431D01*
X0001989032Y0002038807D01*
X0001989032Y0002030371D01*
X0001986220Y0002024746D01*
X0001980596Y0002021934D01*
X0001949662Y0002021934D01*
X0002029527Y0002716535D02*
X0002029527Y0001811023D01*
X0002047244Y0002716535D02*
X0001923228Y0002716535D01*
X0002047244Y0001811023D02*
X0001923228Y0001811023D01*
X0002029527Y0001811023D02*
X0002006440Y0001855374D01*
X0002029527Y0001811023D02*
X0002052614Y0001855374D01*
X0002029527Y0002716535D02*
X0002006440Y0002672184D01*
X0002029527Y0002716535D02*
X0002052614Y0002672184D01*
X0002425759Y0002865016D02*
X0002462317Y0002865016D01*
X0002442632Y0002842519D01*
X0002451068Y0002842519D01*
X0002456692Y0002839707D01*
X0002459505Y0002836895D01*
X0002462317Y0002831271D01*
X0002462317Y0002817210D01*
X0002459505Y0002811586D01*
X0002456692Y0002808773D01*
X0002451068Y0002805961D01*
X0002434195Y0002805961D01*
X0002428571Y0002808773D01*
X0002425759Y0002811586D01*
X0002518560Y0002805961D02*
X0002484814Y0002805961D01*
X0002501687Y0002805961D02*
X0002501687Y0002865016D01*
X0002496063Y0002856580D01*
X0002490438Y0002850956D01*
X0002484814Y0002848143D01*
X0002543869Y0002811586D02*
X0002546681Y0002808773D01*
X0002543869Y0002805961D01*
X0002541057Y0002808773D01*
X0002543869Y0002811586D01*
X0002543869Y0002805961D01*
X0002580427Y0002839707D02*
X0002574803Y0002842519D01*
X0002571990Y0002845331D01*
X0002569178Y0002850956D01*
X0002569178Y0002853768D01*
X0002571990Y0002859392D01*
X0002574803Y0002862204D01*
X0002580427Y0002865016D01*
X0002591676Y0002865016D01*
X0002597300Y0002862204D01*
X0002600112Y0002859392D01*
X0002602924Y0002853768D01*
X0002602924Y0002850956D01*
X0002600112Y0002845331D01*
X0002597300Y0002842519D01*
X0002591676Y0002839707D01*
X0002580427Y0002839707D01*
X0002574803Y0002836895D01*
X0002571990Y0002834083D01*
X0002569178Y0002828458D01*
X0002569178Y0002817210D01*
X0002571990Y0002811586D01*
X0002574803Y0002808773D01*
X0002580427Y0002805961D01*
X0002591676Y0002805961D01*
X0002597300Y0002808773D01*
X0002600112Y0002811586D01*
X0002602924Y0002817210D01*
X0002602924Y0002828458D01*
X0002600112Y0002834083D01*
X0002597300Y0002836895D01*
X0002591676Y0002839707D01*
X0002639482Y0002865016D02*
X0002645106Y0002865016D01*
X0002650731Y0002862204D01*
X0002653543Y0002859392D01*
X0002656355Y0002853768D01*
X0002659167Y0002842519D01*
X0002659167Y0002828458D01*
X0002656355Y0002817210D01*
X0002653543Y0002811586D01*
X0002650731Y0002808773D01*
X0002645106Y0002805961D01*
X0002639482Y0002805961D01*
X0002633858Y0002808773D01*
X0002631046Y0002811586D01*
X0002628233Y0002817210D01*
X0002625421Y0002828458D01*
X0002625421Y0002842519D01*
X0002628233Y0002853768D01*
X0002631046Y0002859392D01*
X0002633858Y0002862204D01*
X0002639482Y0002865016D01*
X0002695725Y0002865016D02*
X0002701349Y0002865016D01*
X0002706974Y0002862204D01*
X0002709786Y0002859392D01*
X0002712598Y0002853768D01*
X0002715410Y0002842519D01*
X0002715410Y0002828458D01*
X0002712598Y0002817210D01*
X0002709786Y0002811586D01*
X0002706974Y0002808773D01*
X0002701349Y0002805961D01*
X0002695725Y0002805961D01*
X0002690101Y0002808773D01*
X0002687289Y0002811586D01*
X0002684476Y0002817210D01*
X0002681664Y0002828458D01*
X0002681664Y0002842519D01*
X0002684476Y0002853768D01*
X0002687289Y0002859392D01*
X0002690101Y0002862204D01*
X0002695725Y0002865016D01*
X0002785714Y0002805961D02*
X0002785714Y0002845331D01*
X0002785714Y0002839707D02*
X0002788526Y0002842519D01*
X0002794150Y0002845331D01*
X0002802587Y0002845331D01*
X0002808211Y0002842519D01*
X0002811023Y0002836895D01*
X0002811023Y0002805961D01*
X0002811023Y0002836895D02*
X0002813835Y0002842519D01*
X0002819460Y0002845331D01*
X0002827896Y0002845331D01*
X0002833520Y0002842519D01*
X0002836332Y0002836895D01*
X0002836332Y0002805961D01*
X0002864454Y0002805961D02*
X0002864454Y0002845331D01*
X0002864454Y0002839707D02*
X0002867266Y0002842519D01*
X0002872890Y0002845331D01*
X0002881327Y0002845331D01*
X0002886951Y0002842519D01*
X0002889763Y0002836895D01*
X0002889763Y0002805961D01*
X0002889763Y0002836895D02*
X0002892575Y0002842519D01*
X0002898200Y0002845331D01*
X0002906636Y0002845331D01*
X0002912260Y0002842519D01*
X0002915073Y0002836895D01*
X0002915073Y0002805961D01*
X0002047244Y0002779527D02*
X0003299212Y0002779527D01*
X0002047244Y0002716535D02*
X0002047244Y0002885826D01*
X0003299212Y0002716535D02*
X0003299212Y0002885826D01*
X0003299212Y0002779527D02*
X0003254862Y0002756440D01*
X0003299212Y0002779527D02*
X0003254862Y0002802615D01*
X0002047244Y0002779527D02*
X0002091594Y0002756440D01*
X0002047244Y0002779527D02*
X0002091594Y0002802615D01*
G04 next file*
G04 Gerber Fmt 4.6, Leading zero omitted, Abs format (unit mm)*
G04 Created by KiCad (PCBNEW 4.0.7) date 02/10/18 00:31:40*
G01G01*
G04 APERTURE LIST*
G04 APERTURE END LIST*
D100*
G04 next file*
G04 Gerber Fmt 4.6, Leading zero omitted, Abs format (unit mm)*
G04 Created by KiCad (PCBNEW 4.0.7) date 02/10/18 00:31:40*
G01G01*
G04 APERTURE LIST*
G04 APERTURE END LIST*
D101*
D102*
X0002019685Y0002437007D02*
X0002019685Y0002090551D01*
X0002259842Y0002090551D02*
X0002019685Y0002090551D01*
X0002259842Y0002437007D02*
X0002259842Y0002090551D01*
X0002019685Y0002437007D02*
X0002259842Y0002437007D01*
X0002322779Y0001993606D02*
X0002543251Y0001993606D01*
X0002543251Y0001993606D02*
X0002543251Y0002469984D01*
X0002543251Y0002469984D02*
X0002322779Y0002469984D01*
X0002322779Y0002469984D02*
X0002322779Y0001993606D01*
X0003095881Y0002668204D02*
X0002454149Y0002668204D01*
X0002454149Y0002668204D02*
X0002454149Y0002526472D01*
X0002454149Y0002526472D02*
X0003095881Y0002526472D01*
X0003095881Y0002526472D02*
X0003095881Y0002668204D01*
X0002430787Y0001965803D02*
X0002430787Y0001898874D01*
X0002430787Y0001898874D02*
X0002277244Y0001898874D01*
X0002277244Y0001898874D02*
X0002277244Y0001965803D01*
X0002277244Y0001965803D02*
X0002430787Y0001965803D01*
X0003091768Y0001895427D02*
X0003024839Y0001895427D01*
X0003024839Y0001895427D02*
X0003024839Y0002048970D01*
X0003024839Y0002048970D02*
X0003091768Y0002048970D01*
X0003091768Y0002048970D02*
X0003091768Y0001895427D01*
X0003006834Y0001894606D02*
X0002939905Y0001894606D01*
X0002939905Y0001894606D02*
X0002939905Y0002048149D01*
X0002939905Y0002048149D02*
X0003006834Y0002048149D01*
X0003006834Y0002048149D02*
X0003006834Y0001894606D01*
G04 next file*
G04 Gerber Fmt 4.6, Leading zero omitted, Abs format (unit mm)*
G04 Created by KiCad (PCBNEW 4.0.7) date 02/10/18 00:31:40*
G01G01*
G04 APERTURE LIST*
G04 APERTURE END LIST*
D103*
G04 next file*
G04 Gerber Fmt 4.6, Leading zero omitted, Abs format (unit mm)*
G04 Created by KiCad (PCBNEW 4.0.7) date 12/10/17 14:33:21*
G01G01*
G04 APERTURE LIST*
G04 APERTURE END LIST*
D104*
D105*
X0003935039Y0000716535D02*
X0003293307Y0000716535D01*
X0003293307Y0000716535D02*
X0003293307Y0000858267D01*
X0003293307Y0000858267D02*
X0003935039Y0000858267D01*
X0003935039Y0000858267D02*
X0003935039Y0000716535D01*
G04 next file*
G04 Gerber Fmt 4.6, Leading zero omitted, Abs format (unit mm)*
G04 Created by KiCad (PCBNEW 4.0.7) date 12/10/17 14:33:21*
G01G01*
G04 APERTURE LIST*
G04 APERTURE END LIST*
D106*
G04 next file*
G04 Gerber Fmt 4.6, Leading zero omitted, Abs format (unit mm)*
G04 Created by KiCad (PCBNEW 4.0.7) date 12/10/17 14:33:21*
G01G01*
G04 APERTURE LIST*
G04 APERTURE END LIST*
D107*
G04 next file*
G04 Gerber Fmt 4.6, Leading zero omitted, Abs format (unit mm)*
G04 Created by KiCad (PCBNEW 4.0.7) date 12/10/17 14:33:21*
G01G01*
G04 APERTURE LIST*
G04 APERTURE END LIST*
D108*
D109*
X0003174965Y0000208153D02*
X0003172154Y0000210966D01*
X0003169345Y0000216591D01*
X0003169351Y0000230652D01*
X0003172165Y0000236275D01*
X0003174979Y0000239086D01*
X0003180604Y0000241896D01*
X0003186229Y0000241893D01*
X0003194664Y0000239078D01*
X0003228395Y0000205317D01*
X0003228411Y0000241875D01*
X0003169364Y0000261586D02*
X0003169380Y0000298144D01*
X0003191869Y0000278449D01*
X0003191872Y0000286885D01*
X0003194687Y0000292508D01*
X0003197500Y0000295319D01*
X0003203126Y0000298129D01*
X0003217187Y0000298123D01*
X0003222810Y0000295308D01*
X0003225621Y0000292495D01*
X0003228430Y0000286870D01*
X0003228423Y0000269997D01*
X0003225608Y0000264374D01*
X0003222795Y0000261563D01*
X0003222822Y0000323430D02*
X0003225635Y0000326241D01*
X0003228446Y0000323427D01*
X0003225633Y0000320616D01*
X0003222822Y0000323430D01*
X0003228446Y0000323427D01*
X0003169408Y0000362823D02*
X0003169411Y0000368447D01*
X0003172225Y0000374071D01*
X0003175039Y0000376881D01*
X0003180664Y0000379691D01*
X0003191914Y0000382498D01*
X0003205975Y0000382492D01*
X0003217222Y0000379675D01*
X0003222845Y0000376861D01*
X0003225656Y0000374047D01*
X0003228466Y0000368422D01*
X0003228463Y0000362797D01*
X0003225649Y0000357174D01*
X0003222835Y0000354363D01*
X0003217210Y0000351554D01*
X0003205960Y0000348747D01*
X0003191899Y0000348753D01*
X0003180652Y0000351570D01*
X0003175029Y0000354384D01*
X0003172218Y0000357198D01*
X0003169408Y0000362823D01*
X0003169433Y0000419066D02*
X0003169435Y0000424690D01*
X0003172250Y0000430313D01*
X0003175063Y0000433124D01*
X0003180689Y0000435934D01*
X0003191938Y0000438741D01*
X0003205999Y0000438735D01*
X0003217247Y0000435918D01*
X0003222870Y0000433104D01*
X0003225681Y0000430290D01*
X0003228490Y0000424665D01*
X0003228488Y0000419040D01*
X0003225673Y0000413417D01*
X0003222860Y0000410606D01*
X0003217234Y0000407797D01*
X0003205985Y0000404990D01*
X0003191924Y0000404996D01*
X0003180676Y0000407813D01*
X0003175053Y0000410627D01*
X0003172242Y0000413441D01*
X0003169433Y0000419066D01*
X0003169457Y0000475309D02*
X0003169460Y0000480933D01*
X0003172274Y0000486556D01*
X0003175088Y0000489367D01*
X0003180713Y0000492177D01*
X0003191963Y0000494984D01*
X0003206024Y0000494978D01*
X0003217271Y0000492161D01*
X0003222894Y0000489347D01*
X0003225705Y0000486533D01*
X0003228515Y0000480908D01*
X0003228512Y0000475283D01*
X0003225698Y0000469660D01*
X0003222884Y0000466849D01*
X0003217259Y0000464040D01*
X0003206009Y0000461232D01*
X0003191948Y0000461239D01*
X0003180701Y0000464056D01*
X0003175078Y0000466870D01*
X0003172267Y0000469684D01*
X0003169457Y0000475309D01*
X0003228551Y0000565272D02*
X0003189181Y0000565289D01*
X0003194806Y0000565287D02*
X0003191995Y0000568100D01*
X0003189185Y0000573726D01*
X0003189189Y0000582162D01*
X0003192003Y0000587785D01*
X0003197629Y0000590595D01*
X0003228562Y0000590581D01*
X0003197629Y0000590595D02*
X0003192006Y0000593410D01*
X0003189196Y0000599035D01*
X0003189200Y0000607471D01*
X0003192014Y0000613095D01*
X0003197640Y0000615904D01*
X0003228573Y0000615891D01*
X0003228586Y0000644012D02*
X0003189216Y0000644029D01*
X0003194840Y0000644027D02*
X0003192029Y0000646840D01*
X0003189219Y0000652466D01*
X0003189223Y0000660902D01*
X0003192037Y0000666525D01*
X0003197663Y0000669335D01*
X0003228597Y0000669322D01*
X0003197663Y0000669335D02*
X0003192040Y0000672150D01*
X0003189230Y0000677775D01*
X0003189234Y0000686212D01*
X0003192048Y0000691835D01*
X0003197674Y0000694644D01*
X0003228608Y0000694631D01*
X0003255134Y0000905531D02*
X0003254740Y0000000019D01*
X0003299606Y0000905511D02*
X0003148834Y0000905577D01*
X0003299212Y0000000000D02*
X0003148441Y0000000065D01*
X0003254740Y0000000019D02*
X0003231672Y0000044379D01*
X0003254740Y0000000019D02*
X0003277847Y0000044359D01*
X0003255134Y0000905531D02*
X0003232027Y0000861190D01*
X0003255134Y0000905531D02*
X0003278202Y0000861170D01*
X0003403459Y0000967774D02*
X0003369713Y0000967774D01*
X0003386586Y0000967774D02*
X0003386586Y0001026829D01*
X0003380961Y0001018393D01*
X0003375337Y0001012769D01*
X0003369713Y0001009956D01*
X0003454077Y0001026829D02*
X0003442829Y0001026829D01*
X0003437204Y0001024017D01*
X0003434392Y0001021205D01*
X0003428768Y0001012769D01*
X0003425956Y0001001520D01*
X0003425956Y0000979023D01*
X0003428768Y0000973398D01*
X0003431580Y0000970586D01*
X0003437204Y0000967774D01*
X0003448453Y0000967774D01*
X0003454077Y0000970586D01*
X0003456889Y0000973398D01*
X0003459702Y0000979023D01*
X0003459702Y0000993083D01*
X0003456889Y0000998708D01*
X0003454077Y0001001520D01*
X0003448453Y0001004332D01*
X0003437204Y0001004332D01*
X0003431580Y0001001520D01*
X0003428768Y0000998708D01*
X0003425956Y0000993083D01*
X0003485011Y0000973398D02*
X0003487823Y0000970586D01*
X0003485011Y0000967774D01*
X0003482199Y0000970586D01*
X0003485011Y0000973398D01*
X0003485011Y0000967774D01*
X0003524381Y0001026829D02*
X0003530005Y0001026829D01*
X0003535630Y0001024017D01*
X0003538442Y0001021205D01*
X0003541254Y0001015581D01*
X0003544066Y0001004332D01*
X0003544066Y0000990271D01*
X0003541254Y0000979023D01*
X0003538442Y0000973398D01*
X0003535630Y0000970586D01*
X0003530005Y0000967774D01*
X0003524381Y0000967774D01*
X0003518757Y0000970586D01*
X0003515945Y0000973398D01*
X0003513132Y0000979023D01*
X0003510320Y0000990271D01*
X0003510320Y0001004332D01*
X0003513132Y0001015581D01*
X0003515945Y0001021205D01*
X0003518757Y0001024017D01*
X0003524381Y0001026829D01*
X0003600309Y0000967774D02*
X0003566563Y0000967774D01*
X0003583436Y0000967774D02*
X0003583436Y0001026829D01*
X0003577812Y0001018393D01*
X0003572187Y0001012769D01*
X0003566563Y0001009956D01*
X0003636867Y0001026829D02*
X0003642491Y0001026829D01*
X0003648115Y0001024017D01*
X0003650928Y0001021205D01*
X0003653740Y0001015581D01*
X0003656552Y0001004332D01*
X0003656552Y0000990271D01*
X0003653740Y0000979023D01*
X0003650928Y0000973398D01*
X0003648115Y0000970586D01*
X0003642491Y0000967774D01*
X0003636867Y0000967774D01*
X0003631243Y0000970586D01*
X0003628430Y0000973398D01*
X0003625618Y0000979023D01*
X0003622806Y0000990271D01*
X0003622806Y0001004332D01*
X0003625618Y0001015581D01*
X0003628430Y0001021205D01*
X0003631243Y0001024017D01*
X0003636867Y0001026829D01*
X0003726856Y0000967774D02*
X0003726856Y0001007144D01*
X0003726856Y0001001520D02*
X0003729668Y0001004332D01*
X0003735292Y0001007144D01*
X0003743728Y0001007144D01*
X0003749353Y0001004332D01*
X0003752165Y0000998708D01*
X0003752165Y0000967774D01*
X0003752165Y0000998708D02*
X0003754977Y0001004332D01*
X0003760601Y0001007144D01*
X0003769038Y0001007144D01*
X0003774662Y0001004332D01*
X0003777474Y0000998708D01*
X0003777474Y0000967774D01*
X0003805596Y0000967774D02*
X0003805596Y0001007144D01*
X0003805596Y0001001520D02*
X0003808408Y0001004332D01*
X0003814032Y0001007144D01*
X0003822469Y0001007144D01*
X0003828093Y0001004332D01*
X0003830905Y0000998708D01*
X0003830905Y0000967774D01*
X0003830905Y0000998708D02*
X0003833717Y0001004332D01*
X0003839342Y0001007144D01*
X0003847778Y0001007144D01*
X0003853402Y0001004332D01*
X0003856214Y0000998708D01*
X0003856214Y0000967774D01*
X0003299212Y0000941340D02*
X0003929527Y0000941340D01*
X0003299212Y0000905511D02*
X0003299212Y0001047639D01*
X0003929527Y0000905511D02*
X0003929527Y0001047639D01*
X0003929527Y0000941340D02*
X0003885177Y0000918252D01*
X0003929527Y0000941340D02*
X0003885177Y0000964427D01*
X0003299212Y0000941340D02*
X0003343563Y0000918252D01*
X0003299212Y0000941340D02*
X0003343563Y0000964427D01*
G04 next file*
G04 Gerber Fmt 4.6, Leading zero omitted, Abs format (unit mm)*
G04 Created by KiCad (PCBNEW 4.0.7) date 12/10/17 14:33:21*
G01G01*
G04 APERTURE LIST*
G04 APERTURE END LIST*
D110*
G04 next file*
G04 Gerber Fmt 4.6, Leading zero omitted, Abs format (unit mm)*
G04 Created by KiCad (PCBNEW 4.0.7) date 12/10/17 14:33:21*
G01G01*
G04 APERTURE LIST*
G04 APERTURE END LIST*
D111*
G04 next file*
G04 Gerber Fmt 4.6, Leading zero omitted, Abs format (unit mm)*
G04 Created by KiCad (PCBNEW 4.0.7) date 12/10/17 14:33:21*
G01G01*
G04 APERTURE LIST*
G04 APERTURE END LIST*
D112*
G04 next file*
G04 Gerber Fmt 4.6, Leading zero omitted, Abs format (unit mm)*
G04 Created by KiCad (PCBNEW 4.0.7) date 12/10/17 14:33:21*
G01G01*
G04 APERTURE LIST*
G04 APERTURE END LIST*
D113*
D114*
X0003935039Y0001622047D02*
X0003293307Y0001622047D01*
X0003293307Y0001622047D02*
X0003293307Y0001763779D01*
X0003293307Y0001763779D02*
X0003935039Y0001763779D01*
X0003935039Y0001763779D02*
X0003935039Y0001622047D01*
G04 next file*
G04 Gerber Fmt 4.6, Leading zero omitted, Abs format (unit mm)*
G04 Created by KiCad (PCBNEW 4.0.7) date 12/10/17 14:33:21*
G01G01*
G04 APERTURE LIST*
G04 APERTURE END LIST*
D115*
G04 next file*
G04 Gerber Fmt 4.6, Leading zero omitted, Abs format (unit mm)*
G04 Created by KiCad (PCBNEW 4.0.7) date 12/10/17 14:33:21*
G01G01*
G04 APERTURE LIST*
G04 APERTURE END LIST*
D116*
G04 next file*
G04 Gerber Fmt 4.6, Leading zero omitted, Abs format (unit mm)*
G04 Created by KiCad (PCBNEW 4.0.7) date 12/10/17 14:33:21*
G01G01*
G04 APERTURE LIST*
G04 APERTURE END LIST*
D117*
D118*
X0003174965Y0001113664D02*
X0003172154Y0001116478D01*
X0003169345Y0001122103D01*
X0003169351Y0001136164D01*
X0003172165Y0001141787D01*
X0003174979Y0001144598D01*
X0003180604Y0001147408D01*
X0003186229Y0001147405D01*
X0003194664Y0001144590D01*
X0003228395Y0001110829D01*
X0003228411Y0001147387D01*
X0003169364Y0001167098D02*
X0003169380Y0001203656D01*
X0003191869Y0001183961D01*
X0003191872Y0001192397D01*
X0003194687Y0001198020D01*
X0003197500Y0001200831D01*
X0003203126Y0001203641D01*
X0003217187Y0001203635D01*
X0003222810Y0001200820D01*
X0003225621Y0001198007D01*
X0003228430Y0001192381D01*
X0003228423Y0001175508D01*
X0003225608Y0001169885D01*
X0003222795Y0001167074D01*
X0003222822Y0001228942D02*
X0003225635Y0001231753D01*
X0003228446Y0001228939D01*
X0003225633Y0001226128D01*
X0003222822Y0001228942D01*
X0003228446Y0001228939D01*
X0003169408Y0001268335D02*
X0003169411Y0001273959D01*
X0003172225Y0001279582D01*
X0003175039Y0001282393D01*
X0003180664Y0001285203D01*
X0003191914Y0001288010D01*
X0003205975Y0001288004D01*
X0003217222Y0001285187D01*
X0003222845Y0001282372D01*
X0003225656Y0001279559D01*
X0003228466Y0001273934D01*
X0003228463Y0001268309D01*
X0003225649Y0001262686D01*
X0003222835Y0001259875D01*
X0003217210Y0001257066D01*
X0003205960Y0001254258D01*
X0003191899Y0001254264D01*
X0003180652Y0001257082D01*
X0003175029Y0001259896D01*
X0003172218Y0001262709D01*
X0003169408Y0001268335D01*
X0003169433Y0001324578D02*
X0003169435Y0001330202D01*
X0003172250Y0001335825D01*
X0003175063Y0001338636D01*
X0003180689Y0001341446D01*
X0003191938Y0001344253D01*
X0003205999Y0001344247D01*
X0003217247Y0001341430D01*
X0003222870Y0001338615D01*
X0003225681Y0001335802D01*
X0003228490Y0001330177D01*
X0003228488Y0001324552D01*
X0003225673Y0001318929D01*
X0003222860Y0001316118D01*
X0003217234Y0001313309D01*
X0003205985Y0001310501D01*
X0003191924Y0001310507D01*
X0003180676Y0001313324D01*
X0003175053Y0001316139D01*
X0003172242Y0001318952D01*
X0003169433Y0001324578D01*
X0003169457Y0001380821D02*
X0003169460Y0001386445D01*
X0003172274Y0001392068D01*
X0003175088Y0001394879D01*
X0003180713Y0001397689D01*
X0003191963Y0001400496D01*
X0003206024Y0001400490D01*
X0003217271Y0001397673D01*
X0003222894Y0001394858D01*
X0003225705Y0001392045D01*
X0003228515Y0001386420D01*
X0003228512Y0001380795D01*
X0003225698Y0001375172D01*
X0003222884Y0001372361D01*
X0003217259Y0001369552D01*
X0003206009Y0001366744D01*
X0003191948Y0001366750D01*
X0003180701Y0001369567D01*
X0003175078Y0001372382D01*
X0003172267Y0001375195D01*
X0003169457Y0001380821D01*
X0003228551Y0001470784D02*
X0003189181Y0001470801D01*
X0003194806Y0001470799D02*
X0003191995Y0001473612D01*
X0003189185Y0001479237D01*
X0003189189Y0001487674D01*
X0003192003Y0001493297D01*
X0003197629Y0001496107D01*
X0003228562Y0001496093D01*
X0003197629Y0001496107D02*
X0003192006Y0001498921D01*
X0003189196Y0001504547D01*
X0003189200Y0001512983D01*
X0003192014Y0001518606D01*
X0003197640Y0001521416D01*
X0003228573Y0001521403D01*
X0003228586Y0001549524D02*
X0003189216Y0001549541D01*
X0003194840Y0001549539D02*
X0003192029Y0001552352D01*
X0003189219Y0001557978D01*
X0003189223Y0001566414D01*
X0003192037Y0001572037D01*
X0003197663Y0001574847D01*
X0003228597Y0001574833D01*
X0003197663Y0001574847D02*
X0003192040Y0001577661D01*
X0003189230Y0001583287D01*
X0003189234Y0001591723D01*
X0003192048Y0001597347D01*
X0003197674Y0001600156D01*
X0003228608Y0001600143D01*
X0003255134Y0001811042D02*
X0003254740Y0000905531D01*
X0003299606Y0001811023D02*
X0003148834Y0001811089D01*
X0003299212Y0000905511D02*
X0003148441Y0000905577D01*
X0003254740Y0000905531D02*
X0003231672Y0000949891D01*
X0003254740Y0000905531D02*
X0003277847Y0000949871D01*
X0003255134Y0001811042D02*
X0003232027Y0001766702D01*
X0003255134Y0001811042D02*
X0003278202Y0001766682D01*
X0003403459Y0001873286D02*
X0003369713Y0001873286D01*
X0003386586Y0001873286D02*
X0003386586Y0001932341D01*
X0003380961Y0001923905D01*
X0003375337Y0001918280D01*
X0003369713Y0001915468D01*
X0003454077Y0001932341D02*
X0003442829Y0001932341D01*
X0003437204Y0001929529D01*
X0003434392Y0001926717D01*
X0003428768Y0001918280D01*
X0003425956Y0001907032D01*
X0003425956Y0001884535D01*
X0003428768Y0001878910D01*
X0003431580Y0001876098D01*
X0003437204Y0001873286D01*
X0003448453Y0001873286D01*
X0003454077Y0001876098D01*
X0003456889Y0001878910D01*
X0003459702Y0001884535D01*
X0003459702Y0001898595D01*
X0003456889Y0001904220D01*
X0003454077Y0001907032D01*
X0003448453Y0001909844D01*
X0003437204Y0001909844D01*
X0003431580Y0001907032D01*
X0003428768Y0001904220D01*
X0003425956Y0001898595D01*
X0003485011Y0001878910D02*
X0003487823Y0001876098D01*
X0003485011Y0001873286D01*
X0003482199Y0001876098D01*
X0003485011Y0001878910D01*
X0003485011Y0001873286D01*
X0003524381Y0001932341D02*
X0003530005Y0001932341D01*
X0003535630Y0001929529D01*
X0003538442Y0001926717D01*
X0003541254Y0001921092D01*
X0003544066Y0001909844D01*
X0003544066Y0001895783D01*
X0003541254Y0001884535D01*
X0003538442Y0001878910D01*
X0003535630Y0001876098D01*
X0003530005Y0001873286D01*
X0003524381Y0001873286D01*
X0003518757Y0001876098D01*
X0003515945Y0001878910D01*
X0003513132Y0001884535D01*
X0003510320Y0001895783D01*
X0003510320Y0001909844D01*
X0003513132Y0001921092D01*
X0003515945Y0001926717D01*
X0003518757Y0001929529D01*
X0003524381Y0001932341D01*
X0003600309Y0001873286D02*
X0003566563Y0001873286D01*
X0003583436Y0001873286D02*
X0003583436Y0001932341D01*
X0003577812Y0001923905D01*
X0003572187Y0001918280D01*
X0003566563Y0001915468D01*
X0003636867Y0001932341D02*
X0003642491Y0001932341D01*
X0003648115Y0001929529D01*
X0003650928Y0001926717D01*
X0003653740Y0001921092D01*
X0003656552Y0001909844D01*
X0003656552Y0001895783D01*
X0003653740Y0001884535D01*
X0003650928Y0001878910D01*
X0003648115Y0001876098D01*
X0003642491Y0001873286D01*
X0003636867Y0001873286D01*
X0003631243Y0001876098D01*
X0003628430Y0001878910D01*
X0003625618Y0001884535D01*
X0003622806Y0001895783D01*
X0003622806Y0001909844D01*
X0003625618Y0001921092D01*
X0003628430Y0001926717D01*
X0003631243Y0001929529D01*
X0003636867Y0001932341D01*
X0003726856Y0001873286D02*
X0003726856Y0001912656D01*
X0003726856Y0001907032D02*
X0003729668Y0001909844D01*
X0003735292Y0001912656D01*
X0003743728Y0001912656D01*
X0003749353Y0001909844D01*
X0003752165Y0001904220D01*
X0003752165Y0001873286D01*
X0003752165Y0001904220D02*
X0003754977Y0001909844D01*
X0003760601Y0001912656D01*
X0003769038Y0001912656D01*
X0003774662Y0001909844D01*
X0003777474Y0001904220D01*
X0003777474Y0001873286D01*
X0003805596Y0001873286D02*
X0003805596Y0001912656D01*
X0003805596Y0001907032D02*
X0003808408Y0001909844D01*
X0003814032Y0001912656D01*
X0003822469Y0001912656D01*
X0003828093Y0001909844D01*
X0003830905Y0001904220D01*
X0003830905Y0001873286D01*
X0003830905Y0001904220D02*
X0003833717Y0001909844D01*
X0003839342Y0001912656D01*
X0003847778Y0001912656D01*
X0003853402Y0001909844D01*
X0003856214Y0001904220D01*
X0003856214Y0001873286D01*
X0003299212Y0001846852D02*
X0003929527Y0001846852D01*
X0003299212Y0001811023D02*
X0003299212Y0001953151D01*
X0003929527Y0001811023D02*
X0003929527Y0001953151D01*
X0003929527Y0001846852D02*
X0003885177Y0001823764D01*
X0003929527Y0001846852D02*
X0003885177Y0001869939D01*
X0003299212Y0001846852D02*
X0003343563Y0001823764D01*
X0003299212Y0001846852D02*
X0003343563Y0001869939D01*
G04 next file*
G04 Gerber Fmt 4.6, Leading zero omitted, Abs format (unit mm)*
G04 Created by KiCad (PCBNEW 4.0.7) date 12/10/17 14:33:21*
G01G01*
G04 APERTURE LIST*
G04 APERTURE END LIST*
D119*
G04 next file*
G04 Gerber Fmt 4.6, Leading zero omitted, Abs format (unit mm)*
G04 Created by KiCad (PCBNEW 4.0.7) date 12/10/17 14:33:21*
G01G01*
G04 APERTURE LIST*
G04 APERTURE END LIST*
D120*
G04 next file*
G04 Gerber Fmt 4.6, Leading zero omitted, Abs format (unit mm)*
G04 Created by KiCad (PCBNEW 4.0.7) date 12/10/17 14:33:21*
G01G01*
G04 APERTURE LIST*
G04 APERTURE END LIST*
D121*
G04 next file*
G04 Gerber Fmt 4.6, Leading zero omitted, Abs format (unit mm)*
G04 Created by KiCad (PCBNEW 4.0.7) date 12/10/17 14:33:21*
G01G01*
G04 APERTURE LIST*
G04 APERTURE END LIST*
D122*
D123*
X0003935039Y0002527559D02*
X0003293307Y0002527559D01*
X0003293307Y0002527559D02*
X0003293307Y0002669291D01*
X0003293307Y0002669291D02*
X0003935039Y0002669291D01*
X0003935039Y0002669291D02*
X0003935039Y0002527559D01*
G04 next file*
G04 Gerber Fmt 4.6, Leading zero omitted, Abs format (unit mm)*
G04 Created by KiCad (PCBNEW 4.0.7) date 12/10/17 14:33:21*
G01G01*
G04 APERTURE LIST*
G04 APERTURE END LIST*
D124*
G04 next file*
G04 Gerber Fmt 4.6, Leading zero omitted, Abs format (unit mm)*
G04 Created by KiCad (PCBNEW 4.0.7) date 12/10/17 14:33:21*
G01G01*
G04 APERTURE LIST*
G04 APERTURE END LIST*
D125*
G04 next file*
G04 Gerber Fmt 4.6, Leading zero omitted, Abs format (unit mm)*
G04 Created by KiCad (PCBNEW 4.0.7) date 12/10/17 14:33:21*
G01G01*
G04 APERTURE LIST*
G04 APERTURE END LIST*
D126*
D127*
X0003174965Y0002019176D02*
X0003172154Y0002021990D01*
X0003169345Y0002027615D01*
X0003169351Y0002041676D01*
X0003172165Y0002047299D01*
X0003174979Y0002050110D01*
X0003180604Y0002052920D01*
X0003186229Y0002052917D01*
X0003194664Y0002050101D01*
X0003228395Y0002016341D01*
X0003228411Y0002052899D01*
X0003169364Y0002072610D02*
X0003169380Y0002109167D01*
X0003191869Y0002089473D01*
X0003191872Y0002097909D01*
X0003194687Y0002103532D01*
X0003197500Y0002106343D01*
X0003203126Y0002109153D01*
X0003217187Y0002109147D01*
X0003222810Y0002106332D01*
X0003225621Y0002103519D01*
X0003228430Y0002097893D01*
X0003228423Y0002081020D01*
X0003225608Y0002075397D01*
X0003222795Y0002072586D01*
X0003222822Y0002134453D02*
X0003225635Y0002137264D01*
X0003228446Y0002134451D01*
X0003225633Y0002131640D01*
X0003222822Y0002134453D01*
X0003228446Y0002134451D01*
X0003169408Y0002173847D02*
X0003169411Y0002179471D01*
X0003172225Y0002185094D01*
X0003175039Y0002187905D01*
X0003180664Y0002190715D01*
X0003191914Y0002193522D01*
X0003205975Y0002193516D01*
X0003217222Y0002190699D01*
X0003222845Y0002187884D01*
X0003225656Y0002185071D01*
X0003228466Y0002179445D01*
X0003228463Y0002173821D01*
X0003225649Y0002168198D01*
X0003222835Y0002165387D01*
X0003217210Y0002162577D01*
X0003205960Y0002159770D01*
X0003191899Y0002159776D01*
X0003180652Y0002162593D01*
X0003175029Y0002165408D01*
X0003172218Y0002168221D01*
X0003169408Y0002173847D01*
X0003169433Y0002230090D02*
X0003169435Y0002235714D01*
X0003172250Y0002241337D01*
X0003175063Y0002244148D01*
X0003180689Y0002246958D01*
X0003191938Y0002249765D01*
X0003205999Y0002249759D01*
X0003217247Y0002246942D01*
X0003222870Y0002244127D01*
X0003225681Y0002241314D01*
X0003228490Y0002235688D01*
X0003228488Y0002230064D01*
X0003225673Y0002224441D01*
X0003222860Y0002221630D01*
X0003217234Y0002218820D01*
X0003205985Y0002216013D01*
X0003191924Y0002216019D01*
X0003180676Y0002218836D01*
X0003175053Y0002221651D01*
X0003172242Y0002224464D01*
X0003169433Y0002230090D01*
X0003169457Y0002286333D02*
X0003169460Y0002291957D01*
X0003172274Y0002297580D01*
X0003175088Y0002300391D01*
X0003180713Y0002303201D01*
X0003191963Y0002306008D01*
X0003206024Y0002306002D01*
X0003217271Y0002303185D01*
X0003222894Y0002300370D01*
X0003225705Y0002297557D01*
X0003228515Y0002291931D01*
X0003228512Y0002286307D01*
X0003225698Y0002280684D01*
X0003222884Y0002277873D01*
X0003217259Y0002275063D01*
X0003206009Y0002272256D01*
X0003191948Y0002272262D01*
X0003180701Y0002275079D01*
X0003175078Y0002277894D01*
X0003172267Y0002280707D01*
X0003169457Y0002286333D01*
X0003228551Y0002376296D02*
X0003189181Y0002376313D01*
X0003194806Y0002376310D02*
X0003191995Y0002379124D01*
X0003189185Y0002384749D01*
X0003189189Y0002393186D01*
X0003192003Y0002398809D01*
X0003197629Y0002401619D01*
X0003228562Y0002401605D01*
X0003197629Y0002401619D02*
X0003192006Y0002404433D01*
X0003189196Y0002410059D01*
X0003189200Y0002418495D01*
X0003192014Y0002424118D01*
X0003197640Y0002426928D01*
X0003228573Y0002426914D01*
X0003228586Y0002455036D02*
X0003189216Y0002455053D01*
X0003194840Y0002455051D02*
X0003192029Y0002457864D01*
X0003189219Y0002463489D01*
X0003189223Y0002471926D01*
X0003192037Y0002477549D01*
X0003197663Y0002480359D01*
X0003228597Y0002480345D01*
X0003197663Y0002480359D02*
X0003192040Y0002483173D01*
X0003189230Y0002488799D01*
X0003189234Y0002497235D01*
X0003192048Y0002502858D01*
X0003197674Y0002505668D01*
X0003228608Y0002505655D01*
X0003255134Y0002716554D02*
X0003254740Y0001811042D01*
X0003299606Y0002716535D02*
X0003148834Y0002716600D01*
X0003299212Y0001811023D02*
X0003148441Y0001811089D01*
X0003254740Y0001811042D02*
X0003231672Y0001855403D01*
X0003254740Y0001811042D02*
X0003277847Y0001855383D01*
X0003255134Y0002716554D02*
X0003232027Y0002672214D01*
X0003255134Y0002716554D02*
X0003278202Y0002672194D01*
X0003403459Y0002778798D02*
X0003369713Y0002778798D01*
X0003386586Y0002778798D02*
X0003386586Y0002837853D01*
X0003380961Y0002829416D01*
X0003375337Y0002823792D01*
X0003369713Y0002820980D01*
X0003454077Y0002837853D02*
X0003442829Y0002837853D01*
X0003437204Y0002835041D01*
X0003434392Y0002832229D01*
X0003428768Y0002823792D01*
X0003425956Y0002812544D01*
X0003425956Y0002790046D01*
X0003428768Y0002784422D01*
X0003431580Y0002781610D01*
X0003437204Y0002778798D01*
X0003448453Y0002778798D01*
X0003454077Y0002781610D01*
X0003456889Y0002784422D01*
X0003459702Y0002790046D01*
X0003459702Y0002804107D01*
X0003456889Y0002809731D01*
X0003454077Y0002812544D01*
X0003448453Y0002815356D01*
X0003437204Y0002815356D01*
X0003431580Y0002812544D01*
X0003428768Y0002809731D01*
X0003425956Y0002804107D01*
X0003485011Y0002784422D02*
X0003487823Y0002781610D01*
X0003485011Y0002778798D01*
X0003482199Y0002781610D01*
X0003485011Y0002784422D01*
X0003485011Y0002778798D01*
X0003524381Y0002837853D02*
X0003530005Y0002837853D01*
X0003535630Y0002835041D01*
X0003538442Y0002832229D01*
X0003541254Y0002826604D01*
X0003544066Y0002815356D01*
X0003544066Y0002801295D01*
X0003541254Y0002790046D01*
X0003538442Y0002784422D01*
X0003535630Y0002781610D01*
X0003530005Y0002778798D01*
X0003524381Y0002778798D01*
X0003518757Y0002781610D01*
X0003515945Y0002784422D01*
X0003513132Y0002790046D01*
X0003510320Y0002801295D01*
X0003510320Y0002815356D01*
X0003513132Y0002826604D01*
X0003515945Y0002832229D01*
X0003518757Y0002835041D01*
X0003524381Y0002837853D01*
X0003600309Y0002778798D02*
X0003566563Y0002778798D01*
X0003583436Y0002778798D02*
X0003583436Y0002837853D01*
X0003577812Y0002829416D01*
X0003572187Y0002823792D01*
X0003566563Y0002820980D01*
X0003636867Y0002837853D02*
X0003642491Y0002837853D01*
X0003648115Y0002835041D01*
X0003650928Y0002832229D01*
X0003653740Y0002826604D01*
X0003656552Y0002815356D01*
X0003656552Y0002801295D01*
X0003653740Y0002790046D01*
X0003650928Y0002784422D01*
X0003648115Y0002781610D01*
X0003642491Y0002778798D01*
X0003636867Y0002778798D01*
X0003631243Y0002781610D01*
X0003628430Y0002784422D01*
X0003625618Y0002790046D01*
X0003622806Y0002801295D01*
X0003622806Y0002815356D01*
X0003625618Y0002826604D01*
X0003628430Y0002832229D01*
X0003631243Y0002835041D01*
X0003636867Y0002837853D01*
X0003726856Y0002778798D02*
X0003726856Y0002818168D01*
X0003726856Y0002812544D02*
X0003729668Y0002815356D01*
X0003735292Y0002818168D01*
X0003743728Y0002818168D01*
X0003749353Y0002815356D01*
X0003752165Y0002809731D01*
X0003752165Y0002778798D01*
X0003752165Y0002809731D02*
X0003754977Y0002815356D01*
X0003760601Y0002818168D01*
X0003769038Y0002818168D01*
X0003774662Y0002815356D01*
X0003777474Y0002809731D01*
X0003777474Y0002778798D01*
X0003805596Y0002778798D02*
X0003805596Y0002818168D01*
X0003805596Y0002812544D02*
X0003808408Y0002815356D01*
X0003814032Y0002818168D01*
X0003822469Y0002818168D01*
X0003828093Y0002815356D01*
X0003830905Y0002809731D01*
X0003830905Y0002778798D01*
X0003830905Y0002809731D02*
X0003833717Y0002815356D01*
X0003839342Y0002818168D01*
X0003847778Y0002818168D01*
X0003853402Y0002815356D01*
X0003856214Y0002809731D01*
X0003856214Y0002778798D01*
X0003299212Y0002752364D02*
X0003929527Y0002752364D01*
X0003299212Y0002716535D02*
X0003299212Y0002858663D01*
X0003929527Y0002716535D02*
X0003929527Y0002858663D01*
X0003929527Y0002752364D02*
X0003885177Y0002729276D01*
X0003929527Y0002752364D02*
X0003885177Y0002775451D01*
X0003299212Y0002752364D02*
X0003343563Y0002729276D01*
X0003299212Y0002752364D02*
X0003343563Y0002775451D01*
G04 next file*
G04 Gerber Fmt 4.6, Leading zero omitted, Abs format (unit mm)*
G04 Created by KiCad (PCBNEW 4.0.7) date 12/10/17 14:33:21*
G01G01*
G04 APERTURE LIST*
G04 APERTURE END LIST*
D128*
G04 next file*
G04 Gerber Fmt 4.6, Leading zero omitted, Abs format (unit mm)*
G04 Created by KiCad (PCBNEW 4.0.7) date 12/10/17 14:33:21*
G01G01*
G04 APERTURE LIST*
G04 APERTURE END LIST*
D129*
G04 next file*
G04 Gerber Fmt 4.6, Leading zero omitted, Abs format (unit mm)*
G04 Created by KiCad (PCBNEW 4.0.7) date 12/10/17 14:33:21*
G01G01*
G04 APERTURE LIST*
G04 APERTURE END LIST*
D130*
G04 next file*
G04 Gerber Fmt 4.6, Leading zero omitted, Abs format (unit mm)*
G04 Created by KiCad (PCBNEW 4.0.7) date 12/10/17 14:33:21*
G01G01*
G04 APERTURE LIST*
G04 APERTURE END LIST*
D131*
D132*
X0003935039Y0003433070D02*
X0003293307Y0003433070D01*
X0003293307Y0003433070D02*
X0003293307Y0003574803D01*
X0003293307Y0003574803D02*
X0003935039Y0003574803D01*
X0003935039Y0003574803D02*
X0003935039Y0003433070D01*
G04 next file*
G04 Gerber Fmt 4.6, Leading zero omitted, Abs format (unit mm)*
G04 Created by KiCad (PCBNEW 4.0.7) date 12/10/17 14:33:21*
G01G01*
G04 APERTURE LIST*
G04 APERTURE END LIST*
D133*
G04 next file*
G04 Gerber Fmt 4.6, Leading zero omitted, Abs format (unit mm)*
G04 Created by KiCad (PCBNEW 4.0.7) date 12/10/17 14:33:21*
G01G01*
G04 APERTURE LIST*
G04 APERTURE END LIST*
D134*
G04 next file*
G04 Gerber Fmt 4.6, Leading zero omitted, Abs format (unit mm)*
G04 Created by KiCad (PCBNEW 4.0.7) date 12/10/17 14:33:21*
G01G01*
G04 APERTURE LIST*
G04 APERTURE END LIST*
D135*
D136*
X0003174965Y0002924688D02*
X0003172154Y0002927501D01*
X0003169345Y0002933127D01*
X0003169351Y0002947188D01*
X0003172165Y0002952811D01*
X0003174979Y0002955622D01*
X0003180604Y0002958431D01*
X0003186229Y0002958429D01*
X0003194664Y0002955613D01*
X0003228395Y0002921853D01*
X0003228411Y0002958411D01*
X0003169364Y0002978121D02*
X0003169380Y0003014679D01*
X0003191869Y0002994984D01*
X0003191872Y0003003421D01*
X0003194687Y0003009044D01*
X0003197500Y0003011855D01*
X0003203126Y0003014665D01*
X0003217187Y0003014658D01*
X0003222810Y0003011844D01*
X0003225621Y0003009030D01*
X0003228430Y0003003405D01*
X0003228423Y0002986532D01*
X0003225608Y0002980909D01*
X0003222795Y0002978098D01*
X0003222822Y0003039965D02*
X0003225635Y0003042776D01*
X0003228446Y0003039963D01*
X0003225633Y0003037152D01*
X0003222822Y0003039965D01*
X0003228446Y0003039963D01*
X0003169408Y0003079359D02*
X0003169411Y0003084983D01*
X0003172225Y0003090606D01*
X0003175039Y0003093417D01*
X0003180664Y0003096227D01*
X0003191914Y0003099034D01*
X0003205975Y0003099028D01*
X0003217222Y0003096211D01*
X0003222845Y0003093396D01*
X0003225656Y0003090583D01*
X0003228466Y0003084957D01*
X0003228463Y0003079333D01*
X0003225649Y0003073710D01*
X0003222835Y0003070899D01*
X0003217210Y0003068089D01*
X0003205960Y0003065282D01*
X0003191899Y0003065288D01*
X0003180652Y0003068105D01*
X0003175029Y0003070920D01*
X0003172218Y0003073733D01*
X0003169408Y0003079359D01*
X0003169433Y0003135602D02*
X0003169435Y0003141226D01*
X0003172250Y0003146849D01*
X0003175063Y0003149660D01*
X0003180689Y0003152470D01*
X0003191938Y0003155277D01*
X0003205999Y0003155271D01*
X0003217247Y0003152454D01*
X0003222870Y0003149639D01*
X0003225681Y0003146826D01*
X0003228490Y0003141200D01*
X0003228488Y0003135576D01*
X0003225673Y0003129953D01*
X0003222860Y0003127142D01*
X0003217234Y0003124332D01*
X0003205985Y0003121525D01*
X0003191924Y0003121531D01*
X0003180676Y0003124348D01*
X0003175053Y0003127163D01*
X0003172242Y0003129976D01*
X0003169433Y0003135602D01*
X0003169457Y0003191845D02*
X0003169460Y0003197469D01*
X0003172274Y0003203092D01*
X0003175088Y0003205903D01*
X0003180713Y0003208713D01*
X0003191963Y0003211520D01*
X0003206024Y0003211514D01*
X0003217271Y0003208697D01*
X0003222894Y0003205882D01*
X0003225705Y0003203069D01*
X0003228515Y0003197443D01*
X0003228512Y0003191819D01*
X0003225698Y0003186196D01*
X0003222884Y0003183385D01*
X0003217259Y0003180575D01*
X0003206009Y0003177768D01*
X0003191948Y0003177774D01*
X0003180701Y0003180591D01*
X0003175078Y0003183406D01*
X0003172267Y0003186219D01*
X0003169457Y0003191845D01*
X0003228551Y0003281808D02*
X0003189181Y0003281825D01*
X0003194806Y0003281822D02*
X0003191995Y0003284636D01*
X0003189185Y0003290261D01*
X0003189189Y0003298698D01*
X0003192003Y0003304321D01*
X0003197629Y0003307130D01*
X0003228562Y0003307117D01*
X0003197629Y0003307130D02*
X0003192006Y0003309945D01*
X0003189196Y0003315570D01*
X0003189200Y0003324007D01*
X0003192014Y0003329630D01*
X0003197640Y0003332440D01*
X0003228573Y0003332426D01*
X0003228586Y0003360548D02*
X0003189216Y0003360565D01*
X0003194840Y0003360562D02*
X0003192029Y0003363376D01*
X0003189219Y0003369001D01*
X0003189223Y0003377438D01*
X0003192037Y0003383061D01*
X0003197663Y0003385870D01*
X0003228597Y0003385857D01*
X0003197663Y0003385870D02*
X0003192040Y0003388685D01*
X0003189230Y0003394311D01*
X0003189234Y0003402747D01*
X0003192048Y0003408370D01*
X0003197674Y0003411180D01*
X0003228608Y0003411166D01*
X0003255134Y0003622066D02*
X0003254740Y0002716554D01*
X0003299606Y0003622047D02*
X0003148834Y0003622112D01*
X0003299212Y0002716535D02*
X0003148441Y0002716600D01*
X0003254740Y0002716554D02*
X0003231672Y0002760915D01*
X0003254740Y0002716554D02*
X0003277847Y0002760895D01*
X0003255134Y0003622066D02*
X0003232027Y0003577726D01*
X0003255134Y0003622066D02*
X0003278202Y0003577705D01*
X0003403459Y0003684310D02*
X0003369713Y0003684310D01*
X0003386586Y0003684310D02*
X0003386586Y0003743365D01*
X0003380961Y0003734928D01*
X0003375337Y0003729304D01*
X0003369713Y0003726492D01*
X0003454077Y0003743365D02*
X0003442829Y0003743365D01*
X0003437204Y0003740553D01*
X0003434392Y0003737740D01*
X0003428768Y0003729304D01*
X0003425956Y0003718055D01*
X0003425956Y0003695558D01*
X0003428768Y0003689934D01*
X0003431580Y0003687122D01*
X0003437204Y0003684310D01*
X0003448453Y0003684310D01*
X0003454077Y0003687122D01*
X0003456889Y0003689934D01*
X0003459702Y0003695558D01*
X0003459702Y0003709619D01*
X0003456889Y0003715243D01*
X0003454077Y0003718055D01*
X0003448453Y0003720867D01*
X0003437204Y0003720867D01*
X0003431580Y0003718055D01*
X0003428768Y0003715243D01*
X0003425956Y0003709619D01*
X0003485011Y0003689934D02*
X0003487823Y0003687122D01*
X0003485011Y0003684310D01*
X0003482199Y0003687122D01*
X0003485011Y0003689934D01*
X0003485011Y0003684310D01*
X0003524381Y0003743365D02*
X0003530005Y0003743365D01*
X0003535630Y0003740553D01*
X0003538442Y0003737740D01*
X0003541254Y0003732116D01*
X0003544066Y0003720867D01*
X0003544066Y0003706807D01*
X0003541254Y0003695558D01*
X0003538442Y0003689934D01*
X0003535630Y0003687122D01*
X0003530005Y0003684310D01*
X0003524381Y0003684310D01*
X0003518757Y0003687122D01*
X0003515945Y0003689934D01*
X0003513132Y0003695558D01*
X0003510320Y0003706807D01*
X0003510320Y0003720867D01*
X0003513132Y0003732116D01*
X0003515945Y0003737740D01*
X0003518757Y0003740553D01*
X0003524381Y0003743365D01*
X0003600309Y0003684310D02*
X0003566563Y0003684310D01*
X0003583436Y0003684310D02*
X0003583436Y0003743365D01*
X0003577812Y0003734928D01*
X0003572187Y0003729304D01*
X0003566563Y0003726492D01*
X0003636867Y0003743365D02*
X0003642491Y0003743365D01*
X0003648115Y0003740553D01*
X0003650928Y0003737740D01*
X0003653740Y0003732116D01*
X0003656552Y0003720867D01*
X0003656552Y0003706807D01*
X0003653740Y0003695558D01*
X0003650928Y0003689934D01*
X0003648115Y0003687122D01*
X0003642491Y0003684310D01*
X0003636867Y0003684310D01*
X0003631243Y0003687122D01*
X0003628430Y0003689934D01*
X0003625618Y0003695558D01*
X0003622806Y0003706807D01*
X0003622806Y0003720867D01*
X0003625618Y0003732116D01*
X0003628430Y0003737740D01*
X0003631243Y0003740553D01*
X0003636867Y0003743365D01*
X0003726856Y0003684310D02*
X0003726856Y0003723680D01*
X0003726856Y0003718055D02*
X0003729668Y0003720867D01*
X0003735292Y0003723680D01*
X0003743728Y0003723680D01*
X0003749353Y0003720867D01*
X0003752165Y0003715243D01*
X0003752165Y0003684310D01*
X0003752165Y0003715243D02*
X0003754977Y0003720867D01*
X0003760601Y0003723680D01*
X0003769038Y0003723680D01*
X0003774662Y0003720867D01*
X0003777474Y0003715243D01*
X0003777474Y0003684310D01*
X0003805596Y0003684310D02*
X0003805596Y0003723680D01*
X0003805596Y0003718055D02*
X0003808408Y0003720867D01*
X0003814032Y0003723680D01*
X0003822469Y0003723680D01*
X0003828093Y0003720867D01*
X0003830905Y0003715243D01*
X0003830905Y0003684310D01*
X0003830905Y0003715243D02*
X0003833717Y0003720867D01*
X0003839342Y0003723680D01*
X0003847778Y0003723680D01*
X0003853402Y0003720867D01*
X0003856214Y0003715243D01*
X0003856214Y0003684310D01*
X0003299212Y0003657875D02*
X0003929527Y0003657875D01*
X0003299212Y0003622047D02*
X0003299212Y0003764175D01*
X0003929527Y0003622047D02*
X0003929527Y0003764175D01*
X0003929527Y0003657875D02*
X0003885177Y0003634788D01*
X0003929527Y0003657875D02*
X0003885177Y0003680963D01*
X0003299212Y0003657875D02*
X0003343563Y0003634788D01*
X0003299212Y0003657875D02*
X0003343563Y0003680963D01*
G04 next file*
G04 Gerber Fmt 4.6, Leading zero omitted, Abs format (unit mm)*
G04 Created by KiCad (PCBNEW 4.0.7) date 12/10/17 14:33:21*
G01G01*
G04 APERTURE LIST*
G04 APERTURE END LIST*
D137*
G04 next file*
G04 Gerber Fmt 4.6, Leading zero omitted, Abs format (unit mm)*
G04 Created by KiCad (PCBNEW 4.0.7) date 12/10/17 14:33:21*
G01G01*
G04 APERTURE LIST*
G04 APERTURE END LIST*
D138*
G04 next file*
G04 Gerber Fmt 4.6, Leading zero omitted, Abs format (unit mm)*
G04 Created by KiCad (PCBNEW 4.0.7) date 12/10/17 14:33:21*
G01G01*
G04 APERTURE LIST*
G04 APERTURE END LIST*
D139*
M02*