%MOIN*%
%OFA0B0*%
%FSLAX46Y46*%
%IPPOS*%
%LPD*%
%ADD10C,0.0039370078740157488*%
%ADD11R,0.01968503937007874X0.035433070866141732*%
%ADD12R,0.031496062992125991X0.029527559055118113*%
%ADD13R,0.029527559055118113X0.031496062992125991*%
%ADD14R,0.035433070866141732X0.01968503937007874*%
%ADD15R,0.041732283464566935X0.025590551181102365*%
%ADD26C,0.0039370078740157488*%
%ADD27R,0.01968503937007874X0.035433070866141732*%
%ADD28R,0.031496062992125991X0.029527559055118113*%
%ADD29R,0.029527559055118113X0.031496062992125991*%
%ADD30R,0.035433070866141732X0.01968503937007874*%
%ADD31R,0.041732283464566935X0.025590551181102365*%
%ADD32C,0.0039370078740157488*%
%ADD33R,0.01968503937007874X0.035433070866141732*%
%ADD34R,0.031496062992125991X0.029527559055118113*%
%ADD35R,0.029527559055118113X0.031496062992125991*%
%ADD36R,0.035433070866141732X0.01968503937007874*%
%ADD37R,0.041732283464566935X0.025590551181102365*%
%ADD38C,0.0039370078740157488*%
%ADD39R,0.01968503937007874X0.035433070866141732*%
%ADD40R,0.031496062992125991X0.029527559055118113*%
%ADD41R,0.029527559055118113X0.031496062992125991*%
%ADD42R,0.035433070866141732X0.01968503937007874*%
%ADD43R,0.041732283464566935X0.025590551181102365*%
%ADD44C,0.0039370078740157488*%
%ADD45R,0.035433070866141732X0.01968503937007874*%
%ADD46R,0.029527559055118113X0.031496062992125991*%
%ADD47R,0.041732283464566935X0.025590551181102365*%
%ADD48R,0.01968503937007874X0.035433070866141732*%
%ADD49R,0.035433070866141732X0.031496062992125991*%
%ADD50R,0.031496062992125991X0.029527559055118113*%
%ADD51C,0.0039370078740157488*%
%ADD52R,0.035433070866141732X0.01968503937007874*%
%ADD53R,0.029527559055118113X0.031496062992125991*%
%ADD54R,0.041732283464566935X0.025590551181102365*%
%ADD55R,0.01968503937007874X0.035433070866141732*%
%ADD56R,0.035433070866141732X0.031496062992125991*%
%ADD57R,0.031496062992125991X0.029527559055118113*%
%ADD58C,0.0039370078740157488*%
%ADD59R,0.035433070866141732X0.01968503937007874*%
%ADD60R,0.029527559055118113X0.031496062992125991*%
%ADD61R,0.041732283464566935X0.025590551181102365*%
%ADD62R,0.01968503937007874X0.035433070866141732*%
%ADD63R,0.035433070866141732X0.031496062992125991*%
%ADD64R,0.031496062992125991X0.029527559055118113*%
%ADD65C,0.0039370078740157488*%
%ADD66R,0.035433070866141732X0.01968503937007874*%
%ADD67R,0.029527559055118113X0.031496062992125991*%
%ADD68R,0.041732283464566935X0.025590551181102365*%
%ADD69R,0.01968503937007874X0.035433070866141732*%
%ADD70R,0.035433070866141732X0.031496062992125991*%
%ADD71R,0.031496062992125991X0.029527559055118113*%
%ADD72C,0.0039370078740157488*%
%ADD73C,0.0039370078740157488*%
%ADD74C,0.0039370078740157488*%
%ADD75C,0.0039370078740157488*%
%ADD76C,0.0039370078740157488*%
%ADD77C,0.0039370078740157488*%
G01G01*
D10*
D11*
X0000000000Y0000905511D02*
X0000088582Y0000253936D03*
X0000147637Y0000253936D03*
D12*
X0001236299Y0000422755D03*
X0001295354Y0000422755D03*
D13*
X0001359921Y0000362519D03*
X0001359921Y0000303464D03*
X0001775669Y0000301496D03*
X0001775669Y0000360551D03*
D12*
X0000255196Y0000650708D03*
X0000196141Y0000650708D03*
X0000628425Y0000648346D03*
X0000687480Y0000648346D03*
D14*
X0000665826Y0000364094D03*
X0000665826Y0000305039D03*
D13*
X0000731968Y0000305433D03*
X0000731968Y0000364488D03*
X0000796535Y0000364094D03*
X0000796535Y0000305039D03*
D15*
X0000866220Y0000299921D03*
X0000866220Y0000337322D03*
X0000866220Y0000374724D03*
X0000952834Y0000374724D03*
X0000952834Y0000299921D03*
D13*
X0001034724Y0000365275D03*
X0001034724Y0000306220D03*
X0001103228Y0000364881D03*
X0001103228Y0000305826D03*
D14*
X0001181574Y0000364094D03*
X0001181574Y0000305039D03*
X0001582362Y0000361732D03*
X0001582362Y0000302677D03*
D13*
X0001710708Y0000302283D03*
X0001710708Y0000361338D03*
D14*
X0001623622Y0000562992D03*
X0001623622Y0000503937D03*
D13*
X0001476456Y0000508976D03*
X0001476456Y0000568031D03*
X0001401653Y0000568818D03*
X0001401653Y0000509763D03*
X0001333543Y0000568818D03*
X0001333543Y0000509763D03*
D14*
X0001184330Y0000508188D03*
X0001184330Y0000567244D03*
D13*
X0001093385Y0000509763D03*
X0001093385Y0000568818D03*
X0000810708Y0000510157D03*
X0000810708Y0000569212D03*
X0001019370Y0000510157D03*
X0001019370Y0000569212D03*
X0000878818Y0000509370D03*
X0000878818Y0000568425D03*
X0000952834Y0000510551D03*
X0000952834Y0000569606D03*
D14*
X0000739055Y0000570000D03*
X0000739055Y0000510944D03*
D11*
X0000516535Y0000649212D03*
X0000457480Y0000649212D03*
D15*
X0000546535Y0000572362D03*
X0000546535Y0000534960D03*
X0000546535Y0000497559D03*
X0000459921Y0000497559D03*
X0000459921Y0000572362D03*
X0000459921Y0000534960D03*
D11*
X0000372125Y0000505826D03*
X0000313070Y0000505826D03*
X0000372125Y0000581023D03*
X0000313070Y0000581023D03*
D14*
X0000085118Y0000484566D03*
X0000085118Y0000425511D03*
D13*
X0001549685Y0000508976D03*
X0001549685Y0000568031D03*
G04 next file*
G04 Gerber Fmt 4.6, Leading zero omitted, Abs format (unit mm)*
G04 Created by KiCad (PCBNEW 4.0.7) date 01/16/18 14:15:25*
G01G01*
G04 APERTURE LIST*
G04 APERTURE END LIST*
D26*
D27*
X0000000000Y0001811023D02*
X0000088582Y0001159448D03*
X0000147637Y0001159448D03*
D28*
X0001236299Y0001328267D03*
X0001295354Y0001328267D03*
D29*
X0001359921Y0001268031D03*
X0001359921Y0001208976D03*
X0001775669Y0001207007D03*
X0001775669Y0001266062D03*
D28*
X0000255196Y0001556220D03*
X0000196141Y0001556220D03*
X0000628425Y0001553858D03*
X0000687480Y0001553858D03*
D30*
X0000665826Y0001269606D03*
X0000665826Y0001210551D03*
D29*
X0000731968Y0001210944D03*
X0000731968Y0001269999D03*
X0000796535Y0001269606D03*
X0000796535Y0001210551D03*
D31*
X0000866220Y0001205433D03*
X0000866220Y0001242834D03*
X0000866220Y0001280236D03*
X0000952834Y0001280236D03*
X0000952834Y0001205433D03*
D29*
X0001034724Y0001270787D03*
X0001034724Y0001211732D03*
X0001103228Y0001270393D03*
X0001103228Y0001211338D03*
D30*
X0001181574Y0001269606D03*
X0001181574Y0001210551D03*
X0001582362Y0001267244D03*
X0001582362Y0001208188D03*
D29*
X0001710708Y0001207795D03*
X0001710708Y0001266850D03*
D30*
X0001623622Y0001468503D03*
X0001623622Y0001409448D03*
D29*
X0001476456Y0001414488D03*
X0001476456Y0001473543D03*
X0001401653Y0001474330D03*
X0001401653Y0001415275D03*
X0001333543Y0001474330D03*
X0001333543Y0001415275D03*
D30*
X0001184330Y0001413700D03*
X0001184330Y0001472755D03*
D29*
X0001093385Y0001415275D03*
X0001093385Y0001474330D03*
X0000810708Y0001415669D03*
X0000810708Y0001474724D03*
X0001019370Y0001415669D03*
X0001019370Y0001474724D03*
X0000878818Y0001414881D03*
X0000878818Y0001473937D03*
X0000952834Y0001416062D03*
X0000952834Y0001475118D03*
D30*
X0000739055Y0001475511D03*
X0000739055Y0001416456D03*
D27*
X0000516535Y0001554724D03*
X0000457480Y0001554724D03*
D31*
X0000546535Y0001477874D03*
X0000546535Y0001440472D03*
X0000546535Y0001403070D03*
X0000459921Y0001403070D03*
X0000459921Y0001477874D03*
X0000459921Y0001440472D03*
D27*
X0000372125Y0001411338D03*
X0000313070Y0001411338D03*
X0000372125Y0001486535D03*
X0000313070Y0001486535D03*
D30*
X0000085118Y0001390078D03*
X0000085118Y0001331023D03*
D29*
X0001549685Y0001414488D03*
X0001549685Y0001473543D03*
G04 next file*
G04 Gerber Fmt 4.6, Leading zero omitted, Abs format (unit mm)*
G04 Created by KiCad (PCBNEW 4.0.7) date 01/16/18 14:15:25*
G01G01*
G04 APERTURE LIST*
G04 APERTURE END LIST*
D32*
D33*
X0000000000Y0002716535D02*
X0000088582Y0002064960D03*
X0000147637Y0002064960D03*
D34*
X0001236299Y0002233779D03*
X0001295354Y0002233779D03*
D35*
X0001359921Y0002173543D03*
X0001359921Y0002114488D03*
X0001775669Y0002112519D03*
X0001775669Y0002171574D03*
D34*
X0000255196Y0002461732D03*
X0000196141Y0002461732D03*
X0000628425Y0002459370D03*
X0000687480Y0002459370D03*
D36*
X0000665826Y0002175118D03*
X0000665826Y0002116062D03*
D35*
X0000731968Y0002116456D03*
X0000731968Y0002175511D03*
X0000796535Y0002175118D03*
X0000796535Y0002116062D03*
D37*
X0000866220Y0002110944D03*
X0000866220Y0002148346D03*
X0000866220Y0002185748D03*
X0000952834Y0002185748D03*
X0000952834Y0002110944D03*
D35*
X0001034724Y0002176299D03*
X0001034724Y0002117244D03*
X0001103228Y0002175905D03*
X0001103228Y0002116850D03*
D36*
X0001181574Y0002175118D03*
X0001181574Y0002116062D03*
X0001582362Y0002172755D03*
X0001582362Y0002113700D03*
D35*
X0001710708Y0002113307D03*
X0001710708Y0002172362D03*
D36*
X0001623622Y0002374015D03*
X0001623622Y0002314960D03*
D35*
X0001476456Y0002320000D03*
X0001476456Y0002379055D03*
X0001401653Y0002379842D03*
X0001401653Y0002320787D03*
X0001333543Y0002379842D03*
X0001333543Y0002320787D03*
D36*
X0001184330Y0002319212D03*
X0001184330Y0002378267D03*
D35*
X0001093385Y0002320787D03*
X0001093385Y0002379842D03*
X0000810708Y0002321181D03*
X0000810708Y0002380236D03*
X0001019370Y0002321181D03*
X0001019370Y0002380236D03*
X0000878818Y0002320393D03*
X0000878818Y0002379448D03*
X0000952834Y0002321574D03*
X0000952834Y0002380629D03*
D36*
X0000739055Y0002381023D03*
X0000739055Y0002321968D03*
D33*
X0000516535Y0002460236D03*
X0000457480Y0002460236D03*
D37*
X0000546535Y0002383385D03*
X0000546535Y0002345984D03*
X0000546535Y0002308582D03*
X0000459921Y0002308582D03*
X0000459921Y0002383385D03*
X0000459921Y0002345984D03*
D33*
X0000372125Y0002316850D03*
X0000313070Y0002316850D03*
X0000372125Y0002392047D03*
X0000313070Y0002392047D03*
D36*
X0000085118Y0002295590D03*
X0000085118Y0002236535D03*
D35*
X0001549685Y0002320000D03*
X0001549685Y0002379055D03*
G04 next file*
G04 Gerber Fmt 4.6, Leading zero omitted, Abs format (unit mm)*
G04 Created by KiCad (PCBNEW 4.0.7) date 01/16/18 14:15:25*
G01G01*
G04 APERTURE LIST*
G04 APERTURE END LIST*
D38*
D39*
X0000000000Y0003622047D02*
X0000088582Y0002970472D03*
X0000147637Y0002970472D03*
D40*
X0001236299Y0003139291D03*
X0001295354Y0003139291D03*
D41*
X0001359921Y0003079055D03*
X0001359921Y0003020000D03*
X0001775669Y0003018031D03*
X0001775669Y0003077086D03*
D40*
X0000255196Y0003367244D03*
X0000196141Y0003367244D03*
X0000628425Y0003364881D03*
X0000687480Y0003364881D03*
D42*
X0000665826Y0003080629D03*
X0000665826Y0003021574D03*
D41*
X0000731968Y0003021968D03*
X0000731968Y0003081023D03*
X0000796535Y0003080629D03*
X0000796535Y0003021574D03*
D43*
X0000866220Y0003016456D03*
X0000866220Y0003053858D03*
X0000866220Y0003091259D03*
X0000952834Y0003091259D03*
X0000952834Y0003016456D03*
D41*
X0001034724Y0003081811D03*
X0001034724Y0003022755D03*
X0001103228Y0003081417D03*
X0001103228Y0003022362D03*
D42*
X0001181574Y0003080629D03*
X0001181574Y0003021574D03*
X0001582362Y0003078267D03*
X0001582362Y0003019212D03*
D41*
X0001710708Y0003018818D03*
X0001710708Y0003077874D03*
D42*
X0001623622Y0003279527D03*
X0001623622Y0003220472D03*
D41*
X0001476456Y0003225511D03*
X0001476456Y0003284566D03*
X0001401653Y0003285354D03*
X0001401653Y0003226299D03*
X0001333543Y0003285354D03*
X0001333543Y0003226299D03*
D42*
X0001184330Y0003224724D03*
X0001184330Y0003283779D03*
D41*
X0001093385Y0003226299D03*
X0001093385Y0003285354D03*
X0000810708Y0003226692D03*
X0000810708Y0003285748D03*
X0001019370Y0003226692D03*
X0001019370Y0003285748D03*
X0000878818Y0003225905D03*
X0000878818Y0003284960D03*
X0000952834Y0003227086D03*
X0000952834Y0003286141D03*
D42*
X0000739055Y0003286535D03*
X0000739055Y0003227480D03*
D39*
X0000516535Y0003365748D03*
X0000457480Y0003365748D03*
D43*
X0000546535Y0003288897D03*
X0000546535Y0003251496D03*
X0000546535Y0003214094D03*
X0000459921Y0003214094D03*
X0000459921Y0003288897D03*
X0000459921Y0003251496D03*
D39*
X0000372125Y0003222362D03*
X0000313070Y0003222362D03*
X0000372125Y0003297559D03*
X0000313070Y0003297559D03*
D42*
X0000085118Y0003201102D03*
X0000085118Y0003142047D03*
D41*
X0001549685Y0003225511D03*
X0001549685Y0003284566D03*
G04 next file*
G04 Gerber Fmt 4.6, Leading zero omitted, Abs format (unit mm)*
G04 Created by KiCad (PCBNEW 4.0.7) date 02/10/18 00:31:40*
G01G01*
G04 APERTURE LIST*
G04 APERTURE END LIST*
D44*
D45*
X0002047244Y0000905511D02*
X0002612795Y0000319291D03*
X0002612795Y0000260236D03*
X0002944881Y0000267322D03*
X0002944881Y0000326377D03*
X0002835433Y0000322047D03*
X0002835433Y0000262992D03*
X0002715354Y0000643700D03*
X0002715354Y0000702755D03*
X0002678015Y0000392125D03*
X0002678015Y0000451181D03*
D46*
X0002740944Y0000205905D03*
X0002740944Y0000146850D03*
X0002967015Y0000392125D03*
X0002967015Y0000451181D03*
X0002850393Y0000643700D03*
X0002850393Y0000702755D03*
X0002606015Y0000389787D03*
X0002606015Y0000448842D03*
D45*
X0002392519Y0000137795D03*
X0002392519Y0000196850D03*
X0003058303Y0000191096D03*
X0003058303Y0000132041D03*
X0002973370Y0000130826D03*
X0002973370Y0000189881D03*
D47*
X0002227165Y0000150787D03*
X0002227165Y0000188188D03*
X0002227165Y0000225590D03*
X0002313779Y0000225590D03*
X0002313779Y0000150787D03*
X0002313779Y0000188188D03*
D45*
X0002783070Y0000702755D03*
X0002783070Y0000643700D03*
X0002746015Y0000451181D03*
X0002746015Y0000392125D03*
X0002811015Y0000392125D03*
X0002811015Y0000451181D03*
X0002902755Y0000451181D03*
X0002902755Y0000392125D03*
X0002387251Y0000794748D03*
X0002387251Y0000735692D03*
X0002644881Y0000705511D03*
X0002644881Y0000646456D03*
X0002255251Y0000735692D03*
X0002255251Y0000794748D03*
X0002321251Y0000794748D03*
X0002321251Y0000735692D03*
X0002129133Y0000484251D03*
X0002129133Y0000425196D03*
D48*
X0002145669Y0000071850D03*
X0002086614Y0000071850D03*
X0002145669Y0000220472D03*
X0002086614Y0000220472D03*
X0002145669Y0000149606D03*
X0002086614Y0000149606D03*
D45*
X0002612795Y0000208251D03*
X0002612795Y0000149196D03*
X0002675795Y0000208251D03*
X0002675795Y0000149196D03*
X0002550795Y0000207251D03*
X0002550795Y0000148196D03*
D49*
X0002185039Y0000795275D03*
X0002185039Y0000720472D03*
X0002106299Y0000757874D03*
D46*
X0002538976Y0000389370D03*
X0002538976Y0000448425D03*
D50*
X0002397346Y0000675685D03*
X0002338291Y0000675685D03*
D46*
X0002484645Y0000448818D03*
X0002484645Y0000389763D03*
X0002372047Y0000389370D03*
X0002372047Y0000448425D03*
X0002484795Y0000149196D03*
X0002484795Y0000208251D03*
X0002804724Y0000205905D03*
X0002804724Y0000146850D03*
D50*
X0002397346Y0000612685D03*
X0002338291Y0000612685D03*
D47*
X0002475590Y0000611023D03*
X0002475590Y0000648425D03*
X0002475590Y0000685826D03*
X0002562204Y0000685826D03*
X0002562204Y0000611023D03*
G04 next file*
G04 Gerber Fmt 4.6, Leading zero omitted, Abs format (unit mm)*
G04 Created by KiCad (PCBNEW 4.0.7) date 02/10/18 00:31:40*
G01G01*
G04 APERTURE LIST*
G04 APERTURE END LIST*
D51*
D52*
X0002047244Y0001811023D02*
X0002612795Y0001224803D03*
X0002612795Y0001165748D03*
X0002944881Y0001172834D03*
X0002944881Y0001231889D03*
X0002835433Y0001227559D03*
X0002835433Y0001168503D03*
X0002715354Y0001549212D03*
X0002715354Y0001608267D03*
X0002678015Y0001297637D03*
X0002678015Y0001356692D03*
D53*
X0002740944Y0001111417D03*
X0002740944Y0001052362D03*
X0002967015Y0001297637D03*
X0002967015Y0001356692D03*
X0002850393Y0001549212D03*
X0002850393Y0001608267D03*
X0002606015Y0001295299D03*
X0002606015Y0001354354D03*
D52*
X0002392519Y0001043307D03*
X0002392519Y0001102362D03*
X0003058303Y0001096608D03*
X0003058303Y0001037553D03*
X0002973370Y0001036338D03*
X0002973370Y0001095393D03*
D54*
X0002227165Y0001056299D03*
X0002227165Y0001093700D03*
X0002227165Y0001131102D03*
X0002313779Y0001131102D03*
X0002313779Y0001056299D03*
X0002313779Y0001093700D03*
D52*
X0002783070Y0001608267D03*
X0002783070Y0001549212D03*
X0002746015Y0001356692D03*
X0002746015Y0001297637D03*
X0002811015Y0001297637D03*
X0002811015Y0001356692D03*
X0002902755Y0001356692D03*
X0002902755Y0001297637D03*
X0002387251Y0001700259D03*
X0002387251Y0001641204D03*
X0002644881Y0001611023D03*
X0002644881Y0001551968D03*
X0002255251Y0001641204D03*
X0002255251Y0001700259D03*
X0002321251Y0001700259D03*
X0002321251Y0001641204D03*
X0002129133Y0001389763D03*
X0002129133Y0001330708D03*
D55*
X0002145669Y0000977362D03*
X0002086614Y0000977362D03*
X0002145669Y0001125984D03*
X0002086614Y0001125984D03*
X0002145669Y0001055118D03*
X0002086614Y0001055118D03*
D52*
X0002612795Y0001113763D03*
X0002612795Y0001054708D03*
X0002675795Y0001113763D03*
X0002675795Y0001054708D03*
X0002550795Y0001112763D03*
X0002550795Y0001053708D03*
D56*
X0002185039Y0001700787D03*
X0002185039Y0001625984D03*
X0002106299Y0001663385D03*
D53*
X0002538976Y0001294881D03*
X0002538976Y0001353937D03*
D57*
X0002397346Y0001581196D03*
X0002338291Y0001581196D03*
D53*
X0002484645Y0001354330D03*
X0002484645Y0001295275D03*
X0002372047Y0001294881D03*
X0002372047Y0001353937D03*
X0002484795Y0001054708D03*
X0002484795Y0001113763D03*
X0002804724Y0001111417D03*
X0002804724Y0001052362D03*
D57*
X0002397346Y0001518196D03*
X0002338291Y0001518196D03*
D54*
X0002475590Y0001516535D03*
X0002475590Y0001553937D03*
X0002475590Y0001591338D03*
X0002562204Y0001591338D03*
X0002562204Y0001516535D03*
G04 next file*
G04 Gerber Fmt 4.6, Leading zero omitted, Abs format (unit mm)*
G04 Created by KiCad (PCBNEW 4.0.7) date 02/10/18 00:31:40*
G01G01*
G04 APERTURE LIST*
G04 APERTURE END LIST*
D58*
D59*
X0002047244Y0003622047D02*
X0002612795Y0003035826D03*
X0002612795Y0002976771D03*
X0002944881Y0002983858D03*
X0002944881Y0003042913D03*
X0002835433Y0003038582D03*
X0002835433Y0002979527D03*
X0002715354Y0003360236D03*
X0002715354Y0003419291D03*
X0002678015Y0003108661D03*
X0002678015Y0003167716D03*
D60*
X0002740944Y0002922440D03*
X0002740944Y0002863385D03*
X0002967015Y0003108661D03*
X0002967015Y0003167716D03*
X0002850393Y0003360236D03*
X0002850393Y0003419291D03*
X0002606015Y0003106322D03*
X0002606015Y0003165377D03*
D59*
X0002392519Y0002854330D03*
X0002392519Y0002913385D03*
X0003058303Y0002907631D03*
X0003058303Y0002848576D03*
X0002973370Y0002847362D03*
X0002973370Y0002906417D03*
D61*
X0002227165Y0002867322D03*
X0002227165Y0002904724D03*
X0002227165Y0002942125D03*
X0002313779Y0002942125D03*
X0002313779Y0002867322D03*
X0002313779Y0002904724D03*
D59*
X0002783070Y0003419291D03*
X0002783070Y0003360236D03*
X0002746015Y0003167716D03*
X0002746015Y0003108661D03*
X0002811015Y0003108661D03*
X0002811015Y0003167716D03*
X0002902755Y0003167716D03*
X0002902755Y0003108661D03*
X0002387251Y0003511283D03*
X0002387251Y0003452228D03*
X0002644881Y0003422047D03*
X0002644881Y0003362992D03*
X0002255251Y0003452228D03*
X0002255251Y0003511283D03*
X0002321251Y0003511283D03*
X0002321251Y0003452228D03*
X0002129133Y0003200787D03*
X0002129133Y0003141732D03*
D62*
X0002145669Y0002788385D03*
X0002086614Y0002788385D03*
X0002145669Y0002937007D03*
X0002086614Y0002937007D03*
X0002145669Y0002866141D03*
X0002086614Y0002866141D03*
D59*
X0002612795Y0002924787D03*
X0002612795Y0002865732D03*
X0002675795Y0002924787D03*
X0002675795Y0002865732D03*
X0002550795Y0002923787D03*
X0002550795Y0002864732D03*
D63*
X0002185039Y0003511811D03*
X0002185039Y0003437007D03*
X0002106299Y0003474409D03*
D60*
X0002538976Y0003105905D03*
X0002538976Y0003164960D03*
D64*
X0002397346Y0003392220D03*
X0002338291Y0003392220D03*
D60*
X0002484645Y0003165354D03*
X0002484645Y0003106299D03*
X0002372047Y0003105905D03*
X0002372047Y0003164960D03*
X0002484795Y0002865732D03*
X0002484795Y0002924787D03*
X0002804724Y0002922440D03*
X0002804724Y0002863385D03*
D64*
X0002397346Y0003329220D03*
X0002338291Y0003329220D03*
D61*
X0002475590Y0003327559D03*
X0002475590Y0003364960D03*
X0002475590Y0003402362D03*
X0002562204Y0003402362D03*
X0002562204Y0003327559D03*
G04 next file*
G04 Gerber Fmt 4.6, Leading zero omitted, Abs format (unit mm)*
G04 Created by KiCad (PCBNEW 4.0.7) date 02/10/18 00:31:40*
G01G01*
G04 APERTURE LIST*
G04 APERTURE END LIST*
D65*
D66*
X0002047244Y0002716535D02*
X0002612795Y0002130314D03*
X0002612795Y0002071259D03*
X0002944881Y0002078346D03*
X0002944881Y0002137401D03*
X0002835433Y0002133070D03*
X0002835433Y0002074015D03*
X0002715354Y0002454724D03*
X0002715354Y0002513779D03*
X0002678015Y0002203149D03*
X0002678015Y0002262204D03*
D67*
X0002740944Y0002016929D03*
X0002740944Y0001957874D03*
X0002967015Y0002203149D03*
X0002967015Y0002262204D03*
X0002850393Y0002454724D03*
X0002850393Y0002513779D03*
X0002606015Y0002200811D03*
X0002606015Y0002259866D03*
D66*
X0002392519Y0001948818D03*
X0002392519Y0002007874D03*
X0003058303Y0002002120D03*
X0003058303Y0001943064D03*
X0002973370Y0001941850D03*
X0002973370Y0002000905D03*
D68*
X0002227165Y0001961811D03*
X0002227165Y0001999212D03*
X0002227165Y0002036614D03*
X0002313779Y0002036614D03*
X0002313779Y0001961811D03*
X0002313779Y0001999212D03*
D66*
X0002783070Y0002513779D03*
X0002783070Y0002454724D03*
X0002746015Y0002262204D03*
X0002746015Y0002203149D03*
X0002811015Y0002203149D03*
X0002811015Y0002262204D03*
X0002902755Y0002262204D03*
X0002902755Y0002203149D03*
X0002387251Y0002605771D03*
X0002387251Y0002546716D03*
X0002644881Y0002516535D03*
X0002644881Y0002457480D03*
X0002255251Y0002546716D03*
X0002255251Y0002605771D03*
X0002321251Y0002605771D03*
X0002321251Y0002546716D03*
X0002129133Y0002295275D03*
X0002129133Y0002236220D03*
D69*
X0002145669Y0001882874D03*
X0002086614Y0001882874D03*
X0002145669Y0002031496D03*
X0002086614Y0002031496D03*
X0002145669Y0001960629D03*
X0002086614Y0001960629D03*
D66*
X0002612795Y0002019275D03*
X0002612795Y0001960220D03*
X0002675795Y0002019275D03*
X0002675795Y0001960220D03*
X0002550795Y0002018275D03*
X0002550795Y0001959220D03*
D70*
X0002185039Y0002606299D03*
X0002185039Y0002531496D03*
X0002106299Y0002568897D03*
D67*
X0002538976Y0002200393D03*
X0002538976Y0002259448D03*
D71*
X0002397346Y0002486708D03*
X0002338291Y0002486708D03*
D67*
X0002484645Y0002259842D03*
X0002484645Y0002200787D03*
X0002372047Y0002200393D03*
X0002372047Y0002259448D03*
X0002484795Y0001960220D03*
X0002484795Y0002019275D03*
X0002804724Y0002016929D03*
X0002804724Y0001957874D03*
D71*
X0002397346Y0002423708D03*
X0002338291Y0002423708D03*
D68*
X0002475590Y0002422047D03*
X0002475590Y0002459448D03*
X0002475590Y0002496850D03*
X0002562204Y0002496850D03*
X0002562204Y0002422047D03*
G04 next file*
G04 Gerber Fmt 4.6, Leading zero omitted, Abs format (unit mm)*
G04 Created by KiCad (PCBNEW 4.0.7) date 12/02/17 01:49:37*
G01G01*
G04 APERTURE LIST*
G04 APERTURE END LIST*
D72*
G04 next file*
G04 Gerber Fmt 4.6, Leading zero omitted, Abs format (unit mm)*
G04 Created by KiCad (PCBNEW 4.0.7) date 12/10/17 14:33:21*
G01G01*
G04 APERTURE LIST*
G04 APERTURE END LIST*
D73*
G04 next file*
G04 Gerber Fmt 4.6, Leading zero omitted, Abs format (unit mm)*
G04 Created by KiCad (PCBNEW 4.0.7) date 12/10/17 14:33:21*
G01G01*
G04 APERTURE LIST*
G04 APERTURE END LIST*
D74*
G04 next file*
G04 Gerber Fmt 4.6, Leading zero omitted, Abs format (unit mm)*
G04 Created by KiCad (PCBNEW 4.0.7) date 12/10/17 14:33:21*
G01G01*
G04 APERTURE LIST*
G04 APERTURE END LIST*
D75*
G04 next file*
G04 Gerber Fmt 4.6, Leading zero omitted, Abs format (unit mm)*
G04 Created by KiCad (PCBNEW 4.0.7) date 12/10/17 14:33:21*
G01G01*
G04 APERTURE LIST*
G04 APERTURE END LIST*
D76*
G04 next file*
G04 Gerber Fmt 4.6, Leading zero omitted, Abs format (unit mm)*
G04 Created by KiCad (PCBNEW 4.0.7) date 12/02/17 19:07:17*
G01G01*
G04 APERTURE LIST*
G04 APERTURE END LIST*
D77*
M02*